<?xml version="1.0" encoding="utf-8"?>
<!-- Generator: Adobe Illustrator 24.1.2, SVG Export Plug-In . SVG Version: 6.00 Build 0)  -->
<svg version="1.1" id="Capa_1" xmlns="http://www.w3.org/2000/svg" xmlns:xlink="http://www.w3.org/1999/xlink" x="0px" y="0px"
	 viewBox="0 0 24 24" style="enable-background:new 0 0 24 24;" xml:space="preserve">
<style type="text/css">
	.st0{fill:none;}
	.st1{fill:#4C4C4C;}
</style>
<path class="st0" d="M0,0"/>
<g>
	<path class="st1" d="M1.7,21.8c0.4-1.5,0.8-2.8,1.1-4.2c0.1-0.7,0.1-1.4-0.2-2C1,11.6,1.8,7.1,4.9,4.1c3.1-3,7.6-3.8,11.6-1.9
		c4.7,2.2,7,8,5.1,12.8C19.5,20.2,14,22.9,9,21.1c-1.5-0.6-2.9-0.6-4.4-0.1C3.8,21.3,2.9,21.5,1.7,21.8z M4.2,19.4
		c0.9-0.2,1.6-0.5,2.3-0.5C7,18.8,7.7,18.8,8.2,19c5.6,2.7,12-1,12.3-7.2c0.2-3.5-1.9-6.8-5.1-8.2c-3.2-1.4-7-0.6-9.4,1.9
		C3.5,8,2.8,12,4.3,14.9c0.5,1,0.7,2,0.3,3C4.5,18.3,4.4,18.7,4.2,19.4z"/>
	<path class="st1" d="M14.7,16.7c-2.6-0.5-4.7-1.7-6.2-3.8c-0.6-0.9-1.2-1.8-1.6-2.8C6.4,8.9,6.7,7.8,7.5,6.9
		c0.8-0.8,1.7-0.7,2.1,0.3c0.4,1,1.1,2.1-0.1,3.1c-0.1,0.1,0,0.7,0.2,0.9c0.9,0.9,1.8,1.8,2.8,2.6c0.5,0.4,1,0.3,1.4-0.2
		c0.3-0.4,0.7-1.1,1.4-0.6c0.7,0.5,1.7,0.9,2,1.6c0.3,0.8-0.5,1.4-1.3,1.7C15.5,16.5,15,16.6,14.7,16.7z"/>
</g>
</svg>
