<?xml version="1.0" encoding="utf-8"?>
<!-- Generator: Adobe Illustrator 24.1.2, SVG Export Plug-In . SVG Version: 6.00 Build 0)  -->
<svg version="1.1" id="Capa_1" xmlns="http://www.w3.org/2000/svg" xmlns:xlink="http://www.w3.org/1999/xlink" x="0px" y="0px"
	 viewBox="0 0 24 24" style="enable-background:new 0 0 24 24;" xml:space="preserve">
<style type="text/css">
	.st0{fill:#8237ED;}
</style>
<g>
	<path class="st0" d="M23.3,11.9c-0.1,0.1-0.3,0.2-0.4,0.2c-0.5,0-1.1,0-1.6,0c-0.4,0-0.5-0.2-0.3-0.5c0.1-0.1,0.1-0.3,0.1-0.4
		c0-0.6,0-1.1,0-1.7c0-0.2-0.1-0.4-0.1-0.6c-0.7,0.2-0.8,0.2-0.8-0.4c0-0.5,0-0.9,0-1.4c0-0.1,0.1-0.3,0.2-0.4
		c0.1,0,0.3,0.1,0.4,0.1C20.9,6.9,21,7,21.2,7c1,0.3,1.7,1.2,1.8,2.2c0,0.6,0,1.1,0,1.7c0,0.3,0.1,0.6,0.4,0.7
		C23.3,11.8,23.3,11.9,23.3,11.9z"/>
	<path class="st0" d="M0.7,11.4c0-0.2,0.1-0.3,0.1-0.5c1.5,0,2.9,0,4.4,0c0,0.6,0,1.2,0,1.8c-0.7,0-1.4,0-2,0c-0.8,0-1.7,0-2.5,0
		C0.7,12.3,0.7,11.9,0.7,11.4z"/>
	<path class="st0" d="M14.9,18c-0.6,0-1.2,0-1.8,0c0-2.5,0-5,0-7.5c0.6,0,1.2,0,1.8,0C14.9,13,14.9,15.5,14.9,18z"/>
	<path class="st0" d="M17.4,4.8c0.4,0,0.7,0,1.1,0c-0.3,1.1,0.3,1.7,1.2,2.3c0,0.4,0,0.9,0,1.4c0,0.1-0.1,0.2-0.2,0.2
		c-0.1,0.1-0.2,0.2-0.3,0.3C19,9.7,18.6,10,18,10c-0.6,0-1-0.3-1.3-0.9c-0.1-0.2-0.3-0.3-0.4-0.5c0-0.5,0-1,0-1.5
		C17.1,6.5,17.7,5.9,17.4,4.8z"/>
	<path class="st0" d="M8.8,18c-0.6,0-1.2,0-1.8,0c0-1.2,0-2.4,0-3.7c0.6,0,1.2,0,1.8,0C8.8,15.6,8.8,16.8,8.8,18z"/>
	<path class="st0" d="M14,18.5c0.3,0,0.6,0,0.9,0c0.3,0,0.4,0.2,0.2,0.5c-0.1,0.1-0.2,0.3-0.2,0.5c-0.2,1.1-0.9,1.7-1.9,2
		c-0.2,0-0.3,0.1-0.5,0.3C12.2,22,12,21.8,12,21.5c0-0.6,0-1.2,0-1.8c0-0.3,0.2-0.3,0.5-0.2c0.1,0.1,0.3,0,0.4,0
		c0.1-0.1,0-0.3,0-0.4c0-0.1-0.1-0.3-0.1-0.3c0.1-0.1,0.2-0.2,0.4-0.2C13.5,18.5,13.7,18.5,14,18.5C14,18.5,14,18.5,14,18.5z"/>
	<path class="st0" d="M6.9,13.1C6.7,13,6.6,12.7,6.3,13c-0.2,0.2-0.5,0.1-0.5-0.2c0-0.6,0-1.2,0-1.8c0-0.1,0.1-0.3,0.2-0.3
		c0.1,0,0.2,0,0.3,0.1C6.5,10.8,6.7,11,6.8,11c1,0.3,1.6,0.9,1.9,1.9c0,0.1,0.1,0.2,0.2,0.4c0.1,0.1,0.2,0.3,0.1,0.3
		c-0.1,0.1-0.2,0.2-0.3,0.2c-0.6,0-1.1,0-1.7,0C6.7,13.8,6.6,13.6,6.9,13.1z"/>
	<path class="st0" d="M9.1,19.6c0.5-0.3,0.7-0.2,0.7,0.4c0,0.5,0,1,0,1.4c0,0.1-0.1,0.3-0.2,0.4c0,0-0.2-0.1-0.3-0.1
		c-0.1-0.1-0.2-0.2-0.4-0.2c-1-0.3-1.6-1-1.8-2c0-0.2-0.1-0.3-0.2-0.5c-0.2-0.3-0.1-0.5,0.2-0.5c0.6,0,1.2,0,1.8,0
		c0.3,0,0.4,0.2,0.2,0.5C8.8,19.3,8.8,19.3,9.1,19.6z"/>
	<path class="st0" d="M15,9c0,0.1,0,0.3,0.1,0.4c0.2,0.3,0.1,0.5-0.2,0.5c-0.6,0-1.2,0-1.8,0c-0.3,0-0.4-0.3-0.2-0.5
		c0.1-0.1,0.2-0.3,0.2-0.5c0.2-0.8,0.7-1.4,1.4-1.8C14.8,7,15,6.9,15.3,6.7c0.2-0.1,0.5-0.1,0.5,0.2c0,0.6,0,1.2,0,1.9
		c0,0.1-0.3,0.2-0.5,0.3C15.2,9.1,15.1,9,15,9z"/>
	<path class="st0" d="M22.1,12.7c0.3,0.8,0.7,1.6,0.9,2.5c0.1,0.4-0.1,0.8-0.5,1.1c-0.4,0.2-0.8,0.2-1.2,0c-0.4-0.3-0.6-0.7-0.4-1.1
		c0.3-0.8,0.6-1.5,0.9-2.3C22,12.7,22.1,12.7,22.1,12.7z"/>
	<path class="st0" d="M17.4,3.8c0-0.5,0.1-0.9,0.5-0.9c0.4,0,0.5,0.4,0.5,0.9c0.3-0.1,0.6-0.2,0.9-0.2c0.2,0,0.5,0,0.6,0.1
		c0.1,0.1,0.1,0.5,0,0.6c-0.1,0.1-0.4,0.2-0.6,0.2c-1-0.2-2-0.2-3,0c-0.2,0-0.5,0-0.6-0.2c-0.1-0.1-0.1-0.5,0-0.6
		c0.1-0.1,0.4-0.1,0.6-0.1C16.8,3.6,17.1,3.7,17.4,3.8z"/>
	<path class="st0" d="M10.3,19.8c0.4,0,0.8,0,1.2,0c0,0.6,0,1.2,0,1.8c-0.4,0-0.8,0-1.2,0C10.3,21,10.3,20.4,10.3,19.8z"/>
</g>
<g>
	<path class="st0" d="M-237.5-116.3c0,0.1,0,0.3-0.1,0.4c0,0.2,0,0.3,0,0.5c0,0.1,0,0.2-0.2,0.2c-0.6,0.2-1.1,0.4-1.7,0.7
		c-1.1,0.4-2.1,1.2-3,2c-0.2,0.2-0.4,0.4-0.5,0.7c0,0.2,0,0.3,0.1,0.5c0.3,0.3,0.5,0.6,0.8,0.8c0.6,0.5,1.2,1,1.7,1.4
		c0,0,0.1,0.1,0.1,0.1c0,0.4,0,0.7,0,1.1c-0.1,0-0.3,0-0.4,0c-0.3,0-0.5,0-0.8,0c-0.1,0-0.1,0-0.2-0.1c-0.2-0.2-0.4-0.3-0.7-0.4
		c-0.1,0-0.2-0.1-0.4-0.1c-0.2-0.1-0.4-0.1-0.6-0.1c-1.2,0-2.3,0-3.5,0c-0.2,0-0.4,0.1-0.6,0.1c-0.2,0-0.3,0.1-0.5,0.2
		c-0.2,0.1-0.4,0.2-0.5,0.3c-0.1,0.1-0.1,0.1-0.2,0.1c-0.3,0-0.6,0-1,0c0-0.2,0-0.3,0-0.5c0-0.3,0-0.5,0-0.8c0-0.1,0-0.2,0.1-0.2
		c0.5-0.4,1.1-0.7,1.6-1.1c0.3-0.2,0.6-0.5,0.8-0.8c0.3-0.4,0.3-0.8-0.2-1.1c-0.1-0.1-0.3-0.2-0.4-0.2c-0.6-0.3-1.2-0.5-1.8-0.7
		c-0.1,0-0.1-0.1-0.1-0.2c0-0.1,0-0.2,0-0.3c0-0.1,0-0.1-0.1-0.1c-1-0.3-2-0.6-3-1c-0.5-0.2-1.1-0.4-1.5-0.8
		c-0.1-0.1-0.2-0.2-0.3-0.3c-0.1-0.1-0.1-0.3,0.1-0.3c0.2,0,0.3-0.1,0.5-0.1c1.1-0.1,2.1-0.1,3.2-0.2c0.3,0,0.7,0,1,0
		c0.1,0,0.1,0,0.1-0.1c0.1-0.2,0.1-0.2,0.3-0.2c3.8,0,7.6,0,11.4,0c0,0,0.1,0,0.1,0c0,0.1,0.1,0.2,0.1,0.3
		C-237.5-116.4-237.5-116.4-237.5-116.3z"/>
	<path class="st0" d="M-248.3-128.8c0.1,0.1,0.2,0.1,0.3,0.2c0.4,0.4,0.7,0.8,1.1,1.1c0.2,0.2,0.2,0.4,0,0.6c-0.3,0.4-0.7,0.7-1,1.1
		c-0.5,0.5-1.1,1-1.6,1.4c-0.3,0.2-0.5,0.4-0.8,0.7c-0.2,0.1-0.3,0.1-0.5,0c-0.4-0.4-0.8-0.8-1.2-1.3c-0.2-0.2-0.1-0.3,0-0.5
		c0.5-0.6,1.1-1.1,1.7-1.7c0.4-0.4,0.8-0.7,1.2-1c0.2-0.2,0.4-0.3,0.6-0.4C-248.6-128.7-248.5-128.7-248.3-128.8
		C-248.4-128.8-248.4-128.8-248.3-128.8z"/>
	<path class="st0" d="M-243.5-128.8c0.2,0.2,0.5,0.4,0.7,0.6c0.4,0.3,0.9,0.7,1.3,1.1c0.5,0.5,1,1,1.5,1.6c0.1,0.1,0.1,0.1,0.2,0.2
		c0.1,0.1,0.1,0.2,0,0.4c0,0.1-0.1,0.2-0.2,0.2c-0.3,0.4-0.6,0.7-1,1c0,0-0.1,0.1-0.1,0.1c-0.1,0.1-0.3,0.1-0.4,0
		c-0.7-0.5-1.3-1.1-2-1.6c-0.5-0.5-1-1-1.5-1.5c0,0,0-0.1-0.1-0.1c-0.2-0.2-0.2-0.3,0-0.5c0.4-0.4,0.8-0.8,1.1-1.2
		C-243.7-128.7-243.6-128.7-243.5-128.8C-243.5-128.8-243.5-128.8-243.5-128.8z"/>
	<path class="st0" d="M-243.9-125.5c0.3,0.3,0.7,0.6,1,0.9c-0.3,0.3-0.5,0.6-0.8,0.9c-0.6,0.7-1.2,1.4-1.8,2.1
		c-0.3,0.3-0.7,0.6-1,0.9c-0.6,0.5-1.1,1.2-1.6,1.8c-0.4,0.5-0.7,0.9-1.1,1.3c-0.1,0.1-0.1,0.1-0.3,0c-0.4-0.2-0.7-0.5-0.9-0.9
		c-0.1-0.1-0.1-0.2,0-0.3c0.5-0.5,0.9-0.9,1.4-1.3c0.7-0.6,1.3-1.3,1.8-2c0.4-0.6,0.9-1.1,1.4-1.6c0.5-0.5,1-1,1.4-1.4
		C-244.2-125.2-244.1-125.3-243.9-125.5z"/>
	<path class="st0" d="M-245.6-120.9c0.4-0.3,0.7-0.7,1-1c0.1,0.1,0.1,0.2,0.2,0.3c0.4,0.6,0.9,1.1,1.5,1.6c0.5,0.4,0.9,0.9,1.3,1.3
		c0.1,0.1,0.2,0.2,0,0.3c-0.3,0.3-0.5,0.5-0.8,0.8c-0.2,0.2-0.3,0.2-0.4-0.1c-0.4-0.5-0.8-1-1.2-1.5
		C-244.5-119.7-245-120.3-245.6-120.9C-245.6-120.8-245.6-120.8-245.6-120.9z"/>
	<path class="st0" d="M-248-125.5c0.6,0.6,1.1,1.2,1.7,1.8c-0.3,0.4-0.7,0.7-1,1.1c-0.6-0.6-1.1-1.3-1.7-1.9
		C-248.6-124.9-248.3-125.2-248-125.5z"/>
	<path class="st0" d="M-251.1-126.9c-0.1-0.1-0.3-0.3-0.4-0.4c0.3-0.4,0.7-0.6,1-0.9c0.1,0.1,0.3,0.3,0.4,0.4
		C-250.5-127.5-250.8-127.2-251.1-126.9z"/>
	<path class="st0" d="M-240.4-127.3c-0.1,0.2-0.3,0.3-0.4,0.4c-0.3-0.3-0.7-0.6-1-0.9c0.1-0.1,0.2-0.3,0.4-0.4
		C-241.1-127.9-240.8-127.6-240.4-127.3z"/>
</g>
</svg>
