<?xml version="1.0" encoding="utf-8"?>
<!-- Generator: Adobe Illustrator 24.1.2, SVG Export Plug-In . SVG Version: 6.00 Build 0)  -->
<svg version="1.1" id="Capa_1" xmlns="http://www.w3.org/2000/svg" xmlns:xlink="http://www.w3.org/1999/xlink" x="0px" y="0px"
	 viewBox="0 0 24 24" style="enable-background:new 0 0 24 24;" xml:space="preserve">
<style type="text/css">
	.st0{fill:#FFFFFF;}
	.st1{fill:#8237ED;}
</style>
<g>
	<path class="st0" d="M11.3,20.2c-0.1-0.2-0.2-0.4-0.2-0.6c0-2.7,0-5.3,0-8c0-0.5,0.1-0.6,0.6-0.7c2.9-0.6,5.8-1.3,8.7-1.9
		c0.2,0,0.3,0,0.5,0c0,2.6,0,5.1,0,7.7c-3.3-0.6-6.4-1.1-9.6-1.6c-0.1,0.4,0,0.5,0.4,0.6c2.1,0.5,4.2,1,6.3,1.6
		c1,0.3,1.9,0.3,2.8-0.1c0.2-0.1,0.3-0.2,0.5-0.2c0.4-0.1,0.5-0.3,0.5-0.7c0-2.4,0-4.8,0-7.2c0-0.4-0.1-0.7-0.5-0.9
		c-3.3-1.5-6.7-3.1-10-4.7c-0.5-0.2-0.8-0.1-1.2,0.2C8.2,5.2,6.3,6.7,4.5,8.3c-0.7,0.6-1.7,1.1-2.1,1.9c-0.4,0.8-0.1,1.9-0.1,2.9
		c0,0.8,0,1.6,0,2.5c2,1.4,4.1,2.8,6.2,4.3C9.4,20.6,10.3,20.8,11.3,20.2C11.3,20.2,11.3,20.2,11.3,20.2z M18.5,17.8
		c-2.5-0.7-4.9-1.3-7.3-2c-0.2,0.5-0.1,0.8,0.4,0.9c1,0.3,2,0.6,2.9,1.1c1.3,0.7,2.5,0.7,3.8,0C18.4,17.9,18.4,17.9,18.5,17.8z
		 M15.8,18.7c-1.6-0.6-3.1-1.2-4.6-1.8c-0.1,0-0.1,0.1-0.2,0.1c0.1,0.4,0.1,1,0.4,1.2c1.3,0.8,2.6,1.7,4.2,0.7
		C15.6,18.8,15.7,18.8,15.8,18.7z M11.3,18.4c-0.1,0-0.2,0.1-0.2,0.1c0.1,0.4,0.2,1,0.4,1.2c0.6,0.5,1.2-0.1,2-0.2
		C12.6,19.1,11.9,18.8,11.3,18.4z"/>
	<path class="st1" d="M11.3,20.2C11.3,20.2,11.3,20.2,11.3,20.2c-1,0.6-1.9,0.4-2.8-0.3c-2-1.5-4.2-2.9-6.2-4.3c0-0.9,0-1.7,0-2.5
		c0-1-0.2-2.1,0.1-2.9c0.4-0.8,1.4-1.3,2.1-1.9C6.3,6.7,8.2,5.2,10,3.6c0.4-0.3,0.7-0.4,1.2-0.2c3.3,1.6,6.7,3.2,10,4.7
		c0.4,0.2,0.5,0.4,0.5,0.9c0,2.4,0,4.8,0,7.2c0,0.4-0.1,0.7-0.5,0.7c-0.2,0-0.3,0.2-0.5,0.2c-0.9,0.4-1.8,0.4-2.8,0.1
		c-2.1-0.6-4.2-1.1-6.3-1.6c-0.4-0.1-0.5-0.3-0.4-0.6c3.2,0.5,6.4,1.1,9.6,1.6c0-2.6,0-5.1,0-7.7c-0.1,0-0.3,0-0.5,0
		c-2.9,0.6-5.8,1.3-8.7,1.9c-0.4,0.1-0.6,0.3-0.6,0.7c0,2.7,0,5.3,0,8C11.1,19.8,11.2,20,11.3,20.2z M10,15.1c-0.2,0-0.4,0-0.7,0
		c0-1.3,0-2.6,0-3.8c-2.2-0.2-4.4-0.5-6.6-0.7c0,1.6,0,3.1,0,4.6c0.3,0.1,0.6,0.1,0.9,0.2c0.1,0.1,0.2,0.2,0.3,0.3
		c1.5,0.9,3,1.8,4.5,2.7c0.6,0.3,1.1,0.7,1.6,1c0-0.2,0-0.3-0.1-0.4c-1.7-1-3.3-2-5-2.9c-0.4-0.2-0.9-0.4-1.4-0.6
		c0.5-0.4,1-0.4,1.5-0.1c0.8,0.4,1.7,0.8,2.5,1.3c0.8,0.4,1.6,0.9,2.4,1.3c0-0.1,0.1-0.1,0.1-0.2C8.6,16.8,7,16,5.4,15.2
		c1.8-0.3,3.1,0.9,4.7,1.2c0-0.1,0.1-0.1,0.1-0.2c-1-0.4-2.1-0.8-3.1-1.2c0-0.1,0-0.2,0.1-0.2c1,0.2,2,0.5,3.1,0.7
		C10.1,15.3,10.1,15.2,10,15.1c0-0.2,0.2-0.4,0.2-0.5c0-0.7,0-1.5,0-2.2c0-0.3,0-0.6,0-0.9c-0.1,0-0.1,0-0.2,0
		C10,12.7,10,13.9,10,15.1z M18.7,7.8c0,0,0-0.1,0-0.1c-0.2,0-0.4-0.1-0.5-0.1c-1.6,0.5-3.1,1-4.7,1.6c-0.8,0.3-1.5,0.5-2.3,0.7
		c-0.2-0.6,0-0.9,0.5-1.1c1.6-0.7,3.2-1.4,5-2.1c-0.3-0.1-0.6-0.2-0.7-0.1c-1,0.4-1.9,0.9-2.8,1.3c-0.6,0.3-1.3,0.6-1.9,0.9
		c-0.2-0.9-0.1-1.5,0.8-1.9c0.7-0.3,1.4-0.8,2.1-1.2c0-0.1,0-0.1-0.1-0.2c-0.2,0.1-0.4,0.1-0.5,0.2C12.8,6.1,12,6.5,11.2,7
		c-0.4-1.2,0.1-1.9,1.1-2.3c-0.2,0-0.4,0-0.6,0c-0.2,0.1-0.3,0.2-0.6,0.4c0-0.3,0-0.5,0-0.7c0,0,0,0,0,0c0,2.1,0,4.2,0,6
		c0.1-0.1,0.3-0.3,0.5-0.4C14,9.3,16.4,8.5,18.7,7.8z M3.7,10.2c0,0.1,0.1,0.1,0.1,0.2C4,10.2,4.2,10.1,4.4,10
		c1.8-1.2,3.6-2.4,5.5-3.6c0.1-0.1,0.2-0.3,0.3-0.4c0,0-0.1-0.1-0.1-0.1 M5.3,10.5C6.1,10.6,6.5,10,7,9.7c0.6-0.3,1.2-0.6,1.7-1
		c0.5-0.3,1-0.6,1.5-0.9c0-0.1-0.1-0.1-0.1-0.2C8.5,8.6,6.9,9.5,5.3,10.5z M7,10.6c0.3,0,0.5,0.1,0.6,0.1c0.9-0.4,1.7-0.8,2.5-1.3
		c0,0,0-0.1,0-0.2C9.1,9.7,8.2,10.1,7,10.6z M10.2,10.4c0-0.1,0-0.1-0.1-0.2c-0.5,0.2-1.1,0.4-1.6,0.5c0,0.1,0,0.1,0.1,0.2
		C9.1,10.8,9.7,10.6,10.2,10.4z"/>
	<path class="st1" d="M18.5,17.8c-0.1,0.1-0.1,0.1-0.2,0.1c-1.3,0.6-2.5,0.7-3.8,0c-0.9-0.5-1.9-0.8-2.9-1.1
		c-0.5-0.2-0.6-0.4-0.4-0.9C13.6,16.5,16,17.1,18.5,17.8z"/>
	<path class="st1" d="M15.8,18.7c-0.2,0.1-0.2,0.1-0.3,0.1c-1.6,1-2.9,0.1-4.2-0.7C11.1,18,11.2,17.4,11,17c0.1,0,0.1-0.1,0.2-0.1
		C12.7,17.5,14.2,18.1,15.8,18.7z"/>
	<path class="st1" d="M11.3,18.4c0.7,0.3,1.3,0.7,2.2,1.1c-0.8,0.1-1.4,0.8-2,0.2c-0.3-0.3-0.3-0.8-0.4-1.2
		C11.1,18.5,11.2,18.5,11.3,18.4z"/>
	<path class="st0" d="M18.7,7.8C16.4,8.5,14,9.3,11.6,10c-0.2,0.1-0.4,0.3-0.5,0.4c0-1.9,0-4,0-6c0,0,0,0,0,0c0,0.2,0,0.4,0,0.7
		c0.2-0.1,0.4-0.3,0.6-0.4c0.2-0.1,0.3-0.1,0.6,0c-1,0.5-1.4,1.2-1.1,2.3c0.8-0.5,1.6-0.9,2.3-1.4c0.2-0.1,0.3-0.1,0.5-0.2
		c0,0.1,0,0.1,0.1,0.2c-0.7,0.4-1.4,0.9-2.1,1.2c-0.9,0.4-1.1,1-0.8,1.9c0.7-0.3,1.3-0.6,1.9-0.9C14.1,7.4,15,7,16,6.6
		c0.1-0.1,0.4,0,0.7,0.1c-1.8,0.8-3.4,1.5-5,2.1C11.2,9,11,9.2,11.2,9.9c0.8-0.2,1.5-0.5,2.3-0.7c1.6-0.5,3.1-1.1,4.7-1.6
		c0.1,0,0.3,0.1,0.5,0.1C18.7,7.7,18.7,7.8,18.7,7.8z"/>
	<path class="st0" d="M3.6,15.4C4.1,15.6,4.6,15.8,5,16c1.7,1,3.4,1.9,5,2.9c0.1,0,0.1,0.2,0.1,0.4c-0.5-0.3-1.1-0.7-1.6-1
		c-1.5-0.9-3-1.8-4.5-2.7C3.8,15.6,3.7,15.5,3.6,15.4C3.6,15.4,3.6,15.4,3.6,15.4z"/>
	<path class="st0" d="M5.3,10.5c1.6-0.9,3.2-1.9,4.8-2.8c0,0.1,0.1,0.1,0.1,0.2c-0.5,0.3-1,0.6-1.5,0.9C8.2,9.1,7.6,9.5,7,9.7
		C6.5,10,6.1,10.6,5.3,10.5z"/>
	<path class="st0" d="M7,10.6c1.1-0.5,2.1-1,3.1-1.4c0,0.1,0,0.2,0,0.2c-0.8,0.4-1.7,0.8-2.5,1.3C7.5,10.8,7.3,10.7,7,10.6z"/>
	<path class="st0" d="M10,15.1c0-1.2,0-2.5,0-3.7c0.1,0,0.1,0,0.2,0c0,0.3,0,0.6,0,0.9c0,0.7,0,1.5,0,2.2
		C10.2,14.7,10.1,14.9,10,15.1C10,15.1,10,15.1,10,15.1z"/>
	<path class="st0" d="M10.2,10.4c-0.5,0.2-1.1,0.4-1.6,0.5c0-0.1,0-0.1-0.1-0.2c0.5-0.2,1.1-0.4,1.6-0.5
		C10.2,10.3,10.2,10.3,10.2,10.4z"/>
</g>
<g>
	<path class="st1" d="M-190.5,10c0,0.1,0,0.3-0.1,0.4c0,0.2,0,0.3,0,0.5c0,0.1,0,0.2-0.2,0.2c-0.6,0.2-1.1,0.4-1.7,0.7
		c-1.1,0.4-2.1,1.2-3,2c-0.2,0.2-0.4,0.4-0.5,0.7c0,0.2,0,0.3,0.1,0.5c0.3,0.3,0.5,0.6,0.8,0.8c0.6,0.5,1.2,1,1.7,1.4
		c0,0,0.1,0.1,0.1,0.1c0,0.4,0,0.7,0,1.1c-0.1,0-0.3,0-0.4,0c-0.3,0-0.5,0-0.8,0c-0.1,0-0.1,0-0.2-0.1c-0.2-0.2-0.4-0.3-0.7-0.4
		c-0.1,0-0.2-0.1-0.4-0.1c-0.2-0.1-0.4-0.1-0.6-0.1c-1.2,0-2.3,0-3.5,0c-0.2,0-0.4,0.1-0.6,0.1c-0.2,0-0.3,0.1-0.5,0.2
		c-0.2,0.1-0.4,0.2-0.5,0.3c-0.1,0.1-0.1,0.1-0.2,0.1c-0.3,0-0.6,0-1,0c0-0.2,0-0.3,0-0.5c0-0.3,0-0.5,0-0.8c0-0.1,0-0.2,0.1-0.2
		c0.5-0.4,1.1-0.7,1.6-1.1c0.3-0.2,0.6-0.5,0.8-0.8c0.3-0.4,0.3-0.8-0.2-1.1c-0.1-0.1-0.3-0.2-0.4-0.2c-0.6-0.3-1.2-0.5-1.8-0.7
		c-0.1,0-0.1-0.1-0.1-0.2c0-0.1,0-0.2,0-0.3c0-0.1,0-0.1-0.1-0.1c-1-0.3-2-0.6-3-1c-0.5-0.2-1.1-0.4-1.5-0.8
		c-0.1-0.1-0.2-0.2-0.3-0.3c-0.1-0.1-0.1-0.3,0.1-0.3c0.2,0,0.3-0.1,0.5-0.1c1.1-0.1,2.1-0.1,3.2-0.2c0.3,0,0.7,0,1,0
		c0.1,0,0.1,0,0.1-0.1c0.1-0.2,0.1-0.2,0.3-0.2c3.8,0,7.6,0,11.4,0c0,0,0.1,0,0.1,0c0,0.1,0.1,0.2,0.1,0.3
		C-190.5,9.9-190.5,10-190.5,10z"/>
	<path class="st1" d="M-201.3-2.4c0.1,0.1,0.2,0.1,0.3,0.2c0.4,0.4,0.7,0.8,1.1,1.1c0.2,0.2,0.2,0.4,0,0.6c-0.3,0.4-0.7,0.7-1,1.1
		c-0.5,0.5-1.1,1-1.6,1.4c-0.3,0.2-0.5,0.4-0.8,0.7c-0.2,0.1-0.3,0.1-0.5,0c-0.4-0.4-0.8-0.8-1.2-1.3c-0.2-0.2-0.1-0.3,0-0.5
		c0.5-0.6,1.1-1.1,1.7-1.7c0.4-0.4,0.8-0.7,1.2-1c0.2-0.2,0.4-0.3,0.6-0.4C-201.6-2.3-201.5-2.4-201.3-2.4
		C-201.4-2.4-201.4-2.4-201.3-2.4z"/>
	<path class="st1" d="M-196.5-2.4c0.2,0.2,0.5,0.4,0.7,0.6c0.4,0.3,0.9,0.7,1.3,1.1c0.5,0.5,1,1,1.5,1.6c0.1,0.1,0.1,0.1,0.2,0.2
		c0.1,0.1,0.1,0.2,0,0.4c0,0.1-0.1,0.2-0.2,0.2c-0.3,0.4-0.6,0.7-1,1c0,0-0.1,0.1-0.1,0.1c-0.1,0.1-0.3,0.1-0.4,0
		c-0.7-0.5-1.3-1.1-2-1.6c-0.5-0.5-1-1-1.5-1.5c0,0,0-0.1-0.1-0.1c-0.2-0.2-0.2-0.3,0-0.5c0.4-0.4,0.8-0.8,1.1-1.2
		C-196.7-2.3-196.6-2.4-196.5-2.4C-196.5-2.4-196.5-2.4-196.5-2.4z"/>
	<path class="st1" d="M-196.9,0.8c0.3,0.3,0.7,0.6,1,0.9c-0.3,0.3-0.5,0.6-0.8,0.9c-0.6,0.7-1.2,1.4-1.8,2.1c-0.3,0.3-0.7,0.6-1,0.9
		c-0.6,0.5-1.1,1.2-1.6,1.8c-0.4,0.5-0.7,0.9-1.1,1.3c-0.1,0.1-0.1,0.1-0.3,0c-0.4-0.2-0.7-0.5-0.9-0.9c-0.1-0.1-0.1-0.2,0-0.3
		c0.5-0.5,0.9-0.9,1.4-1.3c0.7-0.6,1.3-1.3,1.8-2c0.4-0.6,0.9-1.1,1.4-1.6c0.5-0.5,1-1,1.4-1.4C-197.2,1.1-197.1,1-196.9,0.8z"/>
	<path class="st1" d="M-198.6,5.5c0.4-0.3,0.7-0.7,1-1c0.1,0.1,0.1,0.2,0.2,0.3c0.4,0.6,0.9,1.1,1.5,1.6c0.5,0.4,0.9,0.9,1.3,1.3
		c0.1,0.1,0.2,0.2,0,0.3c-0.3,0.3-0.5,0.5-0.8,0.8c-0.2,0.2-0.3,0.2-0.4-0.1c-0.4-0.5-0.8-1-1.2-1.5C-197.5,6.6-198,6-198.6,5.5
		C-198.6,5.5-198.6,5.5-198.6,5.5z"/>
	<path class="st1" d="M-201,0.8c0.6,0.6,1.1,1.2,1.7,1.8c-0.3,0.4-0.7,0.7-1,1.1c-0.6-0.6-1.1-1.3-1.7-1.9
		C-201.6,1.5-201.3,1.1-201,0.8z"/>
	<path class="st1" d="M-204.1-0.6c-0.1-0.1-0.3-0.3-0.4-0.4c0.3-0.4,0.7-0.6,1-0.9c0.1,0.1,0.3,0.3,0.4,0.4
		C-203.5-1.2-203.8-0.9-204.1-0.6z"/>
	<path class="st1" d="M-193.4-1c-0.1,0.2-0.3,0.3-0.4,0.4c-0.3-0.3-0.7-0.6-1-0.9c0.1-0.1,0.2-0.3,0.4-0.4
		C-194.1-1.6-193.8-1.3-193.4-1z"/>
</g>
</svg>
