<?xml version="1.0" encoding="utf-8"?>
<!-- Generator: Adobe Illustrator 24.1.2, SVG Export Plug-In . SVG Version: 6.00 Build 0)  -->
<svg version="1.1" id="Capa_1" xmlns="http://www.w3.org/2000/svg" xmlns:xlink="http://www.w3.org/1999/xlink" x="0px" y="0px"
	 viewBox="0 0 24 24" style="enable-background:new 0 0 24 24;" xml:space="preserve">
<style type="text/css">
	.st0{fill:none;stroke:#8237ED;stroke-width:1.7;stroke-linecap:round;stroke-linejoin:round;}
	.st1{fill:#FE7704;}
</style>
<path class="st0" d="M122.3-15h16l-2-4h-12L122.3-15z"/>
<path class="st0" d="M128.3-13h4c0.6,0,1,0.4,1,1l0,0c0,0.6-0.4,1-1,1h-4c-0.6,0-1-0.4-1-1l0,0C127.3-12.5,127.7-13,128.3-13z"/>
<path class="st0" d="M126.3-19c0-2.7,1.3-4,4-4s4,1.3,4,4"/>
<line class="st0" x1="134.3" y1="-28" x2="129.3" y2="-23"/>
<path class="st0" d="M136.8-30.6l2.1,2.1c0.4,0.4,0.4,1,0,1.4l-0.7,0.7c-0.4,0.4-1,0.4-1.4,0l-2.1-2.1c-0.4-0.4-0.4-1,0-1.4l0.7-0.7
	C135.8-31,136.4-31,136.8-30.6z"/>
<g>
	<path class="st1" d="M18.1,9c-0.1,1-0.1,2-0.2,3c-0.1,0.9-0.6,1.5-1.4,1.8c-1.4,0.7-2.9,0.7-4.4,0.2c-1.1-0.4-1.8-1.2-1.8-2.4
		c0-1.7-0.1-3.4,0-5.1c0.1-1.4,1-2.4,2.4-2.8c1-0.3,2-0.3,3,0c1.5,0.4,2.3,1.5,2.4,3C18.1,7.5,18.1,8.2,18.1,9C18.1,9,18.1,9,18.1,9
		z M11.4,6.9c0.1,0.8,0.1,1.6,0.3,2.4c0,0.1,0.2,0.3,0.3,0.3c1.5,0,2.9,0,4.4,0c0.1,0,0.3-0.2,0.3-0.3c0.1-0.8,0.2-1.6,0.3-2.4
		C15.1,6.6,13.3,6.6,11.4,6.9z M12.8,4.3c-1,0.2-1.8,1.1-1.7,2.1c0.3-0.2,0.7-0.2,0.8-0.5C12.3,5.5,12.5,4.9,12.8,4.3z"/>
	<path class="st1" d="M17.5,14.6c0,1.2,0,2.4,0,3.7c-2.2,0-4.4,0-6.6,0c0-1.2,0-2.4,0-3.7C13.1,15.8,15.3,15.8,17.5,14.6z"/>
	<path class="st1" d="M22.7,20.5c-1.1,0-2.2,0-3.4,0c0-2.1,0-4.1,0-6.2C21.5,14.8,23.1,17.7,22.7,20.5z"/>
	<path class="st1" d="M6.2,20.5c0.7-1,1-2.1,0.5-3.1c-0.5-0.9-0.1-1.4,0.5-1.9c0.5-0.5,1.2-0.8,1.9-1.3c0,2.2,0,4.3,0,6.3
		C8.2,20.5,7.2,20.5,6.2,20.5z"/>
	<path class="st1" d="M3.1,18.4c0-0.4,0-0.7,0-1.1c0-0.5,0.4-0.9,0.9-0.9c1.8-0.2,2.9,1.2,2.3,2.9c-0.5,1.3-1.5,1.4-2.6,1.1
		c-0.3-0.1-0.5-0.6-0.5-0.9C3,19.2,3.1,18.8,3.1,18.4C3.1,18.4,3.1,18.4,3.1,18.4z"/>
	<path class="st1" d="M2.2,5.6C2.6,6,2.9,6.4,3.4,6.8c0.1-0.4,0.2-0.7,0.3-1.1C3.8,6.1,4,6.4,4.1,6.8C4.5,6.6,5,6.4,5.4,6.1
		c0,0,0.1,0,0.1,0.1C5.2,6.6,5,6.9,4.8,7.3C5,7.5,5.2,7.6,5.3,7.8c0,0.1,0,0.1-0.1,0.2c-0.3-0.1-0.7-0.2-1-0.4
		C4,7.4,3.7,7.2,3.3,7.5C3,7.7,3.1,8.1,3.3,8.4c0,0,0.1,0.1,0.1,0.2C3.3,8.8,3.1,9,2.9,9.4C2.8,8.9,2.8,8.6,2.7,8.2
		C2.2,8.4,1.8,8.5,1.3,8.6c0,0,0,0-0.1-0.1C1.6,8.3,1.9,8,2.3,7.7C2,7.4,1.7,7.2,1.5,6.9C1.9,7,2.2,7,2.5,7C2.4,6.6,2.3,6.1,2.2,5.6
		z"/>
	<path class="st1" d="M5,13.7c-0.2,0-0.3,0-0.5,0c0-1.2,0-2.4,0-3.6C4.5,9.5,4.4,9,4,8.6C3.9,8.5,3.8,8.4,3.7,8.3
		C3.7,8.1,3.6,7.9,3.6,7.7C3.8,7.8,4,7.9,4.1,8c0.7,0.6,1,1.4,0.9,2.4C4.9,11.4,5,12.5,5,13.7z"/>
	<path class="st1" d="M4.1,15.8c0-0.4,0-0.7,0-1c0-0.7,0.3-1,1-0.7c0.1,0,0.2,0.2,0.3,0.4c0,0.1,0,0.2,0,0.3c0,0.4,0,0.7,0,1.1
		C5,15.8,4.6,15.8,4.1,15.8z"/>
	<path class="st1" d="M18.4,7.5c0.4-0.1,0.6,0,0.6,0.4c0,0.3,0,0.6,0,0.9c0,0.1-0.2,0.3-0.3,0.4c-0.1-0.1-0.2-0.3-0.2-0.4
		C18.4,8.3,18.4,7.9,18.4,7.5z"/>
	<path class="st1" d="M9.9,7.5c0,0.6,0,1.1,0,1.6c-0.4,0.1-0.5,0-0.6-0.4C9.3,7.5,9.3,7.5,9.9,7.5z"/>
	<path class="st1" d="M16.5,7.3c-0.1,0.6-0.1,1.2-0.2,1.8c0,0.1-0.2,0.3-0.4,0.3c-0.8,0.1-1.6,0.1-2.5,0.1c0.5-0.8,1-1.5,1.5-2.2
		c0.1-0.1,0.4-0.1,0.6-0.1C15.8,7.2,16.1,7.2,16.5,7.3z"/>
</g>
</svg>
