<?xml version="1.0" encoding="utf-8"?>
<!-- Generator: Adobe Illustrator 24.1.2, SVG Export Plug-In . SVG Version: 6.00 Build 0)  -->
<svg version="1.1" id="Capa_1" xmlns="http://www.w3.org/2000/svg" xmlns:xlink="http://www.w3.org/1999/xlink" x="0px" y="0px"
	 viewBox="0 0 24 24" style="enable-background:new 0 0 24 24;" xml:space="preserve">
<style type="text/css">
	.st0{fill:#8237ED;}
</style>
<g>
	<path class="st0" d="M12.1,24.3c-0.7-0.3-0.9-0.8-0.9-1.6c0-3.8,0-7.7,0-11.5c0-0.2,0-0.4,0-0.7c-0.2,0.1-0.3,0.2-0.3,0.3
		c-1,1-2.1,2-3.1,3c-0.1,0.1-0.1,0.3-0.1,0.5c0,2.5,0,5,0,7.5c0,0.2-0.1,0.5-0.2,0.7c-0.1,0.1-0.4,0.1-0.5,0.1
		c-0.2-0.1-0.3-0.4-0.3-0.6c0-0.8,0-1.7,0-2.5c0-1.7,0-3.5,0-5.2c0-0.2-0.1-0.5-0.2-0.7c-0.3-0.5-0.3-0.9,0-1.4
		c0.1-0.2,0.2-0.3,0.2-0.5c0-1.9,0-3.8,0-5.8c0,0,0-0.1,0-0.2c-0.6,0-1.2,0-1.9,0c-0.8,0-1-0.3-1.1-1.1c0-0.2,0-0.5,0-0.7
		c0-0.9,0.1-1.1,1-1.3c0.1-0.9,0.1-0.9,1-0.9c1.1,0,2.2,0,3.2,0c0.7,0,0.8,0.1,0.9,0.9c0.1,0,0.2,0,0.4,0.1c0.4,0.1,0.6,0.4,0.6,0.8
		c0,1.9,0.3,2.3-2,2.2c-0.3,0-0.6,0-1,0c0,1.7,0,3.4,0,5.1c0.1-0.1,0.2-0.1,0.2-0.2c1.1-1.1,2.2-2.2,3.3-3.3
		c0.4-0.4,0.8-0.6,1.3-0.6c1,0,2,0,3,0c1,0,1.6,0.5,1.9,1.4c0.6,2,1.3,4,1.9,6c0.2,0.5,0.4,0.9,0.7,1.3c0.3,0.4,0.6,1,0.6,1.5
		c0.1,1.3,0,2.6,0,3.9c0,0.4-0.1,0.6-0.5,0.6c-1.2,0-2.5,0-3.7,0c-0.4,0-0.6-0.2-0.6-0.6c0-1.2,0-2.5,0-3.7c0-0.9,0.3-1.6,1-2
		c0.3-0.2,0.2-0.4,0-0.7c-1,0.5-1.5,1.2-1.6,2.3c-0.1,1.5-0.1,2.9,0,4.4c0,0.6,0.4,0.9,0.9,1c0.2,0,0.4,0.1,0.5,0.1
		c0.2,1.3,0,1.8-0.9,2.2c-0.2,0-0.3,0-0.5,0c-0.7-0.3-0.9-0.8-0.9-1.6c0-2.1,0-4.2,0-6.3c0-0.2,0-0.4,0-0.5c-0.3,0-0.6,0-0.9,0
		c0,0.2,0,0.4,0,0.6c0,2.1,0,4.2,0,6.2c0,0.8-0.2,1.3-0.9,1.6C12.4,24.3,12.2,24.3,12.1,24.3z M19.9,17c-0.1-0.4-0.2-0.7-0.3-0.9
		c-0.2-0.4-0.5-0.7-1-0.4c-0.2,0.1-0.6,0-0.8,0c-0.1,0-0.3-0.1-0.4,0c-0.4,0.2-0.7,0.8-0.7,1.4C17.7,17,18.8,17,19.9,17z M9.8,4.7
		c0-0.5,0-0.9-0.1-1.4c0,0-0.1,0-0.1,0C9.3,4.2,9.3,4.2,8.3,4.2c-1.1,0-2.1,0-3.2,0c-0.5,0-0.8-0.2-0.7-0.7c0-0.1-0.1-0.2-0.1-0.2
		c0,0-0.1,0-0.1,0c0,0.5,0,0.9,0,1.4C6.1,4.7,7.9,4.7,9.8,4.7z"/>
	<path class="st0" d="M14.3,0.5c1,0.3,1.7,0.8,2.1,1.8c0.4,1.4-0.3,2.9-1.7,3.3c-1.4,0.4-2.8-0.4-3.2-1.8c-0.4-1.4,0.4-2.8,1.7-3.2
		c0.1,0,0.2-0.1,0.3-0.1C13.9,0.5,14.1,0.5,14.3,0.5z"/>
</g>
<g>
	<path class="st0" d="M-330.5,15.8c0,0.1,0,0.3-0.1,0.4c0,0.2,0,0.3,0,0.5c0,0.1,0,0.2-0.2,0.2c-0.6,0.2-1.1,0.4-1.7,0.7
		c-1.1,0.4-2.1,1.2-3,2c-0.2,0.2-0.4,0.4-0.5,0.7c0,0.2,0,0.3,0.1,0.5c0.3,0.3,0.5,0.6,0.8,0.8c0.6,0.5,1.2,1,1.7,1.4
		c0,0,0.1,0.1,0.1,0.1c0,0.4,0,0.7,0,1.1c-0.1,0-0.3,0-0.4,0c-0.3,0-0.5,0-0.8,0c-0.1,0-0.1,0-0.2-0.1c-0.2-0.2-0.4-0.3-0.7-0.4
		c-0.1,0-0.2-0.1-0.4-0.1c-0.2-0.1-0.4-0.1-0.6-0.1c-1.2,0-2.3,0-3.5,0c-0.2,0-0.4,0.1-0.6,0.1c-0.2,0-0.3,0.1-0.5,0.2
		c-0.2,0.1-0.4,0.2-0.5,0.3c-0.1,0.1-0.1,0.1-0.2,0.1c-0.3,0-0.6,0-1,0c0-0.2,0-0.3,0-0.5c0-0.3,0-0.5,0-0.8c0-0.1,0-0.2,0.1-0.2
		c0.5-0.4,1.1-0.7,1.6-1.1c0.3-0.2,0.6-0.5,0.8-0.8c0.3-0.4,0.3-0.8-0.2-1.1c-0.1-0.1-0.3-0.2-0.4-0.2c-0.6-0.3-1.2-0.5-1.8-0.7
		c-0.1,0-0.1-0.1-0.1-0.2c0-0.1,0-0.2,0-0.3c0-0.1,0-0.1-0.1-0.1c-1-0.3-2-0.6-3-1c-0.5-0.2-1.1-0.4-1.5-0.8
		c-0.1-0.1-0.2-0.2-0.3-0.3c-0.1-0.1-0.1-0.3,0.1-0.3c0.2,0,0.3-0.1,0.5-0.1c1.1-0.1,2.1-0.1,3.2-0.2c0.3,0,0.7,0,1,0
		c0.1,0,0.1,0,0.1-0.1c0.1-0.2,0.1-0.2,0.3-0.2c3.8,0,7.6,0,11.4,0c0,0,0.1,0,0.1,0c0,0.1,0.1,0.2,0.1,0.3
		C-330.5,15.8-330.5,15.8-330.5,15.8z"/>
	<path class="st0" d="M-341.3,3.4c0.1,0.1,0.2,0.1,0.3,0.2c0.4,0.4,0.7,0.8,1.1,1.1c0.2,0.2,0.2,0.4,0,0.6c-0.3,0.4-0.7,0.7-1,1.1
		c-0.5,0.5-1.1,1-1.6,1.4c-0.3,0.2-0.5,0.4-0.8,0.7c-0.2,0.1-0.3,0.1-0.5,0c-0.4-0.4-0.8-0.8-1.2-1.3c-0.2-0.2-0.1-0.3,0-0.5
		c0.5-0.6,1.1-1.1,1.7-1.7c0.4-0.4,0.8-0.7,1.2-1c0.2-0.2,0.4-0.3,0.6-0.4C-341.5,3.5-341.4,3.5-341.3,3.4
		C-341.4,3.4-341.3,3.4-341.3,3.4z"/>
	<path class="st0" d="M-336.4,3.4c0.2,0.2,0.5,0.4,0.7,0.6c0.4,0.3,0.9,0.7,1.3,1.1c0.5,0.5,1,1,1.5,1.6c0.1,0.1,0.1,0.1,0.2,0.2
		c0.1,0.1,0.1,0.2,0,0.4c0,0.1-0.1,0.2-0.2,0.2c-0.3,0.4-0.6,0.7-1,1c0,0-0.1,0.1-0.1,0.1c-0.1,0.1-0.3,0.1-0.4,0
		c-0.7-0.5-1.3-1.1-2-1.6c-0.5-0.5-1-1-1.5-1.5c0,0,0-0.1-0.1-0.1c-0.2-0.2-0.2-0.3,0-0.5c0.4-0.4,0.8-0.8,1.1-1.2
		C-336.7,3.5-336.6,3.5-336.4,3.4C-336.5,3.4-336.5,3.4-336.4,3.4z"/>
	<path class="st0" d="M-336.9,6.7c0.3,0.3,0.7,0.6,1,0.9c-0.3,0.3-0.5,0.6-0.8,0.9c-0.6,0.7-1.2,1.4-1.8,2.1c-0.3,0.3-0.7,0.6-1,0.9
		c-0.6,0.5-1.1,1.2-1.6,1.8c-0.4,0.5-0.7,0.9-1.1,1.3c-0.1,0.1-0.1,0.1-0.3,0c-0.4-0.2-0.7-0.5-0.9-0.9c-0.1-0.1-0.1-0.2,0-0.3
		c0.5-0.5,0.9-0.9,1.4-1.3c0.7-0.6,1.3-1.3,1.8-2c0.4-0.6,0.9-1.1,1.4-1.6c0.5-0.5,1-1,1.4-1.4C-337.2,7-337,6.8-336.9,6.7z"/>
	<path class="st0" d="M-338.6,11.3c0.4-0.3,0.7-0.7,1-1c0.1,0.1,0.1,0.2,0.2,0.3c0.4,0.6,0.9,1.1,1.5,1.6c0.5,0.4,0.9,0.9,1.3,1.3
		c0.1,0.1,0.2,0.2,0,0.3c-0.3,0.3-0.5,0.5-0.8,0.8c-0.2,0.2-0.3,0.2-0.4-0.1c-0.4-0.5-0.8-1-1.2-1.5
		C-337.4,12.4-338,11.9-338.6,11.3C-338.6,11.3-338.6,11.3-338.6,11.3z"/>
	<path class="st0" d="M-340.9,6.7c0.6,0.6,1.1,1.2,1.7,1.8c-0.3,0.4-0.7,0.7-1,1.1c-0.6-0.6-1.1-1.3-1.7-1.9
		C-341.6,7.3-341.3,7-340.9,6.7z"/>
	<path class="st0" d="M-344.1,5.3c-0.1-0.1-0.3-0.3-0.4-0.4c0.3-0.4,0.7-0.6,1-0.9c0.1,0.1,0.3,0.3,0.4,0.4
		C-343.4,4.7-343.8,5-344.1,5.3z"/>
	<path class="st0" d="M-333.4,4.9c-0.1,0.2-0.3,0.3-0.4,0.4c-0.3-0.3-0.7-0.6-1-0.9c0.1-0.1,0.2-0.3,0.4-0.4
		C-334.1,4.3-333.7,4.6-333.4,4.9z"/>
</g>
</svg>
