<?xml version="1.0" encoding="utf-8"?>
<!-- Generator: Adobe Illustrator 24.1.2, SVG Export Plug-In . SVG Version: 6.00 Build 0)  -->
<svg version="1.1" id="Capa_1" xmlns="http://www.w3.org/2000/svg" xmlns:xlink="http://www.w3.org/1999/xlink" x="0px" y="0px"
	 viewBox="0 0 24 24" style="enable-background:new 0 0 24 24;" xml:space="preserve">
<style type="text/css">
	.st0{fill:#FE7704;}
	.st1{fill:#8237ED;}
</style>
<g>
	<path class="st0" d="M15.4,6.3c-1.1-1.1-2.2-2.3-4-2.5c1.1-0.7,2.1-0.8,3.2-0.5c1.6,0.4,2.8,1.4,3.9,2.5c0.1,0.1,0.2,0.3,0.1,0.3
		c-0.2,0.6,0.3,0.7,0.6,1l0.1,0.1c0.9-0.2,1.1,0.7,1.6,1.1c0.1,0.1,0,0.4-0.1,0.5c-0.5,0.5-1,1-1.4,1.5c-0.3,0.3-0.5,0.3-0.8,0
		s-0.5-0.5-0.8-0.8c-0.1-0.1-0.2-0.2-0.2-0.3c0.2-0.7-0.5-0.9-0.8-1.3c-0.3,0.3-0.6,0.5-0.8,0.7c-0.3,0.2-0.4,0.5-0.9,0.4
		c-0.1,0-0.2,0.1-0.3,0.2c-0.8,0.8-1.6,1.6-2.4,2.4c-0.1,0.1-0.1,0.4-0.2,0.5c-0.1,0.3-0.2,0.5-0.4,0.7c-2.1,2.1-4.1,4.1-6.2,6.2
		c-0.3,0.3-0.6,0.5-0.5,1c0.1,0.4-0.5,0.7-0.8,0.5c-0.7,0-1.3-0.5-1.6-1.2c-0.2-0.4,0.2-1,0.6-1.2c0.2-0.1,0.4-0.2,0.6-0.3
		c2.1-2.1,4.3-4.3,6.4-6.4c0.2-0.2,0.6-0.2,0.8-0.4c0.1-0.1,0.3-0.1,0.4-0.2c0.8-0.8,1.7-1.7,2.5-2.5l0.1-0.1
		C14.2,7.3,15,7,15.4,6.3z"/>
	<path class="st0" d="M7.5,9C7.2,9,6.9,9.1,6.6,9.1c0.1-0.3,0.1-0.6,0.1-0.9c-0.3,0-0.6,0.1-0.9,0.1C5.9,8,5.9,7.7,6,7.4
		c-0.3,0-0.6,0-1,0.1c0.1-0.3,0.1-0.6,0.2-0.9c-0.3,0-0.6,0.1-0.9,0.1c0.1-0.3,0.1-0.6,0.2-0.9c-0.3,0-0.6,0.1-0.9,0.1
		C3.7,5.6,3.7,5.3,3.8,5c-0.4,0-0.7,0-1,0c0.6-0.7,1.1-1.3,1.7-2c2.7,2.2,5.3,4.4,8,6.7c-0.4,0.4-0.7,0.8-1.1,1
		c-0.6,0.2-1.1,0.4-1.5,0.8c-0.1,0.1-0.6,0-1,0C8.9,11.2,9,11,9,10.6c-0.3,0-0.6,0.1-0.9,0.1c0.1-0.3,0.1-0.6,0.2-0.9
		C8,9.9,7.7,9.9,7.3,9.9C7.4,9.6,7.4,9.3,7.5,9z"/>
	<path class="st0" d="M17.5,13.9c-0.5,0.2-0.9,0.3-1.3,0.4c-0.5,0.1-0.8,0.4-0.8,0.9c-0.1,0.4-0.2,0.9-0.3,1.3
		c-0.1,0.6-0.3,0.8-0.9,0.7c0-0.3,0.1-0.6,0.1-0.9c-0.3,0-0.6,0.1-0.9,0.1c0.1-0.3,0.1-0.6,0.2-0.9c-0.3,0-0.6,0.1-0.9,0.1
		c0.1-0.3,0.1-0.6,0.2-0.9c-0.3,0-0.6,0.1-0.9,0.1c0-0.3,0.1-0.6,0.1-0.9c-0.3,0-0.5,0.1-0.8,0.1c0.4-0.4,0.7-0.6,0.9-0.9
		c0.2-0.2,0.2-0.5,0.4-0.8c0.1-0.1,0.1-0.3,0.2-0.4c0.3-0.4,0.7-0.7,1.1-1.1C15,11.8,16.2,12.8,17.5,13.9z"/>
	<path class="st0" d="M17.9,14c0.1,0.1,0.3,0.1,0.4,0.2c0.9,0.7,1.7,1.5,2.6,2.2c0.1,0.1,0.2,0.4,0.2,0.5c-0.1,0.2-0.3,0.5-0.6,0.4
		c-0.1,0-0.3,0.1-0.4,0.1c-0.6,0.7-1.2,1.4-1.8,2.1c-0.1,0.1-0.2,0.3-0.1,0.3c0.2,0.4,0,0.6-0.3,0.8c-0.1,0.1-0.4,0-0.6-0.2
		c-0.7-0.6-1.4-1.2-2.1-1.8c-0.2-0.2-0.3-0.4-0.2-0.7c0.2-0.9,0.5-1.9,0.7-2.9c0.1-0.3,0.2-0.5,0.6-0.6C16.7,14.4,17.3,14.2,17.9,14
		z M16,17.6c0.1,0.2,0.1,0.4,0.1,0.6c0.5,1.1,1.4,1,1.9,0.4c0.3-0.4,0.7-0.8,1-1.2c0.4-0.5,0.4-1-0.1-1.4c-0.1-0.1-0.3-0.2-0.4-0.3
		c-0.7-0.5-1.8-0.3-2.2,0.6C16.2,16.6,16.1,17.1,16,17.6z"/>
</g>
<g>
	<path class="st1" d="M-104.5,20.3c-0.1,0.1-0.3,0.3-0.3,0.4c0,0.2,0,0.3,0,0.5c0,0.1-0.3,0.2-0.9,0.2c-3.4,0.2-6.8,0.4-10.3,0.7
		c-6.8,0.4-12.5,1.2-17.6,2c-1.3,0.2-2.3,0.4-2.8,0.7c-0.3,0.2-0.1,0.3,0.6,0.5c1.6,0.3,3.3,0.6,5,0.8c3.4,0.5,6.9,1,10.3,1.4
		c0.2,0,0.3,0.1,0.3,0.1c0,0.4,0,0.7,0,1.1c-0.8,0-1.6,0-2.3,0c-1.5,0-3.1,0-4.6,0c-0.3,0-0.8,0-1-0.1c-1.1-0.2-2.6-0.3-4.3-0.4
		c-0.7,0-1.4-0.1-2.1-0.1c-1.1-0.1-2.3-0.1-3.5-0.1c-6.9,0-13.9,0-20.8,0c-1.3,0-2.5,0.1-3.7,0.1c-0.9,0-1.8,0.1-2.8,0.2
		c-1.3,0.1-2.2,0.2-3,0.3c-0.3,0.1-0.7,0.1-1.2,0.1c-1.9,0-3.8,0-5.9,0c-0.1-0.2-0.1-0.3-0.2-0.5c-0.1-0.3-0.1-0.5-0.2-0.8
		c0-0.1,0.2-0.2,0.7-0.2c3.2-0.4,6.5-0.7,9.6-1.1c1.9-0.2,3.6-0.5,4.9-0.8c1.8-0.4,1.5-0.8-0.9-1.1c-0.8-0.1-1.6-0.2-2.4-0.2
		c-3.5-0.3-7-0.5-10.7-0.7c-0.6,0-0.7-0.1-0.7-0.2s-0.1-0.2-0.1-0.3c0-0.1-0.2-0.1-0.7-0.1c-5.9-0.3-11.8-0.6-17.7-1
		c-3.2-0.2-6.4-0.4-9.1-0.8c-0.7-0.1-1.4-0.2-1.9-0.3c-0.6-0.1-0.3-0.3,0.5-0.3c0.9,0,1.9-0.1,2.8-0.1c6.4-0.1,12.7-0.1,19.1-0.2
		c2,0,4,0,6,0c0.4,0,0.6,0,0.7-0.1c0.4-0.2,0.4-0.2,1.6-0.2c22.7,0,45.4,0,68.1,0c0.2,0,0.4,0,0.6,0c0.2,0.1,0.4,0.2,0.6,0.3
		C-104.5,20.2-104.5,20.3-104.5,20.3z"/>
	<path class="st1" d="M-169,7.9c0.6,0.1,1.3,0.1,1.8,0.2c2.1,0.4,4.2,0.8,6.3,1.1c1.1,0.2,1.1,0.4-0.1,0.6c-2.1,0.4-4.2,0.7-6.1,1.1
		c-2.9,0.5-6.3,1-9.6,1.4c-1.6,0.2-3.2,0.4-4.7,0.7c-1,0.1-2,0.1-2.9,0c-2.3-0.4-4.6-0.8-6.9-1.3c-0.9-0.2-0.9-0.3,0.1-0.5
		c3.3-0.6,6.5-1.1,9.9-1.7c2.3-0.4,4.9-0.7,7.4-1c1.1-0.2,2.2-0.3,3.3-0.4c0.4-0.1,0.8-0.1,1.3-0.1C-169.3,7.9-169.1,7.9-169,7.9z"
		/>
	<path class="st1" d="M-140,7.9c1.4,0.2,2.8,0.4,4.2,0.6c2.5,0.3,5.2,0.7,7.6,1.1c3.2,0.5,6.1,1,9.1,1.6c0.3,0.1,0.6,0.1,0.9,0.2
		c0.7,0.1,0.8,0.2,0.3,0.4c-0.3,0.1-0.7,0.2-1.1,0.2c-1.9,0.4-3.8,0.7-5.7,1c-0.2,0-0.4,0.1-0.7,0.1c-0.8,0.1-1.6,0.1-2.4,0
		c-3.9-0.5-7.9-1.1-11.6-1.6c-3.1-0.5-5.9-1-8.9-1.5c-0.1,0-0.3-0.1-0.4-0.1c-1-0.2-1.1-0.3-0.1-0.5c2.3-0.4,4.5-0.8,6.8-1.2
		c0.4-0.1,0.9-0.1,1.4-0.1C-140.4,7.9-140.2,7.9-140,7.9z"/>
	<path class="st1" d="M-142.8,11.2c2,0.3,4,0.6,6,0.9c-1.5,0.3-3.1,0.6-4.6,0.9c-3.5,0.7-6.9,1.4-10.5,2.1c-1.8,0.3-3.9,0.6-6,0.9
		c-3.6,0.5-6.5,1.2-9.5,1.8c-2.1,0.5-4.3,0.9-6.5,1.3c-0.6,0.1-0.9,0.1-1.7,0c-2.1-0.2-4-0.5-5.7-0.9c-0.6-0.1-0.6-0.2,0.1-0.3
		c2.8-0.5,5.5-0.9,8.3-1.3c3.9-0.6,7.5-1.3,10.6-2c2.5-0.6,5.5-1.1,8.5-1.6c2.8-0.5,5.7-1,8.5-1.4
		C-144.3,11.5-143.6,11.3-142.8,11.2z"/>
	<path class="st1" d="M-152.9,15.8c2.1-0.3,4.2-0.7,6.2-1c0.3,0.1,0.8,0.2,1.3,0.3c2.5,0.6,5.6,1.1,8.8,1.6c2.7,0.4,5.3,0.9,8,1.3
		c0.9,0.1,0.9,0.2,0,0.3c-1.6,0.3-3.2,0.5-5,0.8c-1.3,0.2-1.5,0.2-2.6-0.1c-2.3-0.5-4.7-1-7-1.5c-2.8-0.6-5.9-1.2-9.4-1.7
		C-152.7,15.8-152.8,15.8-152.9,15.8z"/>
	<path class="st1" d="M-166.9,11.2c3.4,0.6,6.8,1.2,10.2,1.8c-2,0.4-4,0.7-6.1,1.1c-3.3-0.6-6.7-1.3-10-1.9
		C-170.8,11.8-168.8,11.5-166.9,11.2z"/>
	<path class="st1" d="M-185.7,9.8c-0.8-0.1-1.6-0.3-2.5-0.4c1.7-0.4,4-0.6,6.2-0.9c0.8,0.1,1.6,0.3,2.4,0.4
		C-181.7,9.2-183.7,9.5-185.7,9.8z"/>
	<path class="st1" d="M-121.8,9.4c-0.8,0.2-1.5,0.3-2.2,0.4c-2-0.3-4-0.6-6-0.9c0.7-0.1,1.4-0.3,2.2-0.4
		C-125.8,8.8-123.8,9.1-121.8,9.4z"/>
</g>
</svg>
