<?xml version="1.0" encoding="utf-8"?>
<!-- Generator: Adobe Illustrator 24.1.2, SVG Export Plug-In . SVG Version: 6.00 Build 0)  -->
<svg version="1.1" id="Capa_1" xmlns="http://www.w3.org/2000/svg" xmlns:xlink="http://www.w3.org/1999/xlink" x="0px" y="0px"
	 viewBox="0 0 24 24" style="enable-background:new 0 0 24 24;" xml:space="preserve">
<style type="text/css">
	.st0{fill:#FE7704;}
	.st1{fill:none;}
	.st2{fill:#8237ED;}
</style>
<g>
	<path class="st0" d="M-63.3-8.8c5.2,0,10.3,0,15.5,0v0.1c0,6.1,0,12.3,0,18.4c0,0.3-0.1,0.4-0.4,0.4c-4.9,0-9.8,0-14.8,0
		c-0.3,0-0.4-0.1-0.4-0.4c0-6.1,0-12.2,0-18.3C-63.3-8.7-63.3-8.7-63.3-8.8z M-55.5-6.9c-2,0-3.9,0-5.9,0c-0.3,0-0.5,0.2-0.5,0.5
		c0,1,0,2,0,3c0,0.4,0.2,0.6,0.6,0.6c3.9,0,7.8,0,11.7,0c0.4,0,0.5-0.2,0.5-0.5c0-1,0-2,0-3c0-0.3-0.2-0.6-0.6-0.6
		C-51.6-6.9-53.6-6.9-55.5-6.9z M-55.5-1.4c-2,0-3.9,0-5.9,0c-0.3,0-0.5,0.2-0.5,0.5c0,1,0,2.1,0,3.1c0,0.3,0.2,0.5,0.5,0.5
		c3.9,0,7.8,0,11.8,0c0.3,0,0.5-0.2,0.5-0.5c0-1,0-2.1,0-3.1c0-0.3-0.2-0.5-0.5-0.5C-51.6-1.4-53.5-1.4-55.5-1.4z M-55.5,4
		c-2,0-3.9,0-5.9,0c-0.3,0-0.5,0.2-0.5,0.5c0,1,0,2.1,0,3.1c0,0.3,0.2,0.5,0.5,0.5c3.9,0,7.8,0,11.8,0c0.3,0,0.5-0.2,0.5-0.5
		c0-1,0-2.1,0-3.1V4.4c0-0.2-0.2-0.4-0.5-0.4C-51.6,4-53.5,4-55.5,4z"/>
	<path class="st0" d="M-55.5-10c2.7,0,5.5,0,8.2,0c0.2,0,0.2,0,0.2,0.2c0,0.2,0,0.4,0,0.6s0,0.2-0.2,0.2c-2.8,0-5.6,0-8.5,0
		c-2.7,0-5.4,0-8.1,0c-0.2,0-0.2,0-0.2-0.2s0-0.4,0-0.6c0-0.2,0-0.2,0.2-0.2c1.7,0,3.4,0,5.2,0C-57.5-10-56.5-10-55.5-10z"/>
	<path class="st1" d="M-55.5-6.9c1.9,0,3.9,0,5.8,0c0.4,0,0.6,0.2,0.6,0.6c0,1,0,2,0,3c0,0.3-0.2,0.5-0.5,0.5c-3.9,0-7.8,0-11.7,0
		c-0.4,0-0.5-0.2-0.6-0.6c0-1,0-2,0-3c0-0.3,0.2-0.5,0.5-0.5C-59.4-6.9-57.5-6.9-55.5-6.9z M-55.5-3.8c0.4,0,0.7-0.3,0.7-0.7
		s-0.3-0.7-0.7-0.7c-0.4,0-0.7,0.3-0.7,0.7C-56.2-4.2-55.9-3.8-55.5-3.8z"/>
	<path class="st1" d="M-55.5-1.4c2,0,3.9,0,5.9,0c0.4,0,0.5,0.2,0.5,0.5c0,1,0,2.1,0,3.1c0,0.3-0.2,0.5-0.5,0.5c-3.9,0-7.8,0-11.8,0
		c-0.3,0-0.5-0.2-0.5-0.5c0-1,0-2.1,0-3.1c0-0.3,0.2-0.5,0.5-0.5C-59.4-1.4-57.5-1.4-55.5-1.4z M-55.5,0.2c-0.4,0-0.7,0.3-0.7,0.7
		s0.3,0.7,0.7,0.7c0.4,0,0.7-0.3,0.7-0.7C-54.8,0.5-55.1,0.2-55.5,0.2z"/>
	<path class="st1" d="M-55.5,4c2,0,3.9,0,5.9,0c0.3,0,0.5,0.1,0.5,0.4v0.1c0,1,0,2.1,0,3.1c0,0.3-0.2,0.5-0.5,0.5
		c-3.9,0-7.8,0-11.8,0c-0.3,0-0.5-0.2-0.5-0.5c0-1,0-2.1,0-3.1c0-0.3,0.2-0.5,0.5-0.5C-59.4,4-57.5,4-55.5,4z M-55.5,5.7
		c-0.4,0-0.7,0.3-0.7,0.7c0,0.4,0.3,0.7,0.7,0.7c0.4,0,0.7-0.3,0.7-0.7S-55.1,5.7-55.5,5.7z"/>
	<path class="st0" d="M-55.5-3.8c-0.4,0-0.7-0.3-0.7-0.7s0.3-0.7,0.7-0.7c0.4,0,0.7,0.3,0.7,0.7S-55.1-3.8-55.5-3.8z"/>
	<path class="st0" d="M-55.5,0.2c0.4,0,0.7,0.3,0.7,0.7s-0.3,0.7-0.7,0.7c-0.4,0-0.7-0.3-0.7-0.7C-56.2,0.5-55.9,0.2-55.5,0.2z"/>
	<path class="st0" d="M-55.5,5.7c0.4,0,0.7,0.3,0.7,0.7c0,0.4-0.3,0.7-0.7,0.7c-0.4,0-0.7-0.3-0.7-0.7S-55.9,5.7-55.5,5.7z"/>
</g>
<g>
	<path class="st2" d="M-77.8-5.1c0,0.1,0,0.3-0.1,0.4c0,0.2,0,0.3,0,0.5c0,0.1,0,0.2-0.2,0.2c-0.6,0.2-1.1,0.4-1.7,0.7
		c-1.1,0.4-2.1,1.2-3,2c-0.2,0.2-0.4,0.4-0.5,0.7c0,0.2,0,0.3,0.1,0.5c0.3,0.3,0.5,0.6,0.8,0.8c0.6,0.5,1.2,1,1.7,1.4l0.1,0.1
		c0,0.4,0,0.7,0,1.1c-0.1,0-0.3,0-0.4,0c-0.3,0-0.5,0-0.8,0c-0.1,0-0.1,0-0.2-0.1c0.1-0.1-0.2-0.2-0.5-0.2c-0.1,0-0.2-0.1-0.4-0.1
		c-0.2-0.1-0.4-0.1-0.6-0.1c-1.2,0-2.3,0-3.5,0c-0.2,0-0.4,0.1-0.6,0.1C-87.7,2.9-87.8,3-88,3c-0.2,0.1-0.4,0.2-0.5,0.3
		s-0.1,0.1-0.2,0.1c-0.3,0-0.6,0-1,0c0-0.2,0-0.3,0-0.5c0-0.3,0-0.5,0-0.8c0-0.1,0-0.2,0.1-0.2c0.5-0.4,1.1-0.7,1.6-1.1
		c0.3-0.2,0.6-0.5,0.8-0.8c0.3-0.4,0.3-0.8-0.2-1.1c-0.1-0.1-0.3-0.2-0.4-0.2C-88.4-1.6-89-1.8-89.6-2c-0.1,0-0.1-0.1-0.1-0.2
		c0-0.1,0-0.2,0-0.3s0-0.1-0.1-0.1c-1-0.3-2-0.6-3-1c-0.5-0.2-1.1-0.4-1.5-0.8c-0.1-0.1-0.2-0.2-0.3-0.3C-94.7-4.8-94.7-5-94.5-5
		s0.3-0.1,0.5-0.1c1.1-0.1,2.1-0.1,3.2-0.2c0.3,0,0.7,0,1,0c0.1,0,0.1,0,0.1-0.1c0.1-0.2,0.1-0.2,0.3-0.2c3.8,0,7.6,0,11.4,0h0.1
		c0,0.1,0.1,0.2,0.1,0.3C-77.8-5.2-77.8-5.1-77.8-5.1z"/>
	<path class="st2" d="M-88.6-17.5c0.1,0.1,0.2,0.1,0.3,0.2c0.4,0.4,0.7,0.8,1.1,1.1c0.2,0.2,0.2,0.4,0,0.6c-0.3,0.4-0.7,0.7-1,1.1
		c-0.5,0.5-1.1,1-1.6,1.4c-0.3,0.2-0.5,0.4-0.8,0.7c-0.2,0.1-0.3,0.1-0.5,0c-0.4-0.4-0.8-0.8-1.2-1.3c-0.2-0.2-0.1-0.3,0-0.5
		c0.5-0.6,1.1-1.1,1.7-1.7c0.4-0.4,0.8-0.7,1.2-1c0.2-0.2,0.4-0.3,0.6-0.4C-88.8-17.4-88.8-17.5-88.6-17.5
		C-88.7-17.5-88.6-17.5-88.6-17.5z"/>
	<path class="st2" d="M-83.8-17.5c0.2,0.2,0.5,0.4,0.7,0.6c0.4,0.3,0.9,0.7,1.3,1.1c0.5,0.5,1,1,1.5,1.6c0.1,0.1,0.1,0.1,0.2,0.2
		c0.1,0.1,0.1,0.2,0,0.4c0,0.1-0.1,0.2-0.2,0.2c-0.3,0.4-0.6,0.7-1,1l-0.1,0.1c-0.1,0.1-0.3,0.1-0.4,0c-0.7-0.5-1.3-1.1-2-1.6
		c-0.5-0.5-1-1-1.5-1.5c0,0,0-0.1-0.1-0.1c-0.2-0.2-0.2-0.3,0-0.5c0.4-0.4,0.8-0.8,1.1-1.2C-84-17.4-83.9-17.5-83.8-17.5L-83.8-17.5
		z"/>
	<path class="st2" d="M-84.2-14.2c0.3,0.3,0.7,0.6,1,0.9c-0.3,0.3-0.5,0.6-0.8,0.9c-0.6,0.7-1.2,1.4-1.8,2.1c-0.3,0.3-0.7,0.6-1,0.9
		c-0.6,0.5-1.1,1.2-1.6,1.8c-0.4,0.5-0.7,0.9-1.1,1.3c-0.1,0.1-0.1,0.1-0.3,0c-0.4-0.2-0.7-0.5-0.9-0.9c-0.1-0.1-0.1-0.2,0-0.3
		c0.5-0.5,0.9-0.9,1.4-1.3c0.7-0.6,1.3-1.3,1.8-2c0.4-0.6,0.9-1.1,1.4-1.6s1-1,1.4-1.4C-84.5-13.9-84.4-14.1-84.2-14.2z"/>
	<path class="st2" d="M-85.9-9.6c0.4-0.3,0.7-0.7,1-1c0.1,0.1,0.1,0.2,0.2,0.3c0.4,0.6,0.9,1.1,1.5,1.6c0.5,0.4,0.9,0.9,1.3,1.3
		c0.1,0.1,0.2,0.2,0,0.3c-0.3,0.3-0.5,0.5-0.8,0.8c-0.2,0.2-0.3,0.2-0.4-0.1c-0.4-0.5-0.8-1-1.2-1.5C-84.8-8.5-85.3-9.1-85.9-9.6
		L-85.9-9.6z"/>
	<path class="st2" d="M-88.3-14.2c0.6,0.6,1.1,1.2,1.7,1.8c-0.3,0.4-0.7,0.7-1,1.1c-0.6-0.6-1.1-1.3-1.7-1.9
		C-88.9-13.6-88.6-13.9-88.3-14.2z"/>
	<path class="st2" d="M-91.4-15.6c-0.1-0.1-0.3-0.3-0.4-0.4c0.3-0.4,0.7-0.6,1-0.9c0.1,0.1,0.3,0.3,0.4,0.4
		C-90.7-16.3-91.1-16-91.4-15.6z"/>
	<path class="st2" d="M-80.7-16c-0.1,0.2-0.3,0.3-0.4,0.4c-0.3-0.3-0.7-0.6-1-0.9c0.1-0.1,0.2-0.3,0.4-0.4
		C-81.4-16.7-81-16.4-80.7-16z"/>
</g>
<g>
	<path class="st0" d="M12,19.8c-0.1,0-0.3,0-0.5,0c-0.6,0-1.2,0.2-1.7,0.6c-0.4,0.4-0.7,0.7-1.1,1.1c-0.2,0.2-0.5,0.3-0.8,0.1
		c-2.2-1.1-3.9-2.7-5-5c-0.2-0.3-0.1-0.6,0.2-0.8c0.3-0.3,0.6-0.6,0.9-0.9c0.6-0.5,0.8-1.2,0.8-2C4.7,11.2,5.1,9.5,6,8.1
		c1.6-2.3,3.8-3.5,6.6-3.4c0.1,0,0.3,0.1,0.4,0.1c-0.1,0.1-0.1,0.3-0.2,0.4c-1.2,1.2-2.4,2.5-3.7,3.7C8.8,9.2,8.8,9.5,8.9,9.8
		c0.4,1.4,0.8,2.8,1.1,4.1c0.1,0.3,0.3,0.5,0.6,0.6c1.4,0.4,2.8,0.7,4.2,1.1c0.4,0.1,0.6,0,0.9-0.2c1.2-1.2,2.4-2.4,3.6-3.6
		c0.1-0.1,0.3-0.2,0.4-0.2c0.1,0.2,0.2,0.3,0.2,0.5C20,16.4,16.5,19.9,12,19.8z"/>
	<path class="st0" d="M18.3,11.7c-0.1,0.1-0.1,0.3-0.3,0.4c-0.9,0.9-1.8,1.8-2.6,2.6C15.2,15,15,15.1,14.7,15
		c-1.2-0.3-2.4-0.6-3.7-1c-0.2-0.1-0.4-0.3-0.5-0.5c-0.4-1.2-0.7-2.4-1-3.7c-0.1-0.3,0-0.5,0.2-0.7c0.9-0.9,1.8-1.7,2.6-2.6
		c0.2-0.2,0.4-0.3,0.7-0.2c1.1,0.3,2.3,0.6,3.4,0.9C17,7.4,17.2,7.6,17.3,8c0.3,1.2,0.6,2.3,0.9,3.4C18.3,11.5,18.3,11.6,18.3,11.7z
		 M13.9,12.9c1.2,0,2.2-1,2.2-2.2c0-1.2-1-2.2-2.2-2.2c-1.2,0-2.2,1-2.2,2.2C11.7,11.9,12.7,12.8,13.9,12.9z"/>
	<path class="st0" d="M2,12.4C2,7.2,5.5,3,10.4,2c5.8-1.1,11.4,2.8,12.3,8.6c0.8,5.5-2.8,10.7-8.3,11.7c-1.5,0.3-3.1,0.3-4.6-0.1
		c-0.1,0-0.3-0.1-0.4-0.2c-0.1-0.1-0.1-0.3,0-0.3c0.1-0.1,0.3-0.1,0.4-0.1c0.7,0.1,1.4,0.3,2.1,0.3c4.9,0.2,9.1-3.1,10.1-8
		c0.9-4.6-1.8-9.4-6.3-10.9C10.4,1.2,4.7,4,3,9.3c-0.5,1.7-0.6,3.4-0.2,5.1c0,0.1,0.1,0.3,0.1,0.4c0,0.1-0.1,0.3-0.2,0.4
		c-0.1-0.1-0.4-0.2-0.4-0.3c-0.1-0.5-0.2-1.1-0.3-1.6C2,13,2,12.6,2,12.4z"/>
</g>
</svg>
