<?xml version="1.0" encoding="utf-8"?>
<!-- Generator: Adobe Illustrator 24.1.2, SVG Export Plug-In . SVG Version: 6.00 Build 0)  -->
<svg version="1.1" id="Capa_1" xmlns="http://www.w3.org/2000/svg" xmlns:xlink="http://www.w3.org/1999/xlink" x="0px" y="0px"
	 viewBox="0 0 24 24" style="enable-background:new 0 0 24 24;" xml:space="preserve">
<style type="text/css">
	.st0{fill:none;stroke:#2B2B2B;stroke-linecap:round;stroke-linejoin:round;}
	.st1{fill:#FE7704;}
</style>
<line class="st0" x1="83.3" y1="-29.4" x2="92.3" y2="-38.4"/>
<path class="st0" d="M95.6-26.2l2-2l1,1l-2,2L95.6-26.2z"/>
<line class="st0" x1="62.9" y1="-25.7" x2="64.9" y2="-27.7"/>
<path class="st0" d="M103.6-8.2c-1.5-0.7-3.3-0.1-4,1.4c-0.4,0.8-0.4,1.8,0,2.6l-4,4l1.5,1.5l4-4c1.5,0.7,3.3,0.1,4-1.4
	c0.4-0.8,0.4-1.8,0-2.6l-1.5,1.5l-1.5-1.5L103.6-8.2z"/>
<g>
	<g>
		<path class="st1" d="M19.6,1.5c-0.3,0.3-0.5,0.5-0.8,0.8c-0.4,0.4-0.8,0.8-1.2,1.2c-0.1,0.1-0.1,0.1-0.1,0.3
			c0.1,0.4,0.2,0.9,0.3,1.3c0,0.1,0.1,0.1,0.2,0.2c0.5,0.1,0.9,0.2,1.4,0.4c0.1,0,0.1,0,0.2-0.1c0.6-0.6,1.2-1.2,1.9-1.9l0.1-0.1
			c0.1,0.3,0.1,0.6,0.2,0.8C22,6.1,21,7.6,19.4,8.1c-0.6,0.2-1.2,0.2-1.9,0.1c-0.1,0-0.2,0-0.2,0.1c-2.3,2.3-4.5,4.5-6.8,6.8
			c-2,2-4,4-6.1,6.1c-0.6,0.6-1.3,0.7-2,0.4c-1.1-0.5-1.4-2-0.5-2.8c2.9-2.9,5.9-5.9,8.8-8.8c1.4-1.4,2.7-2.7,4.1-4.1
			C15,5.7,15,5.6,15,5.5c-0.5-2.3,1.3-4.3,3.6-4.2C19,1.3,19.3,1.4,19.6,1.5z M2.7,19.9c0,0.3,0.3,0.6,0.6,0.6s0.6-0.3,0.6-0.6
			c0-0.3-0.3-0.6-0.6-0.6S2.7,19.6,2.7,19.9z"/>
		<path class="st1" d="M12.4,14.8c0.9-0.9,1.8-1.7,2.6-2.6l0.1,0.1c2.1,2.1,4.2,4.2,6.3,6.3c0.3,0.3,0.4,0.7,0.5,1.1
			c0,0.7-0.2,1.3-0.9,1.7c-0.6,0.4-1.2,0.4-1.9,0.1c-0.2-0.1-0.3-0.2-0.5-0.4C16.6,19,14.5,16.9,12.4,14.8L12.4,14.8z"/>
		<path class="st1" d="M1.5,2.2c0.3-0.3,0.6-0.6,0.9-0.9c0.1,0.1,0.2,0.2,0.3,0.2C3.3,2,3.9,2.5,4.5,3c0.1,0,0.1,0.1,0.1,0.2
			c0.2,0.3,0.4,0.7,0.5,1c0.1,0.2,0.2,0.3,0.3,0.4C7,6,8.5,7.5,10,9l0.1,0.1C9.9,9.4,9.6,9.6,9.4,9.8C9.2,9.7,9.1,9.6,8.9,9.4
			C7.5,8,6.1,6.5,4.6,5.1C4.6,5,4.5,5,4.4,5c-0.3-0.2-0.7-0.4-1-0.6L3.3,4.3C2.7,3.6,2.1,2.9,1.5,2.2C1.6,2.2,1.6,2.2,1.5,2.2z"/>
	</g>
</g>
<image style="overflow:visible;enable-background:new    ;" width="458" height="379" xlink:href="C49FE860.jpg"  transform="matrix(0.2383 0 0 0.2383 -146.6292 -24.654)">
</image>
</svg>
