<?xml version="1.0" encoding="utf-8"?>
<!-- Generator: Adobe Illustrator 24.1.2, SVG Export Plug-In . SVG Version: 6.00 Build 0)  -->
<svg version="1.1" id="Capa_1" xmlns="http://www.w3.org/2000/svg" xmlns:xlink="http://www.w3.org/1999/xlink" x="0px" y="0px"
	 viewBox="0 0 24 24" style="enable-background:new 0 0 24 24;" xml:space="preserve">
<style type="text/css">
	.st0{fill:#FE7704;}
	.st1{fill:#8237ED;}
</style>
<g>
	<path class="st0" d="M12,6.1c-2.9,2.4-5.8,4.8-8.8,7.2C3.1,13.4,3,13.6,3,13.7c0,2.4,0,4.8,0,7.2c0,0.6,0.4,1,0.9,1c2,0,4,0,6,0
		c0-2,0-3.9,0-5.9c1.4,0,2.6,0,4,0c0,2,0,3.9,0,5.9c2,0,3.8,0,5.7,0c0.8,0,1.2-0.4,1.2-1.2c0-2.3,0-4.6,0-6.9c0-0.2-0.1-0.5-0.3-0.6
		c-0.9-0.8-1.8-1.5-2.7-2.2C16,9.3,14,7.7,12,6.1z"/>
	<path class="st0" d="M-0.5,11.9C1,10.6,2.6,9.3,4.1,8c2.2-1.8,4.3-3.6,6.5-5.4c0.9-0.8,1.9-0.8,2.8,0c1.1,1,2.3,1.9,3.6,3
		c0-0.8,0-1.6,0-2.3c0-1.2,0-1.2,1.2-1.2c0.7,0,1.3,0,2,0c0.6,0,0.8,0.1,0.8,0.8c0,1.9,0,3.7,0,5.6c0,0.2,0.2,0.6,0.3,0.7
		c1.1,0.9,2.1,1.8,3.2,2.7c0,0.1,0,0.2,0,0.3c-0.3,0.4-0.6,0.7-0.9,1.1c-0.4,0.5-0.6,0.5-1.1,0.1c-1.8-1.5-3.6-3-5.5-4.6
		c-1.7-1.4-3.4-2.8-5.1-4.2c-1,0.8-2,1.6-2.9,2.4c-2.5,2.1-5,4.2-7.5,6.3c-0.5,0.4-0.7,0.4-1.1-0.1c-0.3-0.3-0.6-0.7-0.9-1.1
		C-0.5,12.2-0.5,12.1-0.5,11.9z"/>
	<path class="st0" d="M12,6.1c2,1.6,4,3.3,5.9,4.9c0.9,0.7,1.8,1.5,2.7,2.2c0.2,0.1,0.3,0.4,0.3,0.6c0,2.3,0,4.6,0,6.9
		c0,0.8-0.4,1.2-1.2,1.2c-1.9,0-3.8,0-5.7,0c0-2,0-4,0-5.9c-1.4,0-2.6,0-4,0c0,2,0,3.9,0,5.9c-2,0-4,0-6,0c-0.6,0-0.9-0.4-0.9-1
		c0-2.4,0-4.8,0-7.2c0-0.1,0.1-0.3,0.2-0.4C6.2,10.9,9.1,8.5,12,6.1z"/>
</g>
<g>
	<path class="st1" d="M-88.5,20.3c0,0.1,0,0.3-0.1,0.4c0,0.2,0,0.3,0,0.5c0,0.1,0,0.2-0.2,0.2c-0.6,0.2-1.1,0.4-1.7,0.7
		c-1.1,0.4-2.1,1.2-3,2c-0.2,0.2-0.4,0.4-0.5,0.7c0,0.2,0,0.3,0.1,0.5c0.3,0.3,0.5,0.6,0.8,0.8c0.6,0.5,1.2,1,1.7,1.4l0.1,0.1
		c0,0.4,0,0.7,0,1.1c-0.1,0-0.3,0-0.4,0c-0.3,0-0.5,0-0.8,0c-0.1,0-0.1,0-0.2-0.1c-0.2-0.2-0.4-0.3-0.7-0.4c-0.1,0-0.2-0.1-0.4-0.1
		C-94,28-94.2,28-94.4,28c-1.2,0-2.3,0-3.5,0c-0.2,0-0.4,0.1-0.6,0.1s-0.3,0.1-0.5,0.2s-0.4,0.2-0.5,0.3c-0.1,0.1-0.1,0.1-0.2,0.1
		c-0.3,0-0.6,0-1,0c0-0.2,0-0.3,0-0.5c0-0.3,0-0.5,0-0.8c0-0.1,0-0.2,0.1-0.2c0.5-0.4,1.1-0.7,1.6-1.1c0.3-0.2,0.6-0.5,0.8-0.8
		c0.3-0.4,0.3-0.8-0.2-1.1c-0.1-0.1-0.3-0.2-0.4-0.2c-0.6-0.3-1.2-0.5-1.8-0.7c-0.1,0-0.1-0.1-0.1-0.2s0-0.2,0-0.3
		c0-0.1,0-0.1-0.1-0.1c-1-0.3-2-0.6-3-1c-0.5-0.2-1.1-0.4-1.5-0.8c-0.1-0.1-0.2-0.2-0.3-0.3c-0.1-0.1-0.1-0.3,0.1-0.3
		s0.3-0.1,0.5-0.1c1.1-0.1,2.1-0.1,3.2-0.2c0.3,0,0.7,0,1,0c0.1,0,0.1,0,0.1-0.1c0.1-0.2,0.1-0.2,0.3-0.2c3.8,0,7.6,0,11.4,0h0.1
		c0,0.1,0.1,0.2,0.1,0.3C-88.5,20.2-88.5,20.3-88.5,20.3z"/>
	<path class="st1" d="M-99.3,7.9C-99.2,8-99.1,8-99,8.1c0.4,0.4,0.7,0.8,1.1,1.1c0.2,0.2,0.2,0.4,0,0.6c-0.3,0.4-0.7,0.7-1,1.1
		c-0.5,0.5-1.1,1-1.6,1.4c-0.3,0.2-0.5,0.4-0.8,0.7c-0.2,0.1-0.3,0.1-0.5,0c-0.4-0.4-0.8-0.8-1.2-1.3c-0.2-0.2-0.1-0.3,0-0.5
		c0.5-0.6,1.1-1.1,1.7-1.7c0.4-0.4,0.8-0.7,1.2-1c0.2-0.2,0.4-0.3,0.6-0.4C-99.6,8-99.5,7.9-99.3,7.9C-99.4,7.9-99.4,7.9-99.3,7.9z"
		/>
	<path class="st1" d="M-94.5,7.9c0.2,0.2,0.5,0.4,0.7,0.6c0.4,0.3,0.9,0.7,1.3,1.1c0.5,0.5,1,1,1.5,1.6c0.1,0.1,0.1,0.1,0.2,0.2
		c0.1,0.1,0.1,0.2,0,0.4c0,0.1-0.1,0.2-0.2,0.2c-0.3,0.4-0.6,0.7-1,1l-0.1,0.1c-0.1,0.1-0.3,0.1-0.4,0c-0.7-0.5-1.3-1.1-2-1.6
		c-0.5-0.5-1-1-1.5-1.5c0,0,0-0.1-0.1-0.1c-0.2-0.2-0.2-0.3,0-0.5c0.4-0.4,0.8-0.8,1.1-1.2C-94.7,8-94.6,8-94.5,7.9L-94.5,7.9z"/>
	<path class="st1" d="M-94.9,11.2c0.3,0.3,0.7,0.6,1,0.9c-0.3,0.3-0.5,0.6-0.8,0.9c-0.6,0.7-1.2,1.4-1.8,2.1c-0.3,0.3-0.7,0.6-1,0.9
		c-0.6,0.5-1.1,1.2-1.6,1.8c-0.4,0.5-0.7,0.9-1.1,1.3c-0.1,0.1-0.1,0.1-0.3,0c-0.4-0.2-0.7-0.5-0.9-0.9c-0.1-0.1-0.1-0.2,0-0.3
		c0.5-0.5,0.9-0.9,1.4-1.3c0.7-0.6,1.3-1.3,1.8-2c0.4-0.6,0.9-1.1,1.4-1.6s1-1,1.4-1.4C-95.2,11.5-95.1,11.3-94.9,11.2z"/>
	<path class="st1" d="M-96.6,15.8c0.4-0.3,0.7-0.7,1-1c0.1,0.1,0.1,0.2,0.2,0.3c0.4,0.6,0.9,1.1,1.5,1.6c0.5,0.4,0.9,0.9,1.3,1.3
		c0.1,0.1,0.2,0.2,0,0.3c-0.3,0.3-0.5,0.5-0.8,0.8c-0.2,0.2-0.3,0.2-0.4-0.1c-0.4-0.5-0.8-1-1.2-1.5C-95.5,16.9-96,16.3-96.6,15.8
		L-96.6,15.8z"/>
	<path class="st1" d="M-99,11.2c0.6,0.6,1.1,1.2,1.7,1.8c-0.3,0.4-0.7,0.7-1,1.1c-0.6-0.6-1.1-1.3-1.7-1.9
		C-99.6,11.8-99.3,11.5-99,11.2z"/>
	<path class="st1" d="M-102.1,9.8c-0.1-0.1-0.3-0.3-0.4-0.4c0.3-0.4,0.7-0.6,1-0.9c0.1,0.1,0.3,0.3,0.4,0.4
		C-101.5,9.2-101.8,9.5-102.1,9.8z"/>
	<path class="st1" d="M-91.4,9.4c-0.1,0.2-0.3,0.3-0.4,0.4c-0.3-0.3-0.7-0.6-1-0.9c0.1-0.1,0.2-0.3,0.4-0.4
		C-92.1,8.8-91.8,9.1-91.4,9.4z"/>
</g>
</svg>
