<?xml version="1.0" encoding="utf-8"?>
<!-- Generator: Adobe Illustrator 24.1.2, SVG Export Plug-In . SVG Version: 6.00 Build 0)  -->
<svg version="1.1" id="Capa_1" xmlns="http://www.w3.org/2000/svg" xmlns:xlink="http://www.w3.org/1999/xlink" x="0px" y="0px"
	 viewBox="0 0 24 24" style="enable-background:new 0 0 24 24;" xml:space="preserve">
<style type="text/css">
	.st0{fill:#FE7704;}
	.st1{fill:#FFFFFF;}
	.st2{fill:#8237ED;}
</style>
<g>
	<path class="st0" d="M-1,0c1.8,1,3.7,1.9,5.5,2.9C5,3.2,5.6,3.4,6.1,3.7C6.3,3.8,6.4,4,6.4,4.2c0,5.6,0,11.2,0,16.9
		c0,0.2-0.2,0.4-0.3,0.5c-2.3,1.1-4.6,2.1-6.9,3.2c-0.1,0-0.1,0-0.2,0C-1,16.5-1,8.3-1,0z M3.2,9.2c0-1.8,0-3.5,0-5.3
		c0-0.1-0.1-0.3-0.2-0.4c-0.8-0.3-1.7-0.6-2.5-1c0,2.1,0,4.1,0,6.2C1.4,8.9,2.2,9.1,3.2,9.2z M0.5,9.3c0,2.1,0,4.1,0,6.2
		c0.9-0.1,1.8-0.1,2.7-0.2c0-1.9,0-3.7,0-5.5C2.3,9.6,1.4,9.5,0.5,9.3z M0.4,22.3C1.3,22,2,21.8,2.8,21.5c0.3-0.1,0.4-0.3,0.4-0.6
		c0-1.5,0-3.1,0-4.6c0-0.1,0-0.3,0-0.5c-0.9,0.1-1.8,0.2-2.7,0.3C0.4,18.2,0.4,20.2,0.4,22.3z M3.7,15.8c0,1.8,0,3.5,0,5.3
		c1.7-0.3,1.8-0.5,1.8-2.1c0-0.4,0-0.8,0-1.2c0-0.7,0-1.4,0-2.2C4.9,15.6,4.3,15.7,3.7,15.8z M3.7,9.4c0.6,0.1,1.2,0.3,1.8,0.4
		c0-1.6,0-3.1,0-4.6c0-0.1-0.1-0.2-0.2-0.3C4.8,4.6,4.3,4.3,3.7,4C3.7,5.8,3.7,7.5,3.7,9.4z M5.5,15.1c0-1.6,0-3.1,0-4.5
		c0-0.1-0.1-0.3-0.2-0.3C4.8,10.1,4.2,10,3.7,9.9c0,1.8,0,3.6,0,5.3C4.3,15.2,4.9,15.1,5.5,15.1z"/>
	<path class="st0" d="M25,24.8c-1.7-0.8-3.5-1.6-5.2-2.3c-0.6-0.3-1.1-0.5-1.7-0.8c-0.4-0.1-0.5-0.4-0.5-0.8c0-5.5,0-11,0-16.5
		c0-0.4,0.1-0.6,0.5-0.8c2.1-1.1,4.3-2.2,6.4-3.4C24.6,0.1,24.8,0.1,25,0C25,8.3,25,16.5,25,24.8z M20.8,9.2c1-0.2,1.8-0.4,2.7-0.5
		c0-2.1,0-4.1,0-6.2c-0.9,0.4-1.7,0.7-2.5,1.1c-0.1,0.1-0.2,0.3-0.2,0.4C20.8,5.7,20.8,7.4,20.8,9.2z M23.5,9.3
		c-0.9,0.2-1.8,0.3-2.7,0.5c0,1.9,0,3.7,0,5.5c0.9,0.1,1.8,0.1,2.7,0.2C23.5,13.4,23.5,11.4,23.5,9.3z M20.9,15.9
		c0,0.1-0.1,0.1-0.1,0.2c0,1.7,0,3.4,0,5.1c0,0.1,0.1,0.3,0.2,0.3c0.8,0.3,1.7,0.6,2.6,0.9c0-2.1,0-4.1,0-6.2
		C22.6,16,21.8,15.9,20.9,15.9z M18.5,15.6c0,1.6,0,3.1,0,4.6c0,0.1,0.1,0.3,0.2,0.3c0.5,0.2,1.1,0.4,1.6,0.6c0-1.8,0-3.6,0-5.3
		C19.7,15.7,19.1,15.6,18.5,15.6z M20.3,4c-0.6,0.3-1.2,0.6-1.7,0.8c-0.1,0-0.2,0.2-0.2,0.3c0,1.5,0,3.1,0,4.6
		C19,9.6,19.5,9.5,20,9.4c0.1,0,0.3-0.2,0.3-0.3C20.4,7.4,20.3,5.8,20.3,4z M20.3,9.9c-0.5,0.1-1,0.2-1.4,0.3
		c-0.3,0-0.4,0.2-0.4,0.5c0,1.3,0,2.6,0,4c0,0.1,0,0.3,0.1,0.4c0.6,0,1.2,0.1,1.8,0.1C20.3,13.4,20.3,11.7,20.3,9.9z"/>
	<path class="st0" d="M6.9,20.7c0-5.6,0-11.1,0-16.6c3.4,0,6.7,0,10.1,0c0,5.5,0,11.1,0,16.6C13.7,20.7,10.3,20.7,6.9,20.7z"/>
	<path class="st1" d="M3.2,9.2C2.2,9,1.4,8.8,0.5,8.7c0-2.1,0-4.1,0-6.2C1.3,2.9,2.2,3.2,3,3.6c0.1,0,0.2,0.2,0.2,0.4
		C3.2,5.7,3.2,7.4,3.2,9.2z"/>
	<path class="st1" d="M0.5,9.3c0.9,0.2,1.8,0.3,2.7,0.5c0,1.9,0,3.7,0,5.5c-0.9,0.1-1.8,0.1-2.7,0.2C0.5,13.4,0.5,11.4,0.5,9.3z"/>
	<path class="st1" d="M0.4,22.3c0-2.1,0-4.1,0-6.2c0.9-0.1,1.8-0.2,2.7-0.3c0,0.2,0,0.3,0,0.5c0,1.5,0,3.1,0,4.6
		c0,0.3-0.1,0.5-0.4,0.6C2,21.8,1.3,22,0.4,22.3z"/>
	<path class="st1" d="M3.7,15.8c0.6-0.1,1.2-0.1,1.8-0.2c0,0.8,0,1.5,0,2.2c0,0.4,0,0.8,0,1.2c0,1.7-0.1,1.8-1.8,2.1
		C3.7,19.3,3.7,17.6,3.7,15.8z"/>
	<path class="st1" d="M3.7,9.4c0-1.8,0-3.5,0-5.3c0.6,0.3,1.1,0.5,1.6,0.8c0.1,0,0.2,0.1,0.2,0.2c0,1.5,0,3.1,0,4.6
		C4.9,9.6,4.3,9.5,3.7,9.4z"/>
	<path class="st1" d="M5.5,15.1c-0.7,0-1.2,0.1-1.8,0.1c0-1.8,0-3.5,0-5.3c0.5,0.1,1.1,0.2,1.6,0.3c0.1,0,0.2,0.2,0.2,0.3
		C5.5,12,5.5,13.5,5.5,15.1z"/>
	<path class="st1" d="M20.8,9.2c0-1.8,0-3.5,0-5.2c0-0.1,0.1-0.3,0.2-0.4c0.8-0.4,1.6-0.7,2.5-1.1c0,2.1,0,4.1,0,6.2
		C22.7,8.9,21.8,9.1,20.8,9.2z"/>
	<path class="st1" d="M23.5,9.3c0,2.1,0,4.1,0,6.2c-0.9-0.1-1.8-0.1-2.7-0.2c0-1.8,0-3.6,0-5.5C21.7,9.6,22.6,9.5,23.5,9.3z"/>
	<path class="st1" d="M20.9,15.9c0.9,0.1,1.8,0.2,2.7,0.3c0,2.1,0,4.1,0,6.2c-0.9-0.3-1.7-0.6-2.6-0.9c-0.1,0-0.2-0.2-0.2-0.3
		c0-1.7,0-3.4,0-5.1C20.8,16,20.9,15.9,20.9,15.9z"/>
	<path class="st1" d="M18.5,15.6c0.7,0.1,1.2,0.1,1.8,0.2c0,1.8,0,3.5,0,5.3c-0.6-0.2-1.1-0.4-1.6-0.6c-0.1,0-0.2-0.2-0.2-0.3
		C18.5,18.7,18.5,17.1,18.5,15.6z"/>
	<path class="st1" d="M20.3,4c0,1.8,0,3.4,0,5.1c0,0.1-0.2,0.3-0.3,0.3c-0.5,0.1-1,0.2-1.6,0.3c0-1.6,0-3.1,0-4.6
		c0-0.1,0.1-0.2,0.2-0.3C19.2,4.6,19.7,4.3,20.3,4z"/>
	<path class="st1" d="M20.3,9.9c0,1.8,0,3.5,0,5.3c-0.6,0-1.2-0.1-1.8-0.1c0-0.2-0.1-0.3-0.1-0.4c0-1.3,0-2.6,0-4
		c0-0.3,0.1-0.5,0.4-0.5C19.4,10.1,19.8,10,20.3,9.9z"/>
</g>
<g>
	<path class="st2" d="M-407.5-71.2c0,0.1,0,0.3-0.1,0.4c0,0.2,0,0.3,0,0.5c0,0.1,0,0.2-0.2,0.2c-0.6,0.2-1.1,0.4-1.7,0.7
		c-1.1,0.4-2.1,1.2-3,2c-0.2,0.2-0.4,0.4-0.5,0.7c0,0.2,0,0.3,0.1,0.5c0.3,0.3,0.5,0.6,0.8,0.8c0.6,0.5,1.2,1,1.7,1.4l0.1,0.1
		c0,0.4,0,0.7,0,1.1c-0.1,0-0.3,0-0.4,0c-0.3,0-0.5,0-0.8,0c-0.1,0-0.1,0-0.2-0.1c-0.2-0.2-0.4-0.3-0.7-0.4c-0.1,0-0.2-0.1-0.4-0.1
		c-0.2-0.1-0.4-0.1-0.6-0.1c-1.2,0-2.3,0-3.5,0c-0.2,0-0.4,0.1-0.6,0.1s-0.3,0.1-0.5,0.2c-0.2,0.1-0.4,0.2-0.5,0.3s-0.1,0.1-0.2,0.1
		c-0.3,0-0.6,0-1,0c0-0.2,0-0.3,0-0.5c0-0.3,0-0.5,0-0.8c0-0.1,0-0.2,0.1-0.2c0.5-0.4,1.1-0.7,1.6-1.1c0.3-0.2,0.6-0.5,0.8-0.8
		c0.3-0.4,0.3-0.8-0.2-1.1c-0.1-0.1-0.3-0.2-0.4-0.2c-0.6-0.3-1.2-0.5-1.8-0.7c-0.1,0-0.1-0.1-0.1-0.2s0-0.2,0-0.3
		c0-0.1,0-0.1-0.1-0.1c-1-0.3-2-0.6-3-1c-0.5-0.2-1.1-0.4-1.5-0.8c-0.1-0.1-0.2-0.2-0.3-0.3c-0.1-0.1-0.1-0.3,0.1-0.3
		s0.3-0.1,0.5-0.1c1.1-0.1,2.1-0.1,3.2-0.2c0.3,0,0.7,0,1,0c0.1,0,0.1,0,0.1-0.1c0.1-0.2,0.1-0.2,0.3-0.2c3.8,0,7.6,0,11.4,0h0.1
		c0,0.1,0.1,0.2,0.1,0.3C-407.5-71.3-407.5-71.3-407.5-71.2z"/>
	<path class="st2" d="M-418.3-83.7c0.1,0.1,0.2,0.1,0.3,0.2c0.4,0.4,0.7,0.8,1.1,1.1c0.2,0.2,0.2,0.4,0,0.6c-0.3,0.4-0.7,0.7-1,1.1
		c-0.5,0.5-1.1,1-1.6,1.4c-0.3,0.2-0.5,0.4-0.8,0.7c-0.2,0.1-0.3,0.1-0.5,0c-0.4-0.4-0.8-0.8-1.2-1.3c-0.2-0.2-0.1-0.3,0-0.5
		c0.5-0.6,1.1-1.1,1.7-1.7c0.4-0.4,0.8-0.7,1.2-1c0.2-0.2,0.4-0.3,0.6-0.4C-418.6-83.6-418.5-83.6-418.3-83.7
		C-418.4-83.7-418.4-83.7-418.3-83.7z"/>
	<path class="st2" d="M-413.5-83.7c0.2,0.2,0.5,0.4,0.7,0.6c0.4,0.3,0.9,0.7,1.3,1.1c0.5,0.5,1,1,1.5,1.6c0.1,0.1,0.1,0.1,0.2,0.2
		s0.1,0.2,0,0.4c0,0.1-0.1,0.2-0.2,0.2c-0.3,0.4-0.6,0.7-1,1l-0.1,0.1c-0.1,0.1-0.3,0.1-0.4,0c-0.7-0.5-1.3-1.1-2-1.6
		c-0.5-0.5-1-1-1.5-1.5c0,0,0-0.1-0.1-0.1c-0.2-0.2-0.2-0.3,0-0.5c0.4-0.4,0.8-0.8,1.1-1.2C-413.7-83.6-413.6-83.6-413.5-83.7
		L-413.5-83.7z"/>
	<path class="st2" d="M-413.9-80.4c0.3,0.3,0.7,0.6,1,0.9c-0.3,0.3-0.5,0.6-0.8,0.9c-0.6,0.7-1.2,1.4-1.8,2.1
		c-0.3,0.3-0.7,0.6-1,0.9c-0.6,0.5-1.1,1.2-1.6,1.8c-0.4,0.5-0.7,0.9-1.1,1.3c-0.1,0.1-0.1,0.1-0.3,0c-0.4-0.2-0.7-0.5-0.9-0.9
		c-0.1-0.1-0.1-0.2,0-0.3c0.5-0.5,0.9-0.9,1.4-1.3c0.7-0.6,1.3-1.3,1.8-2c0.4-0.6,0.9-1.1,1.4-1.6s1-1,1.4-1.4
		C-414.2-80.1-414.1-80.3-413.9-80.4z"/>
	<path class="st2" d="M-415.6-75.8c0.4-0.3,0.7-0.7,1-1c0.1,0.1,0.1,0.2,0.2,0.3c0.4,0.6,0.9,1.1,1.5,1.6c0.5,0.4,0.9,0.9,1.3,1.3
		c0.1,0.1,0.2,0.2,0,0.3c-0.3,0.3-0.5,0.5-0.8,0.8c-0.2,0.2-0.3,0.2-0.4-0.1c-0.4-0.5-0.8-1-1.2-1.5
		C-414.5-74.6-415-75.2-415.6-75.8C-415.6-75.7-415.6-75.8-415.6-75.8z"/>
	<path class="st2" d="M-418-80.4c0.6,0.6,1.1,1.2,1.7,1.8c-0.3,0.4-0.7,0.7-1,1.1c-0.6-0.6-1.1-1.3-1.7-1.9
		C-418.6-79.8-418.3-80.1-418-80.4z"/>
	<path class="st2" d="M-421.1-81.8c-0.1-0.1-0.3-0.3-0.4-0.4c0.3-0.4,0.7-0.6,1-0.9c0.1,0.1,0.3,0.3,0.4,0.4
		C-420.5-82.4-420.8-82.1-421.1-81.8z"/>
	<path class="st2" d="M-410.4-82.2c-0.1,0.2-0.3,0.3-0.4,0.4c-0.3-0.3-0.7-0.6-1-0.9c0.1-0.1,0.2-0.3,0.4-0.4
		C-411.1-82.8-410.8-82.5-410.4-82.2z"/>
</g>
</svg>
