<?xml version="1.0" encoding="utf-8"?>
<!-- Generator: Adobe Illustrator 24.1.2, SVG Export Plug-In . SVG Version: 6.00 Build 0)  -->
<svg version="1.1" id="Capa_1" xmlns="http://www.w3.org/2000/svg" xmlns:xlink="http://www.w3.org/1999/xlink" x="0px" y="0px"
	 viewBox="0 0 24 24" style="enable-background:new 0 0 24 24;" xml:space="preserve">
<style type="text/css">
	.st0{fill:none;stroke:#2B2B2B;stroke-width:1.7;stroke-linecap:round;stroke-linejoin:round;}
	.st1{fill:#8237ED;}
	.st2{fill:#AA7B34;}
	.st3{fill:#B6811D;}
	.st4{fill:#A6700F;}
	.st5{fill:#9F6D24;}
	.st6{fill:#9F6F19;}
	.st7{fill:#A9740F;}
	.st8{fill:#B57F1C;}
	.st9{fill:#A9740E;}
	.st10{fill:#B07A11;}
	.st11{fill:#A7720B;}
	.st12{fill:#B88218;}
	.st13{fill:#BA8116;}
	.st14{fill:#A8710E;}
	.st15{fill:#9E6F2B;}
	.st16{fill:#AF7F20;}
	.st17{fill:#946A30;}
	.st18{fill:#B27A0E;}
	.st19{fill:#AA730A;}
	.st20{fill:#A5720E;}
	.st21{fill:#B68014;}
	.st22{fill:#B27E20;}
	.st23{fill:#E8B851;}
	.st24{fill:#E6B64C;}
	.st25{fill:#E8B951;}
	.st26{fill:#F3C155;}
	.st27{fill:#EBB746;}
	.st28{fill:#B27E1F;}
	.st29{fill:#A7730C;}
	.st30{fill:#E7BC55;}
	.st31{fill:#E6B84E;}
	.st32{fill:#A87310;}
	.st33{fill:#B67E16;}
	.st34{fill:#A8730D;}
	.st35{fill:#F9D57C;}
	.st36{fill:#FCDE93;}
	.st37{fill:#E7B74D;}
	.st38{fill:#E8BC55;}
	.st39{fill:#EAB748;}
	.st40{fill:#EEBD4E;}
	.st41{fill:#EABA52;}
	.st42{fill:#A16E0E;}
	.st43{fill:#B58013;}
	.st44{fill:#7C66A6;}
	.st45{fill:#E7B547;}
	.st46{fill:#C08D1E;}
	.st47{fill:#E7BB53;}
	.st48{fill:#E6B64D;}
	.st49{fill:#EBB945;}
	.st50{fill:#F2C45C;}
	.st51{fill:#E8BA4C;}
</style>
<path class="st0" d="M74.6,20.4h4c1.1,0,2,0.9,2,2v3c0,1.1-0.9,2-2,2h-4c-1.1,0-2-0.9-2-2v-3C72.6,21.3,73.5,20.4,74.6,20.4z"/>
<line class="st0" x1="78.6" y1="20.4" x2="78.6" y2="17.4"/>
<polyline class="st0" points="83.6,13.4 80.6,21.4 83.6,21.4 80.6,31.4 "/>
<g>
	<path class="st1" d="M7.7,14.6c0.2,0,0.5,0.1,0.7,0c-0.1-0.1-0.1-0.3-0.1-0.4c0-1,0.1-1.9,0-2.9c0-0.1,0-0.2,0.1-0.3
		c0.1,0.1,0.1,0.2,0.1,0.3c0,1,0,2,0,2.9c0,0.1,0,0.2,0,0.2c0,0,0.1,0,0.1,0c0,0,0,0,0.1,0c0,0,0,0,0.1,0c0.1,0,0.2,0,0.3,0
		c0.3,0,0.3,0,0.3-0.3c0-0.1,0-0.2,0-0.2c0-0.9,0-1.8,0-2.7c0,0,0-0.1,0-0.1c0-0.1,0-0.3-0.1-0.4c0-0.1-0.1-0.1,0-0.2
		c0.2-0.1,0.4,0.1,0.4,0.3c-0.1,1.1,0,2.2,0,3.2c0,0.1,0,0.1,0,0.2c-0.1,0.2,0.1-0.1,0,0c0,0,0.1,0,0.1,0c-0.1-0.8,0-1.6,0-2.4
		c0-0.2,0-0.4,0-0.6c0-0.1,0-0.2,0.1-0.3c0.1,0,0.1,0.1,0.1,0.2c0,0.4,0,0.7,0,1.1c0,0.7,0,1.3,0,2c0,0.1,0,0.2,0.1,0.3
		c0.1,0.1,0.2,0.1,0.4,0.1c0.4,0,0.7,0,1.1,0c0.4,0,0.9,0,1.3,0c0.1,0,0.2,0,0.3-0.1c0.1-0.1,0.1-0.2,0.1-0.4c-0.1-0.4,0-0.8,0-1.3
		c0,0,0,0,0-0.1c0.2-0.1,0.1,0.1,0.1,0.1c0,0.5,0,0.9,0,1.3c0,0,0,0,0,0c0-0.9-0.1-1.9,0-2.8c0-0.1-0.1-0.3,0.1-0.4
		c0.1,0.1,0.1,0.2,0.1,0.4c0,1,0,2.1,0,3.1c0,0.1,0.1,0.1,0.2,0.1c0.2,0,0.3,0,0.5,0c0,0,0,0,0.1,0c0.2,0,0.2-0.2,0.2-0.3
		c0-0.1,0-0.2,0-0.3c0-0.9,0-1.8,0-2.7c0-0.1,0-0.2,0-0.3c0,0,0.1,0,0.1,0c0.1,0.1,0.1,0.2,0.1,0.4c0,1,0,2,0,3c0,0.3,0,0.3,0.3,0.3
		c0.1,0,0.2,0,0.3,0c0.2,0,0.5,0,0.7,0c0.1,0,0.2,0,0.3,0c0.1,0.1,0.3,0.2,0.3,0.3c0,0.1-0.1,0.2-0.2,0.2c-0.1,0-0.1-0.1-0.1-0.1
		c-0.1-0.1-0.2-0.1-0.2-0.1c-0.3,0-0.5,0-0.8,0c-0.3,0-0.5,0-0.8,0c0,0-0.1,0-0.1,0c-0.1-0.1-0.2,0-0.3,0c-1.4,0-2.8,0-4.2,0
		c-0.6,0-1.2,0-1.8,0c-0.2,0-0.4,0-0.5,0c-0.1,0,0-0.1,0-0.1C7.5,14.6,7.6,14.6,7.7,14.6z"/>
	<path class="st1" d="M9.4,10.5c0.1,0.1,0.2,0.2,0.2,0.3c0,0.1,0,0.2,0,0.2c0,0.3,0,0.7,0,1c0,0.6,0,1.2-0.1,1.8c0-0.2,0-0.4,0-0.6
		c0,0,0.1,0,0.1,0c0,0.4,0.1,0.7-0.1,1.1c0,0,0,0.1-0.1,0.1c-0.1,0,0-0.1,0-0.2c0-1,0-2,0-3c0-0.1,0-0.2,0-0.3
		c0.1-0.2-0.1-0.4-0.3-0.3c0,0-0.1,0-0.1,0c-0.1,0-0.1-0.1-0.2,0c0,0-0.1,0-0.1,0c-0.1,0-0.2,0-0.2,0.2c0,0,0,0.1,0,0.1
		c0,0,0,0.1,0,0.1c0,0.2,0,0.4,0,0.6c0,0.1-0.1,0.1-0.1,0.2c0.1,0.2,0,0.5,0.1,0.7c0,0.1,0,0.2,0,0.2c0,0.1,0,0.2,0,0.3
		c0,0,0,0.1,0,0.1c0,0.3,0,0.7,0,1c0,0.1,0,0.3-0.1,0.4c-0.2,0.1-0.1-0.1-0.1-0.2c0-0.7,0-1.4,0-2.2c0-0.4,0-0.9,0-1.3
		c-0.1-0.1,0-0.1,0-0.2C8.7,10.4,9,10.2,9.4,10.5C9.4,10.5,9.4,10.5,9.4,10.5z"/>
	<path class="st1" d="M6.6,16.2c-0.1,0-0.1,0.1-0.2,0c-0.1-0.2-0.2-0.4-0.3-0.6c0-0.4,0.1-0.8,0.5-1c0.1-0.1,0.2-0.1,0.3,0
		c0,0.1-0.1,0.1-0.2,0.1c-0.1,0.1-0.2,0.1-0.3,0.3c-0.2,0.2-0.2,0.5-0.1,0.8C6.4,15.9,6.4,16,6.6,16.2C6.6,16.2,6.6,16.2,6.6,16.2z"
		/>
	<path class="st1" d="M8.4,10.8C8.4,10.8,8.4,10.7,8.4,10.8c0.2-0.4,0.5-0.6,0.9-0.4c0,0,0,0.1,0.1,0.1C8.9,10.3,8.8,10.4,8.4,10.8z
		"/>
	<path class="st1" d="M6.7,14.7c0.1,0,0.1-0.1,0.2-0.1c0,0,0,0,0.1,0c0.2,0,0.3,0,0.5,0c0,0,0,0.1,0,0.1c-0.1,0.1-0.2,0.1-0.3,0.1
		c-0.1,0-0.2,0-0.2,0C6.8,14.8,6.7,14.8,6.7,14.7z"/>
	<path class="st1" d="M7.5,14.6c-0.2,0-0.3,0-0.5,0c0.2-0.1,0.5,0,0.7,0C7.6,14.7,7.5,14.6,7.5,14.6z"/>
	<path class="st1" d="M14.5,12.9c-0.1,0.3,0.1,0.6,0,0.9c0,0.1,0,0.3,0,0.5c0,0.2,0.1,0.2,0.3,0.2c0.1,0,0.2,0,0.3,0
		c0.1,0,0.2,0,0.2,0c0.1-0.1,0.2-0.1,0.2,0c0,0,0,0,0,0c0.1,0,0.1,0,0.2,0c0,0,0.1,0,0.1,0c0,0.1,0.1,0.1,0.1,0.2
		c-0.1,0-0.2,0-0.2-0.1c0,0-0.1,0-0.1,0c-0.2,0-0.4,0-0.6,0c0,0,0,0,0,0c-0.2,0-0.3,0-0.5,0c-0.2,0-0.3,0-0.3-0.3c0-1.1,0-2.1,0-3.2
		c0-0.1,0-0.2,0-0.3"/>
	<path class="st1" d="M14.6,11.4c0,0.3,0,0.6,0,0.9"/>
	<path class="st1" d="M8.1,21.5"/>
	<path class="st1" d="M7.2,20.1c0-0.1,0-0.1-0.1-0.1c0-0.1,0-0.1,0.1-0.1c0.1,0.1,0.1,0.2,0.2,0.3c0.1,0.2,0.2,0.4,0.3,0.6"/>
	<path class="st2" d="M12,9.9c-0.4,0.6-0.8,1.2-1.3,1.8c0-0.3,0.1-0.6,0.1-1c0.2-1.1,0.3-2.2,0.5-3.3c0-0.2,0.1-0.4-0.2-0.4
		C11.2,7,11.2,6.9,11.3,7c0.2,0.1,0.2,0.2,0.2,0.3c0,0.1,0,0.3,0,0.4c-0.1,0.2-0.1,0.5-0.1,0.7c-0.1,0.4-0.1,0.9-0.2,1.3
		c0,0.4-0.1,0.9-0.2,1.3c0.1-0.1,0.2-0.2,0.3-0.3c0.1-0.2,0.2-0.4,0.4-0.5c0.1-0.1,0.1-0.2,0.2-0.2C11.9,9.9,11.9,9.8,12,9.9z"/>
	<path class="st3" d="M12.1,4.9c1,0,2,0,3.1,0c0.1,0,0.2,0,0.2,0c0,0.1-0.1,0.1-0.1,0.2C15.2,5,15,5,14.9,5c-0.2,0-0.5,0-0.7,0
		c0.2,0.1,0.4,0,0.6,0C14.8,5,15,5,15,5.2c-0.1,0.1-0.3,0-0.4,0c-0.1,0-0.1,0-0.2,0c-0.5,0-1,0-1.4,0c-0.1,0-0.3,0-0.4,0
		c-0.2,0-0.3,0-0.5,0c-0.1,0-0.2,0-0.2-0.1C11.8,5,11.9,5,12,5c0.3,0,0.6,0,0.9,0c-0.2-0.1-0.4,0-0.5,0C12.2,5,12.1,5,12.1,4.9z"/>
	<path class="st4" d="M12.1,4.2c0,0.1,0,0.2,0,0.4c0,0.1,0,0.2,0,0.3c0.1,0.1,0.3,0,0.4,0.1c0.2,0,0.3,0,0.5,0.2c-0.4,0-0.8,0-1.2,0
		c-0.1-0.1,0-0.2,0-0.3c0-0.2,0.1-0.4,0.1-0.6c0-0.1,0-0.2,0.1-0.3c0-0.1,0-0.1,0.1-0.2c0.1,0,0.1,0.1,0.1,0.2
		C12.1,4.1,12,4.1,12.1,4.2z"/>
	<path class="st5" d="M12.2,1c0,0,0.1,0,0.1,0c0,0,0,0.1,0,0.1c-0.1,0.2-0.3,0.4-0.4,0.6c-0.3,0.3-0.5,0.7-0.7,1
		c-0.2,0.4-0.5,0.7-0.7,1C10.3,3.9,10.2,4,10.1,4c0,0,0,0,0,0c0,0,0,0,0,0c0.3-0.4,0.6-0.9,0.9-1.3c0-0.1,0.1-0.1,0.1-0.2
		c0.4-0.4,0.7-0.9,1-1.4C12.1,1,12.2,1,12.2,1z"/>
	<path class="st6" d="M8.8,5.7C9,5.3,9.3,5,9.6,4.7c0.1,0.1,0.2,0,0.2,0.1c0,0.3-0.2,0.4-0.4,0.6C9.3,5.5,9.3,5.6,9.2,5.7
		c0,0-0.1,0.1-0.1,0.1C9,5.7,8.9,5.8,8.8,5.7z"/>
	<path class="st7" d="M14.9,5.6c-0.1,0-0.1,0-0.2,0c0,0,0-0.1,0-0.1c0.1-0.1,0.1-0.3,0.3-0.4c-0.2-0.1-0.4,0-0.7-0.1
		c0,0-0.1,0.1-0.1-0.1c0-0.1,0.1-0.1,0.1-0.1c0.2,0,0.5,0,0.7,0c0.2,0,0.2,0.1,0.2,0.2"/>
	<path class="st8" d="M9.8,4.8c-0.1,0-0.2,0-0.2-0.1C9.7,4.4,9.9,4.2,10.1,4c0.1,0,0.1-0.1,0.2-0.2c0.1,0,0.1,0.1,0.1,0.2
		C10.3,4.3,10,4.5,9.8,4.8C9.8,4.8,9.8,4.8,9.8,4.8z"/>
	<path class="st9" d="M13.8,7.3c-0.1,0-0.1-0.1-0.1-0.2c0.1-0.3,0.4-0.6,0.5-0.9c0,0,0.1,0,0.1,0c0.2,0.1,0,0.2,0,0.4"/>
	<path class="st10" d="M13.2,8.1c-0.1,0-0.2,0.1-0.3,0C13,8,13,7.9,13,7.9c0-0.1,0.1-0.1,0.1-0.2c0.1-0.2,0.3-0.4,0.4-0.6
		c0,0,0-0.1,0.1-0.1c0,0,0,0,0.1,0c0,0.1,0.1,0.2,0.1,0.2"/>
	<path class="st11" d="M12,9.9c-0.2,0.1-0.2,0.3-0.4,0.4c-0.1,0-0.1,0-0.1-0.1c0-0.1,0-0.1,0.1-0.2c0.1-0.2,0.3-0.4,0.4-0.6
		c0-0.1,0.1-0.2,0.2-0.2c0.1,0,0.2,0.1,0.1,0.2C12.2,9.6,12.1,9.7,12,9.9z"/>
	<path class="st12" d="M14.3,6.5c-0.1-0.1,0.1-0.2,0-0.3c0-0.3,0.2-0.5,0.4-0.6c0.1,0,0.1,0,0.2,0C14.7,5.9,14.5,6.2,14.3,6.5z"/>
	<path class="st13" d="M12.3,9.4c0-0.1-0.1-0.1-0.2-0.2c0,0,0,0,0-0.1c0.1-0.2,0.2-0.4,0.5-0.6c0.1,0,0.2,0,0.2,0.1
		C12.6,9,12.5,9.2,12.3,9.4z"/>
	<path class="st14" d="M12.8,8.7c-0.1,0-0.1-0.1-0.2-0.1c0,0,0,0,0-0.1C12.7,8.4,12.8,8.2,13,8c0.1,0.1,0.2-0.1,0.2,0
		C13.1,8.3,13,8.5,12.8,8.7z"/>
	<path class="st15" d="M11.3,7c-0.1,0-0.1,0-0.2,0C10.5,7,10,7,9.4,7C9.1,7,8.9,7,8.7,7C8.6,7,8.5,7,8.4,7c0-0.1,0.1-0.1,0.2-0.1
		c0.2,0,0.4,0,0.6,0c0.4,0.1,0.9,0.1,1.3,0c0.2,0,0.4,0,0.5,0C11.2,6.9,11.3,6.9,11.3,7z"/>
	<path class="st16" d="M8.8,5.7c0.1,0,0.2,0,0.2,0.1C9,6,8.9,6.2,8.7,6.3c-0.1,0-0.1,0-0.2,0c0-0.1,0.1-0.2,0.1-0.3
		C8.7,5.9,8.7,5.8,8.8,5.7z"/>
	<path class="st15" d="M8.7,6c0.1,0.1-0.1,0.2-0.1,0.3c0,0.1-0.1,0.2-0.2,0.3c-0.1,0.1-0.2,0.2,0,0.4c0,0,0,0,0,0C8.2,7,8,7,8,6.8
		C8.2,6.5,8.4,6.3,8.7,6z"/>
	<path class="st17" d="M8,6.8C8.1,6.9,8.2,7,8.3,7c0,0,0.1,0,0.1,0C8.8,7,9.1,6.9,9.4,7C9,7,8.6,7,8.1,7C7.9,7,7.9,7,8,6.8z"/>
	<path class="st1" d="M16.2,15c0,0,0.1,0.1,0.1,0.1c0,0,0,0,0,0.1c-0.1,0.1-0.2,0.1-0.1,0.2c0.1,0.1,0.2,0.2,0.1,0.4
		c0,0,0,0.1-0.1,0.1c-0.1,0-0.1,0-0.2,0c-0.2,0-0.5,0.1-0.7,0.1c-0.1,0-0.1,0.1-0.1,0.2c0,0.4,0,0.7,0,1.1c0,0.5,0,1,0,1.5
		c0,0.1-0.1,0.2-0.1,0.4c-0.1,0.5-0.3,1-0.6,1.4c-0.3,0.3-0.6,0.6-1,0.8c-0.1,0-0.2,0.1-0.3,0.2c-0.1,0.1-0.2,0.1-0.3-0.1
		c-0.1-0.2-0.2-0.2-0.4-0.2c0.2,0.1,0.2,0.2,0.1,0.5c0,0,0,0-0.1,0c-0.6,0.1-1.2,0-1.7,0.1c-0.1,0-0.2-0.1-0.3-0.2
		c-0.1-0.1-0.2-0.2-0.1-0.3c0-0.1,0-0.1-0.1-0.1c-0.2,0.1-0.5,0-0.5,0.3c0,0.1-0.1,0.1-0.2,0.1c-0.1,0-0.2,0.1-0.2,0.1
		c0,0.1-0.1,0.1-0.1,0.1c-0.3,0-0.5-0.2-0.7-0.3c-0.1,0-0.1-0.1-0.1-0.2c-0.3-0.5-0.4-1-0.6-1.5c-0.2-0.4-0.2-0.9-0.2-1.4
		c0-0.1,0-0.2,0.2-0.2c0,0.2,0.1,0.4,0.1,0.7c0,0.1,0,0.1,0.1,0.1c0.1,0,0.3,0,0.4,0.2c0,0,0,0,0,0c0.3-0.1,0.4-0.1,0.5,0.2
		c0,0,0,0,0.1,0c0,0,0,0-0.1-0.1c0.1-0.2,0.3-0.3,0.6-0.3c0-0.1-0.1-0.3,0.2-0.3c-0.4-0.2-0.2-0.6-0.2-0.8c0-0.1,0.1-0.1,0.2-0.1
		c0.1,0,0.2,0.1,0.3,0c0-0.2-0.3-0.3-0.1-0.4c0.1-0.1,0.1-0.5,0.4-0.2c-0.4,0-0.3-0.5-0.5-0.7c0,0-0.1-0.1,0-0.2c0.1,0,0-0.1,0-0.2
		c-0.2-0.2,0-0.5,0-0.7c0-0.1,0.1-0.1,0.2-0.1c-0.1-0.1-0.1-0.2,0-0.2c0.1-0.1,0.1,0,0.2,0c0.1,0.1,0.2,0.2,0.3,0.2
		c0.1,0,0.2,0.1,0.2-0.1c0-0.1,0.1-0.1,0.2,0c0.2,0.1,0.3,0,0.5,0.1c0.1,0.1,0.2,0,0.2-0.1c0.1-0.1,0.2-0.1,0.3-0.1
		c0.2,0,0.3,0.2,0.5,0c0,0,0,0,0,0c0,0,0,0,0,0c-0.1,0-0.3-0.1-0.4-0.1c-0.1,0-0.1-0.1,0-0.1C11.9,15,12,15,12.1,15
		c0.3,0,0.6,0,0.9,0c0.4,0.1,0.7,0,1.1,0c0.2,0,0.4,0.1,0.6,0c0,0,0.1,0,0.1,0c0.1,0,0.2,0,0.3,0c0.1,0,0.3-0.1,0.3,0.1
		c0,0.1,0.1,0.1,0.2,0.1c0.1,0,0.2-0.1,0.2,0.1c0,0,0,0,0,0C15.9,15.1,16,15,16.2,15z"/>
	<path class="st1" d="M8.7,14.5C8.7,14.5,8.7,14.5,8.7,14.5c0-0.1,0-0.1,0-0.1c0,0,0,0,0-0.1c0.1-0.1,0.2-0.3,0.1-0.5
		c-0.1-0.4,0-0.8,0-1.2c0-0.3,0-0.6,0-0.8c0-0.1,0-0.2,0.1-0.3c0.1-0.3,0.3-0.5,0.6-0.5c0,0,0,0,0,0c0,0,0,0.1,0,0.1
		c0,0.9,0,1.7,0,2.6c0,0,0,0.1,0,0.1c0,0.1,0,0.2,0,0.2c-0.2,0-0.4,0.1-0.6,0.2C8.8,14.5,8.8,14.6,8.7,14.5z"/>
	<path class="st1" d="M13.4,14.5c0-1.2,0-2.4,0-3.6c0-0.3,0.1-0.4,0.4-0.4c0.1,0.1,0.1,0.1,0,0.2c-0.1,0.1-0.2,0.3-0.2,0.5
		c0,0.4,0,0.7,0,1.1c0,0.4,0.1,0.8,0,1.2c0,0.2,0,0.4,0,0.5c0,0.2,0.1,0.3,0,0.5C13.5,14.6,13.5,14.6,13.4,14.5z"/>
	<path class="st1" d="M7.9,14.7c1.3,0,2.6,0,3.9,0c0.8,0,1.5,0,2.3,0c0.1,0,0.2,0,0.2,0.1c-0.1,0.1-0.3,0-0.4,0.1
		c-0.3,0-0.6,0-0.9,0c-1.2,0-2.3,0-3.5,0c-0.4-0.1-0.7-0.1-1.1,0c-0.5,0-1,0-1.5,0c-0.1,0-0.1-0.1,0-0.1c0.1,0,0.1-0.1,0.2,0
		C7.3,14.8,7.6,14.8,7.9,14.7z"/>
	<path class="st1" d="M13.8,10.6c-0.2,0-0.4,0.1-0.4,0.3c-0.1,0.1,0,0.2,0,0.3c0,1,0,2.1-0.1,3.1c0-0.2,0-0.5,0-0.7
		c0-0.3,0-0.6,0-0.8c0-0.1,0-0.1-0.1-0.1c-0.1-0.2,0-0.4,0-0.7c0.1-0.1,0.1-0.2,0-0.3c0,0,0-0.1,0-0.1c0-0.3,0-0.6,0-0.8
		c0-0.3,0.2-0.4,0.5-0.5c0.3-0.1,0.6,0,0.7,0.3c-0.1,0.1-0.1,0.1-0.1,0c-0.1-0.1-0.2-0.1-0.3,0C13.9,10.7,13.8,10.6,13.8,10.6z"/>
	<path class="st1" d="M13.9,10.6c0.2-0.1,0.3,0,0.4,0c0.1,0.1,0.1,0.1,0.1,0.2c0,1,0,2.1,0,3.1c0,0,0,0.1-0.1,0.1
		c-0.1,0-0.1-0.1-0.1-0.1c0-0.1,0-0.3,0-0.4c0-0.5,0-1,0-1.5c0-0.3,0-0.5,0-0.8c0-0.1,0-0.2,0-0.3c0,0,0,0-0.1,0
		C14.1,10.8,14,10.8,13.9,10.6z"/>
	<path class="st1" d="M8.9,11.8c0,0.6,0,1.3,0,1.9c0,0.3,0.1,0.5-0.2,0.7c-0.1-0.2,0-0.4,0-0.6c-0.1-0.5,0-1,0-1.5
		c0-0.3-0.1-0.6,0-0.9c0-0.2,0-0.5,0.1-0.7c0,0,0-0.1,0.1-0.1c0,0,0.1,0,0.1,0c0,0,0.1,0,0.1,0c0,0,0.1,0,0.1,0c0,0,0.1,0.1,0.1,0.1
		c0,0.1,0,0.1-0.1,0.1C9,10.9,8.9,11,8.9,11.3C8.9,11.5,8.8,11.6,8.9,11.8z"/>
	<path class="st1" d="M8.9,11.8c0-0.3-0.1-0.6,0-0.9c0.1-0.2,0.3-0.2,0.4-0.2c0.1,0.1,0.2,0.2,0.1,0.3c-0.1,0.1-0.3,0.2-0.5,0.2
		C9,11.3,9,11.4,9,11.5C8.9,11.6,8.9,11.7,8.9,11.8z"/>
	<path class="st1" d="M14.2,10.9c0.1,0.1,0.1,0.1,0.1,0.2c-0.1,0.6,0,1.3,0,1.9c0,0.3,0,0.6,0,0.9c0,0,0,0.1,0.1,0.1
		c0,0,0-0.1,0.1-0.1c0,0.1,0,0.2,0,0.2c0,0.2,0,0.2-0.2,0.3c-0.1-0.1-0.1-0.2-0.1-0.3c0-1,0-2,0-3C14.2,11.1,14.1,11,14.2,10.9z"/>
	<path class="st1" d="M16.2,15c-0.2,0.1-0.4,0.2-0.6,0.4c-0.1-0.1,0.1-0.1,0.1-0.2c0,0,0,0,0,0c-0.1,0.1-0.3,0-0.3-0.1
		C15.3,14.9,15.1,15,15,15c-0.1,0-0.2,0-0.3,0c0-0.1,0-0.1,0-0.1c0.1,0,0.2,0,0.3,0c0,0,0,0,0.1,0c0.3,0,0.6,0.1,0.8,0
		C16.1,14.9,16.2,14.9,16.2,15z"/>
	<path class="st1" d="M9.6,11c0-0.1,0-0.1,0.1-0.2c0.1,0.1,0.1,0.1,0.1,0.2c0,1.2,0,2.3,0,3.5c-0.1-0.1,0-0.2-0.1-0.2
		c0-0.4,0.1-0.7,0-1.1c0-0.7,0-1.4,0-2.1C9.6,11.1,9.6,11,9.6,11z"/>
	<path class="st1" d="M8.7,14.5c0.2,0,0.2-0.2,0.4-0.3c0.1-0.1,0.3-0.1,0.4,0c0,0.4,0,0.4-0.4,0.3C9,14.5,8.8,14.7,8.7,14.5z"/>
	<path class="st1" d="M14.2,10.9c0,1.2,0,2.4,0,3.6c0,0,0,0,0,0c0,0,0,0,0,0c0-0.1,0-0.1,0-0.2c0-0.1,0-0.2,0-0.3c0-0.9,0-1.8,0-2.7
		C14.1,11.1,14.1,11,14.2,10.9C14.2,10.9,14.2,10.9,14.2,10.9z"/>
	<path class="st1" d="M8.6,11.7c0-0.2-0.1-0.5,0-0.7c0.1,0.1,0.1,0.1,0.1,0.2c0,0.9,0,1.9,0,2.8c0,0.2,0,0.3-0.1,0.5
		c0,0,0,0-0.1,0.1c0-0.1,0-0.3,0-0.4c0-0.3,0-0.7,0-1c0,0,0,0,0-0.1c0-0.1,0-0.2,0-0.3c0-0.1,0-0.2,0-0.2
		C8.6,12.2,8.5,11.9,8.6,11.7z"/>
	<path class="st1" d="M8.6,14.5c0-1.2,0-2.3,0-3.5c0,0,0,0,0-0.1c0,0,0,0.1,0,0.1c0,0.8,0,1.6,0,2.4C8.7,13.8,8.8,14.1,8.6,14.5
		C8.7,14.4,8.7,14.5,8.6,14.5C8.7,14.5,8.7,14.5,8.6,14.5z"/>
	<path class="st1" d="M13,14.8c0.3,0,0.6,0,0.9,0c0.1,0,0.2,0,0.4,0c0.3,0,0.5,0,0.8,0c0,0,0,0,0,0c0,0,0,0,0,0l0,0
		c-0.1,0.1-0.3,0-0.5,0.1c-0.3,0-0.6,0-0.9,0c-0.2,0-0.4,0-0.5,0c-0.1,0-0.3,0-0.4,0c-0.1-0.1,0-0.1,0-0.1
		C12.9,14.8,13,14.9,13,14.8z"/>
	<path class="st1" d="M16.3,15.2C16.3,15.2,16.3,15.1,16.3,15.2c0-0.1,0.1-0.2,0.1-0.2c0.3,0.3,0.2,0.6,0.2,0.9
		c-0.1,0-0.1-0.2-0.2-0.3C16.3,15.4,16.3,15.3,16.3,15.2z"/>
	<path class="st1" d="M13.2,12c0,0.2,0,0.5,0,0.7c0,0.3,0,0.6,0,0.9c0,0.3,0.1,0.6,0,0.8c0,0,0,0.1,0,0.1c0-0.9,0-1.9,0-2.8
		c0,0,0,0,0.1,0C13.3,11.8,13.2,11.9,13.2,12z"/>
	<path class="st1" d="M9.5,14c-0.1-0.1,0-0.1,0-0.2c0-0.8,0-1.6,0-2.5c0-0.1,0-0.1,0.1-0.2C9.5,12.1,9.5,13,9.5,14z"/>
	<path class="st1" d="M15.1,14.9C15.1,14.9,15.1,14.8,15.1,14.9c0.3,0,0.6-0.1,0.9,0C15.7,15,15.4,14.9,15.1,14.9z"/>
	<path class="st1" d="M10,14.6c0.5-0.1,1,0,1.5,0c0,0-0.1,0.1-0.1,0.1c-0.4,0-0.8,0-1.2,0C10.1,14.6,10,14.6,10,14.6z"/>
	<path class="st1" d="M15.8,14.8c-0.4,0-0.7,0-1.1,0C15,14.7,15.4,14.7,15.8,14.8z"/>
	<path class="st1" d="M7.9,14.7c-0.3,0.1-0.6,0.1-0.9,0c0,0,0,0,0,0c0.1,0,0.2,0,0.3,0C7.6,14.7,7.8,14.7,7.9,14.7z"/>
	<path class="st1" d="M13.4,14.5c0.1,0,0.1,0,0.2,0c0,0,0.1,0,0.1-0.1c0.1,0,0.2,0,0.3,0c0.1,0,0.1,0,0.2,0.1c0,0,0,0,0,0
		C13.9,14.6,13.7,14.6,13.4,14.5z"/>
	<path class="st1" d="M15.8,14.6C15.8,14.6,15.9,14.6,15.8,14.6c-0.1,0.1-0.4,0.1-0.6,0c0,0,0,0,0,0C15.4,14.5,15.6,14.5,15.8,14.6z
		"/>
	<path class="st1" d="M14.3,14.8c-0.1,0-0.2,0-0.4,0C14.1,14.7,14.2,14.8,14.3,14.8C14.3,14.8,14.3,14.8,14.3,14.8z"/>
	<path class="st1" d="M7.4,20.2c-0.1-0.1-0.1-0.2-0.2-0.3c0-0.2-0.1-0.5-0.1-0.7c0-0.1,0-0.2,0-0.4c0-0.1,0-0.2,0.1-0.2
		c0.1,0,0,0.1,0.1,0.1c0-0.1-0.1-0.3,0-0.4c0,0,0-0.1,0.1-0.1c0,0,0.1,0.1,0.1,0.1c0,0.2,0.1,0.4,0,0.6c0,0.1-0.1,0.2,0.1,0.2
		c0.1,0,0.1,0.1,0.1,0.2c0,0.1,0,0.1,0,0.2c0,0.1,0,0.1,0.1,0.2c0,0.2,0.1,0.3,0.1,0.5c0,0.1-0.1,0.1-0.1,0
		c-0.1-0.1-0.1-0.1-0.1-0.2C7.4,20.1,7.5,20.2,7.4,20.2z"/>
	<path class="st1" d="M7.2,18.6c-0.1,0.1,0,0.2,0,0.3c0,0.1,0,0.2,0,0.2c0,0,0-0.1,0-0.1c0,0,0-0.1,0-0.1c0-0.8,0-1.7,0-2.5
		c0,0,0-0.1,0.1-0.1c0.1,0.1,0.1,0.2,0.1,0.3C7.2,17.4,7.2,18,7.2,18.6z"/>
	<path class="st1" d="M7,19.1c-0.1,0,0-0.1,0-0.2c0-0.8,0-1.7,0-2.5c0,0,0.1,0,0.1,0c0,0.8,0,1.7,0,2.5C7,19,7,19,7,19.1z"/>
	<path class="st1" d="M7,19.1c0-0.9,0-1.8,0-2.7c0,0,0,0,0.1,0C7.1,17.3,7.1,18.2,7,19.1C7,19.1,7,19.1,7,19.1z"/>
	<path class="st1" d="M7.1,16.4C7,16.4,7,16.4,7.1,16.4C7,16.4,7,16.4,7.1,16.4C7,16.4,7,16.4,7.1,16.4c-0.2,0-0.4-0.1-0.5-0.2
		c0,0,0,0-0.1-0.1c0-0.1,0.1-0.1,0.1-0.2c0,0,0,0,0.1,0c0.1,0,0.2,0.1,0.3,0.1C7.2,16.2,7.1,16.3,7.1,16.4L7.1,16.4z"/>
	<path class="st1" d="M8.7,14.4c0-1.2,0-2.3,0-3.5c0,0,0-0.1,0-0.1c0-0.1,0.1-0.1,0.1-0.1c-0.1,0.4-0.1,0.7-0.1,1.1
		c0.1,0.7,0,1.5,0.1,2.2C8.8,14.1,8.7,14.3,8.7,14.4C8.7,14.4,8.7,14.4,8.7,14.4z"/>
	<path class="st1" d="M9.6,11c0.1,0.6,0,1.3,0,1.9c0,0.1,0,0.2,0,0.3c0,0.3,0,0.5,0,0.8c-0.1-0.1,0-0.1,0-0.2c0-0.9,0-1.7,0-2.6
		C9.6,11.1,9.6,11,9.6,11z"/>
	<path class="st1" d="M8.6,11.7c0,0.3,0,0.6,0,0.8C8.5,12.2,8.5,12,8.6,11.7C8.5,11.6,8.5,11.6,8.6,11.7z"/>
	<path class="st1" d="M8.6,13.1c0,0.3,0,0.7,0,1C8.5,13.8,8.5,13.4,8.6,13.1z"/>
	<path class="st1" d="M8.8,10.7c0,0-0.1,0.1-0.1,0.1c-0.1,0-0.2-0.1,0-0.2C8.7,10.6,8.8,10.5,8.8,10.7C8.9,10.7,8.8,10.7,8.8,10.7z"
		/>
	<path class="st1" d="M8.6,12.7c0,0.1,0,0.2,0,0.3C8.5,12.9,8.5,12.8,8.6,12.7z"/>
	<path class="st1" d="M9.1,10.6c0,0-0.1,0-0.1,0c0,0,0-0.1,0-0.1C9,10.5,9.1,10.6,9.1,10.6z"/>
	<path class="st1" d="M6.3,15.8c-0.1-0.3-0.1-0.6,0.1-0.9c0.1,0.1,0.1,0.1,0.2,0.2c0,0.2-0.1,0.3-0.1,0.5
		C6.4,15.7,6.4,15.8,6.3,15.8z"/>
	<path class="st1" d="M6.3,15.8c0.1-0.1,0-0.2,0.2-0.1c0,0,0.1,0,0.1,0c0,0.1,0.1,0.2,0.1,0.3c0.1,0.2-0.1,0.1-0.2,0.2
		C6.4,16.1,6.3,15.9,6.3,15.8z"/>
	<path class="st1" d="M6.6,15.1c-0.1,0-0.1-0.1-0.1-0.2c0.1-0.1,0.2-0.2,0.3-0.3c0.1,0.1,0.3-0.1,0.3,0.1c0,0,0,0,0,0
		c0,0.1-0.2,0-0.2,0.2C6.8,15,6.7,15.1,6.6,15.1z"/>
	<path class="st1" d="M10.2,22.3c0.2,0.1,0.3,0.3,0.1,0.7c0,0,0-0.1,0-0.1c0-0.4,0-0.4-0.6-0.6c0,0-0.1,0-0.1,0
		c0-0.1,0.1-0.1,0.1-0.1C9.9,22.2,10.1,22.2,10.2,22.3z"/>
	<path class="st1" d="M15.7,20c-0.2,0.4-0.4,0.9-0.7,1.2c0,0-0.1,0-0.1,0c0.1-0.1-0.1-0.1-0.1-0.2c0.1-0.3,0.3-0.6,0.5-0.9
		c0.1,0,0.2-0.1,0.2-0.1c0.1,0,0.1-0.1,0.2,0C15.7,19.9,15.7,19.9,15.7,20z"/>
	<path class="st1" d="M14.8,20.9c0.2,0,0,0.2,0.1,0.2c-0.2,0.2-0.4,0.4-0.7,0.6c-0.1,0-0.2,0-0.4,0c0,0,0-0.1,0-0.1
		C14.2,21.4,14.5,21.1,14.8,20.9C14.8,20.9,14.8,20.9,14.8,20.9z"/>
	<path class="st1" d="M16.4,15.6c0.1,0,0.1,0.2,0.2,0.2c-0.1,0.1-0.1,0.3-0.2,0.3c-0.1,0-0.2,0.1-0.2-0.1c0,0,0-0.1,0-0.1
		c0,0,0.1-0.1,0.1-0.1c0,0,0-0.1,0-0.1C16.4,15.7,16.4,15.6,16.4,15.6z"/>
	<path class="st1" d="M16.2,16.1c0,0.1,0.2,0,0.2,0.1c-0.1,0.1-0.2,0.2-0.3,0.2c-0.2,0.1-0.2-0.1-0.2-0.2C15.9,16.1,16,16,16.2,16.1
		z"/>
	<path class="st1" d="M15.8,19.2C15.9,19.2,15.9,19.2,15.8,19.2c0,0.3,0,0.5-0.1,0.7c0,0,0,0.2-0.1,0.1c0,0,0-0.1,0-0.1
		C15.6,19.6,15.7,19.4,15.8,19.2z"/>
	<path class="st1" d="M14.4,21.9C14.4,21.8,14.4,21.8,14.4,21.9C14.4,21.8,14.4,21.8,14.4,21.9C14.4,21.8,14.4,21.8,14.4,21.9
		C14.4,21.8,14.4,21.8,14.4,21.9z"/>
	<path class="st1" d="M15.8,14.6c-0.2,0-0.4,0-0.6,0C15.4,14.5,15.6,14.5,15.8,14.6z"/>
	<path class="st1" d="M8.5,21.6c0.2,0.1,0.4,0.2,0.5,0.4c0.1,0,0.1,0.1,0.1,0.2c-0.1,0.1-0.2,0-0.3,0"/>
	<path class="st1" d="M7.4,20.2c0.1-0.1,0-0.1,0-0.2c0.1,0,0.1,0.2,0.2,0.2c0,0,0,0,0,0c0,0,0,0,0,0c0.2,0,0.2,0.2,0.2,0.3
		C7.9,20.6,8,20.7,8,20.8c0.1,0.2,0.3,0.3,0.4,0.5c0,0,0.1,0.1,0.1,0.1c-0.1,0-0.1,0.1-0.2,0.2"/>
	<path class="st18" d="M11.3,10.8c-0.1,0.1-0.1,0.2-0.2,0.3c0,0.1-0.1,0.1-0.2,0.1c-0.1,0-0.1-0.1,0-0.2c0-0.3,0.1-0.6,0.1-0.9
		c0-0.1,0-0.3,0-0.4c0.1-0.1,0.1,0.1,0.2,0.1c0,0.3,0,0.5-0.1,0.8c0,0,0,0,0,0c0-0.1,0-0.1,0.1-0.2C11.5,10.6,11.3,10.7,11.3,10.8z"
		/>
	<path class="st19" d="M11.2,9.8c-0.1,0-0.1-0.1-0.1-0.1c0-0.4,0.1-0.8,0.1-1.2c0-0.1,0-0.1,0-0.2c0.1-0.2,0-0.3,0.1-0.5
		c0-0.1,0.1-0.2,0.2,0c0,0,0,0.1,0,0.1c0,0.1,0,0.2,0,0.3c0,0.1,0,0.1,0,0.2c0,0.1,0,0.2,0,0.3c0,0.3-0.1,0.6-0.1,0.9
		C11.3,9.7,11.3,9.8,11.2,9.8z"/>
	<path class="st20" d="M11.3,7c-0.2-0.2-0.5-0.1-0.8-0.1c-0.1,0-0.1-0.1,0-0.1c0.4,0,0.7-0.1,1.1,0c0.2,0.2,0,0.4,0,0.6
		c0,0,0,0.1,0,0.1c0,0.1,0,0.1-0.1,0.2c-0.1,0.1-0.1,0-0.2,0C11.3,7.4,11.5,7.2,11.3,7z"/>
	<path class="st21" d="M11.3,10.8c0-0.1,0.1-0.2,0-0.2c0-0.2,0.1-0.3,0.2-0.4c0,0,0.1,0.1,0.1,0.1C11.5,10.4,11.4,10.6,11.3,10.8z"
		/>
	<path class="st22" d="M11.4,7.7c0,0,0.1,0.1,0.1,0c0,0,0,0,0,0.1c0,0.1,0,0.1-0.1,0.1C11.3,7.8,11.4,8,11.4,8c0,0.1,0,0.3-0.1,0.4
		C11.2,8.1,11.3,7.9,11.4,7.7z"/>
	<path class="st23" d="M13.2,7.8c0,0-0.1,0.1-0.1,0.1c-0.2,0-0.3-0.1-0.4-0.3c-0.1-0.1-0.2-0.2-0.3-0.3c-0.1-0.1-0.1-0.1-0.3-0.1
		c-0.2,0-0.3-0.2-0.3-0.4c0-0.1,0-0.1-0.1-0.2c-0.3-0.2-0.6-0.4-0.9-0.6c-0.1,0-0.1-0.1-0.2-0.1c-0.3,0-0.4-0.2-0.4-0.4
		c0.1-0.1,0.1-0.2,0.3-0.1c0,0,0.2,0.1,0.1-0.1c0-0.1,0-0.2,0.1-0.2c0.1,0,0.2,0,0.2,0.1c0,0,0,0.1,0,0.1c0,0.1,0.1,0.1,0.1,0.1
		c0.1,0,0.1,0,0.1-0.1c0,0,0,0,0,0c0.2-0.1,0.3-0.3,0.2-0.5c0-0.1,0-0.1,0.1-0.1c0.1,0,0.2,0,0.2,0.1c0,0.1,0,0.1,0,0.2
		c0,0,0,0.1,0,0.1c0,0,0-0.1,0-0.1c0-0.1,0-0.2,0.2-0.2c0,0.1-0.1,0.2,0,0.2c0.2,0.1,0.5,0,0.7,0.1c0.1,0.1,0,0.1-0.1,0.1
		c-0.1,0-0.3,0-0.4,0c-0.1,0-0.2,0-0.3,0.1c0.2-0.1,0.4,0,0.5,0.1c0.1,0.1,0.2,0.1,0.4,0.1C12.8,5.7,13,5.8,13,6
		c0,0.1,0.1,0.3,0,0.4c0,0.1,0,0,0.1,0.1c0.1,0.1,0.3,0.1,0.3,0.3c0,0,0,0-0.1,0.1c0,0,0,0,0.1,0c0.2,0,0.3,0.1,0.3,0.3
		c0,0,0,0-0.1,0c-0.1,0-0.3-0.1-0.4-0.1C13.1,7,13,7.1,13,7.2C13,7.4,13,7.6,13.2,7.8z"/>
	<path class="st24" d="M13.6,7.1c-0.1-0.1-0.2-0.2-0.4-0.2c0-0.2-0.1-0.2-0.2-0.2C12.8,6.5,13,6.2,12.9,6c0-0.2-0.1-0.3-0.3-0.3
		c-0.2,0-0.4-0.1-0.6-0.3c0-0.1-0.1,0-0.2,0c-0.1,0.1-0.2,0.1-0.3-0.1c0-0.1,0.1-0.1,0.2-0.1c0.2,0,0.4,0,0.6,0c0.1,0,0.2,0,0.1-0.1
		c0.1,0,0.3,0,0.4,0c0,0.1,0.1,0,0.2,0.1c0.1,0.1,0.2,0.1,0.3,0.2c0,0,0,0,0,0c0.2,0.1,0.4,0.4,0.7,0.5c0.1,0,0,0.2,0.1,0.4
		C14,6.5,13.9,6.8,13.6,7.1C13.7,7.1,13.7,7.1,13.6,7.1z"/>
	<path class="st25" d="M14.2,6.2c0-0.1-0.1-0.1-0.2-0.1c0.1-0.2,0.1-0.3-0.1-0.3c-0.2,0-0.3-0.1-0.3-0.2c0-0.1-0.2-0.1-0.3-0.2
		c-0.1,0-0.2-0.1-0.2-0.2c0.2-0.1,0.4,0,0.6,0c0.3,0,0.5,0,0.8,0c0,0,0.1,0,0.1,0c0,0.1-0.1,0.1,0.1,0.2c0.1,0,0.2,0.1,0.2,0.2
		c0,0,0,0.1,0,0.1C14.5,5.8,14.4,6,14.2,6.2C14.3,6.2,14.3,6.2,14.2,6.2z"/>
	<path class="st26" d="M14.4,5.1c-0.2,0.2-0.4,0.1-0.6,0.1c-0.2,0-0.5,0-0.7,0c-0.1,0-0.1,0-0.1-0.1C13.4,5.1,13.9,5.1,14.4,5.1z"/>
	<path class="st27" d="M14.7,5.5c-0.1-0.1-0.2-0.2-0.3-0.2c0,0,0.1-0.1,0.1-0.1c0.1,0,0.3,0,0.4,0C14.9,5.3,14.8,5.4,14.7,5.5z"/>
	<path class="st28" d="M12.1,4.2c-0.1,0-0.1,0-0.1-0.1c0-0.1,0.1-0.2,0-0.3c-0.1-0.3,0-0.6,0.1-0.9c0.1-0.1,0.1-0.2,0.1-0.4
		c0-0.1,0-0.2,0.2-0.2C12.2,3,12.3,3.6,12.1,4.2z"/>
	<path class="st29" d="M12.4,2.4c-0.2,0.1-0.1,0.4-0.2,0.5c0,0,0,0,0,0c0,0,0,0,0,0c-0.1-0.2,0-0.4,0-0.6c0.1-0.3,0.1-0.6,0.1-0.9
		c0-0.1,0-0.2,0.1-0.2c0.2-0.1,0.1,0.1,0.1,0.1C12.5,1.7,12.4,2,12.4,2.4z"/>
	<path class="st30" d="M12.2,2.3c0,0.2,0,0.4-0.1,0.6C12.1,3.2,12,3.5,12,3.8c0,0,0,0.1-0.1,0.1c-0.3,0-0.5-0.1-0.5-0.4
		c0-0.2-0.2-0.3-0.3-0.5c0-0.1,0-0.1,0-0.2c0.2-0.2,0.3-0.5,0.5-0.7c0.1-0.1,0-0.2,0.1-0.3c0.1,0,0.1,0,0.2,0.1
		C12,2.2,12.1,2.3,12.2,2.3z"/>
	<path class="st31" d="M11.2,3.1c0.2,0,0.3,0.2,0.3,0.4c0,0.3,0.3,0.4,0.5,0.5c0,0.1,0,0.2,0,0.3c-0.1,0-0.1,0.1-0.2,0.2
		c0,0.1,0,0.3-0.1,0.4c-0.1,0-0.1,0-0.2,0c0-0.3-0.3-0.4-0.5-0.5c-0.2-0.1-0.3-0.3-0.2-0.5C10.8,3.6,10.9,3.3,11.2,3.1z"/>
	<path class="st24" d="M11.6,4.8c0-0.1,0.1-0.3,0.1-0.4c0-0.1,0.1-0.2,0.2-0.1c0,0.2,0,0.4-0.1,0.6c-0.1,0-0.1,0.1-0.1,0.2
		c-0.1,0-0.1,0-0.1,0C11.6,4.9,11.6,4.8,11.6,4.8z"/>
	<path class="st32" d="M10.4,3.9c-0.1,0,0-0.1,0-0.1c0.2-0.3,0.5-0.7,0.7-1c0.1,0,0.1,0,0.1,0.1c-0.2,0.4-0.4,0.6-0.6,1
		C10.5,3.9,10.5,4,10.4,3.9z"/>
	<path class="st33" d="M11.2,2.8c0,0-0.1,0-0.1-0.1c0.2-0.4,0.5-0.7,0.7-1c0.1,0.1,0,0.2,0,0.3c-0.1,0.3-0.3,0.5-0.5,0.7
		C11.3,2.8,11.2,2.8,11.2,2.8z"/>
	<path class="st34" d="M11.7,2c-0.1-0.1,0.1-0.2,0.1-0.3c0.1-0.2,0.3-0.4,0.4-0.6c0,0,0,0.1,0.1,0.1C12.3,1.5,12,1.7,11.7,2
		C11.8,2,11.8,2,11.7,2z"/>
	<path class="st35" d="M10.4,3.9c0-0.1,0.1-0.1,0.1-0.2c0.1,0,0.1,0.1,0.1,0.2c0,0.2-0.1,0.3-0.2,0.5c-0.4,0.7-0.9,1.3-1.3,2
		C9,6.6,9,6.7,8.8,6.8c-0.1,0-0.3,0-0.4,0C8.3,6.5,8.5,6.4,8.7,6.3c0.2,0.2,0.2,0.2,0.3,0c0-0.1,0.1-0.2,0.1-0.2
		c0.1-0.1,0.1-0.2,0-0.3c0.2-0.3,0.4-0.6,0.6-1C10,4.5,10.2,4.2,10.4,3.9z"/>
	<path class="st36" d="M9.1,5.7C9.3,5.8,9.3,5.9,9.2,6C9.1,6.1,9.1,6.3,9,6.4C8.9,6.5,8.8,6.6,8.7,6.5c-0.1,0,0-0.1,0-0.2
		c0,0,0,0,0,0c0,0,0,0,0,0C8.8,6.1,8.9,6,9.1,5.7C9.1,5.8,9.1,5.8,9.1,5.7z"/>
	<path class="st37" d="M11.9,6.8c0,0.2,0.1,0.3,0.3,0.3c0.1,0,0.3,0.2,0.3,0.3c0,0.2,0.1,0.1,0.2,0.1c0,0.3,0.2,0.4,0.4,0.5
		C13.1,7.9,13,8,13,8c-0.1,0.2-0.3,0.4-0.4,0.5c-0.1,0-0.2-0.1-0.3-0.2c-0.1-0.2-0.4-0.3-0.5-0.6c0-0.1-0.1,0-0.2,0
		c-0.1,0-0.1,0-0.1-0.1c0-0.1,0-0.1,0-0.2c0,0,0-0.1,0-0.1c0,0,0.1,0.1,0.1,0C11.7,7.2,11.7,7,11.9,6.8C11.8,6.7,11.8,6.7,11.9,6.8z
		"/>
	<path class="st38" d="M13.2,7.8c-0.1-0.1-0.3-0.1-0.3-0.2c0-0.2,0-0.4,0-0.5C13,7,13,7,13.1,7c0.2,0,0.4-0.1,0.5,0.1
		C13.5,7.4,13.3,7.5,13.2,7.8z"/>
	<path class="st39" d="M11.3,9.6c0-0.3,0.1-0.6,0.1-0.9c0,0,0-0.1,0.1-0.1c0.2,0,0.3,0.1,0.3,0.3c0,0.1,0.1,0.1,0.2,0.2
		c0.1,0.1,0.2,0.1,0.2,0.2c0,0,0,0,0,0C12,9.5,11.8,9.8,11.6,10C11.3,10,11.3,10,11.3,9.6z"/>
	<path class="st40" d="M11.3,9.6c0,0.2,0.1,0.4,0.3,0.4c0,0,0,0.1-0.1,0.1c-0.1,0.1-0.2,0.2-0.2,0.4c-0.1,0.1-0.1,0.1-0.2,0.2
		c0-0.3,0.1-0.6,0.1-0.9C11.2,9.7,11.2,9.7,11.3,9.6z"/>
	<path class="st41" d="M12.2,9.2C12,9.1,11.8,9,11.7,8.9c-0.1-0.2-0.2-0.2-0.3-0.3c0,0,0-0.1,0-0.1c0-0.1,0-0.1,0-0.2
		c0.1-0.1,0-0.2,0-0.2c0,0,0-0.1,0-0.1c0.1,0,0-0.1,0.1-0.1c0,0,0,0,0,0c0.2,0,0.3,0,0.4,0.2c0,0,0,0.1,0.1,0.1
		c0.2,0,0.2,0.2,0.3,0.3c0.1,0.1,0.2,0.1,0.3,0.2c0,0,0,0,0,0C12.4,8.8,12.3,9,12.2,9.2z"/>
	<path class="st42" d="M8.7,6.3C8.7,6.3,8.7,6.3,8.7,6.3C8.6,6.5,8.5,6.6,8.4,6.8c0.2,0.1,0.3,0,0.5,0c0.1,0,0.2,0,0.3,0
		c0,0,0,0.1,0,0.1C9,6.9,8.7,6.9,8.4,7c0,0-0.1,0-0.1,0C8.1,6.9,8.1,6.8,8.2,6.6c0.1-0.1,0.2-0.2,0.3-0.4C8.6,6.3,8.7,6.2,8.7,6.3z"
		/>
	<path class="st43" d="M9.2,6.9C9.2,6.9,9.2,6.8,9.2,6.9c0.1-0.2,0.1-0.2,0.2-0.2c0.3,0,0.6,0,0.8,0c0.1,0,0.1,0,0.2,0.1
		c0,0,0,0.1,0,0.1C10.2,7,9.8,7,9.4,6.9C9.4,6.9,9.3,6.9,9.2,6.9z"/>
	<path class="st1" d="M7,16.2c-0.1,0-0.2-0.1-0.3-0.1c0-0.2-0.1-0.4,0-0.5c0.2-0.2,0.5-0.3,0.8-0.4c0.4,0,0.8,0,1.2,0
		c0.3,0,0.6-0.1,0.9-0.1c0.1,0,0.1,0,0.2,0c0.2,0.1,0.5,0,0.7,0c0.1,0,0.2,0,0.3,0c0.3,0,0.6,0,0.9,0c0,0,0.1,0,0.1,0
		c0.2,0,0.4,0.2,0.6,0c0,0.2-0.2,0.2-0.2,0.3c0,0-0.1,0-0.2-0.1c0-0.1-0.1,0-0.1,0c0,0-0.1,0.1-0.1,0c-0.1-0.3-0.2,0-0.3,0
		c-0.1,0-0.2,0.2-0.3,0c-0.1-0.1-0.3-0.1-0.5,0c-0.1,0,0.1,0.1,0,0.2c-0.2,0-0.5,0-0.7-0.2c0,0-0.1-0.1-0.1,0c0,0-0.1,0.1,0,0.1
		c0,0.1,0,0.2-0.1,0.1c0,0,0,0-0.1,0c0.2,0.1,0.1,0.2,0,0.3c-0.1,0.1,0.2,0.2-0.1,0.3c0.1,0.1,0.3,0,0.2,0.2
		c-0.1,0.2,0.1,0.4,0.2,0.6c0,0.3,0.3,0.3,0.5,0.5c-0.1-0.1-0.2,0.2-0.2-0.1c0-0.1-0.1-0.1-0.1,0c-0.1,0.1,0,0.1,0,0.1
		c0,0.1-0.1,0.1-0.2,0.2c-0.1,0-0.2,0,0,0.1c0,0,0,0,0.1,0.1c0,0.1,0.2,0.1,0.1,0.2c-0.1,0.1-0.2,0-0.3,0c-0.3-0.1-0.2,0-0.2,0.2
		c-0.1,0.4,0.1,0.5,0.2,0.8c-0.1,0-0.1-0.1-0.2-0.1c-0.1,0.1,0,0.2,0.1,0.2c0,0,0.1,0.1,0,0.1c0,0-0.1,0-0.1,0
		c-0.3-0.2-0.4,0.1-0.6,0.2c-0.1-0.1-0.1-0.3-0.3-0.2c0,0-0.1,0-0.1,0.1c0,0.2-0.1,0.1-0.1,0c-0.1-0.2-0.2-0.1-0.3-0.2
		c-0.1,0-0.2-0.1-0.1-0.2c0.1-0.1,0.1-0.3,0-0.4c0-0.1,0-0.2,0-0.3c-0.1-0.1-0.1-0.2-0.1-0.3c0.1-0.2,0-0.5,0-0.7
		c0-0.3-0.1-0.5-0.1-0.8c0-0.1,0.1-0.2-0.1-0.2c0,0-0.1,0-0.1,0c-0.1,0.1,0,0.2-0.1,0.3c-0.1,0-0.1-0.2-0.1-0.2
		C7.2,16.2,7.1,16.2,7,16.2z"/>
	<path class="st1" d="M14.4,20.4c0.3-0.3,0.3-0.7,0.6-1c0.1-0.1,0-0.2,0-0.4c0.2-0.4,0.1-0.8,0.1-1.2c0-0.5,0-1,0-1.5
		c0-0.2-0.1-0.4,0.1-0.5c0.2-0.1,0.4,0,0.6-0.1c0.1,0,0.1,0,0.2,0c0,0.2-0.2,0.1-0.3,0.1c0,0,0,0-0.1,0c-0.1,0-0.2,0-0.2,0
		c-0.1,0-0.1,0-0.1,0.1c0,0.1,0,0.1,0.1,0.1c0.1,0,0.1,0.1,0.1,0.1c0,0.1,0,0.1,0,0.2c0,0.1-0.1,0.1-0.1,0.1c0,0,0,0-0.1,0
		c0,0,0,0,0,0.1c0,0,0,0,0,0.1c0,0.1,0,0.2,0,0.3c0.1,0.4,0,0.7,0,1.1c0,0.2,0,0.4,0,0.6c0,0.1,0,0.1,0,0.2
		c-0.1,0.1-0.1,0.2-0.1,0.3c0,0.1-0.1,0.3-0.1,0.4c0,0,0,0,0,0.1c-0.1,0.2-0.2,0.5-0.3,0.7c-0.1,0.1-0.2,0.2-0.2,0.3c0,0,0,0,0,0.1
		c0,0.1-0.1,0.1-0.1,0.2c0,0,0,0,0,0.1c0,0.1-0.1,0.1-0.2,0c0-0.1,0-0.2,0.1-0.2C14.4,20.6,14.4,20.5,14.4,20.4z"/>
	<path class="st1" d="M7.5,16.2c0.1,0,0.2,0,0.2,0.2c0,0.2,0.1,0.4,0.1,0.6c0,0.4,0.2,0.7,0,1.1c0,0.1,0.1,0.1,0.1,0.2
		c-0.1,0-0.1,0-0.1,0.1c0,0.4,0,0.7,0.1,1.1c0.1,0.2,0.2,0.5,0.3,0.7c0.1,0.1,0,0.2,0,0.3c0.2,0.2,0.2,0.5,0.4,0.8
		C8.3,21.2,8.1,21,8,20.8c0-0.2-0.1-0.3-0.2-0.5c-0.1-0.2-0.1-0.4-0.2-0.6c0,0,0,0,0-0.1c-0.1-0.5-0.1-1.1-0.1-1.6
		c0-0.4-0.1-0.8-0.1-1.3C7.5,16.6,7.5,16.4,7.5,16.2z"/>
	<path class="st1" d="M9.4,21.7c0.2-0.2,0.4-0.4,0.6-0.5c0.1-0.1,0.2,0,0.4-0.1c0,0,0.1,0.1,0.2,0.1c0.1,0,0,0.1,0,0.1
		c-0.2,0.1,0,0.2,0,0.2c0.2,0.2,0.5,0.2,0.7,0.1c0.1,0,0.2,0,0.3,0c0.4,0,0.7,0,1-0.1c0.1,0.1,0,0.1-0.1,0.2c-0.2,0-0.3,0.1-0.5,0.1
		c-0.3,0-0.6,0-0.9,0c-0.3,0-0.6,0-0.9-0.1c-0.1,0-0.2-0.1-0.4,0C9.7,21.8,9.5,21.7,9.4,21.7z"/>
	<path class="st1" d="M9.4,21.7c0.1,0,0.3-0.1,0.4,0c0,0,0.1,0,0.1,0c0.1-0.2,0.2-0.1,0.3-0.1c0.4,0.2,0.9,0.1,1.3,0.1
		c0.2,0,0.4,0,0.6,0c0.2,0,0.3-0.1,0.5-0.1c0,0,0-0.1,0-0.1h0c0.1-0.1,0.2,0,0.2,0.1c0,0.3-0.2,0.2-0.4,0.2c-0.3,0-0.7,0-1,0
		c-0.1,0-0.2,0-0.4,0.1c-0.1,0.1-0.2,0.1-0.3,0.3c0,0,0,0-0.1,0c-0.2-0.1-0.4-0.1-0.6-0.1c-0.3-0.1-0.6-0.1-0.9-0.3c0,0,0,0,0-0.1
		C9.3,21.8,9.3,21.7,9.4,21.7z"/>
	<path class="st1" d="M12.8,21.7c-0.1,0-0.1-0.1-0.2,0c0.1-0.3,0.1-0.4-0.2-0.4c0.2-0.1,0.5,0,0.5,0.1c0,0.1,0.1,0.2,0.2,0.1
		c0.3-0.3,0.7-0.3,1-0.6c0.1-0.1,0.2-0.2,0.3-0.4c0,0.2-0.2,0.3-0.2,0.5c0,0,0,0,0,0c-0.1,0.2-0.3,0.4-0.6,0.4c-0.1,0-0.1,0-0.2,0.1
		C13.2,21.6,13,21.7,12.8,21.7z"/>
	<path class="st1" d="M11.8,15.1C11.7,15.1,11.7,15.1,11.8,15.1c-0.3,0-0.6,0-0.8,0c0,0,0,0,0-0.1c0.1-0.1,0.2-0.1,0.3-0.1
		c0.3,0,0.5,0,0.8,0c0.1,0,0.2,0,0.3,0c0.3-0.1,0.5,0.1,0.8,0c0,0,0.1,0,0.1,0c0,0.1-0.1,0.1-0.2,0.1c-0.4,0-0.8,0-1.2,0
		C11.8,15.1,11.8,15.1,11.8,15.1z"/>
	<path class="st1" d="M9.3,21.8C9.3,21.8,9.3,21.8,9.3,21.8C9.2,22,9.1,22,9,22c-0.2-0.1-0.4-0.2-0.5-0.4c0.1,0,0-0.2,0.2-0.2
		C8.8,21.6,9,21.7,9.3,21.8z"/>
	<path class="st1" d="M13,15.1c0.1,0,0.1,0,0.2-0.1c0.5-0.1,0.9,0,1.4,0c0,0,0.1,0,0,0.1c0,0-0.1,0.1-0.1,0.1
		C14.1,15,13.6,15.2,13,15.1C13.1,15.1,13.1,15.1,13,15.1z"/>
	<path class="st1" d="M14.7,15c-0.2-0.1-0.4-0.1-0.5,0c-0.3,0-0.6,0-0.9,0c0,0,0,0,0,0c0,0,0,0,0,0c0,0,0,0,0,0
		C13.7,14.8,14.2,15,14.7,15c0-0.1,0.1-0.1,0.1-0.1C14.8,15,14.8,15,14.7,15C14.7,15,14.7,15,14.7,15z"/>
	<path class="st1" d="M16.4,15.6c0,0.1,0,0.1-0.1,0.1c0-0.1,0-0.2-0.1-0.3c-0.1-0.1-0.1-0.1-0.1-0.2c0-0.1,0.1,0,0.2,0
		C16.4,15.3,16.4,15.4,16.4,15.6z"/>
	<path class="st1" d="M15.8,15.9c0.1-0.1,0.2,0,0.3-0.1c0.1,0,0.1,0,0.2,0.1c0,0.1,0,0.1-0.1,0.1C16.1,16,15.9,16,15.8,15.9z"/>
	<path class="st1" d="M10.6,21.1C10.6,21.1,10.6,21.1,10.6,21.1c0-0.1,0-0.1,0-0.1C10.6,21,10.7,21,10.6,21.1
		C10.7,21.1,10.7,21.1,10.6,21.1z"/>
	<path class="st1" d="M8.8,19.4c0.1,0,0.1,0,0.2,0.1C8.9,19.5,8.8,19.5,8.8,19.4z"/>
	<path class="st1" d="M9.6,18.1C9.6,18.2,9.6,18.2,9.6,18.1C9.6,18.2,9.6,18.2,9.6,18.1C9.6,18.2,9.6,18.2,9.6,18.1
		C9.6,18.2,9.6,18.2,9.6,18.1z"/>
	<path class="st1" d="M13.7,14.5c0,0-0.1,0-0.1,0c0-0.5,0-0.9,0-1.4c0-0.6,0-1.1,0-1.7c0-0.3,0-0.5,0.3-0.7c0,0,0,0,0-0.1
		c0,0,0.1,0,0.1,0c0.1,0.1,0.2,0.1,0.3,0.3c0,1,0,2.1,0,3.1c-0.2-0.1-0.1-0.2-0.1-0.3c0-0.8,0-1.6,0-2.3c0-0.1,0-0.1,0-0.2
		c0-0.1,0-0.3-0.2-0.3c-0.1,0-0.2,0.1-0.2,0.3c0,0.3,0,0.6,0,0.9c0,0.8,0,1.5,0,2.3C13.7,14.4,13.7,14.5,13.7,14.5z"/>
	<path class="st1" d="M6.6,15.1C6.6,15,6.7,15,6.8,14.9c0.1-0.1,0.2-0.1,0.4-0.1c0.4,0,0.8,0,1.2,0c0.2,0,0.4,0,0.7,0
		c0.1,0.1,0.1,0.1,0,0.1C8.8,15,8.6,15,8.4,15c-0.4,0-0.7,0-1.1,0c-0.4,0-0.6,0.1-0.7,0.6c0,0.1,0,0.2-0.1,0.2c0,0,0,0,0,0
		C6.5,15.5,6.5,15.3,6.6,15.1z"/>
	<path class="st1" d="M13,14.8c-0.1,0.1-0.2,0-0.2,0.1c-0.9,0-1.8,0.1-2.7,0c-0.2,0-0.5,0-0.7,0c-0.1,0-0.2,0-0.2-0.1
		c0.1,0,0.2,0,0.3,0C10.7,14.8,11.9,14.8,13,14.8z"/>
	<path class="st1" d="M9.5,14.8c-0.1,0-0.2,0-0.3,0c0,0-0.1,0-0.1,0c-0.2,0-0.5,0-0.7,0C8.7,14.8,9.1,14.8,9.5,14.8z"/>
	<path class="st44" d="M13.2,12c0-0.1,0.1-0.2,0-0.2c0.1,0.1,0.1,0.1,0.1,0.4C13.2,12.1,13.2,12,13.2,12z"/>
	<path class="st44" d="M13.2,11.5c0,0.1,0.1,0.1,0,0.2C13.2,11.6,13.2,11.5,13.2,11.5z"/>
	<path class="st1" d="M13.3,12.3c0,0.1,0,0.1,0,0.2C13.2,12.4,13.3,12.3,13.3,12.3z"/>
	<path class="st1" d="M14.8,14.9c0,0-0.1,0-0.1,0c0.1-0.1,0.3,0,0.4,0C15,14.9,14.9,15,14.8,14.9z"/>
	<path class="st1" d="M13.7,14.5c-0.1-0.4,0-0.8,0-1.1c0-0.7,0-1.4,0-2.1c0-0.1,0-0.3,0.1-0.4c0.1,0,0.1-0.2,0.2-0.1
		c0.1,0.1,0.2,0.1,0.2,0.3c0,0.4,0,0.8,0,1.2c0,0.5,0,1,0,1.5c0,0.1,0,0.2,0,0.3c0,0.1,0,0.2,0,0.3c-0.1,0-0.1,0.2-0.2,0.2
		C13.9,14.5,13.8,14.5,13.7,14.5z"/>
	<path class="st1" d="M14,14.5c0,0,0.1-0.1,0.1-0.1c-0.1-0.3,0.1-0.1,0.1-0.1c0,0.1,0,0.1,0,0.2C14.1,14.5,14,14.5,14,14.5z"/>
	<path class="st1" d="M9.1,14.8c0,0,0.1,0,0.1,0c0.3,0.1,0.6,0,0.9,0.1c0.7,0.1,1.4-0.1,2.2,0c0.2,0,0.4,0,0.6,0c0.1,0,0.3,0,0.4,0
		c0,0,0,0,0,0c-0.3,0-0.6,0-0.9,0c-0.1,0-0.2,0-0.3,0c-0.3,0-0.6,0-0.8,0C11.1,15,11,15,10.9,15c0,0,0,0-0.1,0c-0.1,0-0.2,0-0.3,0
		c-0.3,0-0.6,0-0.9,0c-0.2,0-0.3,0-0.5,0c-0.3,0.1-0.6,0.1-0.9,0c-0.4,0-0.7,0-1.1,0.1c-0.2,0-0.4,0.1-0.5,0.3c0,0.2,0.1,0.4,0,0.5
		c0,0,0,0,0,0c0-0.1-0.1-0.2-0.1-0.3c0.1-0.1,0.1-0.2,0.1-0.2c0.1-0.5,0.3-0.6,0.8-0.6C7.9,14.9,8.5,15,9.1,14.8
		C9.1,14.9,9.1,14.8,9.1,14.8z"/>
	<path class="st1" d="M7,16.2c0.2,0,0.3,0,0.3,0.2c0,0.1,0,0.1,0,0.2c0.1,0.1,0.1,0.2,0.1,0.3c0,0.7,0,1.3,0,2c0,0.1,0,0.2-0.1,0.3
		c0,0-0.1,0.1-0.1,0.1c-0.1,0-0.1-0.1-0.1-0.1c0-0.2,0.2-0.4,0.1-0.6c0-0.1,0-0.2,0-0.3c0,0.2,0,0.4,0,0.5c-0.1,0,0-0.1-0.1-0.2
		c-0.1-0.1,0-0.2,0-0.3c0-0.5,0-1.1,0-1.6c0-0.1,0-0.2,0-0.3C7,16.3,7.1,16.2,7,16.2z"/>
	<path class="st1" d="M7.4,19.5c-0.1-0.1,0-0.1,0-0.2c-0.1-0.7,0-1.4,0-2.1c0.2-0.1,0.2,0,0.2,0.1c0,0.2,0,0.3,0,0.5
		c0,0.4,0,0.9,0,1.3c0,0.1,0,0.1-0.1,0.2C7.5,19.4,7.5,19.5,7.4,19.5z"/>
	<path class="st1" d="M7.4,17.2c0.1,0.3,0,0.7,0,1c0,0.3,0,0.6,0,0.9c0,0.1,0,0.2,0,0.3c0-0.1,0-0.1-0.1-0.2c0-0.8,0-1.7,0-2.5
		c0-0.1,0-0.3,0.1-0.4c0,0,0.1,0,0.1,0.1C7.4,16.6,7.5,16.9,7.4,17.2z"/>
	<path class="st1" d="M7.9,20.3C8,20.5,8.1,20.6,8,20.8c-0.2-0.2-0.3-0.4-0.4-0.6c-0.1-0.2-0.1-0.3-0.2-0.5c0-0.1,0-0.1,0.1-0.2
		c0.1,0,0.1,0.1,0.1,0.2l0,0C7.7,19.9,7.8,20.1,7.9,20.3z"/>
	<path class="st1" d="M7.5,19.6c0,0.1,0,0.1,0,0.1c0-0.1-0.1-0.1-0.1-0.2c0-0.1,0-0.1,0.1-0.2C7.5,19.4,7.5,19.5,7.5,19.6z"/>
	<path class="st1" d="M12.4,22.4c0,0.2,0,0.5,0,0.7c-0.1,0.2,0,0.3,0,0.5c0,0.5,0,1.1,0,1.6c0,0,0,0-0.1,0c0,0,0-0.1,0-0.1
		c0-0.1,0-0.3-0.1-0.3c0-0.7,0-1.4,0-2.1C12.2,22.6,12.4,22.4,12.4,22.4z"/>
	<path class="st1" d="M12.3,25.2C12.4,25.2,12.4,25.2,12.3,25.2c0.1,0.1,0.1,0.1,0,0.2c-0.6,0-1.3,0-1.9,0c0,0,0,0,0,0
		c0,0,0,0,0-0.1c0,0,0.1-0.1,0.2-0.1c0.5,0,0.9,0,1.4,0C12.1,25.2,12.2,25.3,12.3,25.2C12.3,25.2,12.3,25.2,12.3,25.2z"/>
	<path class="st1" d="M10.5,25.4c0.6,0,1.3,0,1.9,0c0,0,0,0,0,0C11.7,25.4,11.1,25.4,10.5,25.4C10.5,25.4,10.5,25.4,10.5,25.4z"/>
	<path class="st1" d="M12.4,22.4c-0.2,0,0,0.2-0.1,0.2c0,0-0.1-0.1-0.1-0.1c0,0,0,0-0.1,0c0,0-0.1,0-0.1-0.1c0,0,0,0,0-0.1
		c0-0.2,0.1-0.3,0.2-0.3c0.2,0,0.5-0.1,0.7-0.1c0,0,0.1,0,0.1,0.1c0.1,0.1,0,0.2,0.2,0.2c0,0,0,0,0,0C13,22.3,12.7,22.3,12.4,22.4z"
		/>
	<path class="st1" d="M10.6,25.3c0,0-0.1,0-0.1,0c0-0.2,0-0.4,0-0.6c0.1-0.3,0-0.7,0-1c0-0.1,0-0.2,0-0.4c0.1,0,0.1,0.1,0.1,0.2
		c0,0,0,0,0,0c0-0.1-0.1-0.2,0-0.3c0-0.1,0-0.2,0.1-0.2c0.1,0.1,0.1,0.2,0.1,0.3c0,0.6,0,1.2,0,1.7c0,0,0,0.1,0,0.1
		C10.8,25.2,10.7,25.3,10.6,25.3z"/>
	<path class="st1" d="M10.2,22.1c0.2,0,0.3,0,0.5,0c0.1,0,0.1,0.1,0.1,0.1c0,0,0.1,0.1,0.1,0.1c0,0.1,0,0.2,0,0.2c0,0.1,0,0.1,0,0.1
		c-0.1,0-0.2,0.1-0.3-0.1c0-0.2,0.1-0.4-0.3-0.3c-0.1,0-0.3,0-0.4-0.1c0,0,0,0,0,0C9.9,22.1,10,22.1,10.2,22.1z"/>
	<path class="st1" d="M10.5,22.7c0.1,0,0.2,0.1,0.2,0.1c0.1,0.1,0.1,0.1,0,0.2c-0.1,0.2,0,0.4-0.1,0.6c-0.1,0,0-0.1-0.1-0.2
		c0,0,0,0,0,0c0,0.3,0,0.7,0,1c0,0.1,0,0.2-0.1,0.3C10.5,24,10.5,23.4,10.5,22.7z"/>
	<path class="st1" d="M15.7,19.8c-0.1-0.1-0.1,0.1-0.1,0c-0.1-0.1-0.1-0.2-0.1-0.2c0.2-0.2,0.1-0.4,0-0.7c0,0,0,0,0-0.1
		c0-0.7,0-1.4,0-2.2c0-0.1,0-0.3,0.1-0.4c0.1,0.1,0,0.2,0.1,0.3c0.1-0.1,0-0.2,0.1-0.2c0,0.1,0,0.2,0,0.4c0,0.6,0,1.1,0,1.7
		c0,0.2,0,0.5,0,0.7l0,0"/>
	<path class="st1" d="M14.8,20.9C14.8,20.9,14.8,20.9,14.8,20.9c-0.1-0.1-0.1-0.2,0-0.3c0.1-0.2,0.3-0.4,0.4-0.7c0,0,0,0,0-0.1
		c0.1,0,0.1-0.1,0.2,0c0,0,0,0,0,0.1C15.2,20.3,15,20.6,14.8,20.9z"/>
	<path class="st1" d="M15.4,20C15.4,20,15.4,19.9,15.4,20c0-0.1,0-0.2,0-0.3c0-0.2,0.1-0.3,0.1-0.5c0-0.1,0-0.2,0.1-0.2
		c0.1,0.2,0.2,0.5-0.1,0.7c-0.1,0.1,0,0.1,0,0.2C15.5,19.9,15.5,20,15.4,20z"/>
	<path class="st1" d="M15.2,19.9c-0.1,0.3-0.2,0.5-0.4,0.7c0,0.1-0.1,0.2-0.1,0.3c-0.2,0.3-0.6,0.6-0.9,0.8
		c-0.2,0.1-0.5,0.2-0.7,0.3c0,0-0.1,0-0.1,0c-0.1-0.1-0.1-0.1,0-0.2c0.1,0,0.1,0,0.2-0.1c0.1,0,0.3-0.1,0.4-0.2c0,0,0.1,0,0.1,0
		c0.1,0,0.2-0.1,0.3-0.1c0.1-0.1,0.3-0.2,0.4-0.4c0.2-0.2,0.3-0.4,0.5-0.6c0.1-0.1,0.1-0.3,0.2-0.4C15.1,19.9,15.2,19.9,15.2,19.9z"
		/>
	<path class="st1" d="M15.8,16.8c0-0.1,0-0.2,0-0.3c0,0,0,0,0.1,0c0,0.8,0,1.6,0,2.4c0,0.1,0,0.2,0,0.3c-0.1-0.2,0-0.4,0-0.6
		C15.8,17.9,15.8,17.3,15.8,16.8z"/>
	<path class="st1" d="M15.8,16.8c0,0.8,0,1.5,0,2.3c0,0,0,0.1,0,0.1C15.7,18.4,15.7,17.6,15.8,16.8z"/>
	<path class="st1" d="M15.8,15.9c0.1,0,0.3,0,0.4,0.1c0,0,0,0.1-0.1,0.1c-0.1,0-0.2,0.1-0.3,0.1c0,0,0,0-0.1,0c0,0-0.2,0-0.1-0.1
		C15.6,15.9,15.7,15.9,15.8,15.9L15.8,15.9z"/>
	<path class="st1" d="M15.2,19.9c0,0-0.1,0-0.1,0c-0.1-0.2,0.1-0.3,0.1-0.4h0c0.1-0.1,0.1-0.3,0.1-0.4c0,0,0-0.1,0-0.1
		c0.2-0.2,0.1-0.5,0.1-0.8c0-0.6-0.1-1.1,0.1-1.7c0,0,0-0.1,0.1-0.1c0-0.1,0-0.1,0-0.2c0-0.1,0-0.1,0.1-0.1c0,0.1,0,0.1,0,0.2
		c0,0.9,0,1.7,0,2.6c0,0.2-0.1,0.5-0.1,0.7c-0.1,0-0.1-0.1-0.1-0.1C15.3,19.7,15.3,19.8,15.2,19.9L15.2,19.9z"/>
	<path class="st1" d="M15.6,16.2C15.6,16.2,15.6,16.2,15.6,16.2c-0.1,0.1-0.1,0-0.2,0c-0.2,0,0-0.2-0.1-0.2c0-0.1,0.1-0.1,0.1-0.1
		c0.1,0,0.2,0,0.3,0c-0.1,0.1-0.2,0.2-0.1,0.3C15.7,16.2,15.7,16.2,15.6,16.2z"/>
	<path class="st1" d="M10.2,22.1c-0.1,0.1-0.3,0.1-0.4,0.2c-0.2,0-0.4-0.1-0.6-0.2C9.1,22,9,22,9,22c0.1-0.1,0.2,0,0.3-0.1
		C9.6,21.9,9.9,22.1,10.2,22.1z"/>
	<path class="st22" d="M11.5,8c0,0.1,0,0.2,0,0.2C11.4,8.2,11.4,8.1,11.5,8z"/>
	<path class="st22" d="M11.4,8.4c0,0,0,0.1,0,0.1c0,0,0,0.1,0,0.1C11.4,8.6,11.3,8.5,11.4,8.4z"/>
	<path class="st45" d="M11.8,6.8c0,0.3,0,0.6-0.1,0.8c-0.1,0,0-0.1-0.1-0.2c0-0.2,0-0.4,0-0.6c-0.4-0.1-0.8,0-1.1,0
		c-0.1,0-0.3,0-0.3-0.2c0.2-0.2,0.2-0.2,0.4-0.1c0,0,0.1,0,0.1,0c0.4-0.1,0.7,0,1,0.2C11.8,6.7,11.8,6.7,11.8,6.8z"/>
	<path class="st46" d="M10.4,6.8c0.3,0,0.6,0,1,0c0.1,0,0.2,0,0.2,0C11.2,6.8,10.8,6.8,10.4,6.8c-0.4,0.1-0.8,0.1-1.2,0.1
		C9,6.8,8.7,6.9,8.4,6.8c0.1,0,0.3,0,0.4,0c0.1,0,0.1-0.1,0.2-0.1C9.5,6.7,10,6.6,10.4,6.8z"/>
	<path class="st45" d="M11.6,7.8C11.5,7.8,11.5,7.8,11.6,7.8C11.5,7.7,11.5,7.7,11.6,7.8c0-0.1-0.1-0.2,0-0.3
		C11.6,7.6,11.6,7.7,11.6,7.8z"/>
	<path class="st47" d="M9,6.8c-0.1,0-0.1,0-0.2,0c0.3-0.4,0.5-0.8,0.8-1.2c0.2-0.4,0.5-0.7,0.8-1.1c0.1-0.1,0.2-0.3,0.2-0.4
		c0-0.1,0-0.2,0.1-0.1c0,0.2,0,0.3,0.3,0.4c0.1,0,0.3,0.2,0.5,0.3c0.1,0.1-0.1,0.2,0,0.2c-0.1,0.1,0,0.2,0,0.3
		c0,0.1,0.1,0.3-0.1,0.2c0,0-0.1,0.1-0.1,0.1c0,0.3-0.2,0.1-0.3,0.2c0,0-0.1,0-0.1-0.2c0-0.1-0.1-0.1-0.1-0.2
		c-0.1,0-0.1,0.1-0.1,0.1c0,0,0,0.1,0,0.1c0.1,0,0.1,0.1,0.1,0.2c-0.1-0.1-0.2,0.2-0.3-0.1c0,0-0.1,0-0.1,0c-0.1,0-0.1,0-0.1-0.1
		C10,5.3,9.9,5.3,9.8,5.5C9.7,5.7,9.5,5.9,9.5,6.3C9.3,6.4,9.2,6.7,9,6.8z"/>
	<path class="st48" d="M9.4,6.2c0-0.1,0.3-0.9,0.4-0.9c0.2-0.1,0.3,0.1,0.4,0.2c0.1,0.2,0.2,0.4,0.5,0.4c0.2,0,0.3,0.2,0.5,0.3
		c0.2,0.1,0.3,0.3,0.5,0.3c0.1,0,0.1,0.1,0.1,0.2c0,0,0,0,0,0c-0.4-0.2-0.7-0.3-1.2-0.2c0,0-0.1,0-0.1,0c0,0,0-0.1,0.1-0.1
		c-0.1,0-0.3,0.1-0.4,0.2c-0.1,0.2-0.3,0.1-0.4,0C9.7,6.4,9.6,6.3,9.4,6.2C9.4,6.3,9.4,6.2,9.4,6.2z"/>
	<path class="st31" d="M11.6,5C11.6,5,11.7,5,11.6,5c0.1,0.1,0.1,0.1,0.1,0.2c0,0-0.1,0-0.1-0.1C11.5,5,11.6,5,11.6,5z"/>
	<path class="st49" d="M11.8,2c0.2-0.3,0.4-0.5,0.5-0.8c0,0,0.1-0.1,0.1,0c-0.1,0.4-0.1,0.8-0.2,1.1C12,2.4,12,2.2,12,2.1
		C11.9,2.1,12,2,11.8,2C11.8,2,11.8,2,11.8,2z"/>
	<path class="st50" d="M11.8,2C11.8,2,11.8,2,11.8,2c0,0.1-0.1,0.3-0.1,0.4c-0.1,0.3-0.4,0.5-0.5,0.7c-0.2,0.2-0.3,0.5-0.4,0.7
		c-0.1,0.1-0.1,0.3-0.2,0.4c0,0.1,0,0.2-0.2,0.2c0-0.2,0.2-0.3,0.2-0.6c0,0,0-0.1,0-0.1c0.2-0.3,0.4-0.7,0.7-1
		C11.4,2.5,11.6,2.3,11.8,2C11.8,2,11.8,2,11.8,2z"/>
	<path class="st1" d="M6.7,15.5c0-0.2,0.2-0.3,0.4-0.3c0.5-0.1,1-0.2,1.5-0.1c0.2,0,0.4,0,0.6,0c0.5-0.1,0.9,0.1,1.4,0
		c0.1-0.1,0.2,0,0.2,0l0,0c0.1,0,0.1,0,0.1,0l0,0c0,0.1-0.1,0-0.1,0.1c-0.1,0-0.2,0-0.3,0c-0.3-0.1-0.5,0-0.8,0c-0.2,0-0.4,0-0.7,0
		c-0.3,0.1-0.7,0-1,0C7.5,15.2,7.1,15.2,6.7,15.5z"/>
	<path class="st1" d="M7.5,19.6c-0.1-0.1,0-0.1,0-0.2c0.1-0.4,0-0.7,0-1.1c0-0.2,0-0.5,0-0.7c0-0.1,0-0.3-0.1-0.4c0-0.3,0-0.7,0-1
		c0,0,0.1,0,0.1,0c0.1,0.2,0,0.5,0.1,0.7c0,0.2,0,0.4,0,0.6c0.1,0.3,0,0.7,0,1c0,0.4,0,0.7,0.1,1.1c0,0,0,0.1,0,0.1
		C7.6,19.7,7.6,19.6,7.5,19.6z"/>
	<path class="st1" d="M10.8,15.2c0,0,0.1-0.1,0.1-0.1c0.3,0,0.5,0,0.8,0C11.4,15.2,11.1,15.1,10.8,15.2z"/>
	<path class="st1" d="M9.7,15.1c0.3,0,0.5-0.1,0.8,0C10.2,15.1,9.9,15.2,9.7,15.1z"/>
	<path class="st1" d="M9.5,15.6c0,0-0.1,0.1-0.1,0.1c0,0,0,0,0-0.1C9.4,15.5,9.4,15.6,9.5,15.6z"/>
	<path class="st1" d="M15.6,16.6c-0.2,0.5,0,1.1-0.1,1.6c0,0,0,0.1,0,0.1c-0.1,0.1,0,0.2,0,0.3c0,0.1,0,0.2-0.2,0.1
		c0.1-0.2,0-0.4,0-0.6c0-0.4,0.1-0.8,0-1.2c0-0.1,0-0.2,0-0.2c0,0,0,0,0,0c0,0,0.1,0,0.1,0C15.5,16.5,15.5,16.5,15.6,16.6z"/>
	<path class="st1" d="M15.2,19.6c0.1,0.2-0.1,0.2-0.1,0.4c-0.1,0.3-0.3,0.6-0.5,0.9c0,0.1-0.1,0.1-0.2,0.2c-0.1-0.1,0-0.1,0-0.2
		c0.1,0,0.1-0.1,0.1-0.2c0,0,0,0,0,0c0.1-0.1,0.2-0.2,0.2-0.3c0.1-0.2,0.3-0.4,0.3-0.6C15,19.6,15.1,19.6,15.2,19.6z"/>
	<path class="st1" d="M15.3,18.6c0.1,0,0.1,0,0.1-0.1c0-0.1,0-0.2,0.1-0.3c0,0.2,0,0.4,0,0.6c0,0.1-0.1,0.1-0.1,0.2
		c-0.1-0.1,0-0.1,0-0.2C15.3,18.8,15.3,18.7,15.3,18.6z"/>
	<path class="st1" d="M14.4,20.8c0,0.1,0,0.1,0,0.2c-0.1,0.2-0.2,0.3-0.4,0.4c0,0-0.1,0-0.1,0c0,0,0,0,0-0.1
		c0.1-0.2,0.3-0.3,0.4-0.4c0,0,0,0,0,0C14.3,20.9,14.3,20.8,14.4,20.8z"/>
	<path class="st1" d="M15.3,19.2c0,0.2,0,0.3-0.1,0.4C15.1,19.4,15.2,19.3,15.3,19.2C15.3,19.2,15.3,19.2,15.3,19.2z"/>
	<path class="st1" d="M14.8,20.3c0,0.2-0.1,0.3-0.2,0.3C14.5,20.4,14.7,20.4,14.8,20.3z"/>
	<path class="st1" d="M15.3,19.2C15.3,19.2,15.3,19.2,15.3,19.2c-0.1-0.1-0.2-0.3,0-0.3c0,0.1,0,0.1,0,0.2
		C15.3,19.1,15.3,19.1,15.3,19.2z"/>
	<path class="st1" d="M14.5,20.6c0,0.1,0.1,0.3-0.1,0.2C14.4,20.7,14.4,20.6,14.5,20.6z"/>
	<path class="st1" d="M15.3,16.7c0,0.1,0.1,0.2,0,0.2C15.3,16.8,15.2,16.7,15.3,16.7z"/>
	<path class="st1" d="M15.4,16.6C15.4,16.6,15.4,16.6,15.4,16.6c-0.1,0-0.1,0-0.1-0.1C15.4,16.5,15.4,16.6,15.4,16.6z"/>
	<path class="st1" d="M15.6,16.6c0,0-0.1,0-0.1,0C15.4,16.5,15.5,16.5,15.6,16.6C15.6,16.5,15.6,16.5,15.6,16.6z"/>
	<path class="st1" d="M7.9,20.3c-0.2-0.1-0.3-0.3-0.2-0.6C7.8,19.9,7.8,20.1,7.9,20.3z"/>
	<path class="st1" d="M10.8,22.2c0-0.2,0.1-0.2,0.2-0.2c0,0,0.1,0,0.1,0c0.1,0.1,0,0.1,0,0.1C11,22.2,11,22.3,11,22.3
		c0,0.1,0.1,0.2,0.3,0.2c0.3,0,0.6,0,0.8,0.1c0,0.1,0,0.1,0,0.2c0,0.1,0,0.2-0.2,0.2c-0.2-0.1-0.4,0-0.6,0c-0.2,0-0.4-0.1-0.5-0.3
		C10.9,22.5,10.8,22.4,10.8,22.2z"/>
	<path class="st1" d="M14.2,20.9c0,0.2-0.3,0.3-0.3,0.5c-0.2,0.1-0.4,0.1-0.5,0.3c0,0.1-0.1,0.1-0.1,0.1c-0.1,0-0.1,0.1-0.2,0
		c-0.1,0-0.2,0.1-0.3,0.1c-0.1,0-0.2,0.1-0.3,0c0,0,0,0,0,0c0.1-0.1,0.3,0,0.3-0.2c0.4,0,0.7-0.3,1-0.4C14,21.2,14.1,21,14.2,20.9z"
		/>
	<path class="st1" d="M10.8,22.2c0,0.1,0.1,0.1,0.1,0.2c0.1,0.4,0.3,0.5,0.7,0.4c0.1,0,0.3-0.1,0.4,0c0.1,0.1,0.1,0,0.2-0.1
		c0,0.1,0,0.1,0,0.2c0,0.2-0.2,0.2-0.3,0.2c0,0,0,0-0.1,0c-0.2-0.1-0.3-0.1-0.5,0c-0.1,0-0.2,0.1-0.2,0c-0.1-0.2-0.2-0.5-0.3-0.7
		C10.7,22.3,10.7,22.3,10.8,22.2C10.7,22.2,10.8,22.2,10.8,22.2z"/>
	<path class="st1" d="M11.2,22c0,0-0.1,0-0.1,0c0.1-0.1,0.2-0.1,0.3-0.1c0.4,0,0.7,0,1.1,0l0,0c0,0.1-0.1,0.1-0.2,0.1
		c-0.2,0-0.4,0-0.6,0c-0.1,0-0.2,0-0.3,0.1C11.3,22,11.2,22,11.2,22z"/>
	<path class="st1" d="M10.9,15.1C10.9,15.1,10.8,15,10.9,15.1c0-0.1,0.1-0.1,0.2-0.1C11.1,15.1,11,15,10.9,15.1z"/>
	<path class="st1" d="M12,15c0.1,0,0.2,0,0.3,0C12.2,15,12.1,15,12,15z"/>
	<path class="st1" d="M13.9,14.5C13.8,14.5,13.8,14.5,13.9,14.5C13.8,14.4,13.8,14.4,13.9,14.5C13.9,14.4,13.9,14.4,13.9,14.5
		C13.9,14.4,13.9,14.5,13.9,14.5z"/>
	<path class="st1" d="M10.8,15c-0.1,0.1-0.2,0-0.2,0C10.7,14.9,10.7,15,10.8,15z"/>
	<path class="st1" d="M12.1,23c0-0.1,0-0.1,0-0.2c0-0.1,0-0.1,0-0.2c0,0,0-0.1,0-0.1c0,0,0,0,0,0c0,0.8,0,1.5,0,2.3
		c0.1,0.1,0.1,0.3,0,0.4c0,0-0.1,0-0.1,0c0,0,0-0.1,0-0.1c0-0.6,0-1.3,0-1.9C12.1,23.1,12.1,23,12.1,23z"/>
	<path class="st1" d="M12.2,25.2c0-0.1,0-0.3,0-0.4c0,0,0.1-0.1,0.1-0.1c0.1,0,0.1,0.1,0.1,0.1c0,0.1,0,0.3,0,0.4l0,0
		c0,0,0,0.1-0.1,0.1C12.2,25.3,12.2,25.2,12.2,25.2z"/>
	<path class="st1" d="M12.3,23.9c0-0.1,0-0.2,0-0.3c0,0,0,0,0.1,0C12.3,23.7,12.3,23.8,12.3,23.9C12.3,23.9,12.3,23.9,12.3,23.9z"/>
	<path class="st1" d="M12.2,25.2c0,0.2,0.1,0,0.1,0c0,0.2-0.1,0.1-0.2,0.1c-0.5,0-1,0-1.5,0c0-0.1,0.1-0.1,0.1-0.2
		c0.3-0.1,0.6-0.1,1-0.1C11.8,25.1,12,25.1,12.2,25.2C12.2,25.2,12.2,25.2,12.2,25.2z"/>
	<path class="st1" d="M11.2,22c0,0,0.1,0,0.1,0c0.3-0.1,0.6,0,0.9-0.1c0.2,0,0.4,0,0.6-0.1c0.1,0,0.2,0,0.2,0c-0.1,0-0.1,0.1,0,0.1
		c-0.2,0-0.5,0.1-0.7,0.1c-0.3,0.1-0.6,0.1-0.8,0.1C11.3,22.1,11.2,22.3,11.2,22C11.1,22.1,11.1,22,11.2,22z"/>
	<path class="st1" d="M11.5,22.1c0.3,0,0.6,0,0.8,0c-0.2,0-0.1,0.2-0.2,0.3c-0.1,0.1-0.2,0.1-0.4,0.1c-0.1,0-0.2-0.1-0.3-0.1
		c-0.1,0-0.2,0-0.1-0.1C11.3,22.1,11.4,22.1,11.5,22.1z"/>
	<path class="st1" d="M11.5,22.1c-0.1,0-0.2,0.1,0,0.2c0.2,0.1,0.4,0.3,0.6,0.1c0,0,0,0,0,0c0,0.1-0.1,0.2-0.1,0.1
		c-0.3-0.1-0.7,0-1-0.2c0-0.1,0-0.2,0.1-0.2C11.2,22.2,11.3,22.1,11.5,22.1z"/>
	<path class="st1" d="M11,22.3c0.2,0.1,0.4,0.1,0.6,0.1c0.1,0,0.2,0.1,0.4,0.1c0.1,0,0.2,0,0.2-0.1c0,0,0,0,0.1,0c0,0,0,0.1,0,0.1
		c-0.2,0.1-0.4,0-0.6,0c-0.1,0-0.2,0-0.3,0C11.1,22.6,11,22.5,11,22.3z"/>
	<path class="st1" d="M12.1,25.2c-0.5,0-1,0-1.4,0c0,0,0,0,0,0c0.1,0,0.1-0.1,0.1-0.2c0.1-0.4,0-0.9,0.1-1.3c0-0.3-0.1-0.6-0.2-0.9
		c0-0.1,0-0.2,0-0.3c0.2,0.2,0.2,0.5,0.3,0.7c0,0,0,0.1,0.1,0.1c0.2-0.1,0.4-0.1,0.6-0.1c0.1,0.1,0.3,0.1,0.3,0.3c0,0.5,0,1,0,1.5
		C12.1,24.9,12.2,25,12.1,25.2c-0.2-0.1-0.3-0.1-0.3-0.3c0-0.2-0.2-0.3-0.3-0.3c-0.2,0-0.3,0.1-0.4,0.2c-0.1,0.1,0,0.2,0.1,0.2
		c0.2,0,0.5,0,0.7,0C12,25.1,12.1,25.1,12.1,25.2C12.1,25.1,12.1,25.1,12.1,25.2z"/>
	<path class="st1" d="M10.7,22.6c0.2,0.4,0.3,0.7,0.3,1.2c-0.1,0.4,0,0.8-0.1,1.1c0,0.2-0.1,0.2-0.2,0.2c0-0.7,0-1.4,0-2.1
		c0-0.1,0-0.1,0-0.2C10.7,22.7,10.7,22.7,10.7,22.6z"/>
	<path class="st1" d="M15.2,19.9c0-0.1,0-0.3,0.2-0.4c0.1,0,0,0.1,0.1,0.2c0,0.1,0,0.2-0.1,0.2C15.3,19.8,15.3,19.9,15.2,19.9z"/>
	<path class="st1" d="M13.3,21.7c0.1-0.2,0.3-0.3,0.5-0.3l0,0c0,0.1-0.1,0.1-0.2,0.1c0,0,0,0,0,0C13.5,21.6,13.5,21.7,13.3,21.7z"/>
	<path class="st1" d="M13.3,21.7c0.1,0,0.2-0.1,0.3-0.1C13.5,21.7,13.4,21.8,13.3,21.7C13.3,21.8,13.3,21.7,13.3,21.7z"/>
	<path class="st1" d="M13.7,21.6c0.1,0,0.1-0.1,0.2-0.1c0,0,0.1,0,0.1,0C13.9,21.5,13.8,21.6,13.7,21.6z"/>
	<path class="st51" d="M9.4,6.2c0.2,0,0.4,0.2,0.6,0.3c0.1,0.1,0.2,0,0.2,0c0,0.1,0.1,0.1,0.2,0.2c-0.5,0-1,0-1.4,0
		C9.2,6.6,9.2,6.4,9.4,6.2z"/>
	<path class="st1" d="M12.8,21.8C12.7,22,12.4,22,12.3,22c-0.3,0-0.6,0-1,0c0.1-0.1,0.2-0.1,0.3-0.1c0.3,0,0.6,0,0.9-0.1
		C12.6,21.9,12.7,21.8,12.8,21.8z"/>
	<path class="st1" d="M11.8,23.1c-0.1,0.1-0.3,0.1-0.4,0.1c-0.1,0-0.1,0-0.2,0.1c-0.1,0.1-0.2,0-0.2-0.2c0.1,0.1,0.2,0,0.2-0.1
		C11.5,23,11.7,22.9,11.8,23.1z"/>
	<path class="st1" d="M12.1,23.3c-0.2,0-0.3,0-0.3-0.2c0.1-0.1,0.3,0.1,0.3-0.1c0,0,0,0.1,0,0.1C12.1,23.2,12.1,23.2,12.1,23.3z"/>
	<path class="st1" d="M12.1,23.3c0-0.1,0-0.1,0-0.1c0,0.7,0,1.3,0,2c-0.1,0-0.1,0-0.2,0c0,0,0,0,0,0c0.1,0,0.1-0.1,0.1-0.2
		C12.1,24.3,12.1,23.8,12.1,23.3z"/>
	<path class="st1" d="M12,25.1C12,25.1,12,25.1,12,25.1c-0.3,0-0.5,0-0.7,0c-0.1,0-0.2,0.1-0.2-0.1c0-0.1,0-0.3,0.1-0.3
		c0.2-0.1,0.3-0.3,0.5-0.1c0.2,0.1,0.3,0.1,0.2,0.3C11.9,25,12,25,12,25.1z"/>
</g>
</svg>
