<?xml version="1.0" encoding="utf-8"?>
<!-- Generator: Adobe Illustrator 24.1.2, SVG Export Plug-In . SVG Version: 6.00 Build 0)  -->
<svg version="1.1" id="Capa_1" xmlns="http://www.w3.org/2000/svg" xmlns:xlink="http://www.w3.org/1999/xlink" x="0px" y="0px"
	 viewBox="0 0 600 292" style="enable-background:new 0 0 600 292;" xml:space="preserve">
<style type="text/css">
	.st0{fill:#EF771E;}
	.st1{fill:#113F65;}
	.st2{fill:#FFFFFF;}
	.st3{fill:#263957;}
	.st4{fill:#ED7A22;}
</style>
<g>
	<path class="st0" d="M-773,85.2c2.5-4.1,6.3-6.3,11-6.6c6.7-0.3,13.5-0.1,20.3-0.1c3.5,0,6.5,1.3,8.5,4.2
		c6.4,9.3,12.8,18.6,19.2,27.9c1.7,2.5,3.4,4.9,5.1,7.4c2.2,3.1,4.6,3.3,7.2,0.5c7.7-8.4,15.3-17,23-25.4
		c9.4-10.3,18.8-20.5,28.2-30.7c0.3-0.4,0.8-0.6,1.2-1c0.8-0.3,0.9-1,1.2-1.7c8.1-9.4,16.5-18.4,25.1-27.4c1.2-0.3,1.6,0.7,2.1,1.5
		c0.6,0.9,1.5,1.3,2.3,0.5c0.8-0.7,0.2-1.5-0.5-1.9c-1.8-1.1-0.8-2.5-0.5-3.8c0-0.2,0.1-0.3,0.3-0.4c0.7-0.3,1.4-0.7,1.4-1.6
		c0.3-0.3,0.7-0.7,1-1c0.4-0.5,1.2,0.7,1.5-0.4c0.2-0.7,0.8-1.4,1.5-1.1c1,0.3,0.4,1.3,0.5,2c0.9-0.6,1.9-1.2,2.5-2.1
		c-0.8-0.4-2.1-0.1-2.2-1.5c0.3-0.2,0.5-0.4,0.8-0.6c1.4-0.2,2.7-0.7,3.9-1.4c0.1-0.1,0.3-0.2,0.4-0.1c0.7-0.5,1.6,0.2,2.2-0.4
		c1.4,0,2.8,0,4.2,0c0.5,0.4,1.9,0.4,1.5,1.4c-0.6,1.5-2,0-3.2,0.5c0.4,0.6,1.2,0.5,1.6,0.9c0.9,0.8,1.4,1.9,0.2,2.6
		c-1.8,1.2-3.3,2.9-5.8,2.6c-0.9-0.1-1.8-0.1-2,1.1c-0.1,0.5-0.2,1.2,0.7,1c1.9-0.4,3.3,0.9,4.9,1.5c1.8,0.6,1.8,2.2,1.3,3.7
		c-0.5,1.6-1.6,1.9-3.1,1.2c-0.8-0.4-1.6-0.4-2.3,0.4c-2.2,2.5-2.2,2.4-5.6,2c0.9,1.3,2.2,1.1,3.3,1.2c1.4,0.1,3.1-0.3,3.6,1.7
		c0.5,1.8,0,3.4-1.5,4.7c-1.4,1.2-3,1.3-4.6,0.7c-1.1-0.5-2-2.3-3.4-1.2c-1.5,1.2,0,2.5,0.4,3.7c0.7,2.3,0,3.1-3,3.4
		c0.4,0.6,0.2,1.7,1.5,1c2.5-1.2,4.5-0.2,6.3,1.5c0.6,0.5,1,0.7,1.8,0.6c3-0.5,3.3-0.3,3.1,2.8c-6.1,7-12.2,14-18.4,21
		c-7,7.9-14,15.7-21,23.6c-13.1,14.7-26.3,29.4-39.4,44.2c-5.5,6.2-10.9,12.4-16.4,18.7c-2.8,3.2-7.1,3.4-9.9,0.3
		c-11.1-12.3-22.2-24.8-33.3-37.1c-8.6-9.5-17-19.2-26-28.3c-2.9-3-5.1-6.6-4.2-11.1C-773.2,88.6-773.1,86.9-773,85.2z"/>
	<path class="st1" d="M-385.9,113.9c-0.4-0.2-0.7-0.4-1.1-0.6c-0.2-0.1-0.3-0.3-0.5-0.4c-0.6-0.7-1.4-1.1-2.3-0.9
		c-9.5,0.1-19,0-28.5,0c-1.2,0-2.4-0.1-3.6,0.2c-0.6,0.4-1.3,0.5-2.1,0.4c-0.3,0-0.5-0.1-0.8-0.3c-0.7-0.5-1.5-0.8-1.4-1.9
		c0-6.8,0-13.7,0-20.5c0-0.9,0.2-1.7-0.2-2.6c0-0.7,0.3-1.2,1-1.5c4-0.7,8.1-0.2,12.1-0.3c5.3,0,10.7,0,16,0
		c2.9,0.4,5.8,0.3,8.7,0.1c0.3-0.1,0.6-0.1,1-0.1c16.3,0,32.6-0.1,48.9,0.1c8.3,0.4,16.5,0.1,24.8,0.2c1.4,0.6,1.5,1.7,1.5,3
		c0,7,0,13.9,0,20.9c0,1.1-0.3,2-1.1,2.7c-0.7,0.5-1.5,0.5-2.3,0.4c-11.5,0.1-22.9,0.1-34.4,0c-0.3,0-0.6-0.1-0.9-0.2
		c-0.8-0.5-1.5-0.1-2.2,0.2c-1,0.5-1.8,0.5-2.8-0.2c-1.9-1.2-3-0.6-3.4,1.6c-0.3,1.8-0.3,3.6-0.2,5.4c0.2,5.1,0.6,10.3,0.3,15.5
		c-0.2,4.2,0,8.5-0.1,12.7c0,1.8-0.1,3.6,1.4,5.1c0.7,0.7,0.6,1.8,0.6,2.7c0,3.3,0,6.6,0,9.9c0,1.8,0.1,3.6-1.5,5
		c-0.7,0.7-0.6,1.8-0.6,2.7c0,5.8,0,11.6,0,17.4c0,0.9-0.2,1.9,0.4,2.5c1.8,1.7,1.6,3.9,1.6,6c-0.1,3.7,0.2,7.4-0.1,11.1
		c0,0.2-0.1,0.3-0.2,0.5c-1.4,2.3-1.5,2.3,1.1,2.7c1.1,0.2,2,0.4,2.2,1.8c0.1,0.3,0.2,0.7,0.4,1c-0.4,1.3-1.4,1.5-2.6,1.5
		c-8.1,0-16.2-0.1-24.3-0.1c-0.5-0.4-1-0.7-1.6-0.7c-2.6,0.3-3.1-1.1-2.8-3.2c0.9-1.2,0.9-1.3,0-3.8c0-31.2,0-62.4,0-93.6
		C-385.7,115.6-385.5,114.7-385.9,113.9z"/>
	<path class="st1" d="M-512.9,85.4c1.7,0.1,3.7-0.9,4.7,1.5c0.5,7.4,0.2,14.9,0.3,22.3c0,0.9,0.2,1.9-0.2,2.8c0,0.4-0.1,0.7-0.6,0.7
		c-1.6,0-3.1,0.3-4.7-0.1c-2.9-1.1-5.7-1-8.6,0.1c-2.7,0.1-5.3,0.2-8-0.1c-0.8-0.5-1.7-0.7-2.7-0.7c-6.5,0-13.1,0-19.6,0
		c-0.8,0-1.6,0-2.2,0.5c-0.3,0.2-0.6,0.3-0.9,0.3c-7.7,0.1-15.3,0-23,0.1c-0.8,0-1.5-0.2-2.3-0.2c-0.4,0.2-1,0.1-1.2,0.5
		c-1.7,3.6-2.7,1-3.8-0.4c-0.1-0.1-0.3-0.2-0.5-0.2c-0.7,0.5-0.4,1.4-0.9,2.1c-0.7,0.9-2,1.5-2.1,2.8c0,0.6,0.1,1.3,0.8,1.4
		c0.8,0,0.5-0.7,0.5-1.2c0-0.9-0.2-1.7,0.7-2.3c3.5,0.6,4.1,1.3,4.8,5c0,5.9,0,11.8,0,17.6c0,0.3,0,0.6,0,0.9
		c-1.9,1.6-1.8-1-2.7-1.4c-1.1,0.6-0.9,1.5-0.7,2.3c0.4,1.4,5.1,3.9,6.5,3.3c1.6-0.7,3.1-0.6,4.8-0.3c3.4,0.7,6.9-0.5,10.2-0.4
		c3.4,0.2,6.7,1,10.2-0.1c2.2-0.7,4.6-0.5,6.9,0.1c4.6,1.1,9.3,0.9,13.9,0.2c1.3-0.2,2.5-0.5,3.8,0c1.7,0.7,3.4,0.3,5.1,0.4
		c1.3,0.1,2.8-0.1,3.1,1.7c0.3,1.8,0.7,3.8-0.9,5.4c-0.8,0.8-2.8,0.3-2.4,2.1c0.3,1.3,1.8,1.5,2.7,2.2c0.2,0.2,0.3,0.5,0.2,0.7
		c-1.2,0.9-3.5,0.5-3.3,3.1c0,0.6-1.3,0.7-2.1,0.6c-1.2-0.2-2.3-0.7-3.2-1.5c-0.5-0.7-0.4-1.7-0.7-2.5c-0.6,0.1-0.5,0.6-0.5,0.9
		c-0.2,1-0.5,1.9-1.7,1.9c-1.3,0-1.5-0.9-1.7-1.9c-0.1-1-0.2-2-1.6-1.9c-0.7,0.1-1,0.5-1.1,1.2c-0.1,1.3,0.7,1.8,1.8,2
		c1.7,0.3,2.5,1.1,1.6,2.9c-1.4,0.9-3.4,0.3-4.5,1.9c-3.9,0.5-7.7,0.5-11.6,0c-1-0.6-1-1.3-0.2-2.1c0.6-0.6,1.3-1.2,2-1.7
		c1.1-0.8,1.4-2,1-3.2c-0.4-1.3-1.7-1-2.7-1c-1.4-0.1-2,0.7-2.1,2.1c-0.1,0.7-0.4,1.3-0.9,1.8c-1.6,2-1.4,2.6,1.1,3.1
		c0.3,0.1,0.5,0.1,0.7,0.2c0.2,0.1,0.4,0.3,0.6,0.5c0.1,0.3,0,0.5-0.2,0.7c-1,0.7-2.5,0-3.4,1c-0.2,0.2-0.3,0.4-0.5,0.6
		c-0.2,0.2-0.5,0.3-0.8,0.4c-2.5,0.3-5,0.2-7.4,0c-1.4-0.7-3.1,0.1-4.6-1.3c1.9-1.3,4-0.5,5.4-1.1c-3.6,0.4-7.6,0.6-11.5,0.4
		c-1.7-0.1,1,0.5-0.1,1c-1,0.5-2,0.5-3,0.4c-1.1-0.4-2.8,0.1-3.3-1.6c0-0.1,0-0.2,0.1-0.2c3.8-1.4,4.4-5.1,6.1-8
		c1.1-1.8,1.6-3.5,1.5-5.5c0-1.7-0.4-2.6-2.3-2.6c-3-0.1-4.1,0.4-4.4,2.4c-0.1,0.8-0.1,1.6-0.1,2.3c-0.1,2.1-1.2,3.3-3.4,3.5
		c-5.7,0.7-6.5-0.1-6.4-5.8c0-0.9,0-1.7,0.3-2.6c0.2-0.4,0.6-0.8,0.6-0.8c-0.1,0.1-0.4,0.4-0.9,0.7c-1.4,0.4-2.9,0.3-4.4,0.3
		c-1.6,0-2.4,0.7-2.4,2.3c0,0.2,0,0.3,0,0.5c0.5,5.4-2.7,6-7.8,5.2c-1.1-0.2-1.7-1.1-1.9-2.2c-0.2-1-0.1-2.1-0.1-3.1
		c0-10.7,0-21.5,0-32.2c0-1.7,0-3.3-0.9-4.8c-0.7-1.2-0.7-2.5,0-3.7c1-1.7,1.2-3.6,2-5.3c0.9-2-0.8-3.3-1.9-4.7
		c-0.6-0.6-1.1-1.3-0.9-2.3c1.3-1.3,1.6-2.9,1.3-4.7c1.6-1.2,4.1-1.4,4.7-3.9c0.1-0.5,1-0.6,1.6-0.6c1.2-0.3,2.4-0.2,3.6-0.2
		c21.7,0,43.4,0,65.2,0c0.3,0,0.6,0,0.9,0.1c2.1,0.4,4.3,0,6.5,0.3c0.7,0.1,1.4,0.5,1.7,1.1c1.1,1.9,2.9,1.9,4.7,1.8
		c1.3-0.1,3.3,0.5,2.2-2.1c-0.2-0.5,0.6-0.7,1.1-0.9C-513.5,85.7-513.2,85.6-512.9,85.4z"/>
	<path class="st1" d="M-679.8,186.9c-0.5,1.7-2.3,2.1-3.2,3.5c-0.2,0.1-0.4,0.2-0.7,0c-0.6-0.3-0.3-1.9-1.5-1.3
		c-1.1,0.6,0.1,1.6-0.1,2.3c-1.6,2.3-3,4.8-2.6,7.8c0,12.5,0,24.9,0,37.3c0,0.9,0.2,1.9-0.2,2.8c-0.1,0.5,0.2,1.1-0.5,1.4
		c-1.1,1.2-2,2.6-3.2,3.7c-0.1,0.3-0.2,0.4-0.5,0.3c-0.6-0.4-1.4,0.3-1.9-0.2c-1.4-1.4-1.7,0-2.2,0.8c-6.9,0-13.8,0-20.8,0
		c0.6-1.9,2.2-0.2,2.8-0.5c0,0-0.4-0.2-0.9-0.3c-1.5-1.2-3.1-2.3-5-3c-0.9-0.3-1.5-0.8-1.4-1.9c-0.4-1.4-0.2-2.9-0.2-4.4
		c0-9.6,0-19.2,0-28.8c0,9.9,0,19.9,0,29.8c0,1.2,0,2.4,0.2,3.6c-0.1,0.4-0.3,0.5-0.7,0.6c-1.6-0.9-0.9-2.5-1.1-3.8c0-0.3,0-0.7,0-1
		c-0.1-12.4,0.1-24.8-0.1-37.2c-0.2-1-0.5-2-0.3-3c0.2-0.7,0.9-1,1.4-1.8c-1.8,0.2-3.7,0.5-3.2-2.2c0.3-0.4,0.9-0.6,1.3-0.9
		c0.6-0.4,0.7-1,0.5-1.6c-0.2-0.6-0.7-0.8-1.2-0.7c-0.9,0.2-1.4-0.5-2.1-0.7c-0.8-0.5-1.7-0.7-2.4-1.2c-0.4-0.5-0.4-1.1-0.5-1.7
		c0,0.6,0,1.2-0.6,1.7c-0.5,0.1-1,0.1-1.1-0.3c-0.8-2.6-3.6-3.7-4.4-6.2c-0.3-1-1.1-0.4-1.6-0.8c-0.5-0.4-0.9-0.8-1.3-1.3
		c-0.1-0.2-0.1-0.5,0-0.7c1.9-1.8,4.5-2.9,5.2-5.8c0.2-0.7,1.1-0.7,1.8-0.8c0.6-0.1,1.2,0,1.7-0.4c2.1-1.5,2.8-1.1,3,1.4
		c0.1,1.3-0.7,3,0.3,3.7c1.1,0.8,2.8-0.2,4.2-0.1c0.8,0,1.5-0.4,2.3-0.5c1.2,0.5,2.2,1.3,3.2,2c0.6,0.4,1.4,1,0.2,1.7
		c-0.7,0.4-1.9-0.4-2.2,0.7c-0.3,0.9,0.4,1.5,1,2.2c1.6,2.1,3.4,3.8,6.2,4.2c0.3,0,0.3,0.1,0.3-0.5c0.1-0.9,0.9-0.9,1.5-1.1
		c1.9-0.3,3.2,1.9,5.2,1.2c0.5-0.2,0.2-1,0.8-1.2c0.9,0,1.7-0.1,2.3-0.9c0.3-0.2,0.7-0.5,1-0.7c0.7,0.7-0.4,3.3,2.2,1.9
		c1.8-0.9,1.9-1.2,0.2-2.5c-0.5-0.4-0.5-0.8-0.3-1.3c0.8-0.8,1.6-1.7,2.5-2.5c1.8-0.6,3.3-1.4,3.3-3.6c1.2-1.2,2.4-2.4,3.6-3.6
		c2.4,0,4.8-0.5,6.6,1.8c0.4,0.5,1,0.7,1.6,0.7c1.3,0.1,2.1,0.6,2.5,1.8c0.7,2.2,3.2,2.1,4.6,3.6c1,1.1,0.2,1.7-0.6,2.5
		C-676.8,182.8-679,184.3-679.8,186.9z"/>
	<path class="st1" d="M-263.2,191.4c0.2,0.2,0.4,0.4,0.6,0.6c1.8,0.5,3.6,0.1,5.5,0.2c1,0.3,1.7,1.2,2.7,1.5c5,0.3,10,0.1,15,0.1
		c12.9,0,25.8,0,38.6,0c1.3,0,2.6-0.2,3.8,0.6c0.2,0.3,0.5,0.6,0.5,0.9c0.2,5.6,0.6,11.2-0.2,16.7c-2.3,1.8-5,1.1-7.5,0.7
		c-2.4-0.4-4.7-0.8-7.2-0.8c-1.5,0-2.8-0.4-3-2.2c-0.2-1.7,0.2-3.1,2.2-3.5c0.8-0.1,1.6-0.3,1.5-1.4c-0.1-1.2-1.1-1.1-2-1.1
		c-7.4-0.1-14.7-0.1-22.1-0.1c-1.6,0-3,0.4-3.3,2.2c-0.4,2.5-3.9,1.3-4.4,4.2c-0.5,3-3.5,1.8-5.4,1.9c-2.9,0.2-5.8-0.2-8.7,0.9
		c-1.6,0.6-3.4,0.3-5.2,0.1c-2.2-0.2-2.4-0.7-1.4-2.7c0.6-1,0.6-2-0.2-2.8c-0.9-0.7-1.1-1.7-1.1-2.8c-0.5,1.3,0.5,2,1.1,3
		c0.1,0.5,0.1,1.3-0.4,1.4c-2.2,0.7-3.9,2.7-6.2,2.8c-5.8,0.3-11.5,0.2-17.3,0c-0.5,0-1-0.2-1.5-0.5c-1-1.2-0.6-2.6-0.7-4
		c-0.1-1.5,0.3-3.1-0.7-4.5c-0.4-1.4-0.6-2.8,0.1-4.1c0.4-0.4,0.8-0.4,1.2-0.3c0.3,0.2,0.4,0.5,0.6,0.9c0.8,2.5,3.6,3.7,5.8,2.4
		c1.7-1,1.2-2.7,1.2-4.2c0-1.4-0.9-2.1-2.3-2.3c-1.8-0.3-3.8,0.5-5.5-0.8c-0.8-2.4-0.5-4.8-0.4-7.2c0.1-1.6,1.1-2.2,2.6-2.3
		c2.1-0.1,4.1-0.2,6.1-1c1.4-0.6,2.7,0.5,4,0.8c2.8,0.5,4-0.5,3.8-3.2c-0.1-1.7-1.1-2.3-2.5-2.3c-3,0-6.1-0.2-9.1,0.2
		c-3.9,0.5-5-0.4-5-4.2c0-6.6,0-13.2,0.1-19.7c0-2.9,0.8-3.6,3.7-3.8c3.9-0.2,3.9-0.2,4-4c0.1-3.8,0.9-4.2,4.6-4.1
		c4.7,0.1,9.5,0.5,14-1.5c0.6-0.3,1.4-0.3,2-0.2c0.9,0.1,1.7,0.4,1.9,1.4c0.1,1.1-0.5,1.6-1.4,1.9c-0.5,0.2-1,0.2-1.4,0.6
		c-0.1,0.4,0.1,0.7,0.4,0.9c2.5,1.7,2.5,1.7,0.3,3.6c-0.9,0.8-1.1,1.7-1.1,2.8c0,2.9-0.2,5.9,0.5,8.8c-1.8,2-3.5,4.1-6,5.2
		c-0.9,0-2,0.1-2.2-0.9c-0.5-1.8,1.1-2.7,2.1-3.8c0-0.2-0.1-0.3-0.3-0.3c-4.4-0.3-4.7-0.6-5-5.1c-0.1-1.5,0-3-2.3-2.9
		c-2.9,0.1-3.5,0.4-3.6,2.5c-0.1,2.4,0.5,3.3,2.7,3.6c3.8,0.6,5,1.8,5.2,5.6c0.1,1.5,0.9,2.1,1.9,2.8c0.8,0.7,1.2,1.7,1.2,2.7
		c0,4.7,0.3,9.4-0.1,14.1c-0.2,1.4-1.8,1.1-2.6,2c1.4,1.3,2.7,1.2,4,0.1c0.6-0.5,0.9-1.2,1.7-1.5c1.4,0.4,1.1,1.9,1.7,2.8
		C-263.3,189.6-263.7,190.6-263.2,191.4z"/>
	<path class="st1" d="M-191.9,86.3c0.3,0,0.5,0.2,0.4,0.5c-0.1,3.9,0.4,7.9-0.2,11.8c-1.2-0.4-1.2-0.4-0.9-2.5c0-0.1,0,0-0.1,0.1
		c-2,1.6-2.7,3.9-3,6.3c-0.1,0.9-1.1,1.3-2,1.4c-1.3,0.2-2.6,0.6-3.9,0.3c-2-0.4-3.1-0.6-2.6,2.2c0.3,1.5-1.2,2.2-2.6,2.3
		c-1.6,0.1-2.9,0.4-3.5,2.1c-0.2,0.6-0.8,0.9-1.5,0.9c-3.4,0.1-6.9,0.6-10.3-0.3c-0.9-0.9-0.7-2-0.8-3.1c-0.1-1.6-0.9-2.2-2-1
		c-1.2,1.3-3.1,1-4.3,2.1c-0.9,2-2.5,2.6-4.7,2.4c-1.6-0.1-3.3,0-4.9,0c-1.8,0.1-3.6-0.2-5.3,0.3c-1.1,0.2-2.1,0.2-3.2,0
		c-0.4-0.1-0.8-0.2-1.3-0.3c-3.5-0.4-3.9-1.1-3.1-4.5c0.6-0.9,1.5-1,2.4-1.1c0.9-0.1,1.3-0.7,1.2-1.6c-0.1-0.6-0.4-0.9-1-1
		c-0.9-0.1-1.5,0.3-1.6,1.2c-0.1,0.7-0.1,1.5-0.7,2.1c-0.6,0.5-1.3,1-1.3,1.8c0,2-1.3,3-2.9,3.7c-1.3,0.2-2.6,0.4-3.9-0.1
		c-0.5,0,0.1-1.4-1-0.8c-1.3-0.2-2.3,1.5-3.8,0.7c-0.9-0.5-2-0.8-2.2-2c-0.5-3.4-2.6-4.8-5.8-5c-0.9-0.5-1.4-1.2-1-2.1
		c0.5-1.4,0-3,0.8-4.3c0.7-0.7,1.3-1.4,1-2.4c-0.3,0.8-0.2,1.8-1,2.4c-0.1,0.1-0.3,0.3-0.3,0.4c-1.2,4.7-1.2,4.7-6.1,4.6
		c-2.4,0-3.6-1.2-3.2-3.6c0.2-1.6,0.8-3.2,1-4.8c0-0.3-0.2-0.1,0.1-0.2c2.4-1.3,3.6-3.9,5.7-5.4c1.4-1,2.5-1.5,2.5-3.3
		c0-0.5,0.3-1,0.8-1.3c5.3-0.1,10.5,0,15.8,0c0.3,0,0.6,0.1,0.7,0.4c-1,1.8-2.8,0.9-4.2,1.2c-1.2,0.2-3.1-0.6-3.1,1.3
		c-0.1,1.9,1.9,1.2,3,1.3c1.4,0.1,2.8,0,4.1,0c1.9,0.1,3.4-0.1,3.7-2.5c0.1-1,0.9-1.4,1.9-1.4c1,0,1.9,0,2.9,0
		c1.3,0.1,2.6-0.1,3.9,0.2c0.8,0.6,1.5,1.3,2.7,1.2c0.7,0,1.5,0.1,1.8,0.8c1.4,2.7,3.9,1.6,6,1.7c0.7,0,1.3-0.4,1.3-1.3
		c0-0.9-0.6-1.2-1.3-1.3c-1.9-0.3-4,0.3-5.9-0.5c-0.3-0.2-0.4-0.4-0.4-0.7c0.2-0.3,0.5-0.4,0.8-0.3c5.2,0,10.4,0,15.7,0
		c2.9,0.4,5.8,0.3,8.6,0.1c2.5-0.2,5,0,7.6-0.1c0.3,0,0.6,0,0.8,0.2c0.1,0.3,0.1,0.5-0.1,0.7c-1,0.6-2.3,0.8-3.1,1.7
		c-0.4,0.5-1.1,0.7-1.6,0.1c-1.3-1.5-1.7-0.8-2.1,0.7c-0.4,1.9-1.9,2.2-3.6,2.2c1.2,0.1,2.3,0.3,3.3,1c1.2,0.9,2.6,1.3,4.1,1.6
		c0.7,0.1,1.5,0.3,1.9-0.4c0.5-0.8-0.2-1.2-0.6-1.8c-1.2-1.7-1-2.4,1-3.1c1.2-0.4,2.4-0.5,3.6-0.3c1.9,0.2,3.3-0.3,4.1-2.2
		c0.5-0.3,1.1-0.2,1.7-0.2C-195.2,85.9-193.5,85.6-191.9,86.3z"/>
	<path class="st1" d="M-272,85.8c0,0.9-0.1,1.7,0,2.6c0.1,1.6-0.5,2.3-2.1,2.1c-1.8-0.2-2.3,0.7-2.1,2.3c0.2,1.5-0.6,2.1-2,1.9
		c-1.7-0.2-2.4,0.5-2.2,2.2c0.2,1.2-0.5,2.2-0.8,3.2c-0.8,2.3,0.5,3.7,2.8,3.4c0.6-0.1,1.3-0.5,1.7-0.3c3.1,1.5,3.1-0.5,3-2.6
		c-0.1-1.1,0.3-1.9,1.6-1.8c-0.2,1.6,0.4,3.2-0.7,4.7c-0.3,0.5,0.1,1.1,0.7,1.5c1.2,1.9,0.8,3.8,0.5,5.8c-0.1,0.3-0.3,0.5-0.5,0.7
		c-1.6,0.8-3.4,0.4-5.1,0.5c-1.6,0-2.3,0.5-2.4,2.2c-0.3,5.9-0.4,6-6.1,7.5c-1.7,0.5-2.2,1.2-2.2,2.9c0,1.9,0.7,2.6,2.6,2.6
		c4.4-0.1,8.8,0,13.2,0c1.9,0,3.7,0.1,4,2.6c0.1,0.6,0.6,0.8,1,1.2c1.6,1.7,1.2,3.7-0.9,4.7c-0.3,0.1,0-0.1-0.2,0.1
		c-0.9,0.7-3,0.8-2.5,2.1c0.5,1.4,2.4,0.7,3.7,0.6c1-0.1,1.7-1.3,2.9-1c0.5,0.1,0.7,0.5,0.8,0.9c0.2,0.2,0.4,0.4,0.6,0.6
		c0.6,0.4,1.5-0.1,1.9,0.8c0.7,1.5,1.9,1.4,3.1,0.8c1.9-0.9,3.9-0.9,5.9-0.9c13.8,0,27.5,0,41.3,0c1.5,0,3-0.1,4.2,0.9
		c1.4,1.1,1.3,2-0.3,2.6c-2,0.7-4,1.2-6.1,1.2c-10.4-0.2-20.8,0.1-31.2,0c-0.4,0-0.9,0.1-1.3-0.1c-3.3-1.4-6.4-0.3-9.8,0.3
		c0.4,2.5,0.4,5,0.3,7.6c-0.1,2.6-0.3,2.8-3,3.9c1.6,0.5,2.9,1.2,3,3c0.1,1.2,1.1,1.4,2.1,1.5c1.4,0.1,2.8-0.1,4.1,0.2
		c0.5,0.1,1.1,0.2,1.1,0.8c0,0.6-0.6,0.8-1.1,0.9c-2.2,0.2-4.3,1.4-6.5,1.3c-2.7,0.6-5.1,0.2-7.3-1.4c-2-3.7-0.8-7.7-0.8-11.6
		c0-0.6,0.5-1.3,1.3-1.4c0.7-0.1,1.7,0.1,1.7-0.8c0-1.1-1.2-0.7-1.9-0.9c-0.4-0.1-0.9-0.3-1.1-0.6c-0.4-0.5-0.9-1.1-0.6-1.9
		c0.3-0.8,1-0.5,1.6-0.6c0.5,0,1,0,1.6-0.1c0.5-0.1,0.8-0.4,0.8-0.9c0-0.6-0.2-1-0.8-1.1c-0.9-0.1-2.3-0.5-2.7,0.2
		c-1.2,1.9-2.9,1.3-4.4,1.3c-3.8-0.2-7.5,1.3-11.3,0.1c-1.2-0.4-2,0.4-2,1.7c0,0.3,0,0.5,0,0.8c-0.1,5.5-0.1,5.5-5.5,5.7
		c-1.6,0.1-2.3,0.6-2.3,2.3c0,7.3,0.1,14.5,0,21.8c0,2.5,1.7,2.7,3.3,2.3c3.5-0.8,7.1-0.2,10.6-0.4c3.2-0.2,2.6,2.1,2.8,4.1
		c0.1,2.2-0.5,3.3-2.9,3.2c-0.3,0-0.8,0.1-1,0c-3.6-2.1-7.2,0.5-10.7,0c-1.6-0.2-2.1,0.5-2.1,2.1c0.1,2.2,0,4.5,0,6.8
		c1,1.4,1.1,2.8,0,4.2c-0.3,0-0.7,0-1,0c-0.3-0.3-0.6-0.7-0.6-1.1c-1.1-8.8-2.1-17.8-0.9-26.6c1.1-8,1.1-15.9,0.5-23.8
		c-0.4-5.8-1.4-11.6-0.5-17.2c1.2-7.7,0.4-15.3,0.8-23c0.1-1,0-2.1-0.3-3.1c-0.2-0.7-0.2-1.5-1.4-0.8c-1.1,0.6-1.7-0.6-1.8-1.6
		c-0.1-1.4-0.3-2.7-0.4-4.1c-0.1-1.7,0-3.2,2.1-3.9c1.5-0.5,1.6-2.6,3-3.5c-1-1.2-2.5-2.1-1.4-4c3.5-1,7.2-0.5,10.7-0.5
		C-277.3,85.6-274.7,85.3-272,85.8z"/>
	<path class="st0" d="M-466,113.4c-4.1,0-8.1-0.1-12.2,0c-2.4,0.1-3.5-0.9-3.5-3.3c0-7.2,0.1-14.4,0-21.6c0-2.2,1.1-3.1,3.2-3.1
		c8.5,0,17,0,25.5,0c2.8,0,3.6,0.8,3.6,3.6c0,6.8,0,13.7,0,20.5c0,3.1-0.9,3.9-4,3.9C-457.7,113.4-461.8,113.4-466,113.4
		C-466,113.4-466,113.4-466,113.4z"/>
	<path class="st1" d="M-582,191.3c0.2,0.2,0.4,0.4,0.5,0.5c0,0.4-0.2,0.8-0.5,1.2c-0.6,0.7-1.5,0.8-2.2,1.3
		c-1.7,1.1-2.8,0.7-3.2-1.2c-0.4-1.6-1.3-2.1-2.9-1.9c-0.7,0.1-1.2,0.4-1.2,1.1c-0.1,0.7,0.3,1.3,1,1.3c2.1,0.2,3,1.4,3.1,3.4
		c0,0.5,0.3,1.1,0.8,1.2c1.7,0.2,3,1.5,4.6,1.7c2.3,0.3,3,1.6,2.8,3.6c-0.2,2.6,2.1,4,2.7,6.2c0.2,0.8,1.5,0.6,2.4,0.7
		c1.6,0.1,3,0.5,3,2.5c-0.1,2.1-1.8,2-3.2,2.1c-1.4,0.1-2.8,0.1-4.2,0c-2.5-0.2-4.8,0.1-6.8,1.8c-5.1,0.4-10.2,0.5-15.3,0.2
		c-3.4,0.1-6.1-1.6-8.7-3.7c0.9-1.3,2.9-2.2,1.2-4.3c-1-0.5-1.3,3.3-2.8,0.7c-0.6-1.2-1.1-2.4,0.8-3c0.4-0.9,1.1-1.2,2.1-1.1
		c0.9,0.1,1.5-0.5,1.7-1.3c0.2-0.9-0.7-0.8-1.2-1.1c-0.5-0.3-0.9-0.6-1-1.2c-0.1-2.6-0.9-5.3,0.5-7.8c0.5-0.3,1.1-0.5,1.7-0.4
		c1.6,0.1,2.1-0.8,2.9-2.2c1.6-2.7,1.9-5.4,2-8.4c0-0.9,0.6-1.8,1.6-1.8c2.8-0.1,5.7-1.1,8.2,1.1c0.9,0.8,1.9,0.9,2.5-0.4
		c0.9-2,2-3.9,1.2-6.3c-0.6-1.9-1.1-3.4-3.4-3.7c-0.9-0.1-1.6-0.7-1.6-1.7c0-0.9,0.7-1.4,1.5-1.5c3-0.3,3.3-2.6,3.8-4.8
		c0.3-1.1-0.3-2.6,1.4-3c1,1.1,0.6,2.4,0.8,3.6c0.3,1.8,3,1.4,3.1,3.4c0,6.9,0,13.8,0,20.7C-582.3,189.7-582.5,190.6-582,191.3z"/>
	<path class="st1" d="M-674.6,178.9c-0.8-0.4-1.4-0.9-2.3-1.1c-1.4-0.4-2.7-1.2-2.9-2.8c-0.1-1.2-0.9-1.3-1.8-1.3
		c-1.3,0.1-2.4,0-2.6-1.6c0-0.3-0.9-0.9-1.2-0.8c-1.7,0.8-2.9-0.6-4.4-0.8c3.6-3.8,7.3-7.6,10.9-11.4c1-0.3,1.9-0.9,3-0.7
		c1.7,1.3,3,1.1,3.5-0.7c1-3.1,1-3.1,4.1-2.2c0.3-1.7,0.5-3.5,2.9-3.5c0.7,0,0.6-0.7,0.5-1.2c-0.2-1.2-1-2-1.6-2.9
		c-0.2-1.2,1.1-1.9,1.2-3c0.4-0.3,0.8-0.6,1.1-0.9c1.7-0.5,3.5-0.5,5-1.7c2.1-1.6,3.5-3.5,3.6-6.2c0.1-0.8,0.4-1.4,1.2-1.8
		c1.3-0.7,2.1-1.9,2.6-3.3l0,0c1.1-0.7,2.3-1.2,2.6-2.6c0.2-0.2,0.3-0.3,0.5-0.5c1.1-0.4,1.8-1,2.1-2.2l0,0c1.4-0.7,2.4-1.8,3.1-3.2
		l0,0c1.2-0.6,2.1-1.5,2.7-2.7c0.2-0.2,0.3-0.3,0.5-0.5c3.2-0.8,3.7-0.5,3.7,2.7c-0.1,4.7,0.4,9.4-0.4,14.1l0,0
		c-0.3,0.2-0.6,0.4-1,0.5c-2,0.5-3.9-0.2-5.9,0.1c-1.6,0.2-1.6,0.2-1.6,2.1c0.2,0.1,0.3,0,0.4-0.1c0.7-0.8,1.2-2.2,2.6-1.6
		c1.5,0.6,1,2.2,1.1,3.5c0.4,1,0.2,2-0.4,2.9c-0.3,0.4-0.7,0.7-1,1.1c-1.9,0.8-2.9,2.5-3.7,4.3c-0.3,0.3-0.5,0.6-0.8,1
		c-0.5,0.3-1,0.3-1.4-0.1c-0.3-0.3-0.4-0.7-0.5-1.2c-0.2-0.7-0.6-1.2-1.4-1.2c-0.5,0-1,0.2-1.3,0.7c-0.4,0.7,0,1.3,0.5,1.8
		c0.3,0.3,0.7,0.5,0.9,0.9c-0.6,1.9-0.9,2-3.3,1c0,0.5,0.4,0.5,0.6,0.6c2.1,0.7,2.2,1.2,0.7,2.9c-1.9,2.1-4.4,3.6-5.8,6.2
		c-0.5,1.5-2.3,1.9-2.7,3.5c-0.1,0.2-0.2,0.4-0.4,0.6c-0.6,0.5-0.6,1.8-2.1,0.8c-1.4-1-2.8-0.5-3.3,1.4c-0.3,0.9-0.7,1.6-1.4,2.1
		c-1.1,1.2-1.4,2.8-1.8,4.2c-0.5,1.2-0.9,2.3-1.4,3.5c-0.1,0.2-0.3,0.3-0.4,0.5C-672.8,178.1-673.5,179.2-674.6,178.9z"/>
	<path class="st1" d="M-720.4,174.7c-2,2-4.9,0.2-7.1,1.8c-0.3,0.2-1.3-0.8-1-1.7c0.4-1.1,0.2-2.2,0.2-3.3c0-0.7,0.2-1.5-0.6-1.8
		c-1.2-0.6-0.8,1.1-1.2,1.1c-4.7,0-5,5.9-9.1,6.7c-1.3-0.6-1.7-2.4-3.3-2.6c-0.1-0.2-0.2-0.3-0.3-0.5c-0.3-0.6-0.8-1.2-0.8-1.8
		c-0.1-1.5-1.1-1.8-2.4-1.8l0,0c-0.6-1.3-1.1-2.8-2.5-3.5c-1.1-0.9-1.8-2.2-3.1-2.8c-0.2-0.3-0.4-0.5-0.6-0.8
		c-0.2-0.7-0.4-1.4-0.1-2c0.9-2.4-0.1-3.7-2.4-4.2c-0.5-0.3-0.3-1.3-0.5-1.2c-1,0.2-1.4-0.4-1.8-1.1c-0.2-0.7-0.2-1.5-0.2-2.2
		c0-1.8-0.8-2.4-2.5-2.1c-0.3-0.1-0.7-0.1-0.9-0.4c-0.8-1.7-1.9-2.9-4-2.6c-0.9-0.9-2-1.3-3.1-2c-0.3-0.1-0.5-0.2-0.4-0.6
		c0.2-0.8,1-0.9,1.6-1.1c0.9-0.3,0.8-1,0.7-1.7c-0.1-0.5-0.3-1.1-0.9-1c-0.9,0-0.6,0.9-0.8,1.4c-0.2,0.6-0.5,1.1-1.3,1.1
		c-2.8-1.8-3.3-5.4-5.7-7.4c-0.6-0.4-0.4-1-0.4-1.6c0.3-3.4,0.1-6.8,0.2-10.2c0-0.5,0.1-1,0.5-1.4c1.1-1.2,1.8-1,2.4,0.7
		c0.3,1.1-0.6,1.9-0.6,3.3c0.8-0.7,1.1-1.7,2.2-1.5c0.9,0.2,1.3,1.4,2.7,1.5c-1.2-1.7-2.5-2.7-4.3-3.2c0.3-2.1,0.5-2.2,3.2-1.1
		c1.9,1.9,3.8,3.8,5.6,5.8c0.4,2.3,2.8,3.1,3.8,4.9c0.1,2.2-1.4,2.9-3,3.4c-0.9,0.3-1.4,0.6-1,1.6c0.4,0.9,0.8,1.4,1.9,0.9
		c1.2-0.6,2.7-0.5,3.5-1.7c1.2,0.4,2.2,1.3,3.6,1.3c1.5,1.7,3.2,3.2,5.3,4.1c1.4,1.5,2.8,3,4.2,4.5c0.7,1.2,1.4,2.4,2.3,3.4
		c1.1,1.2,1.6,2.4,1.3,4c-0.4,1.1-1.1,2,0.5,3c1.3,0.9,2.4,1.7,3.7,0.3c0.2-0.2,0.6-0.4,0.9-0.4c1.4,0.3,1.9,1.9,3.3,2.3l0,0
		c-0.1,1.8,1.4,2.1,2.6,2.7c0.2,0.2,0.3,0.3,0.5,0.5c1.4,1.4,1.9,3.6,4.1,4.2c1.1,0.7,1.8,1.9,2.7,2.9c0,2,2.3,2.1,2.8,3.7
		C-720.1,174.3-720.2,174.6-720.4,174.7z"/>
	<path class="st0" d="M-605.8,58.9c-1.9-0.2,0.8-2.2-1.1-2.6c-1.4-0.3-2,1.3-3.3,1c-0.8-0.2-0.7-0.8-1-1.3c-1.5-2.3-5.1-2.3-6.6,0
		c-1-0.3-0.6-1.3-0.9-1.9c-0.3-0.8-1.4-0.7-1.6-1.6c0.8-0.6,1.7-0.5,2.5-0.3c2.3,0.6,2.1-0.8,1.7-2.2c-0.2-0.6-0.8-1.1-1-1.8
		c-0.4-1.1-0.7-2.4,0.4-3.1c1.1-0.7,2.5-0.8,3.4,0.6c1.2,1.8,2.9,1.4,4.3,0.6c1.8-1,2.4-2.7,1.9-4.7c-0.2-0.9-1-1.2-1.8-1
		c-0.9,0.3-1.7-0.1-2.6-0.1c-2.6,0.2-3.2-1-2.5-3.5c1,0.7,1.8,1.6,3.2,1.5c1.1-0.1,2-0.4,2.1-1.5c0.4-2.5,2.1-1.9,3.5-1.4
		c0.9,0.4,1.5,1,2-0.2c0.5-1,0.9-2.4-0.1-3.1c-1.4-0.9-3-1.5-4.7-2c-0.4-0.1-1,0.6-1.6,1c-1.2-3.8-0.8-4.2,2.8-4
		c2,0.1,3.6-1.7,5.2-2.8c0.5-0.4-0.2-1.5-1-1.6c-1-0.2-2.5,0.1-2-1.4c0.5-1.4,1.8-0.7,2.9-0.3c0.4,0.1,0.7,0.6,1.2,0.2
		c0-0.8-1.1-0.8-1.2-1.5c6.5,0.9,13.4,5.8,14,13.5c0.2,3.3-0.8,6.4-2.9,8.8C-595.6,47.9-600.7,53.3-605.8,58.9z"/>
	<path class="st0" d="M-332,272c-0.3-0.3-0.6-0.6-0.8-1c-1.8-2.6-4.3-3.5-7.4-2.7c-1.3,0.3-1.4,1.1-1.4,2.1c0,2.6,0,5.2,0.1,7.8
		c0.1,1.5-0.5,1.9-1.9,2c-5,0.3-5,0.4-5-4.7c0-9.1,0-18.2-0.1-27.3c0-2,0.6-2.8,2.6-2.8c4.6,0.1,9.2-0.2,13.8,0.1
		c4,0.2,7.8,1.4,10.2,5.1c0.6,0.6,0.3,1.6,1.1,2.1c1.5,2.7,1.1,5.5,0.3,8.4c-0.7,0.6-1,1.4-1.4,2.2c-1,1.4-2.1,2.6-3.8,3.2
		c-1.1,0.4-2,1.1-1,2.5c-0.2,0.9-0.9,1.7-1.7,1.8C-329.8,270.7-330.9,271.3-332,272z"/>
	<path class="st1" d="M-290.8,86.4c0.2,2.4,1.8,3.2,4.2,3.6c-2.3,0.1-3.3,1.4-3.9,3c-0.5,1.2-0.7,2-2.3,1.6c-1-0.3-1.1,0.7-1.1,1.3
		c0.1,2.1,0.3,4.1,0.5,6.2c0,0.5,0.3,0.8,0.8,0.8c0.4,0,0.6-0.3,0.6-0.7c0.1-0.6,0.1-1.2,0.4-1.8c0.7,1.6,1.8,3,1.8,4.9
		c0,6.8,0.7,13.8-0.2,20.5c-0.8,5.8-1.5,11.6-0.6,17.1c1.3,8,1.1,16,0.5,23.9c-0.5,6.6-0.7,13.2-0.7,19.7c0,4.1,1.5,8.1,1,12.2
		c0,1.4,0,2.8,0,4.2c1.1,2.5,0.3,5.1,0.4,7.6c0,0.4-0.3,0.8-0.7,1c-0.8,0.3-0.3,0.2,0,0.6c1.2,1.7-0.1,3.2-0.8,4.6
		c-1,0.5-2,0.5-3.1,0c-1.6-2.3-0.4-4.8-0.7-7.2c0.8-2.5,0.1-4.9,0-7.4c0-37.4,0-74.7,0-112.1c0-0.9,0.2-1.7-0.2-2.6
		c-0.1-0.8,0.3-1.2,1-1.4C-292.8,86.1-291.7,85.4-290.8,86.4z"/>
	<path class="st0" d="M-408.3,272.4c-2.3,1.1-1.7,3.7-3.1,5.3c-0.8,0.3-0.4,2-1.7,1.4c-0.8-0.4-1.1-1.4-0.8-2.2
		c0.4-1.1,0.3-1.8-0.7-2.3c-1-0.6-1.1-1.7-1.2-2.7c2.3-6.6,5.4-13,8-19.5c0.5-1.2,1.2-2.3,1.5-3.6c0.7-2.6,2-3.6,4.9-3.5
		c2.6,0.1,4.3,0.3,5,3.3c0.5,2.3,1.8,4.4,2.7,6.6c0.2,1.7,1.3,3.6-1.5,4.5c-0.7,0.2-1.8,2,0.5,2.4c0.5,0.1,0.7,0.7,1,1.1
		c0.1,0.2,0.2,0.4,0.3,0.6c0,0.2-0.1,0.3,0,0.5c0.1,0.3-0.3,0.5-0.1,0.2c0.3-0.4,0.3-0.8,0.3-1.2c0.2-2.2,1.6-1.1,2.6-0.8
		c2.3,5.3,4.5,10.6,6.8,16c0.5,1.1,0.3,1.5-0.9,1.7c-4.5,0.7-5.8,0.1-7.3-4.1c-0.9-2.8-2.4-4-5.4-3.7c-3.2,0.3-6.5,0-9.8,0
		c1.6-1.3,3.6-0.8,5.4-1c1.2-0.1,2.6,0.5,3.5-1c0.1-0.2,0.4-0.3,0.7-0.2c-0.1-0.2-0.3-0.1-0.5,0c-1.5,0.4-1.7-1.2-2.6-1.7
		c-1-0.6-0.3-1.3,0.5-1.6c0.8-0.3,1.7-0.2,2.6-0.2c1.2-0.1,1.3-0.6,0.7-1.5c-1.9-3.5-3.2-7.2-4.3-10.4c-1.4,3.7-2.8,7.9-5.1,11.7
		c-0.4,1.4-0.4,1.4,0.9,1.5c0.4,0,0.8,0.2,0.9,0.5c0.4,1.6,1.6,1.2,2.7,1.3c0.7,0.1,1.9,0,1.8,0.9c-0.1,0.9-1.2,0.7-2,0.7
		c-1.8,0-3.6,0.2-5.4,0.4C-407.8,271.9-408.3,271.8-408.3,272.4z"/>
	<path class="st1" d="M-358.4,211.1c0-4.8,0-9.5,0-14.3c0-1,0.3-2.1-1.2-2.4c-0.9-0.2-0.8-1-0.8-1.7c0-7.2,0-14.4,0-21.6
		c0-0.4,0.1-1.1,0.3-1.2c2.7-0.8,1.7-3,1.8-4.7c0.1-2.7,0.1-5.4,0-8.1c-0.1-1.7,1-3.9-1.7-4.7c-0.3-0.1-0.3-1.1-0.3-1.7
		c0-5.4,0-10.7,0-16.1c0-5.4,0.2-10.8-0.4-16.2c-0.2-2,0.3-4.1,0.5-6.2c0.1-0.6,0.4-1,1-1c1.3,0.1,3.3-0.8,3.8,0.5
		c0.8,2,1.5,0.6,2.2,0.3c0.8-0.3,1.7-1.8,2.3,0.2c-0.3,1.1-1.4,0.5-2.1,1c-0.3,0.2-0.7,0.4-1,0.6c-0.5,0.9-0.3,1.9-0.3,2.8
		c-0.1,12,0.1,24-0.1,36c-1.6,1.1-2.2,2.7-2,4.7c0.1,2.5,0,5,0,7.5c0,1.6-0.1,3.3,1.3,4.6c0.7,0.7,0.5,1.8,0.5,2.7
		c0.1,4.7-0.2,9.3,0.2,14c0.1,1.4,0.1,2.8,0,4.2c-0.3,2,0,4.1-1.7,5.8c-0.6,0.6-0.3,1.7-0.3,2.5c0,3.4,0.1,6.8-0.1,10.1
		C-356.7,209.8-356.4,211.5-358.4,211.1z"/>
	<path class="st0" d="M-619.2,269.4c0.1,2.8,0.1,5.5,0.2,8.3c0.1,1.8-0.6,2.8-2.6,2.6c-0.8-0.1-1.6,0-2.3,0
		c-1.7,0.1-2.4-0.4-2.4-2.3c0.1-9.9,0.1-19.8,0-29.6c0-2.3,0.5-3.2,2.8-2.9c1.3,0.2,2.7-0.3,4,0.4c0.5,4,0.1,8.1,0.2,12.1
		c0,1.2-0.7,0.8-1.4,0.8c1.3,1,2.5,1.2,4.1,1c2.1-0.3,4.3-0.1,6.5-0.1c0.4,0,1,0,1,0.6c0,0.4-0.6,0.5-0.9,0.9
		c1.7,0.5,3.6-0.4,5.2,0.8c0.3,1.2-0.6,1.5-1.4,1.7c-0.7,0.2-1.5,0.2-2.2,0.7c-3.2,0.3-6.5,0.3-9.6,1.3c-0.4,0.2-0.7,0.4-1.1,0.5
		C-619.8,267.3-619.6,268.3-619.2,269.4z"/>
	<path class="st1" d="M-608,194.5c0,1.7,0,3.4,0,5.2c0,1.6-0.5,3.5,2.2,3.2c0.6-0.1,0.8,0.5,0.8,1.1c0,1.1-1.4,1-1.6,2.1
		c-0.3,1.6-1.1,0.5-1.8,0.1c-1.3-0.7-1,1-1.7,1.3c-0.6-1.4-2.4-0.6-3.2-1.8c-0.1-0.2-0.2-0.4-0.2-0.7c0.6-0.8-0.2-1.6,0.1-2.4
		c0.1-0.3,0.1-0.6,0.1-0.9c0.7-31.1,0.2-62.2,0.3-93.2c0-1.7,0.1-3.5-0.4-5.2c-0.4-2,0-4-0.3-6.1c0.1-1.5,0.3-3,1.3-4.3
		c0.2,0.1,0.4,0.3,0.5,0.5c1.3,3.3,1.8,6.7,2.2,10.1c0.2,1.3,0.2,2.6,0.2,3.9c0,6.7,0,13.5,0,20.2c0.1,1.5,0.1,3,0,4.4
		c0.2,19.5,0,39,0,58.4C-609.3,192.1-608.9,193.4-608,194.5z"/>
	<path class="st0" d="M-481.7,276.2c-0.7-0.4-1.2-0.9-1.5-1.6c-0.4-0.7-0.1-1.4,0.6-1.1c1.8,0.7,4.3-0.1,5.6,2.4
		c-1.1-3,0.7-2.7,2.3-2.4c4.2,1.7,8.4,1.7,12.5-0.4c2.3-1.2,1.3-3.1,1.2-4.8c-0.1-1.8-1.7-1.4-2.8-1.4c-0.9-0.1-1.7-0.2-2.6,0
		c-2.1,0.3-2.8-0.4-2.8-2.6c-0.1-2.5,0.6-3.3,3.1-3.1c3.3,0.2,6.6,0,9.9-0.1c1.5,0,2.3,0.4,2.2,2.2c-0.2,2.9-0.1,5.9,0,8.8
		c0.1,2.4-0.7,3.9-2.7,5.3c-7.2,4.9-18.3,4.8-24.4-0.6C-481.2,276.3-481.4,276.2-481.7,276.2z"/>
	<path class="st0" d="M-608.6,264.2c0.2-1.3,1.1-1,1.9-1c0.8,0,1.6,0,1.7-1c1.3-0.4,1.8-1.4,2.1-2.6c0-4.1,0.1-8.1,0.1-12.2
		c0-1.4,0.3-1.9,1.9-1.9c5.5,0.3,5.3-1.3,5.3,5.2c0,8.9-0.1,17.8,0.1,26.7c0,2.3-0.7,2.9-2.9,2.9c-5.1-0.2-4.2,0.5-4.3-4.2
		c0-1.9,0-3.8,0-5.7c0-4.3,0-4.3-4.2-4.6C-607.5,265.2-608.2,264.8-608.6,264.2z"/>
	<path class="st0" d="M-557.5,270.9c-3.4-6.2-1.8-14.9,2.1-19.6c4.8-5.7,13.3-7.8,20.2-5.3c0.2,0.2,0.4,0.3,0.6,0.5
		c0.4,0.3,1.2,0.3,0.9,0.9c-0.2,0.7-1.1,0.8-1.5,0.5c-1.3-1-1.4-0.2-1.5,0.8c0,0.3-0.4,0.5-0.5,0.9c0.1,0.2,0.2,0.4,0.3,0.5
		c0.9,0.7,1.3,1.4-0.1,2.1c-1,0.3-2,0.1-2.9-0.4c-1.1-0.3-2.1-1.2-3.2-0.1c-0.1,0.1-0.2,0.3-0.4,0.4c-4.6,1.4-7.4,4.5-8.4,9.2
		c-0.5,1.2-0.6,2.5,0.1,3.7c0.4,0.7,0.5,1.4,0.2,2.1c-0.9,0.5-1.6,1.7-2.9,1c-1.1-0.5-0.5,0.5-0.6,0.8
		C-555.5,270.1-555.9,271.2-557.5,270.9z"/>
	<path class="st0" d="M-487.3,265.2c-0.8-7.3,1.6-13.4,7.9-17.3c6.5-4,13.3-4.2,20-0.4c0,1.6-1.1,1.4-2.1,1.4
		c-1.1,0-1.9,0.3-1.9,1.5c-0.1,1.3-0.8,1.5-1.9,1.2l-0.2,0.1l-0.1-0.1c-1.8-1.2-3.7-1-5.6-0.5c-6.9,1.9-10,7-9.3,14
		c-1,0-2.4,0.4-2-1.5c-0.7,0.7-1.4,1-2.2,0.2c-0.9-0.9-1.3-2-0.6-3.6c-0.7,1.2-0.4,2.1-0.5,2.9C-485.9,264-486,265.1-487.3,265.2z"
		/>
	<path class="st0" d="M-523.8,256.4c2.5,6.8,1.7,13.1-3.2,18.5c-4.8,5.4-11.1,6.9-18.1,5.4c0.7-2.8,3.5-1.7,5-2.7
		c-2.4-0.7-2.9-1.6-1.3-3.4c2.8-0.5,5.6-0.8,7.8-3c1.8-1.8,2.5-4.1,3.5-6.3c0.6-0.8,0.4-1.9,0.8-2.7
		C-528.3,259.6-526.7,257.4-523.8,256.4z"/>
	<path class="st1" d="M-582.6,167.5c-1.4-0.3-2.8-0.7-3.6-2.1c1.1-0.6,1.6-1.8,2.4-2.7c1.3-0.2,2.4-1.5,3.9-1c0.8,1.1,2.3-0.1,3.1,1
		c2.2,0.8,4.4,0.3,6.6,0.2c2.3-0.1,4.6,0.1,6.9,0.4c2.8,0,5.5,0,8.3,0c1.2-1,2.7-0.6,4.1-0.7c9.8-0.2,19.5,0.5,29.4-0.4
		c-1.1-2.6-1.5-4.8-0.2-7.1c0-0.2,0-0.3,0-0.5c-0.4-0.5-0.4-1.1-0.1-1.7c1.5-2.7,0.9-5.6,0.8-8.4c-0.1-2.3-1.2-3.1-3.9-3.1
		c-9,0-18,0-27,0c-8.6,0-17.1,0-25.7,0c-1.9,0-4.1,0.2-4.9-2.3c0-0.2,0-0.4,0-0.5c0.2-0.2,0.3-0.2,0.5,0c0.4,0.7,1.1,0.5,1.6,0.6
		c0.8,0.3,1.7,0.2,2.6,0.2c18.8,0.1,37.6-0.1,56.5,0.1c0.4,0,0.9-0.1,1.3-0.2c0.7,0.3,1.4,0.5,1.5,1.4c-0.4,6.7-0.1,13.5-0.2,20.2
		c0,0.9,0.2,1.9-0.2,2.8c-0.3,0.3-0.6,0.6-0.9,1c-0.9,0.4-1.9,0.2-2.8,0.2c-18.8,0-37.7,0-56.5,0c-0.9,0-1.9-0.4-2.7,0.4
		c0.1,0.1,0,0.3-0.1,0.4C-582.6,166-582,166.9-582.6,167.5z"/>
	<path class="st1" d="M-293.9,216.3c1,0,2.1,0,3.1,0c0.9-0.6,2-0.4,3-0.7c16.3-0.2,32.6-0.3,48.9-0.1c6.4,0,12.8-0.2,19.2,0
		c2.8-0.2,5.6,0,8.4,0c2.4-0.1,4.8,0.1,7.2,0c1.2,0,2.4,0,3.6,0c1,0,2,0,3,0.1c1.2,0.2,2.4-0.1,3.7-0.1c1.4-0.1,1.5-1.1,1.7-2.2
		c0.3-2.6,0.7-5.1,0.6-7.7c0-0.9-0.1-1.7,0.4-2.5c0.3-0.5,0.8-0.7,1,0.1c-0.1,4.4,0.2,8.9-0.2,13.3c-0.5,1.3-1.6,1.3-2.7,1.3
		c-32.9,0-65.8,0-98.7,0c-1.1,0-2.1,0-2.8-1C-294.4,216.6-294.2,216.4-293.9,216.3z"/>
	<path class="st1" d="M-601.3,216.3c5.4,0,10.7,0,16.1,0c1.3-0.6,2.6-0.9,4-0.8c22.6,0,45.2-0.1,67.8,0c0.4,0,0.8,0,1.3,0.1
		c2.2,0.4,3.4-0.4,3.4-2.7c0.3-0.4,0.4-1.2,1.2-0.5c0,1.4,0.2,2.8-0.2,4.1c-0.4,1.4-1.5,1.4-2.7,1.4c-29.8,0-59.6,0-89.4,0
		c-0.8,0-1.6,0-2.3-0.4c0.1-0.1,0.1-0.1,0.2-0.2C-601.8,216.8-599.9,217.5-601.3,216.3z"/>
	<path class="st1" d="M-191.9,98.8c-0.1-3.8,0.2-7.6-0.2-11.3c0-0.4,0.3-0.6,0.6-0.6c0.4,0.6,0.4,1.3,0.4,2c0,7.1,0,14.2,0,21.3
		c0,2.5-0.9,3.2-3.9,3.2c-19.9,0-39.8,0-59.7,0c-2.9,0-5.7,0.1-8.6,0.1c-0.2,0.2-0.5,0.2-0.7,0c-0.2-0.4-0.2-0.7,0.1-1.1
		c1.3,0.1,2.1-1.7,3.6-1c0.2,0.2,0.5,0.2,0.5,0.5c1.3,1,2.8,0.3,4.2,0.5c2.7-1.3,5.5-0.4,8.3-0.3c2.8,0.2,5.5-0.4,8.2-0.2
		c1.4,0,2.9,0,4.3,0c1.4,0,2.9,0.1,4.3-0.1c2.7-0.3,5.5-0.3,8.2,0.1c2.7,0.1,5.5,0,8.2,0c6-0.4,12-0.2,18.1-0.3c2.5,0,2.9-0.5,3-3.1
		c0.1-2.2,0-4.3,0-6.5C-192.7,100.9-192.8,99.7-191.9,98.8z"/>
	<path class="st1" d="M-455.1,123.9c1.6,0.1,3.3-0.8,4.7,0.7c0.5,1.6,0.5,3.2,0.5,4.9c0,26.6,0,53.3,0,79.9c0,0.9,0.1,1.7-0.2,2.6
		c-0.2,0.3-0.5,0.5-0.8,0.4c-1.7-1.4-1.3-3.3-1.3-5.1c0-21.9,0-43.7,0-65.6c0-3.6-0.1-7.3,0.2-10.9c0.3-3.9-0.6-4.6-4.6-4.3
		c-1-0.3-2.2-0.2-2.7-1.4C-458.2,123.6-456.4,124.9-455.1,123.9z"/>
	<path class="st1" d="M-450.4,212.2c0-27.1,0-54.1,0-81.2c0-2.1-0.7-4.3,0-6.4c0.9,0.7,0.9,1.6,0.9,2.6c0,28.9-0.1,57.8-0.1,86.7
		c0,0.8,0.3,1.7-0.4,2.5C-451.9,215.1-451.2,213.7-450.4,212.2z"/>
	<path class="st0" d="M-487.3,265.2c0.9-0.9,1-2,0.9-3.1c-0.1-1.1,0.2-2,1.3-2.6c0.9,1.1-0.9,2.3,0.2,3.3c0.5,0.4,0.5,1.5,1.5,1.1
		c0.8-0.3,0.5-1,0.3-1.6c-0.1-0.3-0.1-0.7,0.3-1c1.3,0.9-0.6,3.9,2.2,3.9c1,3.4,2.5,6.5,5.8,8.2c-0.7,0.2-1.4,0.3-2.3,0.5
		c0.4,0.8,0.8,1.6,1.1,2.4c-0.5,0.5-1.5,0.4-1.6,0.2c-0.8-2.7-3.6-1.3-5.1-2.5c-0.5-0.4-0.7,0.2-0.7,0.6
		C-485.7,272-487.2,268.9-487.3,265.2z"/>
	<path class="st1" d="M-293.9,216.3c-0.2,0.2-0.4,0.4-0.6,0.6c-0.8-0.5-0.5-1.4-0.5-2.1c0-42.1,0-84.2,0-126.4c0-0.3,0.1-0.7,0.1-1
		c0.8,0.9,0.4,2,0.4,3c0,37.5,0,75,0,112.5c0.2,2.1,0.7,4.1,0,6.2C-294.2,211.5-294.9,214-293.9,216.3z"/>
	<path class="st1" d="M-202.8,138.9c1.6,0.3,2,1.5,2,2.9c0,6.7,0,13.3,0,20c0,2.3-1.3,3-3.3,3c-6,0-11.9,0-17.9,0
		c-13.7,0-27.4,0.1-41,0.2c-0.2-0.4-0.1-0.6,0.2-0.8c3.6-0.8,7.2-0.3,10.8-0.4c11.2-0.2,22.4-0.1,33.7-0.1c3.3,0,6.7-0.4,10-0.1
		c1.2,0.1,2.4,0,3.5-0.6c1.6-0.8,2.4-2.2,2.3-4c-0.2-6.4,0.6-12.8-0.6-19.1C-203.2,139.4-203.1,139.2-202.8,138.9z"/>
	<path class="st1" d="M-666.3,147.7c2.2,0.8,1.7,3.3,2.8,4.8c-0.4,0.6-1,0.5-1.5,0.4c-1.7-0.2-2.6,0.4-2.4,2.3
		c0.1,0.6,0.2,1.3-0.4,1.6c-0.8,0.4-1-0.3-1.4-0.7c-0.5-0.6-1.2-0.7-1.9-0.5c-1,0.3-0.5,1.1-0.4,1.7c0.2,1.8-1.1,2.3-2.5,2.8
		c-1.4,0.5-1.8-0.6-2.2-1.5c-0.9-1.4,0.9-2.1,0.9-3.3l0.1,0.1l-0.1-0.1c1.5,0,1.8-1.1,2.1-2.2c0.7-0.8,1.4-1.5,2.1-2.3
		c1.1-0.4,1.7-1.3,2.5-2.1C-667.9,148.1-667.5,146.9-666.3,147.7z"/>
	<path class="st1" d="M-385.9,113.9c1,1.1,0.5,2.5,0.5,3.7c0,31.2,0,62.3,0,93.5c0.7,0.9,0.6,1.7,0,2.6c-0.2,1.8-0.2,3.3,2.4,2.7
		c0.9-0.2,1.6,0.4,1.8,1.4c-4.8,0.2-4.8,0.2-4.8-4.6c0-31.6,0-63.2,0-94.8C-386,116.9-386,115.4-385.9,113.9z"/>
	<path class="st0" d="M-289.7,268.8c0.3,0,0.6,0,1,0c0.9,0.6,1.9,0.3,2.8,0.3c31.4,0,62.8,0,94.3,0c0.9,0,1.9-0.2,2.8,0.2
		c0,0.2,0,0.3,0,0.5c-0.8,0.5-1.7,0.3-2.5,0.3c-33.7,0-67.3,0-101,0c-0.8,0-1.7,0.2-2.5-0.2c-0.5-1.8,0.9-0.9,1.5-1.1
		C-292.1,269.3-290.9,269.3-289.7,268.8z"/>
	<path class="st1" d="M-613.2,204.9c0,0.2,0,0.4,0,0.5c0.2,0.5-0.1,0.5-0.5,0.5c0-5.2-0.1-10.4-0.1-15.5c0-30.2,0-60.4,0-90.5
		c0-0.9,0.1-1.7,0.2-2.6c0.8,1.9,0.2,3.8,0.4,5.7c0.5,1.1,0.5,2.4,0.5,3.6c0,28.5,0.1,56.9-0.1,85.4c0,3.6,0,7.2-0.4,10.8
		c0,0.2,0,0.4,0,0.6C-612.9,203.9-612.8,204.4-613.2,204.9z"/>
	<path class="st0" d="M-294.9,269.9c35.4,0,70.7,0,106.1,0c-0.7,0.9-1.8,0.5-2.7,0.5c-33.6,0-67.1,0-100.7,0
		C-293.1,270.4-294.1,270.7-294.9,269.9z"/>
	<path class="st0" d="M-654.9,269.8c-0.6,0.9-1.6,0.6-2.4,0.6c-33.7,0-67.5,0-101.2,0c-0.8,0-1.8,0.3-2.4-0.6
		c0.7-0.5,1.4-0.4,2.2-0.5c0.8,0,1.6,0,2.4,0c32.5,0,65.1,0,97.6,0C-657.4,269.4-656.1,269.1-654.9,269.8z"/>
	<path class="st0" d="M-654.9,269.8c-34,0-67.9,0-101.9,0c-0.2-0.9,0.9-0.5,1.1-1c0.3,0,0.6,0,1,0c0.9,0.6,1.8,0.3,2.8,0.3
		c24,0,48.1,0,72.1,0c7.5,0,15,0,22.4,0c0.8,0,1.7-0.2,2.5,0.2C-654.9,269.5-654.8,269.7-654.9,269.8z"/>
	<path class="st1" d="M-354.7,190.3c0-1.4,0-2.8,0-4.2c-0.5-3.6-0.2-7.2-0.2-10.8c-0.1-6.3-1-12.5-0.6-18.8c0.1-1.3-0.1-2.6,0.8-3.7
		c0-12.1,0-24.2,0-36.3c0-0.9-0.4-1.9,0.5-2.7c0,16.3,0.1,32.5,0.1,48.8c0,17,0,34.1,0,51.1c0,0.9-0.1,1.7-0.2,2.6
		c-0.2-0.2-0.3-0.4-0.5-0.5c-1.4-7.1-1.1-14.2-0.3-21.4C-354.9,193.1-355.3,191.7-354.7,190.3z"/>
	<path class="st0" d="M-188.9,269.3c-32.5,0-65,0-97.4,0c-0.8,0-1.8,0.3-2.4-0.5c6.9-0.1,13.8-0.1,20.8-0.1c25.5,0,50.9,0,76.4,0
		C-190.7,268.7-189.5,268-188.9,269.3z"/>
	<path class="st1" d="M-507.6,216.5c0-1.4-0.1-2.9-0.1-4.3c-0.4-0.3-0.5-0.8-0.6-1.2c-0.2-4.8,0-9.5-0.1-14.3c0-1,0.2-2.1-0.6-3
		c-1-0.8-2.3-0.5-3.4-0.6c-22.6,0-45.2,0-67.8,0c-0.3,0-0.7-0.1-1-0.2c-0.3-0.1-0.6-0.3-0.8-0.6c0.2-0.2,0.3-0.3,0.5-0.5
		c23.8,0,47.5,0,71.3,0c1.8,0,3.1,0.4,3.1,2.5c0,7.1,0,14.2,0,21.3C-507.2,215.9-507.4,216.2-507.6,216.5z"/>
	<path class="st1" d="M-480.6,217.4c-1.1-0.3-1.1-1.2-1.1-2.1c0-29.8,0-59.7,0-89.5c0-0.2,0.1-0.3,0.1-0.5c1.5,0.6,1,1.9,1.2,3
		c0.1,1.1,0.1,2.2,0.1,3.4c0,27.5,0.1,55,0,82.5c-0.2,1.6,1.4,1.4,2,2.1C-478,217.8-478.2,217.9-480.6,217.4z"/>
	<path class="st1" d="M-480.6,217.4c0.6-0.5,2.2,0.9,2.1-1c1.1-1,2.4-0.8,3.7-0.7c6.8,0.1,13.6-0.2,20.4,0c0.4,0,0.9-0.1,1.2-0.4
		c1.2-0.7,1.1-2.3,2.3-3c0.2,0,0.3,0,0.5,0c0.2,1.4-0.5,2.9,0.5,4.1c-0.3,1.1-1,1.5-2.1,1.5c-9.2,0-18.5,0-27.7,0
		C-480,217.8-480.3,217.5-480.6,217.4z"/>
	<path class="st0" d="M-546.7,279.8c-2.9-0.5-5.4-1.8-7.3-4.1c-0.3-1.6,0.6-2.7,1.6-3.6c0.7-0.6,1.1-1.3,1.6-1.9
		c2.3,0,3.3,2,4.8,3.3c0.2,1.5,0.7,2.7,2.5,3c0.4,0.1,1,0.5,0.8,1.1c-0.1,0.5-0.6,0.6-1,0.6c-1.1,0.2-2.3,0.3-3.5,0.4
		c0.8,0,1.5,0.3,1.4,1.1C-545.7,280.2-546.3,280-546.7,279.8z"/>
	<path class="st0" d="M-408.3,272.4c-0.4-0.9,0.2-0.9,0.9-1c2.3-0.1,4.5-0.8,6.9-1c-0.9,0-1.8,0.2-2.6,0c-0.7-0.2-2.9,1.1-1.8-1.5
		c0.2-0.4-0.3-0.5-0.7-0.5c-1.1,0.1-0.7,1.2-1.1,1.8c-0.1-1.4-2.1-2.7,0-3.9c2.3-0.4,4.6-0.2,6.9-0.2c1.3,0,2.4-0.3,3.2-1.3
		c0.9,0.3,1.1,1.2,0.9,1.9c-0.2,0.8-1.1,0.6-1.8,0.6c-1.1,0.1-2.2-0.2-3.9,0.6c2.4,0.1,2.8,3.1,5.1,1.7c0.4,1.1-2.7,0.3-0.9,2
		c0.1,0.1-1,0.2-1.6,0.3c-2.8,0.3-5.6-0.5-8.4,0.4C-407.6,272.4-408,272.4-408.3,272.4z"/>
	<path class="st1" d="M-191.4,192c0.9,0.1,1.3,0.7,1.4,1.5c-0.2,0.5-0.2,1.2-0.7,1.6c-1.2,3.2-0.3,6.5-0.8,9.7
		c-0.2,1.6,0,3.3-0.1,4.9c0,1.2-0.5,2-1.9,1.9c-0.3,0-0.6-0.2-0.8-0.3c-0.7-0.9-0.6-1.9-0.6-3c0-3.8-0.2-7.6,0.1-11.3
		c0.1-1.9-0.5-2.9-2.3-3.2c-0.5-1,0.3-1.1,0.9-1.2c1-0.1,2.1,0,3.1-0.1C-192.5,192.2-191.9,192.2-191.4,192z"/>
	<path class="st0" d="M-465.3,251.8c0.5-0.2,1.3-0.4,1.3-0.5c-0.4-2.9,1.3-3.2,3.5-2.8c0.5,0.1,0.9-0.4,1.1-0.9
		c0.2,0.1,0.3,0.1,0.5,0.2c4.2,2.7,4.1,2.7,0.5,6.2c-1,1-1.8,1.4-2.9,0.1C-462.4,252.9-463.9,252.4-465.3,251.8z"/>
	<path class="st0" d="M-323.5,274.1c0.4,0.3,0.8,0.6,1.1,1c1.1,1.5,2,3.1,3.1,4.7c-5.2,1.6-7.4,0.7-10.4-4.2
		c0.3-1.4,0.7-2.2,2.4-0.9C-326.4,275.4-324.9,274-323.5,274.1z"/>
	<path class="st1" d="M-738,178.9c0.6,0,1.4-0.6,1.8,0.4c1,2.5,4.2,3.5,4.6,6.4c0,0.2,0.6,0.3,0.8,0.5c0.3-0.3,0.7-0.3,1,0
		c1.1-0.2,2,0.2,2.6,1.1c1.1,1.2,0.3,3.1,1.6,4.2c0.4,1.2,0.4,2.9,2.4,1.3c0.6-0.5,1.5-0.5,1.6,0.5c0.3,1.5-0.9,1.6-2,1.8
		c-0.7,0.4-1.2-0.2-1.7-0.5c-3.4-4-6.8-8-10.2-12c-0.4-0.7-0.8-1.3-1.5-1.6c-0.4-0.5-0.7-0.9-1.1-1.4
		C-738.3,179.3-738.3,179.1-738,178.9z"/>
	<path class="st1" d="M-530,85.8c-21.1,0-42.2,0-63.3,0c-2.5,0-5-0.1-7.5,0.5c-1.1,0.4-2.2,1-3.3-0.1c1.2-0.7,2.6-0.9,3.9-0.9
		c23.4,0,46.7,0,70.1,0.1c0.1,0.1,0.2,0.2,0.1,0.3C-529.9,85.8-530,85.8-530,85.8z"/>
	<path class="st0" d="M-602.8,259.5c-0.3,0.9,0.7,1.5,0.7,2.3c-0.9,0.5-1.9,0.2-2.8,0.3c-1.6,0-3.1,0.1-4.7,0
		c-0.8,0-2.1,0.5-2.3-0.5c-0.2-1.3,1.4-0.8,2.1-1.3c-2.6,0.2-5.2-0.8-7.8,0.4c-1.4,0.6-4.2-1.1-3.9-2.2c0.1-0.5,0.5-1,1-1
		c0.7-0.1,0.1,0.9,1,1.1c0-4.2,0-8.4,0-12.6c1,3.6,0.4,7.4,0.3,11c0,2.2,0.5,2.8,2.7,2.7C-611.9,259.4-607.3,259.5-602.8,259.5z"/>
	<path class="st0" d="M-679.8,269.4c-24.1,0-48.2,0-72.3,0c-0.9,0-1.9,0.3-2.7-0.5c11.2-0.1,22.3-0.1,33.5-0.1
		c13.8,0,27.7,0.1,41.5,0.1c0.2,0.1,0.2,0.3,0.2,0.4C-679.7,269.3-679.8,269.4-679.8,269.4z"/>
	<path class="st1" d="M-509.1,112.9c-0.4,0.5-0.9,0.4-1.4,0.4c-23.7,0-47.3,0-71,0c0-0.7,0.6-0.6,1.1-0.7c8.5,0,17,0.1,25.5-0.1
		c1.1-0.5,2.2-0.4,3.3-0.4c6,0,12.1,0,18.1,0c2.2,0,4.2,0.7,6.4,0.5c2.3-0.2,4.6-0.1,6.9-0.4C-516.5,111.8-512.8,112.4-509.1,112.9z
		"/>
	<path class="st0" d="M-528.5,249.6c1.3,1,2.5,2,3.2,3.6c0.3,0.6,0.4,1.5-0.1,1.5c-1.9,0-2.6,1.2-3.5,2.5c-0.5,0.8-1.6,0.1-2.4-0.2
		c-1.5-1.4-3.6-2.3-3.6-4.8C-532.9,251-530.9,249.9-528.5,249.6z"/>
	<path class="st0" d="M-323.5,274.1c-0.3,0.4-0.6,0.8-0.9,1.2c-1.5-1.3-1.9,0.4-2.6,1.1c-0.9-0.5-1.2-3.4-2.8-0.8
		c-1.1-1-1.6-2.3-2.3-3.6c1.5-0.8,0-1.5-0.1-2.6c2.1,1.6,3.8,0.9,5.4-0.5C-325.5,270.5-324.3,272.1-323.5,274.1z"/>
	<path class="st1" d="M-191.4,192c-0.4,0.1-0.7,0.3-1.1,0.4c-2.4,0.3-4.8,0.6-7.2,0.7c-18.5,0.1-36.9,0.1-55.4,0
		c-0.7,0-1.3-0.4-1.9-0.7c-1.9-0.3-3.9,0.5-5.7-0.5C-238.9,192-215.1,192-191.4,192z"/>
	<path class="st0" d="M-550.8,270.3c0.2,0.7,0.4,1.7-0.3,1.9c-1.9,0.6-1.9,2.4-2.9,3.6c-1.7-1.2-2.8-2.9-3.5-4.8
		c2-0.8,2.4-2.3,1.5-4.4c1.4,1.8,3,0.4,4.4,0.7C-550.4,267.9-550.1,269-550.8,270.3z"/>
	<path class="st0" d="M-415.8,271.9c1.2,0.6,0.6,3.2,3,2.6c0.4-0.1,0.3,0.5,0.2,0.8c-0.1,0.3-0.3,0.6-0.4,0.9
		c-0.5,0.8-0.7,1.7,0,2.3c0.8,0.6,0.7-1.3,1.6-0.8c0,2.7-1.9,2.6-3.8,2.6c-4.3,0-4.3,0-2.6-3.7C-417.1,275-416.4,273.4-415.8,271.9z
		"/>
	<path class="st0" d="M-528.5,249.6c-0.4,0.1-1.1,0.1-1.2,0.3c-0.4,2-1.8,1.9-3.3,1.8c-0.8,0-1.5,0.3-1.8,1.1
		c-1.1,0.4-1.9,0.2-2-1.1c1.1-1.5-1.1-0.8-1.1-1.6c0.5-0.4,1.1-0.6,1.7-0.3c0.3,0.2,0.5,0.4,0.8,0.5c-0.1-0.1-0.2-0.1-0.3-0.2
		c-0.7-0.9-1.4-0.7-2.2-0.1c-0.9-0.8-0.1-1.3,0.4-1.6c1.8-1.2-0.3-0.9-0.6-1.1c1.4-2,2.5,0.5,3.8,0c-0.2-0.6-1.2-0.7-1-1.4
		C-532.6,246.5-530.3,247.7-528.5,249.6z"/>
	<path class="st1" d="M-481.1,127.9c-0.2-0.9,0.3-1.8-0.4-2.6c0.4-1.3,1.4-1.5,2.6-1.5c2.4,0,4.8,0,7.2,0.1c0.3,0.3,0.4,0.6,0.5,1.1
		c0,0.4-0.1,0.8-0.4,1.1c-0.2,0.2-0.4,0.3-0.7,0.3c-1.5,0.1-3.1,0-4.5,0c1.7,0.1,3.7-0.1,5.6,0.1c0.9,0.5,1,1.2,0.1,1.8
		C-472.4,129.2-479.8,128.9-481.1,127.9z"/>
	<path class="st1" d="M-582,165c0.4-0.8,1.1-0.7,1.8-0.7c20.1,0,40.1,0,60.2,0.1c-1.1,0.7-2.4,0.3-3.5,0.3c-18.5,0-37.1,0-55.6,0.1
		C-580.1,164.8-581,164.9-582,165z"/>
	<path class="st1" d="M-520.1,139c-1.3,1.2-2.8,0.3-4.2,0.3c-17.7,0.1-35.4,0-53.1,0c-1,0-2.1,0.3-3-0.4
		C-560.3,138.9-540.2,138.7-520.1,139z"/>
	<path class="st1" d="M-202.8,138.9c0,0.2,0,0.3,0,0.5c-0.9,0.7-1.9,0.8-2.9,0.7c-16.4-0.7-32.9-0.1-49.3-0.3c-2,0-4.1,1-6-0.5
		c-0.5-0.1-1.1,0.1-1.5-0.5C-242.7,138.9-222.8,138.9-202.8,138.9z"/>
	<path class="st1" d="M-659,161.2c1.4-2.7,4.1-4.1,6-6.3c0.4-0.4,1.1-0.7,1.1-1.4c-0.1-0.8-0.9-0.5-1.5-0.6
		c-2.2-0.3-1.2-1.7-1.1-3.1c1.4,0.8,2.1,3.8,3.9,1c0.4-1,0.8-1.8,2.1-1.6c0.3,0.5,0.8,0.5,1.3,0.6c-3.5,4.4-7.2,8.6-11.1,12.6
		C-658.9,162.2-658.6,161.5-659,161.2z"/>
	<path class="st1" d="M-668.4,169.5c0.2-1,1.1-1.8,1.1-3c0-2.1,2.3-0.6,3.2-1.7c0.6-0.7,0.9,0.2,1.1,0.8c0.7,1.5,1-0.5,1.5-0.1
		c-1.4,3.2-4,5.4-6.4,7.8c-0.4-0.1-0.6-0.3-0.8-0.7C-668.9,171.5-668.3,170.6-668.4,169.5z"/>
	<path class="st1" d="M-720.4,174.7c0-0.2,0-0.3,0-0.5c0.7-0.3,1.1,0.4,1.7,0.5c1.7,1.7,3.5,3.3,5.1,5c1.9,2.1,4,3.7,6.8,4.3
		c0.5,0.7,1.8,0.1,2,1.1c-0.2,1.4-1,1-1.8,0.7c-1.3-0.6-2.6-1.1-3.9-1.7c-0.4,0.3-1.1,0.4-1.2,0.2c-0.7-2.5-4.2-1.4-5-3.7
		c-0.3-0.9-1-1.6-0.6-2.7c0.2-1.5-1.4-1.2-2.1-1.7C-719.9,175.7-720.3,175.4-720.4,174.7z"/>
	<path class="st0" d="M-546.7,279.8c1.1-1.5-1.1-0.5-1-1.4c1.3-1,3-0.6,4.5-0.8c0.1-0.8-0.6-0.9-1-0.9c-2.8,0.3-2.3-1.5-2.1-3.1
		c1.8-0.6,3.3-0.1,4.7,1c-0.6,1.2,0.3,2.5,1.7,2.4c0.8-0.1,1.4-0.4,1.4,0.8c-0.1,1-0.7,0.5-1.3,0.6c-1.9,0.2-4,0.3-5.4,1.9
		C-545.7,280.4-546.3,280.3-546.7,279.8z"/>
	<path class="st1" d="M-641.8,140.9c-0.6-0.4-0.3-1-0.2-1.4c0.2-0.9,0.1-1.7-0.8-1.9c-0.7-0.2-1.2,0.7-1.5,1.3
		c-0.3,0.7-0.3,1.7-1.4,1.4c-1.3-0.3-0.7-1.5-0.8-2.4c-0.1-1,0.2-1.7,1.4-1.7c2.3,0,4.6,0,6.9,0c0.7,0.9,0.3,1.8,0,2.7
		c0,0.4-0.2,0.7-0.5,1C-639.8,140.2-640.5,141.4-641.8,140.9z"/>
	<path class="st1" d="M-754.7,157.1c3.3,0.1,3.9,1.1,3,4.5c-0.2,0.6-0.2,1.3-0.5,2c-2.7-2.6-5.1-5.4-7.4-8.4c0-0.1,0.1-0.2,0.1-0.3
		c1.4-1.2,1.8,0.8,2.8,0.9C-755.9,156-755.7,157.1-754.7,157.1z"/>
	<path class="st0" d="M-390.7,262.6c-2.9-0.7-2,2-2.8,3.1c-0.5-0.7-0.2-1.4-0.3-2.1c0.2-0.2,0.3-0.5,0.2-0.8c-0.1,0.3,0,0.6-0.2,0.8
		c-0.7,0.4-1.2-1.9-2-0.2c-0.8-0.7-1.5-2-0.9-2.6c0.7-0.7-0.1-3.2,2.3-2.2c0.6,0.2,0.6-0.7,0.6-1.2c0-0.7-0.5-1.5,0.1-2.2
		C-392.7,257.7-391.7,260.2-390.7,262.6z"/>
	<path class="st1" d="M-338.6,85.8c-16.6,0-33.3,0-49.9,0c-0.1-0.1-0.2-0.2-0.1-0.3c0-0.1,0.1-0.1,0.1-0.1c16.6,0,33.3,0,49.9,0
		c0.1,0.1,0.1,0.1,0.2,0.2C-338.5,85.7-338.5,85.8-338.6,85.8z"/>
	<path class="st0" d="M-531,256.9c1.1-0.1,2.2,0.2,2.4-1.6c0.1-0.9,1.5-1.3,2.5-1.1c0.4,0.1,0.6,0.2,0.6-0.3c0-0.3,0-0.5,0-0.8
		c0.5,1.1,1,2.1,1.5,3.2c-1.9,1.7-3.8,3.4-5.1,5.7c-0.3-0.2-0.4-0.6-0.4-0.9c0.1-1-0.5-1.7-1.1-2.4
		C-530.9,258.2-531.5,257.7-531,256.9z"/>
	<path class="st1" d="M-725.2,194.6c0.6,0.2,1.2,0.3,1.7,0.5c0,1.1,0,2.1,0,3.2c0.5,0.9,0.2,1.9,0.2,2.8c0,10.8,0,21.6,0,32.3
		c0,0.9-0.2,1.9,0.2,2.8c0,0.2,0,0.4,0,0.5c-0.6,0.8,0.1,1.9-0.5,2.6c-0.6-0.9-0.3-1.8-0.3-2.8c0-11.8-0.1-23.6,0-35.5
		C-723.9,198.7-724.2,196.6-725.2,194.6z"/>
	<path class="st1" d="M-654.9,136.2c-0.3,4.1-3.1,7.2-7.1,8.2c-0.9,0.2-1.5,0-2.2-0.3c0.1-0.7,0.7-1.2,1.2-1.6
		c2.5-1.3,4.2-3.2,5.5-5.7c0.3-0.3,0.7-0.7,1-1C-655.8,135.7-655.3,135.8-654.9,136.2z"/>
	<path class="st1" d="M-736,158.1c-2.3,2.1-5.2,1.6-6.8-1.1c-0.8-1.4,1.6-0.9,1.1-2.1c0.4-0.5,0.4-1.6,1.5-1
		c0.7,0.4,1.4,0.4,2.1,0.5c0.9,0.5,1.3,1.4,1.7,2.3C-736.3,157.3-735.6,157.5-736,158.1z"/>
	<path class="st1" d="M-509.1,112.9c-15.3,0-30.6-0.1-45.9-0.1c-0.2-0.1-0.2-0.2-0.2-0.3c0.1-0.1,0.1-0.1,0.2-0.1l0,0
		c0.7-0.5,1.4-0.5,2.2-0.5c6.8,0,13.7,0,20.5,0c0.8,0,1.6,0,2.2,0.5c2.8,0,5.5,0,8.3,0c2.8-0.8,5.6-0.8,8.3,0
		c1.5,0.2,3.2-0.4,4.6,0.4C-508.8,112.9-509,113-509.1,112.9z"/>
	<path class="st1" d="M-637.1,136.4c0-4.4-0.3-8.8,0-13.2c0.2-2.7-0.6-3.9-3.3-3.7c0.3-0.3,0.6-0.6,0.8-1c0.6-0.7,1.3-1.3,2.2-0.9
		c1,0.3,1.1,1.3,1.1,2.1c0.1,2.7,0.1,5.4,0,8C-636.3,130.7-635.7,133.6-637.1,136.4z"/>
	<path class="st1" d="M-290.8,86.4c-1-0.2-2.2,0.4-3.1-0.4c0.5-0.5,1.2-0.6,1.9-0.6c12.2,0,24.4,0.1,36.6,0.1
		c0.1,0.1,0.2,0.2,0.1,0.3c0,0.1-0.1,0.1-0.1,0.1c-5.5,0-11.1,0-16.6,0C-278.3,86-284.5,85.4-290.8,86.4z"/>
	<path class="st0" d="M-619.7,28.5c0.4,0.2,0.8,0.6,0.4,1c-1.1,1.3-0.5,2,0.8,2.5c0.9,0.4,1.3,1.1,0.9,2.1c-0.3,0.9-0.9,1.4-1.9,1.3
		c-0.8-0.1-1.9,0.3-2-0.9c-0.2-1-0.7-1.7-1.6-2.2C-621.9,31.1-621.1,29.5-619.7,28.5z"/>
	<path class="st1" d="M-353.2,113.3c0.7-0.3,1.4-0.6,2.1-1c0,0,0,0,0,0c0.2,0.1,0.3,0.2,0.5,0.2c11.6-0.1,23.3,0.3,34.9-0.2
		c0.7,0,1.3,0,2,0c-0.2,1-1,1-1.8,1C-328.1,113.4-340.6,113.3-353.2,113.3z"/>
	<path class="st1" d="M-688.1,239.4c0-13.8,0-27.5-0.1-41.3c0.1-0.2,0.3-0.2,0.4,0c0,13,0,26,0,39
		C-687.7,237.9-687.5,238.7-688.1,239.4z"/>
	<path class="st1" d="M-581,112.8c-0.2,0.1-0.3,0.3-0.5,0.4c-0.2,0.2-0.4,0.5-0.6,0.7c-0.7,1.8,0.2,3.8-0.5,5.7
		c-0.6-2.5-2.6-3.3-4.7-4.2c-0.3-0.3-0.3-0.7,0-1c0-0.5,0-1,0-1.5c0-0.6-0.1-1.2,0.7-1.5c0.8-0.2,1.3,0.2,1.6,0.9
		c0.4,0.8,0.8,1.5,1.3,2.5c0.8-1.1,1.1-2.5,2.6-2.5c0.1,0.1,0.2,0.2,0.2,0.3C-580.9,112.8-580.9,112.8-581,112.8z"/>
	<path class="st1" d="M-387,112.9c0,0.1,0,0.3,0,0.4c-12.1,0-24.3,0-36.4,0c-0.1-0.4,0.1-0.6,0.5-0.7c1-0.5,2-0.5,3-0.5
		c9.6,0,19.2,0,28.8,0C-389.6,112.1-388.3,112.2-387,112.9z"/>
	<path class="st1" d="M-721.4,240.2c2.2,1.2,5.1,1.4,6.2,4.2c-1.3,0.6-2.8,0.2-4.2,0.4c-0.8-0.3-1.6-0.7-2.2-1.4
		c-0.2-0.9-0.9-1.5-1.5-2.1c-0.1-0.2-0.2-0.4-0.3-0.5c0.2-0.3,0.6-0.3,0.8-0.5c0.2,0,0.4,0,0.5,0C-721.8,240-721.6,240-721.4,240.2z
		"/>
	<path class="st1" d="M-764.6,147.2c2.9,0.4,2.9,0.4,4.7,3.1c1.4,1.5-0.3,1.9-0.9,2.8c-0.2,0.1-0.5,0-0.6-0.2
		c-1.2-1.4-2.4-2.8-3.7-4.1C-765.1,148.2-765.2,147.6-764.6,147.2z"/>
	<path class="st1" d="M-604.1,86.3c1.1,0,2.2,0.1,3.3,0.1c-0.5,2.9-2.7,3.7-5.2,4.2c-0.9-0.5-1-1.3-1.2-2.1c0.1-0.5,0.5-0.8,0.7-1.2
		C-605.8,86.6-605,86.3-604.1,86.3z"/>
	<path class="st1" d="M-222.1,85.8c-5.5,0-11.1,0-16.6,0c-0.1-0.1-0.2-0.2-0.1-0.3c0-0.1,0.1-0.1,0.1-0.1c11.1,0,22.2,0,33.3,0
		c0.1,0.1,0.2,0.2,0.1,0.3c0,0.1-0.1,0.1-0.1,0.1c-2.8,0-5.5,0-8.3,0C-216.6,86.2-219.3,86.2-222.1,85.8z"/>
	<path class="st1" d="M-471.8,124.8c0-0.3,0-0.6,0-0.9c5.5,0,11.1,0,16.6,0c-1,1.8-2.8,0.5-4.2,0.9c-2.6,1.4-5.4,0.5-8,0.7
		C-468.8,125.6-470.4,125.9-471.8,124.8z"/>
	<path class="st1" d="M-699.1,180.3c0.1,0.7,0.3,1.1,1.2,0.9c1.2-0.3,1.4,0.6,1.5,1.5c0.2,1.8-1.7,1.3-2.5,2.1
		c-0.4,0.4-1.5,0.8-2.3,0.1c-1.1-1,0.3-1.8,0.1-2.7C-700.5,181.6-699.8,181-699.1,180.3z"/>
	<path class="st0" d="M-613.2,22.5c0.9,0.7,2,0.8,3.1,1.1c-0.7,1.5-1.7,2.9-3.4,2.9c-0.8,0-0.6-1.3-0.2-2.2
		c-1.7,0.4-1.3,1.5-1.2,2.6c-0.8-0.6-1.4-1-2-1.4C-615.9,24.2-614.9,22.9-613.2,22.5z"/>
	<path class="st1" d="M-508.1,112c0-5.7,0-11.3,0-17c0-2,0.2-4-0.7-5.8c-0.4-1,0-1.6,0.6-2.3c0.3,0.5,0.6,1,0.6,1.6
		c0,7.5,0,14.9,0,22.4C-507.6,111.3-507.7,111.8-508.1,112z"/>
	<path class="st0" d="M-608.6,264.2c1.1-0.1,1.7,0.4,1.6,1.5c-3.6,0-7.3,0-10.9,0C-615,263.9-611.9,263.6-608.6,264.2z"/>
	<path class="st1" d="M-423.4,112.9c0,0.1,0,0.3,0,0.4c-2,0.4-3.2-0.3-3.2-2.5c0-7.8,0.1-15.6,0.1-23.5c0.8,0.8,0.4,1.8,0.5,2.7
		c0,7.1,0,14.1,0,21.2c0.4,0.5,1.1,0.5,1.5,1.1l0,0C-424.1,112.6-423.6,112.4-423.4,112.9z"/>
	<path class="st1" d="M-738.1,154.6c-0.7,0.6-1.4,1-2.1,0.1c-0.7-0.9-1.1,0-1.5,0.3c0.8-2.8-2.4-3.9-2.8-6.2
		c-0.1-0.4-0.2-0.8-0.3-1.2C-742.4,149.7-740.1,152-738.1,154.6z"/>
	<path class="st1" d="M-674.6,178.9c0.7-0.9,1.6-1.2,2.7-1c-2.4,3.2-5.1,6.1-7.9,9c-0.6-3.4,2.7-4.2,4.2-6.3
		C-675.2,180.1-674,180-674.6,178.9z"/>
	<path class="st1" d="M-314.1,85.8c-0.7,0.3-1.4,0.6-2.2,0.6c-6.9,0-13.8,0-20.7,0c-0.6,0-1.2,0-1.6-0.5c0,0,0,0,0,0
		c4.3-0.6,8.6-0.1,12.8-0.3c2.7-0.1,5.3,0.2,8-0.2C-316.6,85.4-315.2,84.9-314.1,85.8z"/>
	<path class="st1" d="M-613.7,205.9c0.2-0.2,0.3-0.3,0.5-0.5c0.9,0.8,3,0,3.1,2.1c-2.3,0.2,0,1.5-0.5,2.1c-0.1,1.2,1.5,2,0.9,3.3
		c-0.4,0.1-0.7,0-1-0.2C-612.5,210.8-613.5,208.5-613.7,205.9z"/>
	<path class="st1" d="M-263.2,164.4c0,0.2,0,0.4,0,0.5c0,8.8,0,17.7-0.1,26.5c-0.8-0.7-0.4-1.7-0.5-2.6c-0.7-1.2-0.7-2.5-0.8-3.8
		c-0.1-6.1-0.1-12.1,0-18.2C-264.5,165.9-264.6,164.6-263.2,164.4z"/>
	<path class="st1" d="M-771.9,123.8c-0.9-1.9-1.7-0.7-2.6,0c-0.8-1,0.2-2.2-0.4-3.1c0-0.4,0.1-0.8,0.5-1c0.9-0.7,1.8-0.5,2.7-0.1
		c0.5,1.5,2.3,1.9,3.1,3.2C-769.8,123-771.5,121.3-771.9,123.8L-771.9,123.8z"/>
	<path class="st1" d="M-582.6,167.5c0.1-0.7-0.2-1.5,0.5-2.1c0,8.7,0,17.3,0,26c-0.9-0.7-0.5-1.8-0.5-2.7
		C-582.6,181.6-582.6,174.5-582.6,167.5z"/>
	<path class="st1" d="M-768.7,143.6c1.1-0.4,0.6-1.3,0.7-1.9c0.1-0.9,0.5-1.3,1.5-1.2c0.9,0.1,1.3,0.4,1.5,1.3
		c0.7,2.8-1.2,3-3.1,3.4c-0.2-0.2-0.4-0.4-0.6-0.6C-769,144.2-769.1,143.9-768.7,143.6z"/>
	<path class="st1" d="M-388.5,85.4c0,0.1,0,0.3,0,0.4c0,0,0,0,0,0c-2.8,0.4-5.5,0.4-8.3,0c-5.5,0-11.1,0-16.6,0
		c-0.2-0.1-0.2-0.2-0.2-0.3c0.1-0.1,0.1-0.1,0.2-0.1C-405.2,85.4-396.9,85.4-388.5,85.4z"/>
	<path class="st0" d="M-679.8,269.4c0-0.2,0-0.4,0-0.6c7.9,0,15.8-0.1,23.8-0.1c0.5,0,1.1-0.1,1.1,0.7
		C-663.2,269.4-671.5,269.4-679.8,269.4z"/>
	<path class="st1" d="M-263.7,113.4c0.2,0,0.4,0,0.6,0c-0.1,8.3-0.1,16.6-0.2,24.9c-0.2-0.2-0.3-0.3-0.5-0.5
		c-0.8-0.9-0.8-2.1-0.8-3.2c0-6,0-12.1,0-18.1C-264.5,115.4-264.6,114.3-263.7,113.4z"/>
	<path class="st1" d="M-582.6,119.6c0.3-1.9-0.6-3.9,0.5-5.7c0,8.1,0,16.2,0,24.4c0,0-0.2,0-0.2,0s-0.2,0-0.2,0
		C-582.5,132.1-582.6,125.9-582.6,119.6z"/>
	<path class="st1" d="M-768.7,143.6c0,0.3,0,0.6,0,0.9c-2.3-2.4-5.2-4.5-5.8-8.2c1,0.1,1.9,0.4,2.2,1.4
		C-771.6,140-770,141.6-768.7,143.6z"/>
	<path class="st1" d="M-519.1,163.4c0-6.9,0-13.9,0-20.8c0-0.8-0.2-1.6,0.4-2.2c0,7.4,0.1,14.8,0.1,22.2
		C-518.6,162.9-518.9,163.2-519.1,163.4z"/>
	<path class="st1" d="M-190.4,194.5c0.2-0.3,0.3-0.7,0.5-1c0,7.3,0.1,14.7,0.1,22c0,0.4,0,0.9-0.5,1.1c0-4.6-0.1-9.2-0.1-13.8
		C-191.6,200.1-191.5,197.3-190.4,194.5z"/>
	<path class="st1" d="M-610.7,212.7c0.4,0,0.7,0,1.1,0c0.3,0,0.4,0.3,0.5,0.5c2.7,0.9,4.5,3.9,7.8,3.1c0.4,0.3,0.7,0.6,1.2,0.9
		c-0.7,0.1-1.3,0.1-1.9,0.2C-605.6,217.2-608.5,215.6-610.7,212.7z"/>
	<path class="st1" d="M-687.7,198.1c-0.1,0-0.3,0-0.4,0c-0.3-2.7,0.2-5.1,2.6-6.7c0.5-0.6,1.1-1.3,2.1-1.1c0.2,0,0.3,0,0.5,0
		C-684.7,192.9-687.1,194.9-687.7,198.1z"/>
	<path class="st1" d="M-657.4,136.8c1.5,1,0.5,2.2-0.2,2.3c-1.7,0.2-2.2,1.6-2.6,2.4c-0.7,1.5-1.5,1.3-2.6,1
		C-661.1,140.6-659.3,138.7-657.4,136.8z"/>
	<path class="st1" d="M-317.8,85.4c-0.8,0.7-1.8,0.4-2.7,0.4c-6,0-12,0-18.1,0c0-0.1,0-0.3,0-0.4C-331.7,85.4-324.7,85.4-317.8,85.4
		z"/>
	<path class="st1" d="M-749,143.1c-2.5-0.1-4.2-1.4-5.2-3.7c-0.8-0.5-1.3-1.1,0-1.6C-752.2,139.3-750.6,141.2-749,143.1z"/>
	<path class="st1" d="M-759.4,133.7c-0.6-0.6-1.1-1.3-1.9-1.6c-1.8-0.6-1.7-2.1-1.7-3.6c2,1.7,3.7,3.5,5.3,5.6
		c-0.1,0.2-0.3,0.4-0.5,0.5C-758.8,134.6-759.5,134.7-759.4,133.7z"/>
	<path class="st1" d="M-754.2,137.8c-0.8,0.5-0.2,1.1,0,1.6c-1.5,0.2-2.8-0.1-3.6-1.6c-1.1-0.7-0.6-1.3,0.2-1.9c0.7-0.3,1.4,0,2,0.3
		C-755,136.6-754.6,137.1-754.2,137.8z"/>
	<path class="st1" d="M-530,85.8c0-0.1,0-0.3,0-0.4c5.7,0,11.4,0,17.1,0c-0.2,0.2-0.4,0.3-0.5,0.5c-0.7,0.3-1.6,0.2-2.3,0.6
		C-520.5,86.9-525.2,86-530,85.8L-530,85.8z"/>
	<path class="st1" d="M-238.7,85.4c0,0.1,0,0.3,0,0.4c0,0,0,0,0,0c-0.9,0.8-1.9,0.9-2.9,0.6c-1.8-0.5-3.6-0.3-5.4-0.4
		c-1.8,0.1-3.5-0.1-5.3,0.4c-1,0.3-2.2,0.2-3.1-0.6c0,0,0,0,0,0c0-0.1,0-0.3,0-0.4C-249.8,85.4-244.3,85.4-238.7,85.4z"/>
	<path class="st1" d="M-606.5,87.1c0,0.5,0,1-0.5,1.3c-0.6,1.8-2.9,2.4-3.2,4.4c-0.5,0.6-1.1,1-2,0.7c0-0.2,0-0.4-0.1-0.6
		C-611.2,90.2-609.1,88.4-606.5,87.1z"/>
	<path class="st1" d="M-654.9,136.2c-0.6,0-1.2,0.1-1.6-0.5c1.3-1.8,2.9-3.4,4.6-4.8c0.4,2-0.8,3.2-2.3,3.9
		C-655,135.3-654.8,135.7-654.9,136.2z"/>
	<path class="st1" d="M-666.3,147.7c-1.1,0-1.6,0.8-2.1,1.6c-0.6,0.9-1.2,1.9-2.6,1.5c1.7-2.1,3.6-4,5.7-5.8
		C-664.6,146.3-665.7,146.9-666.3,147.7z"/>
	<path class="st1" d="M-774.9,120.7c0.3-0.1,1-0.5,0.7,0.4c-0.3,0.9-0.3,1.8-0.3,2.8c-0.3,3.6,0.5,7.3-0.4,10.9
		C-775.1,130-775.2,125.3-774.9,120.7z"/>
	<path class="st1" d="M-668.4,172.7c0.2,0.2,0.4,0.4,0.5,0.6c-0.9,1.6-2.2,3-3.6,4.2c-0.2-1.4,0-2.7,1-3.7
		C-670.2,172.6-669.4,172.4-668.4,172.7z"/>
	<path class="st1" d="M-696.5,245.4c0-0.5,0-1,0-1.5c0-0.5-0.1-1.1,0.5-1.3c0.5-0.1,0.9,0.2,1,0.6c0.5,1.2,1.8,1.1,2.6,1.7
		C-693.6,245.5-695,245.6-696.5,245.4z"/>
	<path class="st1" d="M-725.6,167.5c-0.3,0.5-1,1.3-1.3,0.6c-0.8-1.7-2.7-2.8-2.8-4.9C-728.2,164.5-726.7,165.9-725.6,167.5z"/>
	<path class="st1" d="M-693.4,174.2c0.5,2.9,0.2,3.3-3.3,3.6C-695.7,176.4-694.6,175.2-693.4,174.2z"/>
	<path class="st1" d="M-413.5,85.4c0,0.1,0,0.3,0,0.4c-4,0-8,0-12,0.1c1.7-1.2,3.7-0.4,5.5-0.6C-417.8,85.2-415.7,85.4-413.5,85.4z"
		/>
	<path class="st1" d="M-746,170.7c2.2-1.2,2.8,0.1,3,1.9c0.1,0.6,0.1,1.2,0.2,1.8C-744.1,173.3-745.1,172-746,170.7z"/>
	<path class="st1" d="M-646.5,148.9c0.1-2.4,1.1-4.1,3.7-4.3C-643.8,146.3-645,147.6-646.5,148.9z"/>
	<path class="st1" d="M-641.8,140.9c1-0.5,1.8-1.6,3.1-1c-0.8,1.4-1.8,2.6-3.1,3.6C-642.2,142.7-641.3,141.8-641.8,140.9z"/>
	<path class="st0" d="M-773,85.2c0.6,1.9,1,3.8-1.4,4.8C-774.5,88.2-773.9,86.7-773,85.2z"/>
	<path class="st1" d="M-675.3,155.4c0.4,1.3-0.8,2.1-0.9,3.3c-0.8,0.8-1.7,0.8-2.7,0.5C-677.7,157.9-676.5,156.6-675.3,155.4z"/>
	<path class="st1" d="M-659,161.2c0.5,0.3,0.5,0.8,0.6,1.3c-0.6,1.1-1.2,2.2-2.6,2.4c-1.1-0.1-0.8-0.5-0.3-1.1
		C-660.7,162.8-659.2,162.6-659,161.2z"/>
	<path class="st1" d="M-718.7,174.7c-0.6-0.2-1.1-0.3-1.7-0.5c-0.6-0.6-1.1-1.3-2-1.6c-1.4-0.4-1-1.3-0.6-2.2
		C-721.5,171.8-720.1,173.2-718.7,174.7z"/>
	<path class="st1" d="M-764.6,147.2c0,0.6,0.1,1.2-0.5,1.6c-0.9-1-1.8-2.1-2.7-3.1C-766.6,145.8-765.2,145.7-764.6,147.2z"/>
	<path class="st1" d="M-748.5,166.9c2.1,0.4,2.5,1.9,2.5,3.7c-0.9-0.9-2-1.7-2.6-3C-748.7,167.4-748.7,167.2-748.5,166.9z"/>
	<path class="st1" d="M-191.9,86.3c-1.8,0-3.5,0-5.3,0c-0.2-0.1-0.3-0.3-0.3-0.5c0-0.2,0.1-0.4,0.3-0.5
		C-195.3,85.5-193.4,84.6-191.9,86.3z"/>
	<path class="st1" d="M-691.8,244.5c0.7-1.5,1.4-3.1,3.2-3.7C-688.8,242.7-690,243.9-691.8,244.5z"/>
	<path class="st1" d="M-730.2,162.8c-1.6,0.7-2.4-0.6-3.2-1.5c-0.5-0.5,0.5-0.7,0.7-1.2C-731.8,160.9-730.9,161.7-730.2,162.8z"/>
	<path class="st1" d="M-742.4,174.8c2-0.3,2.8,1,3.3,2.6c0,0.2,0,0.3,0,0.5c-0.2,0.2-0.4,0.2-0.6,0
		C-740.9,177.1-741.6,175.9-742.4,174.8z"/>
	<path class="st1" d="M-197.1,85.4c0,0.1,0,0.3,0,0.4c-2.8,0.6-5.5,1.4-8.3,0c0,0,0,0,0,0c0-0.1,0-0.3,0-0.4
		C-202.7,85.4-199.9,85.4-197.1,85.4z"/>
	<path class="st0" d="M-471.2,251.2c2-0.8,3.9-1.3,5.6,0.5C-467.4,251.2-469.3,251.2-471.2,251.2z"/>
	<path class="st1" d="M-719.3,244.8c1.3-0.8,2.8-0.2,4.2-0.4c0.5,0,1,0,1.8,0c-1.4,1-2.9,0-3.9,0.9
		C-718,245.6-718.6,244.9-719.3,244.8z"/>
	<path class="st1" d="M-748.5,166.9c0,0.3-0.1,0.5-0.1,0.8c-1-1.1-2-2.3-3-3.4C-749.6,164.1-749.5,166.1-748.5,166.9z"/>
	<path class="st0" d="M-608.6,20.4c-0.8,1.7-2.4,1.6-3.9,1.4C-611.2,21.3-610,20.3-608.6,20.4z"/>
	<path class="st1" d="M-736,158.1c-0.2-0.4-0.3-0.8-0.4-1.2c1.7,0.5,2.6,2,3.6,3.2C-734.4,160.3-734.8,158.6-736,158.1z"/>
	<path class="st1" d="M-755.7,136.2c-0.7,0-1.4,0-2.2,0c-1.1-0.7-1.1-1.3,0-2c0,0,0.2-0.2,0.2-0.2
		C-757,134.8-756.3,135.5-755.7,136.2z"/>
	<path class="st1" d="M-649.2,128.4c0.8,2.6-1.5,2-2.6,2.6C-651.1,130-650.2,129.1-649.2,128.4z"/>
	<path class="st0" d="M-619.2,269.4c-1.3-1.1-1.4-2.2,0.2-3.1C-619.1,267.3-619.1,268.3-619.2,269.4z"/>
	<path class="st1" d="M-673.1,153.1c-0.6,0.9,0.9,3.7-2.1,2.2C-674.5,154.6-673.8,153.9-673.1,153.1z"/>
	<path class="st0" d="M-755.7,268.8c-0.4,0.3-0.7,0.7-1.1,1c-0.7,0-1.4,0-2.1,0c-0.4-0.2-0.9-0.4-0.5-1
		C-758.2,268.5-756.9,268.6-755.7,268.8z"/>
	<path class="st1" d="M-643.5,122.6c-0.3,1.8-1.4,2.8-3.1,3.2C-645.7,124.6-644.7,123.5-643.5,122.6z"/>
	<path class="st1" d="M-646.6,125.8c0.3,1.7-0.4,2.4-2.1,2.2C-648,127.2-647.3,126.5-646.6,125.8z"/>
	<path class="st1" d="M-640.9,120c-0.2,1.6-1.1,2.5-2.7,2.7C-642.8,121.6-641.9,120.8-640.9,120z"/>
	<path class="st1" d="M-722.5,240.3c-0.3,0.2-0.6,0.3-0.8,0.5c-0.1-0.5-0.1-1-0.2-1.5c0.2-0.9-0.3-1.9,0.5-2.6
		C-722.8,237.8-723.4,239.2-722.5,240.3z"/>
	<path class="st1" d="M-723,241.3c1.2,0.2,1.7,0.9,1.5,2.1C-722.3,242.9-723,242.3-723,241.3z"/>
	<path class="st1" d="M-771.7,119.6c-0.9,0-1.8,0.1-2.7,0.1C-773.6,118.2-772.7,118.3-771.7,119.6z"/>
	<path class="st1" d="M-761.5,152.9c0.2,0,0.4,0,0.5,0c1.8-0.3,1.9,0.7,1.6,2.1c-0.1,0.1-0.1,0.1-0.2,0.2
		C-760.2,154.4-760.8,153.6-761.5,152.9z"/>
	<path class="st0" d="M-618,26.5c0.7,1.6,0.1,2-1.4,1.6C-618.9,27.6-618.4,27-618,26.5z"/>
	<path class="st1" d="M-638.2,139c0-0.9,0-1.8,0-2.7c0.4,0,0.8,0.1,1.2,0.1C-637.1,137.4-637.5,138.2-638.2,139z"/>
	<path class="st0" d="M-759.4,268.8c0.2,0.3,0.3,0.6,0.5,1c-0.7,0-1.3,0-2,0C-761.2,268.3-760.1,268.8-759.4,268.8z"/>
	<path class="st1" d="M-704.8,185.1c-0.6-0.5-1.6-0.3-2-1.1c0.7-0.1,1.4-0.2,2.1-0.3c0.2,0.1,0.2,0.2,0.2,0.3
		c-0.1,0.1-0.1,0.1-0.2,0.1C-704.7,184.4-704.2,184.8-704.8,185.1z"/>
	<path class="st0" d="M-289.7,268.8c-1.2,0.9-2.5,0.9-3.7,0C-292.1,268.5-290.9,268.6-289.7,268.8z"/>
	<path class="st0" d="M-320.8,252.7c-1.5-0.1-0.8-1.3-1.1-2.1C-321.2,251.1-320.8,251.8-320.8,252.7z"/>
	<path class="st1" d="M-739.7,177.9c0.2,0,0.4,0,0.6,0c0.7,0,1,0.4,1.1,1c0,0.2-0.1,0.5-0.1,0.7C-738.6,179-739.2,178.5-739.7,177.9
		z"/>
	<path class="st1" d="M-737,181c1.3-0.2,1.4,0.7,1.5,1.6C-736.1,182.2-736.7,181.7-737,181z"/>
	<path class="st0" d="M-321.9,263.2c0.1-1,0.2-1.9,1.4-2.2C-320.8,261.9-321.1,262.7-321.9,263.2z"/>
	<path class="st0" d="M-605.9,19.9c0.2,0.5,0.4,1-0.5,0.7c-0.5-0.2-1.1-0.2-1.7-0.3C-607.5,19.7-606.7,19.8-605.9,19.9z"/>
	<path class="st1" d="M-704.8,184.1c0-0.1,0-0.3,0-0.4c0.9-0.2,1.7-0.5,2.6-0.7C-702.6,184.3-703.8,184.1-704.8,184.1z"/>
	<path class="st0" d="M-648.1,59.7c0.1,0.9,0,1.7-1.2,1.7C-649.2,60.6-648.8,60.1-648.1,59.7z"/>
	<path class="st0" d="M-481.7,276.2c0.3-0.5,0.8-0.9,1.2-0.4c0.3,0.4-0.3,0.6-0.6,0.8C-481.3,276.5-481.5,276.4-481.7,276.2z"/>
	<path class="st0" d="M-606,25c-0.3,0-0.7,0-0.7-0.5c0-0.5,0.4-0.5,0.7-0.5c0.3,0,0.7,0,0.7,0.5C-605.2,24.9-605.6,24.9-606,25z"/>
	<path class="st0" d="M-613.4,36c-0.3,0.1-0.5,0.3-0.7,0.3c-0.4,0-0.6-0.3-0.4-0.6c0.1-0.1,0.4-0.2,0.6-0.2
		C-613.7,35.6-613.6,35.8-613.4,36z"/>
	<path class="st1" d="M-354.7,190.3c0,8.5,0,17,0,25.5c-0.5-1.4-1.6-1.7-3-1.6c-1.1,0.1-2-0.5-2.2-1.3c-0.3-1,0.7-1.6,1.6-1.8
		c1.4-0.2,1-1.4,1-2.2c0-4,0-8.1,0-12.1c0-1-0.3-2.1,1.3-2.4c0.9-0.2,0.8-1,0.8-1.7C-355.2,191.9-355.5,191-354.7,190.3z"/>
	<path class="st1" d="M-422.9,112.3c0.3-1.6,1.6-1,2.5-1c10.6,0,21.2,0,31.8,0c0.3,0.6,0.2,1.1-0.4,1.2c-0.7,0.2-1.4,0.1-2.1,0.1
		c-9.8,0-19.5,0-29.3,0C-421.2,112.6-422.1,112.8-422.9,112.3z"/>
	<path class="st1" d="M-422.9,112.3c10.6,0,21.2,0,31.8,0c0.9,0,2.2,0.6,2.5-1c1.1,0,0.8,1.3,1.5,1.6c-12.1,0-24.3,0-36.4,0
		c-0.4,0-0.8-0.1-1-0.5C-423.9,112-423.4,112-422.9,112.3z"/>
	<path class="st1" d="M-315.7,112.4c-0.6,0.7-1.4,0.5-2.2,0.5c-10.3,0-20.7,0-31,0c-0.8,0-1.6,0.2-2.2-0.5c10.4,0,20.7,0,31.1,0
		C-318.6,112.4-317.1,111.5-315.7,112.4z"/>
	<path class="st1" d="M-380.7,113.4c0.8,1.4,0.3,2.6,0.4,3.9C-382.1,115.9-382.2,115.7-380.7,113.4z"/>
	<path class="st1" d="M-385.4,213.7c0-0.9,0-1.7,0-2.6c0.8,0.2,2.2-0.6,2.3,0.7C-382.9,213.2-384.5,213.2-385.4,213.7z"/>
	<path class="st1" d="M-396.9,85.8c2.8,0,5.5,0,8.3,0C-391.3,86.7-394.1,86.7-396.9,85.8z"/>
	<path class="st1" d="M-424.4,112.4c-0.8,0-1.3-0.3-1.5-1.1C-425.2,111.3-424.5,111.3-424.4,112.4z"/>
	<path class="st1" d="M-579.9,161.7c-1.3,0-2.1,2-3.6,1c-1.1,0-1.8-0.9-2.6-1.6c-1.1,2-0.3,4.3-1.6,6.4c-0.8,1.3-1.3,2.3-3,2
		c-0.7-0.1-1.5-0.1-1.6,0.9c-0.1,1.2,0.8,1.3,1.6,1.1c1.7-0.3,2.3,0.7,3,2c0.9,1.7,0.1,3.8,1.5,5.3c0.2,0.3-0.2,0.8-0.6,1
		c-1.2,0.5-1.3,1.5-1.4,2.5c0,0.8-0.1,1.7-1.2,1.6c-1,0-2.4,0.6-2.8-0.6c-0.5-1.7-1.7-1.4-2.8-1.4c-5.6-0.1-5.6-0.1-5.7,5.4
		c0,1.2,0.2,2.5-1.4,3c-0.3,0.1-0.6,0.5-0.6,0.7c0.6,4.8-3,3-5.3,3.3c-1.6,0.2-2.1-0.4-2.1-2c0-15.3-0.2-30.6,0.2-45.9
		c0.1-4.8-0.7-9.6-0.2-14.4c0.8-0.1,1.1,0.5,1.2,1.1c0.2,2.1,0.3,4.2,0.1,5.6c0.2-11.2,0-23.2-0.1-35.1c0-0.4,0.1-0.9,0.4-1.2
		c1.6-1.6,2.1-3.6,2.2-5.7c3.4,1.9,3.7,3.5,2.1,6.8c-0.9,1.7-1.1,3.8-2,5.5c-0.2,0.3-0.1,1,0.1,1.2c2.2,1.9,1.4,4.5,1.4,6.8
		c0.1,10.7,0,21.4,0,32.2c0,3.7,0,3.7,3.8,3.7c0.6,0,1.2,0,1.8,0c1.8,0,2.7-0.8,2.7-2.6c0.1-1.8-0.8-4.1,0.5-5.2
		c1.3-1.2,3.6-0.3,5.5-0.4c0.8-0.1,1.6,0,2.3,0c0,2.2,0,4.3,0,6.5c0,1.3,0.5,1.9,1.8,1.8c0.5,0,1,0,1.6,0c4.9,0,4.9,0,5-4.8
		c0-2.8,0.7-3.5,3.6-3.5c4.4-0.1,4.4-0.1,4.6,4.3c0.1,1.7,1,3.6-1.6,4.4c-0.5,0.2-0.3,1.1-0.3,1.7c0,1,0.1,2-1.3,2.1
		c-0.5,0.1-0.8,0.5-0.8,0.9c0.6,3.1-1.3,3.4-3.6,3.3C-579.5,161.3-579.7,161.6-579.9,161.7z"/>
	<path class="st1" d="M-582.6,138.9c1.5,1.4,3.2,1.6,5.2,1.6c17.8-0.1,35.5,0,53.3-0.1c2.2,0,3.2,0.6,3.6,2.9
		c0.5,2.9,0.1,5.7,0.3,8.5c0.1,1.2-2,1.2-1.5,2.7c-1.5,0.2-2.5-0.5-3.4-1.5c-1.3-1.6-1-2.9,1-3.1c3.7-0.3,2.1-3,2.3-4.7
		c0.2-2.4-1.8-1.5-3-1.6c-2-0.3-4.2,0.6-6-0.9c-0.2-0.2-0.7-0.2-1-0.1c-4.4,2-9,1-13.5,0.8c-2.7-0.1-5.7-1.6-8.2-0.7
		c-2.4,0.8-4.7,0.7-7,0.8c-1.1,0-2.2,0.2-3.2-0.7c-0.4-0.5-1.2-0.4-1.7-0.2c-3.6,1.5-7.2,1.4-10.9,0.1c-1.2-0.4-2.1,1-3.3,1.1
		c-0.4,0-0.7,0.6-1,0.7c-0.8,0.2-1.2-0.6-1.6-1.1c-1.5-1.9-5.6-1.7-4.5-5.8c0.3-1,0.7-1.2,1.6-1.3c1.1-0.1,1.5,0.5,1.4,1.3
		C-583.8,138.5-583.6,139-582.6,138.9z"/>
	<path class="st1" d="M-521.7,155c0,1.3,0,2.6,0,3.9c0,1-0.3,2,1.1,2.5c1.3,0.5-0.1,1.4-0.2,1.4c-1.5-0.5-2.8,0.6-4.3,0.6
		c-8.6-0.1-17.2-0.1-25.8-0.1c-1.3-0.7-2.8,0.2-4.2-0.5c0-0.2,0-0.3,0-0.5c1.3-0.7,2.8,0.2,4.2-0.5v0c1.1-0.5,2.5-0.5,3.5-0.2
		c3,0.9,5.9,0,8.9,0c0.3,0,0.7-0.1,1-0.1c-0.3-0.1-0.7,0-0.9-0.3c0.4-3,2.8-0.9,4.2-1.6c0.5,0.2,0.8,0.6,1.3,0.7
		c1.4,0.3,2.6,0.3,2.3-1.7c-0.1-0.6,0-1.2,0.5-1.6c1.7-0.2,3,1.9,4.8,0.7C-526.3,155-526.3,155-521.7,155z"/>
	<path class="st1" d="M-549.1,153.1c0.3,0.2,2.1-1,2.3,0.8c0.2,1.6,1,3.6-1.5,4.6c-1.6,0.7-2.2,3.2-4.6,2.7c-0.8-0.2-2,0.3-2-1
		c0-1.1-0.8-2.5,0.9-3.1c0.8-0.3,1.2-0.7,1.1-1.4C-553.3,153-551.9,152.5-549.1,153.1z"/>
	<path class="st1" d="M-530,157.1c0,0.6,0,1.2,0.2,1.8c0.2,1,0.9,2.3-0.8,2.3c-1.2,0-3.3,1.3-3.5-1.5c0.2-1.5-0.4-2.2-2-2.1
		c-0.8,0.1-1.9,0.3-2.1-0.9c-0.1-1.1-0.5-2.4,0.2-3.3c0.7-0.9,2-0.6,2.9-0.3c1.5,0.3,0.8,1.7,0.9,2.6c0.1,0.7,0.2,1.4,1.1,1.4
		c0.8,0,0.8-0.7,1-1.3c0.2-1-0.7-2.7,1.1-2.6c1.8,0.1,0.7,1.9,1,3C-529.9,156.4-530,156.7-530,157.1z"/>
	<path class="st1" d="M-606.5,96.7c1.4,2.8,0,4.6-2.1,6.2c-0.5,0.4-1,0.4-1.6,0c-0.7-0.5-0.5-1.2-0.5-1.9c0-1.8,0.1-3.8-1.3-5.2
		c-0.9-0.8,0.4-1.6-0.3-2.3c0.5-0.3,1-0.7,1.6-1c0.8-0.6,1.6-0.9,2.2,0.3c0.3,0.7,1,1.1,1.4,1.8C-607.1,95.4-606.8,96.1-606.5,96.7z
		"/>
	<path class="st1" d="M-515.5,85.8c0.7,0,1.4,0,2.1,0c-0.1,0.6-2.1,0.4-0.5,1.7c1.1,0.9,0.6,1.9-0.9,1.9c-1.8,0-3.6,0.1-5.5,0
		c-1.9-0.1-1.6-2.4-3-3.1C-520.7,85.6-518,86.6-515.5,85.8z"/>
	<path class="st1" d="M-563.3,163.3c-3.1-0.3-6.1,0.5-9.2,0.5c-1.5,0-3-0.2-4.4-1c0.9,0,1.7,0,2.6,0c0-0.8-1-0.3-1.1-1.2
		c4.9-0.8,9.8,0.1,14.6,0c-2.1,0.3-4.1,0.6-6.3,0.9C-565.8,163.3-564.3,162.2-563.3,163.3z"/>
	<path class="st1" d="M-530,112.3c-8.3,0-16.6,0-25,0c0.2-1.3,1.2-1,2-1c7,0,14,0,21,0C-531.2,111.3-530.2,111.1-530,112.3z"/>
	<path class="st1" d="M-607,94.7c-1,0.1-1.7-0.4-1.9-1.3c-0.2-1.3-1-0.8-1.7-0.8c0.3-2.2,2.2-3,3.7-4.1c0.3,0.7,0.7,1.4,1,2.1
		C-604.8,92.3-604.4,93.8-607,94.7z"/>
	<path class="st1" d="M-538.3,161.2c0.8,0,1.7,0,2.5,0c0,0.1,0,0.2,0,0.4c-2.7,0.4-5.4,0.8-8.1,1.2c-2.4,0.3-4.5-1.7-6.9-1
		c0-0.2,0-0.3,0-0.5C-546.7,161.2-542.5,161.2-538.3,161.2z"/>
	<path class="st1" d="M-581,112.8c0-0.2,0-0.3,0-0.5c0.1-0.3,0.3-0.9,0.4-0.8c1.1,1.4,2.6,0.7,4,0.8c7.2,0.1,14.4,0,21.6,0
		c0,0.2,0,0.3,0,0.5C-563.7,112.8-572.3,112.8-581,112.8z"/>
	<path class="st1" d="M-568.6,152.8c2.8,0.4,4.1-0.3,3.7-2.8c-0.1-0.5,0.1-1.1,0.8-1.1c0.7,0,0.7,0.6,0.8,1.1c0,0.5,0.1,1,0,1.5
		c-0.1,0.9,0.6,2.4-0.7,2.7C-565.4,154.7-567,154.9-568.6,152.8z"/>
	<path class="st1" d="M-587.2,114.4c0,0.3,0,0.7,0,1c0,1.3-0.2,2.7,1.1,4.1c-1.6-0.2-3.1,0.9-3.7-0.9
		C-590.4,116.4-589.3,115.1-587.2,114.4z"/>
	<path class="st1" d="M-588.3,136.4c0-2,0-3.5,0-5c0-0.5,0-1.2,0.7-1.1c0.6,0,1.2,0.3,1.3,1.1C-586.1,133.1-586,134.8-588.3,136.4z"
		/>
	<path class="st1" d="M-513.4,112.3c-2.8,0-5.6,0-8.3,0c0.1-0.7,0.5-1,1.2-1c2,0,3.9,0,5.9,0C-513.9,111.3-513.5,111.6-513.4,112.3z
		"/>
	<path class="st1" d="M-515.5,85.8c-2.5,1.1-5.2,0.2-7.8,0.5c-2.2-0.3-4.6,0.6-6.7-0.5C-525.1,85.8-520.3,85.8-515.5,85.8z"/>
	<path class="st1" d="M-587.7,142.8c0.5,0.3,1.1,0.6,1.2,1.2c0.1,0.6-0.6,0.5-1,0.5c-0.3,0-0.9,0.3-0.8-0.5
		C-588.2,143.6-588.4,143-587.7,142.8z"/>
	<path class="st1" d="M-555,162.8c1.4,0.2,2.9-0.5,4.2,0.5c-1.4,0-2.8,0-4.2,0C-555,163.1-555,163-555,162.8z"/>
	<path class="st1" d="M-550.8,161.7c-1.3,1-2.8,0.3-4.2,0.5C-553.7,161.2-552.2,162-550.8,161.7z"/>
	<path class="st1" d="M-721.4,240.2l-0.3,0c0,0-0.3,0-0.3,0c-0.4-1.3-0.5-2.7-0.5-4.1c0-10.1,0-20.3,0-30.4c0-0.9-0.2-1.8,0.3-2.6
		c0.2,0,0.5,0,0.7,0C-721.4,215.5-721.4,227.9-721.4,240.2z"/>
	<path class="st1" d="M-717.3,177.9c0.8,2.5,2.3,4.1,5,4.4c1.2,0.1,0,2.4,1.7,1.9c-1,0.8-1,0.8,0.6,1.6c-4.6,1.4-7.1-1.9-9.8-4.7
		c-0.6-0.7-1.2-2-0.6-2.9C-719.6,177.1-718.3,177.8-717.3,177.9z"/>
	<path class="st1" d="M-723,236.1c-0.8-0.9-0.5-2-0.5-3c0-11.7,0-23.3,0-35c0.8,0.7,0.5,1.6,0.5,2.4C-723,212.4-723,224.3-723,236.1
		z"/>
	<path class="st1" d="M-725.6,191.4c-2.2-0.7-1.6-2.6-1.6-4.2c1-0.2,2,0.3,3,0.2c0.8,0,1.1,1.4,1,2.3
		C-723.3,191.2-724.3,191.5-725.6,191.4z"/>
	<path class="st1" d="M-683.5,190.3c-0.7,0.3-1.2,1.1-2.1,1.1c-1.7-2.7-1.7-2.9,1.9-3.2C-683.3,188.8-684,189.6-683.5,190.3z"/>
	<path class="st1" d="M-729.8,186.2c-0.3,0-0.7,0-1,0c-0.6-1,0.2-1.5,1-2.7C-729.8,184.8-729.8,185.5-729.8,186.2z"/>
	<path class="st1" d="M-679,178.7c-0.4,0-0.6-0.1-0.5-0.4c0.1-0.2,0.4-0.3,0.6-0.4c0.1,0,0.2,0.2,0.4,0.2
		C-678.8,178.4-678.9,178.6-679,178.7z"/>
	<path class="st1" d="M-197.1,216.3c-1,0-2.1,0-3.1,0c-1.2-0.8-2.4-0.8-3.6,0c-2.4,0-4.9,0-7.3,0c-1.9-0.7-3.9-1.4-6-1.4
		c-1,0-2.4-0.5-2.4,1.4c-6.4,0-12.8,0-19.2,0c-0.6-1,0.2-1.2,0.9-1.5c-3.6,0.4-7.2,0.2-10.8,0.2c-1,0-1.9-0.1-2.8-0.6
		c-1.2-0.7-2.4-0.8-3.7,0c-0.5,0.3-1.1,0.5-1.7,0.5c-4.2-0.2-8.4,1.4-12.6,0.9c-3.4-0.5-6.9-0.4-10.1-1.9c-1.3-0.6-2.7-0.3-4.1-0.4
		c-1.7-0.1-3.5,0.4-5.1-0.6c-0.4-0.6-0.4-1.1,0.1-1.7c6.1,0,12.2,0,18.4,0c1.1,0,2.3,0.3,2.6-1.4c0.2-1,1.3-0.7,2-0.7
		c1.6,0.1,2.2-0.6,2-2.1c0.9,0.1,2-0.2,2.1,1.3c0,1.4,0.3,3-1.9,3.5c2.9,0.2,5.6,1.1,8.3-0.3c0.8-0.4,1.5-0.4,2.3-0.4
		c2.5,0,5-0.1,7.5,0c1.8,0.1,2.9-0.3,2.6-2.4c-0.2-1.3,0.5-1.9,1.8-1.8c1.5,0.2,2.5-0.2,2.4-2.1c0-1.4,1-2.1,2.4-2.1
		c7.1,0,14.2,0,21.3,0.1c0.9,0,1.7-0.2,2.6-0.1c1.2,0.1,2.7-0.6,2.8,1.6c0.1,1.9-0.4,2.8-2.4,2.5c-1.6-0.2-1.8,0.8-1.8,2.1
		c0,1.1,0,2.2,1.6,2c5.1-0.5,10,1.8,15.1,1c0.4,0.3,0.5,0.7,0.6,1.2C-196.4,214.4-196.3,215.5-197.1,216.3z"/>
	<path class="st1" d="M-263.2,164.4c-0.9,0.8-0.5,2-0.5,2.9c0,7.2,0,14.3,0,21.5c-1.3-0.4-0.7-2-1.5-2.6c-1.2,0.6-2.4,0.1-3.6,0
		c0-4.4,0-8.7,0-13.1c0-1.6,0-3.2-1.1-4.6c0.4-1,1.4-1.4,2.1-2.1c1.5-0.5,2.3-1.9,3.4-2.9c0.7-0.6,1.2-1.5,2.3-1.3
		c2.3-0.1,4.4,1.7,6.8,1c3.3-0.3,6.6-0.8,10-0.8c8.5,0.1,16.9,0,25.4,0c2.6,0,5.2-0.1,8,0.8c-0.8-0.5-1.5,0-2-1.1
		c2.3,0,3.9-2.1,6.5-1.7c1.8,0.3,3,0.9,3.1,2.8c-1,1.2-2.5,1-3.8,1C-226.6,164.3-244.9,164.3-263.2,164.4z"/>
	<path class="st1" d="M-197.1,193.5c1.3,0.1,2.6-0.3,3.6,0.2c-0.9,5.9-0.2,11.7-0.4,17.5c-0.2,0.2-0.5,0.4-0.9,0.4
		c-1.8,0-1.7-1.3-1.7-2.5c0-3.9,0-7.9,0-11.8c0-0.9,0.2-1.9-0.5-2.7c-18.4,0-36.9,0-55.3,0c-1,0-2.1,0.4-3-0.5c0.6-1.7,2-1,3.1-1
		c15.6-0.1,31.1,0,46.7,0C-202.8,193.2-199.9,192.4-197.1,193.5z"/>
	<path class="st1" d="M-267.9,166.4c-0.3,1.1-1,1.8-2.1,2.1c-1.5,0.2-2.2-0.3-2.1-2c0.3-3.8-0.9-5.1-4.5-5.7
		c-2.9-0.4-4.5-3.7-3.2-6.3c0.3-0.7,1-1,1.7-1c0.8-0.1,1.6,0.1,2.3-0.1c2.7-0.8,3.2,0.6,3.2,2.9c0,4.8,0,4.8,4.8,4.9
		c0.5,0,1,0.1,1.7,0.1c-0.6,1.5-2.2,1.7-2.9,2.8c-0.4,0.6-1,1.1-0.8,1.8C-269.4,166.8-268.5,166.3-267.9,166.4z"/>
	<path class="st1" d="M-288.7,198.7c0-1.4,0-2.8,0-4.2c1.8,0,3.6,0,5.4,0c2.1-0.1,2.9,1,2.9,3c0.1,5.1-1.8,6.6-6.8,5.3
		C-289.5,202.1-288.4,200.1-288.7,198.7z"/>
	<path class="st1" d="M-288.7,211.1c0,0.5,0,1,0,1.6c1.3,1.4,2.9,0.6,4.4,0.8c1.4,0.1,2.8-0.1,4.1,0.2c0.6,0.1,1.4,0.2,1.3,1
		c0,0.8-0.7,1.1-1.5,1.2c-1.8,0.1-3.6,0-5.4,0.1c-1,0-2.1-0.3-3,0.5c-0.7,0.9-1.4-0.2-2.1,0c0.1-1.3-0.4-2.6,0.9-3.6
		c-1.2-1.1-2.7-0.1-3.7-0.9c0.1-0.2,0.2-0.5,0.3-0.5c3.6-0.5,3.6-0.5,3.6-4.3c0-1.4,0-2.8,0-4.2c1.3,0.2,1,1.1,1,2
		C-288.7,206.9-288.7,209-288.7,211.1z"/>
	<path class="st1" d="M-205.5,193.5c-15.7,0-31.3,0-47,0c-1,0-2.1-0.4-3,0.5c-1,0-1.2-0.9-1.6-1.5c0.5,0,1.1,0,1.6,0
		c0.9,0.4,1.9,0.2,2.8,0.2c14.9,0,29.8,0,44.7,0C-207,192.7-205.9,192-205.5,193.5z"/>
	<path class="st1" d="M-269.9,196c-2,0.4-2.7-2-4.5-1.9c-0.2,0-0.2-0.8,0.3-1.1c0.9-0.6,2-0.8,2.6-1.9c0.3-0.5,1.6-0.3,1.6,0.5
		c0.2,2,3.6-0.1,2.9,2.4C-267.4,195.1-268.2,196.6-269.9,196z"/>
	<path class="st1" d="M-197.1,194.5c1.5,0.2,1,1.4,1,2.3c0,4.1,0,8.3,0,12.4c0,1.1,0,2.1,1.6,2c0.5,0.7,0.7,1.5,0,2.1
		c-0.8,0.8-1.7,0.6-2.6,0c0-0.3,0-0.7,0-1C-197.1,206.3-197.1,200.4-197.1,194.5z"/>
	<path class="st1" d="M-268.9,186.2c1.2-1.3,2.4-0.1,3.6,0c-1,1.1-1,3-3.5,2.8c-1.5-0.1-3-0.2-3.1-1.6
		C-272,185.2-269.9,186.6-268.9,186.2z"/>
	<path class="st1" d="M-270.5,176c-0.2,0.7,0.3,1.9-0.9,1.7c-1.1-0.2-0.6-1.4-0.6-2.2c-0.1-0.6-0.2-1.7,0.8-1.6
		C-270,174-270.7,175.2-270.5,176z"/>
	<path class="st1" d="M-263.7,205.4c-0.3,0.5,0.6,1.5-0.5,1.5c-1.3,0-1.1-1.1-1-1.9c0-0.7-0.4-2.1,0.8-2
		C-263.2,203.2-264,204.6-263.7,205.4z"/>
	<path class="st1" d="M-267.8,151c-0.2,0.7,0.3,1.8-0.9,1.7c-1-0.1-0.6-1.2-0.6-1.9c0-0.7-0.3-1.9,0.8-1.8
		C-267.4,149-268.1,150.3-267.8,151z"/>
	<path class="st1" d="M-275.3,163.9c0.4,0.1,0.6,0.3,0.6,0.7c0,0.5-0.4,0.7-0.9,0.6c-0.4-0.1-0.5-0.4-0.4-0.8
		C-276,164-275.7,163.9-275.3,163.9z"/>
	<path class="st1" d="M-263.7,113.4c0,8.1,0,16.3,0,24.4c-2,1.3-4.1,1.9-6.4,1.6c-0.9-0.1-1.8,0-1.8-1.3c-0.1-1.1,0.1-2,1.4-1.9
		c1.4,0.1,1.6-2.3,3.5-1.5c0.4,0.2,0.2-1.2,0.3-1.8c0-0.4,0.2-1.4-0.3-1.2c-2.1,0.7-1.8-0.8-1.7-1.8c0.1-1.8-0.9-1.9-2.3-1.9
		c-4.9,0-9.9-0.1-14.8,0.1c-2.2,0.1-3-0.6-2.7-2.8c0.1-0.9,0-1.7,0-2.6c0-0.5,0.1-1.4,0.6-1.3c2.4,0.5,3.8-1.9,5.9-1.7
		c1.4,0.1,1.8-0.6,1.8-1.9c-0.1-1.6,0-3.1,0-4.7c-0.1-1.4,0.5-1.8,1.8-1.8c2.2,0.1,4.3,0,6.6,0.1c1.1,1.6,0.5,3.6,0.7,5.4
		c0.1,0.7,0,1.6,0.8,1.6c0.9,0,0.8-1,0.8-1.6c0-2.2,0.7-4.7-2.3-5.4c-0.1-2.2-0.1-4.2-0.1-6.3c4.3,0,5.5,0.9,6.2,5.1
		c0.3,1.5,2.2,0.7,2.1,2.2C-263.7,112.7-263.7,113.1-263.7,113.4z"/>
	<path class="st1" d="M-191.9,98.8c0,3.5,0,6.9,0,10.4c0,2.1-0.7,3.2-3.2,3.2c-6.2-0.1-12.5,0-18.7-0.1c-2.8-0.4-5.5-0.4-8.3,0
		c-2.8,0-5.6,0-8.3,0c-1.4-0.4-2.8-0.4-4.2,0c-1.4,0-2.8,0-4.2,0c-0.2-0.1-0.3-0.3-0.3-0.5c0-0.2,0.1-0.4,0.3-0.5c1,0,2.1-0.1,3.1,0
		c2.5,0.1,5,0.4,6.3-2.6c1.6-0.5,3.5,0.1,4.7-1.9c0.7-1.1,1.4,0,1.6,0.9c0.3,1.2,0,2.6,1,3.6c3.2,0,6.4,0,9.6,0
		c0.7,0,1.8,0.2,1.8-0.9c0-2.4,1.7-2.1,3.2-2.2c1.7-0.1,3.4-0.1,2.2-2.8c-0.8-1.7,0.7-3.1,2.3-2.2c1.8,1,3.5,0.1,5.2,0.2
		c1.1,0.1,1.7-0.8,1.8-2.1c0.1-2-0.5-4.6,2.9-4.6c0.1,0,0.3-1,0.5-1.7C-192,96.4-193,97.8-191.9,98.8z"/>
	<path class="st1" d="M-198.7,86.4c0.6,2.1-0.2,2.8-2.3,2.6c-1.9-0.1-3.8-0.3-5.6,0.4c-0.9,0.4-1.9,0.7-0.4,1.6
		c1.1,0.7,2,1.7,1.4,2.9c-0.7,1.4-2.3,0.9-3.2,0.6c-1.6-0.5-3.4-0.6-4.6-2c-0.8-0.9-2.1-0.3-3.2-0.4c-0.5-0.1-1.1-0.1-1.1-0.8
		c0-0.7,0.6-0.8,1.1-0.7c2.4,0.2,4.2-0.2,3.9-3.2c0-0.6,0.4-0.9,1-1c0.7-0.1,1.4,0,1.6,0.9c0.2,0.9,0.9,1.4,1.3,0.4
		c0.7-1.9,2.2-1.2,3.4-1.4C-203.2,85.9-200.9,85.9-198.7,86.4z"/>
	<path class="st1" d="M-255.4,85.8c2.8,0,5.6,0,8.3,0c0.2,0.1,0.2,0.2,0.2,0.3c-0.1,0.1-0.1,0.2-0.2,0.2c-0.8,0-1.6,0-2.3,0
		c-1.3-0.1-2,0.4-1.8,1.8c0.3,2.1-0.7,2.5-2.6,2.4c-2.6-0.1-5.2-0.1-7.8,0c-1.5,0-2.2-0.4-2.2-2c0-1.8,0.7-2.2,2.3-2.2
		C-259.4,86.3-257.3,86.9-255.4,85.8z"/>
	<path class="st1" d="M-223.2,99.1c0.6,2.5-0.2,3.6-3,3.4c-3.1-0.2-3-0.1-3.2-3.6c-0.2-2.6,0.6-3.3,3.3-3.3
		C-223.3,95.6-222.7,96.7-223.2,99.1z"/>
	<path class="st1" d="M-238.8,86.3c2.1,0,4.1,0.1,6.2,0c1.5-0.1,2.2,0.4,2.2,2c0,1.5-0.4,2.3-2,2.2c-1.5-0.1-2.9,0-4.4,0
		c-0.3,0-1,0-1-0.1c-0.7-2.5-3-2.5-4.9-3.1c-0.2-0.1-0.1-0.6-0.2-1C-241.5,85.9-240.1,85.9-238.8,86.3z"/>
	<path class="st1" d="M-255.6,108c-1.9-0.7-1.9-2-1.9-3.5c0-1.2,0-2.4,0-3.6c0-0.8-0.3-1.9,1-2c1-0.1,2.3-0.6,2.9,0.5
		c0.5,0.9,0.7,2.8-0.1,3.1c-2.5,1-1.5,2.9-1.8,4.5C-255.4,107.3-255.5,107.5-255.6,108z"/>
	<path class="st1" d="M-249.8,107.1c-1.3,0.4-1.5-0.3-1.5-1.5c0.1-1.4-0.2-2.7,2-2.7c1.7,0,2.2,0.6,2.2,2.2
		C-247,107.3-248.3,107.2-249.8,107.1z"/>
	<path class="st1" d="M-247.1,112.3c-2.8,0-5.5,0-8.3,0c1.3-1.1,2.4-2.2,2.2-4.2c-0.2-1.2,1.2-0.9,2-1c0,0.4,0.1,0.9,0,1.3
		c-0.3,2.2,0.4,3.3,2.8,2.9c0.5-0.1,1,0,1.4,0.5c0.2,0.1,0.2,0.2,0.2,0.3C-246.9,112.3-247,112.3-247.1,112.3z"/>
	<path class="st1" d="M-222.1,111.3c-2.4-0.7-1.1-2.9-1.9-4.6c-1.4,1.9-3.3,2.3-5.3,2c1.5-0.8,3.4-0.5,4.6-2.3
		c0.8-1.2,2.6-0.1,2.6,1.5C-222.1,109.1-222.1,110.2-222.1,111.3z"/>
	<path class="st1" d="M-270.4,96.7c-0.1,1,0.2,2.2-1.1,2.1c-1.3-0.1-0.4-1.2-0.4-1.7c-0.1-0.7-0.5-2,0.6-2.1
		C-269.9,94.8-270.8,96.2-270.4,96.7z"/>
	<path class="st1" d="M-261.6,105.6c0.8,0.1,1.8-0.2,1.8,0.7c0,1.3-1.2,0.8-2,0.8c-0.7,0-1.9,0.3-1.8-0.8
		C-263.4,105.1-262.1,105.9-261.6,105.6z"/>
	<path class="st1" d="M-247.1,112.3c0-0.2,0-0.3,0-0.5c1,0,2.1,0,3.1,0c1.7-0.4,3.5-0.4,5.2,0c0,0.2,0,0.3,0,0.5
		C-241.5,112.3-244.3,112.3-247.1,112.3z"/>
	<path class="st1" d="M-222.1,85.8c2.8,0,5.5,0,8.3,0C-216.6,86.7-219.3,86.7-222.1,85.8z"/>
	<path class="st1" d="M-238.8,86.3c-1.4,0-2.8,0-4.2,0c-1.4,0-2.8,0-4.2,0c0-0.2,0-0.3,0-0.5c2.8,0,5.5,0,8.3,0
		C-238.7,86-238.7,86.2-238.8,86.3z"/>
	<path class="st1" d="M-198.7,86.4c-2.3,0-4.5,0-6.8,0c0-0.2,0-0.3,0-0.5c2.8,0,5.5,0,8.3,0c0,0.2,0,0.3,0,0.5
		C-197.6,86.4-198.2,86.4-198.7,86.4z"/>
	<path class="st1" d="M-238.7,111.8c-1.7,0-3.5,0-5.2,0c1.6-1.1,3.5-0.3,5.2-0.5C-238.7,111.5-238.7,111.7-238.7,111.8z"/>
	<path class="st1" d="M-263.3,103.3c0.8-0.4,1.5-0.4,2.3-0.1C-261.8,103.7-262.5,103.6-263.3,103.3z"/>
	<path class="st1" d="M-259.6,111.8c-0.2-0.2-0.3-0.4-0.5-0.5c0.5,0,0.6-1.4,1.3-0.6C-258.4,111.2-259.1,111.6-259.6,111.8z"/>
	<path class="st1" d="M-204.4,163.3c-2.5-4.2-5.8-1.1-8.7-0.9c0.3,0.6,0.9,0.3,1.4,0.4c0.5,0.1,1,0,1.5,0.5c-15.1,0-30.1,0-45.2,0
		c2.6-0.4,5.1-1.7,7.8-2.1c-1.9,0-3.7-0.1-5.6,0c-1.5,0.1-2.4-0.3-2.2-2c0.2-1.7-0.5-2.4-2.2-2.2c-0.8,0.1-1.9,0.2-1.8-1.1
		c0.1-1.1,1.1-1,1.8-0.9c1.9,0.2,2.4-0.7,2.3-2.4c-0.1-1.7-0.1-3.5,0-5.2c0.1-1.5,0-2.8-2-3.5c3.1,0.1,6-1.8,8.5-1.2
		c7.8,1.7,15.6,0.6,23.4,0.7c3.5,0,7,0.1,10.5,0.2c3.2,0.1,6.1-0.5,9.3-1.4c-1.1-1.3-2.3-1.8-4-1.8c-14.7,0.1-29.4,0.1-44.2,0
		c-1.9,0-3.3,1.2-5.1,1.5c-2.1,0.4-2.8-0.4-2.3-2.4c19.4,0,38.9,0,58.3,0c1.5,3,1,6.2,1,9.4c0,3.5,0,7.1,0,10.6
		C-201.8,161.2-202.3,162.8-204.4,163.3z"/>
	<path class="st1" d="M-582,192.4c0.2,0,0.3,0,0.5,0c0.4,0.7,1.1,1.2,0.7,2.2c-0.4,0.5-1,0.6-1.3,1.1c-1,0.6-1,1.2,0,1.8
		c0.1,0.1,0.2,0.2,0.2,0.2c-0.1-0.1-0.2-0.2-0.3-0.3c-0.3-0.6-0.3-1.1,0.1-1.7c0.7-0.7,1.7-0.8,2.4-1.6c0.3-0.1,0.6-0.2,0.9-0.3
		c21.5-0.2,43-0.1,64.4-0.1c0.5,0,1,0,1.5,0.2c1.7,2.6,2.6,5.5,1.9,8.6c-0.8,3.8-1.4,7.6-0.2,11.4c0.4,1.3-0.6,1.7-1.1,2.3
		c-24.3,0-48.5,0-72.8,0c1-2,2.7-2.2,4.7-2.1c2.3,0.1,4.7,0,7,0c0.9,0,1.8,0,1.8-1.3c0-1.1-0.5-1.8-1.7-1.8c-0.8,0-1.6,0-2.3,0
		c-0.7,0-1.8-0.3-1.8-0.7c0.2-2.8-3.4-4.1-2.5-7.1c0.5-1.8-0.3-2.6-2.3-2.6c-1.9-0.1-3.4-1.9-5.5-1.8c-0.6,0-0.5-1.4-0.4-2.1
		c0.1-1.6-0.4-2.5-2.2-2.2c-1.6,0.2-2-0.6-2.1-2.1c0-1.6,0.6-2.1,2.1-2.1c2.2-0.1,3.8,0.2,3.7,2.9c-0.1,0.8,0.9,1.6,1.2,1.1
		C-584.6,192.9-582.9,193.4-582,192.4z"/>
	<path class="st1" d="M-609.1,213.2c-0.2-0.2-0.4-0.3-0.5-0.5c-0.5-1-1.7-1.8-1-3.1c0.3,0,0.9,1.4,1-0.1c0.1-1.1,0.5-1.6,1.6-1.4
		c1.1,0.1,0.9,1,1,1.8C-606.7,211.6-606.8,213-609.1,213.2z"/>
	<path class="st1" d="M-586.2,161.2c1.3-0.2,1.8,0.9,2.6,1.6c-0.6,1.1-0.4,3.1-2.6,2.6C-586.2,164-586.2,162.6-586.2,161.2z"/>
	<path class="st1" d="M-648.6,149.3c-0.7,0.5-1.4,1-2.1,1.6c-1.9,0-2.4-1.4-2.2-2.7c0.2-1.2,1.5-1.6,2.9-1.5
		C-648,146.7-648.8,148.2-648.6,149.3z"/>
	<path class="st1" d="M-668.4,172.7c-0.3,1.2-1.8-0.1-2.1,1.1c-0.1-1.8,0.5-3.2,2.1-4.2C-666.8,170.6-668.4,171.6-668.4,172.7z"/>
	<path class="st1" d="M-757.9,134.2c-0.4,0.7-0.4,1.4,0,2c-0.3,0.5-0.3,1,0,1.6c-0.2,1.1,0.1,2.5-1.9,1.6c-0.3-0.1-0.8,0.1-1.2,0.3
		c-0.6,0.3-1.3,1.3-2,0.7c-0.8-0.8-1.4-1.9-1.5-3.2c-0.1-0.5,0.2-1,0.6-0.9c1.7,0.8,2.2-1.4,3.6-1.3c1.1,0.1-1-1.6,0.7-1.4
		C-759,134.3-758.4,134.2-757.9,134.2z"/>
	<path class="st1" d="M-771.9,123.8c1.3-0.2,5.1,1.8,5.3,3c0.3,1.5-1.3,1.5-1.6,1.1c-1.6-1.8-3-1.8-4.5,0c-0.1,0.1-0.6-0.1-1.1-0.2
		C-773.1,126.3-772.5,125.1-771.9,123.8C-771.9,123.8-771.9,123.8-771.9,123.8z"/>
	<path class="st1" d="M-759.4,155c-0.2-0.9-0.4-1.9-1.6-2.1c0-1,1.6-1.4,1-2.6c2.1-1,3.2-0.8,3.3,1.9c0,0.9,0,1.8-0.1,2.8
		c0.3,0.3,0.3,0.7,0,1C-758,156.4-758.1,154.3-759.4,155z"/>
	<path class="st1" d="M-746.4,165.1c0,0.6,0,1.1-0.5,1.1c-0.3,0-0.7-0.2-0.9-0.4c-1-0.9-1.1-2.6-2.9-2.7c-0.2,0-0.3-0.9,0-1.4
		c0.3-0.4,0.8-0.6,1.1-0.3C-748.4,162.6-747.4,163.9-746.4,165.1z"/>
	<path class="st1" d="M-770.2,136.3c1.3,0,2.2,0,3.1,0c0.7,0,1.4,0.1,1.4,1.1c0,1-0.8,0.9-1.5,1C-768.5,138.5-769.5,138-770.2,136.3
		z"/>
	<path class="st1" d="M-734.7,169.3c1.3-1.9,1.3-1.9,4.3-0.1C-731.9,169.7-733.3,169.6-734.7,169.3z"/>
	<path class="st1" d="M-753.9,141.4c0.3,1,1.9,1.4,1.1,2.7c-0.2,0.4-1,0.7-1.4,0.3C-755.4,143.3-754.1,142.4-753.9,141.4z"/>
	<path class="st1" d="M-756.8,156c0-0.3,0-0.7,0-1c0.6,0.8,2.6,0.2,2.1,2.1c-0.4,0-0.2,1.9-1.1,0.3
		C-756.1,156.9-756.5,156.5-756.8,156z"/>
	<path class="st0" d="M-609.2,53.3c-0.1,0.9-0.6,1.5-0.9,1.4c-1.2-0.5-2.3-1.3-3-2.4c-0.2-0.4,0.3-0.9,0.7-0.7
		C-611.3,52.1-610.2,52.8-609.2,53.3z"/>
	<path class="st1" d="M-293.3,177.9c0.6-2.7-1.3-5.3,0-8C-292.7,172.5-292.7,175.2-293.3,177.9z"/>
	<path class="st1" d="M-293.4,177.9c0,3.9,0,7.9,0,11.8c-0.1,0-0.1,0-0.2,0c0-3.9,0-7.9,0-11.8
		C-293.6,177.9-293.5,177.9-293.4,177.9z"/>
	<path class="st1" d="M-293.2,139.9c0-2.4,0-4.7,0-7.1c0.1,0,0.1,0,0.2,0c0,2.4,0,4.7,0,7.1C-293.1,139.9-293.1,139.9-293.2,139.9z"
		/>
	<path class="st1" d="M-294.4,209c0-2.1,0-4.1,0-6.2c0.9,1.7,0.4,3.7,0.9,5.5C-293.3,208.8-293.9,209-294.4,209z"/>
	<path class="st1" d="M-292.4,194.3c-1-1.4-1-2.5,0-3.6C-292.4,191.9-292.4,192.9-292.4,194.3z"/>
	<path class="st1" d="M-354.7,152.9c0,11.1,0,22.2,0,33.3c-0.9-0.9-0.5-2-0.5-3c0-3.6,0-7.1,0-10.7c0-1.3,0.5-2.8-1.6-3.3
		c-0.8-0.2-0.5-1.4-0.5-2.1c0-3.9,0.1-7.8-0.1-11.7C-357.5,153.4-356.8,152.6-354.7,152.9z"/>
	<path class="st1" d="M-613.2,202.8c0-33.3,0-66.5,0-99.8c1,0.9,1,2.1,1,3.3c0,28.6,0.1,57.2-0.1,85.7
		C-612.4,195.6-612.2,199.3-613.2,202.8z"/>
	<path class="st1" d="M-610.1,103c0.5,0,1,0,1.6,0c0.5,1.8,0.8,3.7,0.1,5.6c-0.6,1.6,0.4,3.2,0.4,4.8c-0.1,5.7,0.2,11.4-0.1,17.1
		c-0.2,3.1-0.4,6.2-0.4,10c-1.2-3.2,0.6-6.2-1.5-8.4c0-1.4,0-2.8,0-4.2c0.4-0.5,0.6-1.1,0.5-1.7c-0.5-5.6,0.3-11.3,0-16.9
		c0-0.8-0.1-1.5-0.5-2.2C-610.1,105.8-610.1,104.4-610.1,103z"/>
	<path class="st1" d="M-610.1,107.1c1,0.8,1.1,1.9,1,3.1c-0.2,3.5,0.4,7.1-0.5,10.6c-0.3,1.1,0.1,2.2,0.3,3.3c0.2,1.3,1,2.9-0.8,3.8
		C-610.1,121-610.1,114.1-610.1,107.1z"/>
	<path class="st1" d="M-613.2,204.9c0-0.5,0-1,0-1.5C-612.4,203.9-611.6,204.4-613.2,204.9z"/>
	<path class="st0" d="M-552.4,261c0,1.4,0.1,2.8,0.1,4.1C-553.2,263.8-553.1,262.4-552.4,261z"/>
	<path class="st0" d="M-539.9,251.2c-1,0-2,0-3,0.1C-541.9,250.2-540.9,250.5-539.9,251.2z"/>
	<path class="st0" d="M-529.6,265.2c0-1.4,0.1-2.7,0.1-4.1c0.2-0.1,0.3-0.1,0.5,0c0,0.3,0,0.7,0,1
		C-529.2,263.1-528.4,264.3-529.6,265.2z"/>
	<path class="st1" d="M-288.7,216.3c0.2-1.3,1.2-1,2-1c1.8,0,3.6,0,5.4,0c0.7,0,1.6,0.3,2.1-1c-2.6,0-5.1,0-7.5,0
		c-1.1,0-2.2,0-2-1.6c1.9,0,3.8-0.1,5.7,0c3.9,0.2,7.5,1.6,11.3,2.3c2.4,0.5,5,0.8,7.2,0c2-0.7,3.8-0.7,5.8-0.8
		c1.4-0.1,2.9,0.2,4.1-1.1c0.4-0.4,1.1-0.6,1.7-0.3c5,2.7,10.3,0.8,15.5,1.4c0.9,0.1,1.8-0.2,2.7,0.4c-1,1.6-3.3-0.5-3.9,1.7
		C-255.4,216.3-272,216.3-288.7,216.3z"/>
	<path class="st1" d="M-190.4,194.5c0,2.8,0,5.5,0,8.3c-0.8,0.8-0.6,1.8-0.5,2.7c0.3,3-0.6,6-0.6,9c0,1.9-1.2,1.9-2.6,1.8
		c-1.1-1.9,0-3.5,0.5-5.2c1.5,0.1,1.6-0.9,1.6-2c0-4.2,0-8.4,0-12.6C-191.9,195.5-192,194.4-190.4,194.5z"/>
	<path class="st1" d="M-219.5,216.3c0.3-2.1-1.8-0.3-2.2-1.4c2.4-1.5,8.5-0.7,10.5,1.4C-213.9,216.3-216.7,216.3-219.5,216.3z"/>
	<path class="st1" d="M-193.5,211.1c0.3,1.8-0.6,3.4-0.5,5.2c-1-0.4-2.1,0.9-3.1,0c0-1,0-2.1,0-3.1c1.5,0.1,2.9,0.1,2.6-2.1
		c0.2,0,0.3,0,0.5,0C-193.8,211.1-193.7,211.1-193.5,211.1z"/>
	<path class="st1" d="M-203.9,216.3c1.3-1.4,2.3-1.4,3.6,0C-201.5,216.3-202.7,216.3-203.9,216.3z"/>
	<path class="st1" d="M-512.3,216.3c0.9-1.3,0.6-2.6-0.2-3.6c-1.2-1.5,0.4-2.5,0.3-3.8c-0.1-2.3-0.7-4.8,0.8-7
		c0.4-0.6,0.4-1.9,0-2.5c-1.1-1.6-0.9-3.3-0.9-4.9c-0.3-0.7,1.5,0.4,0.7-0.8c-0.2-0.4-0.4-0.8-0.1-1.3c1,0.1,2.2-0.4,3.1,0.5
		c0.6,1.3,0.8,2.6,0.8,4c-0.1,4.5,0,9,0,13.4c0.1,1.4-1.2,1.1-2,1.8c1.1-0.3,1.5,0.3,1.8,1.1C-508.4,216.3-508.4,216.3-512.3,216.3z
		"/>
	<path class="st1" d="M-508.2,213.2c-0.4-0.1-0.6-0.8-1-0.5c-0.8,0.6-1.7,1-1.9-0.2c-0.3-1.3,1-1.3,1.9-1.4c0.3,0,0.7,0,1,0
		c0.2-0.3,0.3-0.2,0.5,0c0,0.3,0,0.7,0,1C-508.1,212.4-508.2,212.8-508.2,213.2z"/>
	<path class="st1" d="M-222.1,112.3c2.8-0.8,5.5-0.8,8.3,0C-216.6,112.3-219.3,112.3-222.1,112.3z"/>
	<path class="st1" d="M-234.6,112.3c1.4-0.8,2.8-0.8,4.2,0C-231.8,112.3-233.2,112.3-234.6,112.3z"/>
	<path class="st1" d="M-481.1,127.9c3.2,1,6.4-0.3,9.6-0.1c1,0.1,0.4-0.7-0.3-0.9c-0.3-0.3-0.3-0.7,0-1l0,0c4-1.1,8-0.4,12-0.4
		c0.8,0,1.7-0.1,2.5,0.4c0.3,0,0.5-0.1,0.8,0c1.5,0.3,3.5-3,4.4,0.5c0.4,1.6,1.6,3.3,0.7,5.2c-0.3,0.7-0.1,1.7-0.1,2.6
		c0,24.7,0,49.3,0,74c0,1.4,0.1,2.7,0.5,4.1c-0.6,1,0.1,2.7-1.6,3.1c-1.2,0.7-2.5,0.9-3.4-0.4c-0.6-0.8-1.4-0.9-2.3-0.9
		c-1.5,0-2.9-0.6-4.2-1.1c-0.6-0.2-1.2-0.5-1.1-1.2c0.1-0.6,0.6-0.9,1.1-0.9c1.2-0.2,2.2-0.8,3.2-1.6c1.3-1.1,2.9-0.5,4.5-0.3
		c0.4-2.5-0.1-4.9,0-7.3c0-1.1-0.3-1.9-1.6-2c-1.2-0.1-2,0.3-2.2,1.6c-0.2,2.2-1.7,2.5-3.6,2.3c-0.9-0.1-1.8-0.5-1.8-1.5
		c-0.1-2.3-1.6-2.5-3.3-2.8c-0.2-0.1-0.4-0.3-0.6-0.5c-0.5-1.5,0.1-2.4,1.6-2.6c2.1-0.2,2.2-1.5,2.1-3.1c-0.1-1.9-1.5-1.8-2.8-1.8
		c-1.9-0.1-3.7,0.3-5.5-1c-1-0.8-1.6,0.7-2.2,1.2c-0.8,0.8-2.1,1.5-1.4,3c1.1,2,0.7,3.6-0.7,5.4c-1.2,1.6-1.4,3.8-1.8,5.9
		c-0.2,0.9,0.3,1.3,1.2,1.2c1.1-0.1,2.2-0.4,3.3-0.4c1,0,2.2,0,2.6,1.3c0.4,1.2,0.7,2.8-0.3,3.4c-2.2,1.4-3.8,3.8-6.6,4.3
		c-0.9,0.2-1.9,0.5-2.8,0C-481.1,186.2-481.1,157.1-481.1,127.9z"/>
	<path class="st1" d="M-457.2,125.9c-4.9,0-9.7,0-14.6,0c0-0.3,0-0.7,0-1c4.2,0,8.3,0,12.5,0C-458.8,125.7-457.6,125-457.2,125.9z"
		/>
	<path class="st1" d="M-511.8,192.4c0.2,0.3,0.3,0.7,0.5,1c-1.9,1-3.9,0.4-5.9,0.4c-1.5-0.3-2.9-0.2-4.4-0.2c-18.6,0-37.3,0-55.9,0
		c-1.2,0-2.8,0.6-3.5-1.2C-557.9,192.4-534.9,192.4-511.8,192.4z"/>
	<path class="st1" d="M-581,192.4c0.9,0.9,2,0.5,3,0.5c19.3,0,38.7,0,58,0c1,0,2.1-0.4,3,0.5c-1,0.8-2.1,0.5-3.2,0.5
		c-18.8,0-37.6,0-56.5,0c-1.1,0-2.3-0.3-3.2,0.5l0,0c-0.3,0.3-0.7,0.3-1,0c0.2-0.8-1.2-1.2-0.5-2.1
		C-581.3,192.4-581.1,192.4-581,192.4z"/>
	<path class="st1" d="M-507.7,211.1c-0.2,0-0.3,0-0.5,0c0-4.6-0.1-9.1,0.1-13.7c0.1-1.6-1.1-2.9-0.6-4.5c1.2,0.5,1.1,1.6,1.1,2.7
		C-507.7,200.8-507.7,206-507.7,211.1z"/>
	<path class="st1" d="M-481.1,215.3c0.3-0.1,0.7-0.4,0.9-0.4c3.6,0.4,5-3.3,8-4.1c0.8-0.2,0.4-1.9,0.3-2.9c-0.1-1.1-1.1-0.8-1.9-0.9
		c-2-0.1-3.9,1.1-5.8,0.4c0.1-2.5,1.5-4.8,1.5-7.3c0-0.7,0.3-1,0.9-1.4c1.7-1,1.7-3.1,0-4.1c-0.7-0.4-0.9-0.7-0.4-1.3
		c1.3-1.5,2.6-3.1,3.9-4.6c0.4-0.4,1.2-0.5,1.4-0.1c1.2,3.2,3.8,1.3,5.7,1.8c0.9,0.2,2.4-0.5,2.8,0.7c0.5,1.6,0.5,3.4,0,5.1
		c-0.2,0.7-1.2,0.5-1.9,0.5c-1.6-0.2-2.2,0.6-2,2.1c-0.9,0.8-1.9,0.6-2.6,0.9c-0.6,0.3-0.8,0.8-0.7,1.5c0.1,0.6,0.4,0.9,1,1
		c0.6,0.1,1.2-0.1,1.5-0.7c0.4-0.8,0.1-1.9,0.9-2.6c0.8,0,1.5,0.1,2.3,0c1.3-0.1,2,0.4,1.8,1.8c-0.1,1.5,0.1,2.4,2,2.4
		c1.8,0,2.3-0.7,2.1-2.3c-0.3-2.3,1.4-1.8,2.8-1.9c1.4-0.1,2.6,0,2.5,2c-0.2,3.4,0.4,6.8-0.3,10.4c-1.8-2.6-2.8-2.6-5.1-0.3
		c-1,1-2.5-0.1-3.9,1c2.2,0.5,3.9,1.8,6.2,1.5c1-0.1,1.9-0.3,2.1,1.4c0.1,1.2,1.7,0.3,2.6,0.6c-0.3,1.4-1.4,1-2.3,1
		c-3.9,0-7.8-0.1-11.7,0.1c-4,0.2-8-0.1-12.1,0C-479.4,216.1-480.8,217-481.1,215.3z"/>
	<path class="st1" d="M-205.5,193.5c-0.9-0.9-2-0.5-2.9-0.5c-14.7,0-29.3,0-44,0c-1,0-2.1,0.4-3-0.5c21,0,41.9,0,62.9,0
		c-1.3,1.3-3.3-0.3-4.7,1C-199.9,193.5-202.7,193.5-205.5,193.5z"/>
	<path class="st0" d="M-535.7,250.1c-0.7,0-1.4,0-2.1,0c0.4-0.6,0.7-1.5,1.6-1.3C-535.6,248.9-535.8,249.7-535.7,250.1L-535.7,250.1
		z"/>
	<path class="st0" d="M-535.7,250.1c0.8,0.3,1.5-0.6,2.5,0.1C-534.2,250.8-535,250.9-535.7,250.1L-535.7,250.1z"/>
	<path class="st1" d="M-471.8,125.9c0,0.3,0,0.7,0,1c-2.7,0-5.3,0-8,0c0-0.3,0-0.7,0-1C-477.1,125.9-474.4,125.9-471.8,125.9z"/>
	<path class="st0" d="M-393.7,263.6c0.3-0.8-0.6-1.5,0.1-2.5C-393.1,262.1-393,262.9-393.7,263.6
		C-393.7,263.6-393.7,263.6-393.7,263.6z"/>
	<path class="st0" d="M-529,261l-0.3,0l-0.3,0c-0.7-0.8-0.5-1.7-0.5-2.6C-529.6,259.3-528.1,259.7-529,261z"/>
	<path class="st1" d="M-526.5,162.1c-2.4,0-4.7,0-7.1,0c0-0.1,0-0.2,0-0.3c2.4,0,4.8,0,7.1,0C-526.5,162-526.5,162-526.5,162.1z"/>
	<path class="st1" d="M-205.3,214.6c-1.2,0.8-1.8,0.9-2.6,0.2C-207.2,214-206.5,214.3-205.3,214.6z"/>
	<path class="st1" d="M-272,114.9c0-0.7-0.1-1.4,0-2.1c0.1-0.7-0.6-1.8,1-1.6c1,0.1,2.1-0.1,2.1,1.5c0,1.8,0,3.6,0,5.4
		c0,1.2-0.7,1.4-1.7,1.4c-0.9,0-1.5-0.4-1.4-1.4C-272,117.1-272,116-272,114.9C-272,114.9-272,114.9-272,114.9z"/>
	<path class="st1" d="M-267.1,115.2c0.4,1.2,0.4,2.1-0.1,3.2C-267.9,116.8-267.9,116.8-267.1,115.2z"/>
	<path class="st1" d="M-579.9,194.5c-0.1-0.4-0.4-0.9,0.3-1c0.7-0.1,1.4,0,2.1,0c20.2,0,40.4,0,60.6,0c1.9,0,3.8,0,5.7,0
		c0.4,0.3,0.7,0.6,1.3,1c-1,0-1.7,0-2.4,0C-534.9,194.5-557.4,194.5-579.9,194.5z"/>
	<path class="st1" d="M-582,195.5c0,0.7,0,1.4,0,2.1c-0.8-0.1-2.1,0.3-2-1.2C-583.9,195.2-582.8,195.7-582,195.5z"/>
	<path class="st1" d="M-582.1,197.6c0.7,0.1,1.4-0.1,2.1,0.6C-581.1,198.9-581.7,198.7-582.1,197.6z"/>
	<path class="st1" d="M-581,194.5c0.3,0,0.7,0,1,0c-0.2,1.4-1.3,0.9-2.1,1C-582,194.9-581.7,194.5-581,194.5z"/>
	<path class="st1" d="M-467.6,200.4c0.3,1.8-0.4,2.5-2.2,2.4c-1.7,0-1.9-0.8-2-2.2c-0.1-2.5,1.6-1.8,2.9-2
		C-467,198.3-467.8,199.7-467.6,200.4z"/>
</g>
<rect x="-159.3" y="-107.6" class="st1" width="56.2" height="45.1"/>
<rect x="-74.6" y="-107.6" class="st0" width="67.3" height="45.1"/>
<path class="st2" d="M450,256.6h-5.7c-2.3,0-4.1-1.9-4.1-4.1v-2.6c0-2.3,1.9-4.1,4.1-4.1h5.7c2.3,0,4.1,1.9,4.1,4.1v2.6
	C454.1,254.8,452.3,256.6,450,256.6z"/>
<g>
	<path class="st3" d="M168.7,144.6c0-17.3,0.1-34.7,0-52c0-8.7,5.4-14.7,14.6-14.7c29.5-0.2,59.1-0.1,88.6-0.1c2.6,0,3.6,1,3.6,3.6
		c0,6.9,0,13.8,0,20.6c0,3.3-0.6,3.9-3.9,3.9c-22.4,0-44.8,0-67.2,0c-3.6,0-3.6,0-3.6,3.6c0,6.4,0.1,12.9,0,19.3
		c-0.1,2.2,0.4,2.8,2.7,2.8c19-0.1,38-0.1,57-0.1c3.9,0,4.2,0.3,4.2,4.2c0,6,0,12,0,18c0,3.5-0.4,3.9-3.9,3.9c-19,0-38,0-57,0
		c-2.1,0-3,0.3-3,2.8c0.2,7.2,0.2,14.5,0,21.7c-0.1,2.4,0.8,2.8,3,2.8c22.8-0.1,45.7-0.1,68.5-0.1c3.6,0,3.8,0.2,3.8,3.9
		c0,6.3,0,12.5,0,18.8c0,2.8-0.7,3.5-3.5,3.5c-29.7,0-59.4,0-89.2,0c-8.9,0-14.6-5.9-14.6-14.7C168.7,179.1,168.7,161.9,168.7,144.6
		C168.7,144.6,168.7,144.6,168.7,144.6z"/>
	<path class="st3" d="M489.3,144.8c0-21,0-42,0-63c0-3.4,0.6-4,3.9-4c32.2,0,64.3,0,96.5,0c3.3,0,4.1,0.7,4.1,3.9
		c0.1,6.9,0.1,13.8,0,20.6c0,3-0.8,3.6-4,3.6c-20.5,0-41,0-61.4,0c-2.3,0-5.4-1-6.7,0.5c-1.1,1.3-0.4,4.3-0.4,6.6
		c0,5.5,0.1,11,0,16.5c0,1.7,0.5,2.1,2.2,2.1c18.8-0.1,37.6,0,56.5,0c3.5,0,4,0.5,4,4c0,6,0,12,0,18c0,3.4-0.5,4-3.9,4
		c-18.4,0-36.8,0-55.2,0c-3.5,0-3.5,0-3.5,3.6c0,7.1,0.1,14.1-0.1,21.2c0,2.1,0.6,2.6,2.6,2.6c22.4-0.1,44.8,0,67.2,0
		c4,0,4,0.1,4,4.2c0,6.1,0,12.2,0,18.3c0,3.1-0.6,3.7-3.6,3.7c-32.8,0-65.7,0-98.5,0c-3.1,0-3.6-0.6-3.6-3.6
		C489.2,186.6,489.2,165.7,489.3,144.8C489.2,144.8,489.2,144.8,489.3,144.8z"/>
	<path class="st4" d="M30.3,71c3,0,5.9,0.1,8.9,0c4.5-0.2,7.8,1.6,10.3,5.3c6.1,8.9,12.2,17.7,18.3,26.5c1.7,2.5,3.3,5.1,5,7.6
		c2.3,3.4,4.8,3.6,7.6,0.6c7.5-8.2,15-16.5,22.5-24.8c9.3-10.3,18.8-20.5,28.1-30.7c11.4-12.6,22.8-25.2,34.3-37.7
		c7.2-7.8,18.4-7.9,25.9-0.3c4.6,4.7,4.8,12.6,0.4,17.5c-10.7,12-21.5,24.1-32.2,36.1c-12.2,13.6-24.4,27.3-36.5,40.9
		c-11.2,12.6-22.5,25.3-33.7,37.9c-2.7,3.1-5.4,6.1-8,9.2c-2.9,3.4-7.2,3.6-10.1,0.3c-10.7-11.9-21.4-23.8-32.2-35.7
		c-9.2-10.2-18.5-20.4-27.9-30.5c-4-4.3-5.2-9.4-2.8-14.6c2.4-5,6.8-7.3,12.1-7.6C23.7,70.9,27,71,30.3,71C30.3,71,30.3,71,30.3,71z
		"/>
	<path class="st3" d="M414.3,77.8c17.8,0,35.6,0,53.3,0c3.1,0,3.9,0.8,3.9,3.8c0,6.9,0,13.8,0,20.6c0,3.1-0.7,3.8-3.8,3.8
		c-11.8,0-23.5,0.1-35.3-0.1c-2.3,0-2.7,0.7-2.7,2.8c0.1,32.7,0,65.3,0,98c0,4.1-0.2,4.3-4.3,4.3c-8.2,0-16.4-0.1-24.6,0
		c-2.5,0-3.4-0.9-3.4-3.4c0.1-33,0-66,0.1-99c0-2.1-0.5-2.8-2.7-2.7c-11.5,0.1-23,0.1-34.5,0.1c-3.2,0-3.6-0.4-3.6-3.6
		c0-6.9,0-13.8,0-20.6c0-3.7,0.4-4,4-4C378.8,77.8,396.5,77.8,414.3,77.8C414.3,77.8,414.3,77.8,414.3,77.8z"/>
	<path class="st3" d="M58,211.7c0-5.9-0.1-11.8,0-17.8c0.1-3.2-0.9-5.9-3.1-8.3c-10.5-11.9-21-23.9-31.5-35.9
		c-4.7-5.4-9.4-10.7-14.1-16.1c-1.8-2.1-2.8-4.6-2.8-7.4c-0.1-3.8,0-7.7-0.1-11.5c0-1.4,0.2-2.7,1.6-3.3c1.4-0.6,2,0.8,2.7,1.5
		c18.4,19,36.7,38.1,55.1,57.2c1.2,1.3,2.4,2.5,3.7,3.7c4.1,4.1,8.8,4.1,12.8-0.1c8-8.3,15.9-16.6,23.8-24.9
		c12-12.5,23.9-25.1,36.3-37.2c0.8-0.8,1.5-2,2.8-1.3c1.1,0.6,1.1,1.9,1.1,3c0,3.9,0,7.8,0,11.8c-0.1,3.7-1.5,6.9-4,9.6
		c-14.7,16.6-29.3,33.3-44,49.9c-2.6,2.9-4,6-4,10.1c0.2,11.7-0.1,23.3,0.1,35c0.1,5.6-2.7,9.4-9.2,9.2c-6.3-0.3-12.7-0.1-19.1-0.1
		c-5.2,0-8-2.7-8.1-8C58,224.5,58.1,218.1,58,211.7C58.1,211.7,58,211.7,58,211.7z"/>
	<path class="st3" d="M301.5,163.8c0-14.4,0-28.7,0-43.1c0-3.9,0.2-4.1,4.2-4.1c8.3,0,16.6,0,24.8,0c2.6,0,3.4,0.8,3.4,3.4
		c0,29.1,0,58.2-0.1,87.3c0,3.3-0.6,3.9-4,3.9c-8.3,0-16.6,0-24.8,0c-3.2,0-3.5-0.4-3.5-3.7C301.5,192.9,301.5,178.3,301.5,163.8
		C301.5,163.8,301.5,163.8,301.5,163.8z"/>
	<path class="st4" d="M317.7,106c-4.3,0-8.5-0.1-12.8,0c-2.5,0-3.4-1.1-3.4-3.5c0-7.2,0.1-14.4,0-21.6c0-2.1,1.2-3,3-3.1
		c8.7-0.1,17.4,0,26.1,0c2.4,0,3.4,1.2,3.4,3.6c-0.1,7,0,13.9,0,20.9c0,2.8-1,3.7-3.7,3.7C326,106.1,321.9,106.1,317.7,106
		C317.7,106.1,317.7,106.1,317.7,106z"/>
	<path class="st4" d="M260.4,256.7c0.5,10.2-8.6,18.1-19.1,17.8c-11-0.4-18-7.9-17.6-20c0.3-8.9,7.9-16.4,18.9-16.1
		C252.3,238.6,260.8,245.7,260.4,256.7z M242.2,268.1c6.7,0,11.2-4.9,11.3-12c0-5.9-4.6-11.6-11.8-11.4c-6.4,0.2-11.1,5-11.1,11.7
		C230.5,263.5,235.1,268.2,242.2,268.1z"/>
	<path class="st4" d="M464.8,273.4c-5.9,2.1-9.2-0.8-11.5-5.4c-0.8-1.5-1.8-3-2.7-4.5c-0.7-1.2-1.5-1.7-2.9-1.7
		c-6.5,0-5.2-0.3-5.3,5.2c0,1.3-0.2,2.7,0,3.9c0.5,2.5-0.7,3.1-2.8,2.9c-0.8-0.1-1.6-0.1-2.3,0c-1.6,0.2-1.9-0.6-1.9-2
		c0.1-9.9,0.2-19.9,0.1-29.8c0-2.5,0.7-3.3,3.3-3.3c4.4,0.2,8.9-0.2,13.3,0.1c9.2,0.6,13.7,7.1,11.9,14.6c-0.7,2.9-2.5,5.1-5.3,6.3
		c-1.7,0.7-2,1.5-0.8,3.1C460.2,266.3,462.5,269.9,464.8,273.4z M448.8,245c-1.5,0-2.7,0-4,0c-1.7-0.1-2.6,0.4-2.5,2.4
		c0.1,2.2,0,4.3,0,6.5c0,1,0.1,2.1,1.4,2.1c3.4,0,6.9,0.7,10.3-0.7c1.9-0.8,2.8-2.2,2.9-4.2c0.1-2.1-0.3-3.9-2.4-5.2
		C452.5,244.7,450.4,245.3,448.8,245z"/>
	<path class="st4" d="M329.3,261.5c0,0.8-0.1,1.6,0,2.3c0.9,4.7-1.8,6.8-5.6,8.5c-6.1,2.7-12,2.9-18.1,0.1c-9.1-4-11.8-14.6-8.6-23
		c4.7-12,20.5-14.6,30-6.7c1.1,0.9,1.3,1.8,0,2.7c-0.3,0.2-0.6,0.4-0.8,0.7c-1.6,2.1-2.9,2.2-5.4,0.6c-6.9-4.4-14.2-2.2-17.3,5
		c-1.9,4.3-1,9,2.2,12.7c3,3.5,7.2,4,11.5,3.4c1.2-0.2,2.3-0.5,3.5-1c2.6-1.1,2.1-3.1,1.8-5.1c-0.3-2.1-2-1.4-3.3-1.6
		c-0.4,0-0.9,0-1.3,0c-3.6-0.1-4.4-1.2-3.6-4.7c0.2-0.8,0.5-1,1.2-1c4.1,0,8.2-0.1,12.3-0.1c1.3,0,1.8,0.5,1.7,1.9
		C329.2,258,329.3,259.7,329.3,261.5z"/>
	<path class="st4" d="M156.2,256.3c0-5.1,0.1-10.1,0-15.2c0-1.8,0.5-2.4,2.3-2.4c5,0,5-0.1,5,5c0,2.5,0,5.1-0.1,7.6
		c0,1.2,0.3,1.7,1.6,1.7c4.3-0.1,8.5-0.1,12.8,0c1.7,0,2-0.6,2-2.1c-0.1-3.4,0-6.8,0-10.2c0-1.4,0.2-2,1.8-1.9
		c5.8,0.3,5.4-1.2,5.4,5.4c0,8.9-0.1,17.8,0.1,26.7c0,2.2-0.5,3.1-2.9,3c-4.4-0.2-4.4,0-4.5-4.4c0-2.7-0.1-5.4,0-8.1
		c0-1.2-0.4-1.8-1.6-1.9c-4.4-0.1-8.9-0.1-13.3-0.1c-1.5,0-1.5,1.2-1.5,2.3c0,3.2,0,6.4,0.1,9.7c0,1.9-0.6,2.8-2.6,2.5
		c-0.8-0.1-1.6,0-2.3,0c-1.7,0.1-2.4-0.4-2.4-2.4C156.3,266.4,156.2,261.4,156.2,256.3C156.2,256.3,156.2,256.3,156.2,256.3z"/>
	<path class="st4" d="M382.5,239c2.8-0.8,3.8,0.4,4.9,3c3.9,10,8.2,19.8,12.4,29.6c0.8,1.9,0.3,2.3-1.5,2.2
		c-6.1-0.2-4.8,0.7-6.7-4.4c-0.9-2.6-2.3-3.7-5.1-3.5c-3.2,0.3-6.4,0.2-9.7,0c-1.7-0.1-2.9,0.2-3.2,2.2c-0.1,0.5-0.5,0.9-0.7,1.4
		c-1.8,4.3-2.9,4.9-7.5,4.3c-1.2-0.2-1.3-0.7-0.9-1.5c3.8-8.9,7.6-17.8,11.4-26.7c0.4-1,1.1-2,1.3-3.1
		C378,239.8,379.3,237.9,382.5,239z M382.4,247c-1.9,4.4-3.4,8-4.9,11.7c-0.3,0.6-0.8,1.8,0.9,1.7c2.6-0.1,5.2-0.1,7.8,0
		c1.4,0,1.4-0.7,1-1.7C385.7,254.9,384.2,251.3,382.4,247z"/>
	<path class="st4" d="M20.7,262.4c35.9,0,71.7,0,107.8,0c-1,1.5-2.3,1.1-3.3,1.1c-32.5,0-65,0-97.5,0c-1.7,0-3.5,0-5.2,0
		C21.7,263.5,20.9,263.7,20.7,262.4z"/>
	<path class="st4" d="M488.7,262.9c1.5-0.9,2.8-0.8,4-0.8c33.6,0,67.2,0,100.8,0c0.3,0,0.5,0,0.8,0c0.6,0.1,1.6-0.4,1.7,0.7
		c0.1,1.1-1,0.7-1.6,0.7c-0.5,0.1-1,0-1.6,0c-33.4,0-66.9,0-100.3,0C491.4,263.5,490.2,263.7,488.7,262.9z"/>
</g>
</svg>
