<?xml version="1.0" encoding="utf-8"?>
<!-- Generator: Adobe Illustrator 24.1.2, SVG Export Plug-In . SVG Version: 6.00 Build 0)  -->
<svg version="1.1" id="Capa_1" xmlns="http://www.w3.org/2000/svg" xmlns:xlink="http://www.w3.org/1999/xlink" x="0px" y="0px"
	 viewBox="0 0 24 24" style="enable-background:new 0 0 24 24;" xml:space="preserve">
<style type="text/css">
	.st0{fill:none;stroke:#8237ED;stroke-width:1.7;stroke-linecap:round;stroke-linejoin:round;}
	.st1{fill:#FE7704;}
</style>
<path class="st0" d="M122.3-15h16l-2-4h-12L122.3-15z"/>
<path class="st0" d="M128.3-13h4c0.6,0,1,0.4,1,1l0,0c0,0.6-0.4,1-1,1h-4c-0.6,0-1-0.4-1-1l0,0C127.3-12.5,127.7-13,128.3-13z"/>
<path class="st0" d="M126.3-19c0-2.7,1.3-4,4-4s4,1.3,4,4"/>
<line class="st0" x1="134.3" y1="-28" x2="129.3" y2="-23"/>
<path class="st0" d="M136.8-30.6l2.1,2.1c0.4,0.4,0.4,1,0,1.4l-0.7,0.7c-0.4,0.4-1,0.4-1.4,0l-2.1-2.1c-0.4-0.4-0.4-1,0-1.4l0.7-0.7
	C135.8-31,136.4-31,136.8-30.6z"/>
<g>
	<path class="st1" d="M20.4,14c0,0.1,0,0.3-0.1,0.4c0,0.2,0,0.3,0,0.5c0,0.1,0,0.2-0.2,0.2c-0.6,0.2-1.1,0.4-1.7,0.7
		c-1.1,0.4-2.1,1.2-3,2c-0.2,0.2-0.4,0.4-0.5,0.7c0,0.2,0,0.3,0.1,0.5c0.3,0.3,0.5,0.6,0.8,0.8c0.6,0.5,1.2,1,1.7,1.4l0.1,0.1
		c0,0.4,0,0.7,0,1.1c-0.1,0-0.3,0-0.4,0c-0.3,0-0.5,0-0.8,0c-0.1,0-0.1,0-0.2-0.1c-0.2-0.2-0.4-0.3-0.7-0.4c-0.1,0-0.2-0.1-0.4-0.1
		c-0.2-0.1-0.4-0.1-0.6-0.1c-1.2,0-2.3,0-3.5,0c-0.2,0-0.4,0.1-0.6,0.1c-0.2,0-0.3,0.1-0.5,0.2s-0.4,0.2-0.5,0.3
		c-0.1,0.1-0.1,0.1-0.2,0.1c-0.3,0-0.6,0-1,0c0-0.2,0-0.3,0-0.5c0-0.3,0-0.5,0-0.8c0-0.1,0-0.2,0.1-0.2c0.5-0.4,1.1-0.7,1.6-1.1
		c0.3-0.2,0.6-0.5,0.8-0.8c0.3-0.4,0.3-0.8-0.2-1.1c-0.1-0.1-0.3-0.2-0.4-0.2c-0.6-0.3-1.2-0.5-1.8-0.7c-0.1,0-0.1-0.1-0.1-0.2
		s0-0.2,0-0.3c0-0.1,0-0.1-0.1-0.1c-1-0.3-2-0.6-3-1C4.6,15.2,4,15,3.6,14.6c-0.1-0.1-0.2-0.2-0.3-0.3S3.2,14,3.4,14
		c0.5,0.1,0.6,0,0.8,0c1.1-0.1,2.1-0.1,3.2-0.2c0.3,0,0.7,0,1,0c0.1,0,0.1,0,0.1-0.1c0.1-0.2,0.1-0.2,0.3-0.2c3.8,0,7.6,0,11.4,0
		h0.1c0,0.1,0.1,0.2,0.1,0.3C20.4,13.9,20.4,14,20.4,14z"/>
	<path class="st1" d="M9.6,1.6c0.1,0.1,0.2,0.1,0.3,0.2c0.4,0.4,0.7,0.8,1.1,1.1c0.2,0.2,0.2,0.4,0,0.6c-0.3,0.4-0.7,0.7-1,1.1
		C9.4,5.1,8.9,5.6,8.3,6C8,6.2,7.8,6.4,7.5,6.7C7.3,6.8,7.2,6.8,7,6.6C6.6,6.2,6.3,5.8,5.9,5.4c-0.2-0.2-0.1-0.3,0-0.5
		C6.4,4.3,7,3.8,7.5,3.2c0.4-0.4,0.8-0.7,1.2-1C9,2,9.1,1.9,9.3,1.7C9.4,1.7,9.5,1.6,9.6,1.6L9.6,1.6z"/>
	<path class="st1" d="M14.5,1.6C14.7,1.8,15,2,15.2,2.2c0.4,0.3,0.9,0.7,1.3,1.1c0.5,0.5,1,1,1.5,1.6C18.1,5,18.1,5,18.2,5.1
		s0.1,0.2,0,0.4c0,0.1-0.1,0.2-0.2,0.2c-0.3,0.4-0.6,0.7-1,1l-0.1,0.1c-0.1,0.1-0.3,0.1-0.4,0c-0.7-0.5-1.3-1.1-2-1.6
		c-0.5-0.5-1-1-1.5-1.5c0,0,0-0.1-0.1-0.1c-0.2-0.2-0.2-0.3,0-0.5c0.4-0.4,0.8-0.8,1.1-1.2C14.2,1.7,14.3,1.6,14.5,1.6
		C14.4,1.6,14.4,1.6,14.5,1.6z"/>
	<path class="st1" d="M14,4.8c0.3,0.3,0.7,0.6,1,0.9c-0.3,0.3-0.5,0.6-0.8,0.9C13.6,7.3,13,8,12.4,8.7c-0.3,0.3-0.7,0.6-1,0.9
		c-0.6,0.5-1.1,1.2-1.6,1.8c-0.4,0.5-0.7,0.9-1.1,1.3c-0.1,0.1-0.1,0.1-0.3,0c-0.4-0.2-0.7-0.5-0.9-0.9c-0.1-0.1-0.1-0.2,0-0.3
		C8,11,8.4,10.6,8.9,10.2c0.7-0.6,1.3-1.3,1.8-2c0.4-0.6,0.9-1.1,1.4-1.6s1-1,1.4-1.4C13.8,5.2,13.9,5,14,4.8z"/>
	<path class="st1" d="M12.3,9.5c0.4-0.3,0.7-0.7,1-1c0.1,0.1,0.1,0.2,0.2,0.3c0.4,0.6,0.9,1.1,1.5,1.6c0.5,0.4,0.9,0.9,1.3,1.3
		c0.1,0.1,0.2,0.2,0,0.3c-0.3,0.3-0.5,0.5-0.8,0.8c-0.2,0.2-0.3,0.2-0.4-0.1c-0.4-0.5-0.8-1-1.2-1.5C13.5,10.6,13,10,12.3,9.5
		C12.4,9.5,12.3,9.5,12.3,9.5z"/>
	<path class="st1" d="M10,4.9c0.6,0.6,1.1,1.2,1.7,1.8c-0.3,0.4-0.7,0.7-1,1.1c-0.6-0.7-1.2-1.4-1.7-2C9.3,5.5,9.6,5.2,10,4.9z"/>
	<path class="st1" d="M6.8,3.5C6.7,3.3,6.5,3.2,6.4,3c0.3-0.4,0.7-0.6,1-0.9c0.1,0.1,0.3,0.3,0.4,0.4C7.5,2.8,7.1,3.1,6.8,3.5z"/>
	<path class="st1" d="M17.5,3c-0.1,0.2-0.3,0.3-0.4,0.4c-0.3-0.3-0.7-0.6-1-0.9c0.1-0.1,0.2-0.3,0.4-0.4C16.9,2.4,17.2,2.7,17.5,3z"
		/>
</g>
</svg>
