<?xml version="1.0" encoding="utf-8"?>
<!-- Generator: Adobe Illustrator 24.1.2, SVG Export Plug-In . SVG Version: 6.00 Build 0)  -->
<svg version="1.1" id="Capa_1" xmlns="http://www.w3.org/2000/svg" xmlns:xlink="http://www.w3.org/1999/xlink" x="0px" y="0px"
	 viewBox="0 0 24 24" style="enable-background:new 0 0 24 24;" xml:space="preserve">
<style type="text/css">
	.st0{fill:#FE7704;}
	.st1{fill:none;}
	.st2{fill:#8237ED;}
</style>
<g>
	<path class="st0" d="M4.2,4.1c5.2,0,10.3,0,15.5,0v0.1c0,6.1,0,12.3,0,18.4c0,0.3-0.1,0.4-0.4,0.4c-4.9,0-9.8,0-14.8,0
		c-0.3,0-0.4-0.1-0.4-0.4c0-6.1,0-12.2,0-18.3C4.2,4.2,4.2,4.2,4.2,4.1z M12,6c-2,0-3.9,0-5.9,0C5.8,6,5.6,6.2,5.6,6.5c0,1,0,2,0,3
		c0,0.4,0.2,0.6,0.6,0.6c3.9,0,7.8,0,11.7,0c0.4,0,0.5-0.2,0.5-0.5c0-1,0-2,0-3c0-0.3-0.2-0.6-0.6-0.6C15.9,6,13.9,6,12,6z M12,11.5
		c-2,0-3.9,0-5.9,0c-0.3,0-0.5,0.2-0.5,0.5c0,1,0,2.1,0,3.1c0,0.3,0.2,0.5,0.5,0.5c3.9,0,7.8,0,11.8,0c0.3,0,0.5-0.2,0.5-0.5
		c0-1,0-2.1,0-3.1c0-0.3-0.2-0.5-0.5-0.5C15.9,11.5,14,11.5,12,11.5z M12,16.9c-2,0-3.9,0-5.9,0c-0.3,0-0.5,0.2-0.5,0.5
		c0,1,0,2.1,0,3.1c0,0.3,0.2,0.5,0.5,0.5c3.9,0,7.8,0,11.8,0c0.3,0,0.5-0.2,0.5-0.5c0-1,0-2.1,0-3.1v-0.1c0-0.2-0.2-0.4-0.5-0.4
		C15.9,16.9,14,16.9,12,16.9z"/>
	<path class="st0" d="M12,2.9c2.7,0,5.5,0,8.2,0c0.2,0,0.2,0,0.2,0.2s0,0.4,0,0.6s0,0.2-0.2,0.2c-2.8,0-5.6,0-8.5,0
		c-2.7,0-5.4,0-8.1,0c-0.2,0-0.2,0-0.2-0.2s0-0.4,0-0.6c0-0.2,0-0.2,0.2-0.2c1.7,0,3.4,0,5.2,0C10,2.9,11,2.9,12,2.9z"/>
	<path class="st1" d="M12,6c1.9,0,3.9,0,5.8,0c0.4,0,0.6,0.2,0.6,0.6c0,1,0,2,0,3c0,0.3-0.2,0.5-0.5,0.5c-3.9,0-7.8,0-11.7,0
		c-0.4,0-0.5-0.2-0.6-0.6c0-1,0-2,0-3C5.6,6.2,5.8,6,6.1,6C8.1,6,10,6,12,6z M12,9.1c0.4,0,0.7-0.3,0.7-0.7S12.4,7.7,12,7.7
		S11.3,8,11.3,8.4C11.3,8.7,11.6,9.1,12,9.1z"/>
	<path class="st1" d="M12,11.5c2,0,3.9,0,5.9,0c0.4,0,0.5,0.2,0.5,0.5c0,1,0,2.1,0,3.1c0,0.3-0.2,0.5-0.5,0.5c-3.9,0-7.8,0-11.8,0
		c-0.3,0-0.5-0.2-0.5-0.5c0-1,0-2.1,0-3.1c0-0.3,0.2-0.5,0.5-0.5C8.1,11.5,10,11.5,12,11.5z M12,13.1c-0.4,0-0.7,0.3-0.7,0.7
		s0.3,0.7,0.7,0.7s0.7-0.3,0.7-0.7C12.7,13.4,12.4,13.1,12,13.1z"/>
	<path class="st1" d="M12,16.9c2,0,3.9,0,5.9,0c0.3,0,0.5,0.1,0.5,0.4v0.1c0,1,0,2.1,0,3.1c0,0.3-0.2,0.5-0.5,0.5
		c-3.9,0-7.8,0-11.8,0c-0.3,0-0.5-0.2-0.5-0.5c0-1,0-2.1,0-3.1c0-0.3,0.2-0.5,0.5-0.5C8.1,16.9,10,16.9,12,16.9z M12,18.6
		c-0.4,0-0.7,0.3-0.7,0.7c0,0.4,0.3,0.7,0.7,0.7s0.7-0.3,0.7-0.7S12.4,18.6,12,18.6z"/>
	<path class="st0" d="M12,9.1c-0.4,0-0.7-0.3-0.7-0.7s0.3-0.7,0.7-0.7s0.7,0.3,0.7,0.7S12.4,9.1,12,9.1z"/>
	<path class="st0" d="M12,13.1c0.4,0,0.7,0.3,0.7,0.7s-0.3,0.7-0.7,0.7s-0.7-0.3-0.7-0.7C11.3,13.4,11.6,13.1,12,13.1z"/>
	<path class="st0" d="M12,18.6c0.4,0,0.7,0.3,0.7,0.7c0,0.4-0.3,0.7-0.7,0.7s-0.7-0.3-0.7-0.7S11.6,18.6,12,18.6z"/>
</g>
<g>
	<path class="st2" d="M-77.8-5.1c0,0.1,0,0.3-0.1,0.4c0,0.2,0,0.3,0,0.5c0,0.1,0,0.2-0.2,0.2c-0.6,0.2-1.1,0.4-1.7,0.7
		c-1.1,0.4-2.1,1.2-3,2c-0.2,0.2-0.4,0.4-0.5,0.7c0,0.2,0,0.3,0.1,0.5c0.3,0.3,0.5,0.6,0.8,0.8c0.6,0.5,1.2,1,1.7,1.4l0.1,0.1
		c0,0.4,0,0.7,0,1.1c-0.1,0-0.3,0-0.4,0c-0.3,0-0.5,0-0.8,0c-0.1,0-0.1,0-0.2-0.1c0.1-0.1-0.2-0.2-0.5-0.2c-0.1,0-0.2-0.1-0.4-0.1
		c-0.2-0.1-0.4-0.1-0.6-0.1c-1.2,0-2.3,0-3.5,0c-0.2,0-0.4,0.1-0.6,0.1C-87.7,2.9-87.8,3-88,3c-0.2,0.1-0.4,0.2-0.5,0.3
		s-0.1,0.1-0.2,0.1c-0.3,0-0.6,0-1,0c0-0.2,0-0.3,0-0.5c0-0.3,0-0.5,0-0.8c0-0.1,0-0.2,0.1-0.2c0.5-0.4,1.1-0.7,1.6-1.1
		c0.3-0.2,0.6-0.5,0.8-0.8c0.3-0.4,0.3-0.8-0.2-1.1c-0.1-0.1-0.3-0.2-0.4-0.2C-88.4-1.6-89-1.8-89.6-2c-0.1,0-0.1-0.1-0.1-0.2
		c0-0.1,0-0.2,0-0.3s0-0.1-0.1-0.1c-1-0.3-2-0.6-3-1c-0.5-0.2-1.1-0.4-1.5-0.8c-0.1-0.1-0.2-0.2-0.3-0.3C-94.7-4.8-94.7-5-94.5-5
		s0.3-0.1,0.5-0.1c1.1-0.1,2.1-0.1,3.2-0.2c0.3,0,0.7,0,1,0c0.1,0,0.1,0,0.1-0.1c0.1-0.2,0.1-0.2,0.3-0.2c3.8,0,7.6,0,11.4,0h0.1
		c0,0.1,0.1,0.2,0.1,0.3C-77.8-5.2-77.8-5.1-77.8-5.1z"/>
	<path class="st2" d="M-88.6-17.5c0.1,0.1,0.2,0.1,0.3,0.2c0.4,0.4,0.7,0.8,1.1,1.1c0.2,0.2,0.2,0.4,0,0.6c-0.3,0.4-0.7,0.7-1,1.1
		c-0.5,0.5-1.1,1-1.6,1.4c-0.3,0.2-0.5,0.4-0.8,0.7c-0.2,0.1-0.3,0.1-0.5,0c-0.4-0.4-0.8-0.8-1.2-1.3c-0.2-0.2-0.1-0.3,0-0.5
		c0.5-0.6,1.1-1.1,1.7-1.7c0.4-0.4,0.8-0.7,1.2-1c0.2-0.2,0.4-0.3,0.6-0.4C-88.8-17.4-88.8-17.5-88.6-17.5
		C-88.7-17.5-88.6-17.5-88.6-17.5z"/>
	<path class="st2" d="M-83.8-17.5c0.2,0.2,0.5,0.4,0.7,0.6c0.4,0.3,0.9,0.7,1.3,1.1c0.5,0.5,1,1,1.5,1.6c0.1,0.1,0.1,0.1,0.2,0.2
		c0.1,0.1,0.1,0.2,0,0.4c0,0.1-0.1,0.2-0.2,0.2c-0.3,0.4-0.6,0.7-1,1l-0.1,0.1c-0.1,0.1-0.3,0.1-0.4,0c-0.7-0.5-1.3-1.1-2-1.6
		c-0.5-0.5-1-1-1.5-1.5c0,0,0-0.1-0.1-0.1c-0.2-0.2-0.2-0.3,0-0.5c0.4-0.4,0.8-0.8,1.1-1.2C-84-17.4-83.9-17.5-83.8-17.5L-83.8-17.5
		z"/>
	<path class="st2" d="M-84.2-14.2c0.3,0.3,0.7,0.6,1,0.9c-0.3,0.3-0.5,0.6-0.8,0.9c-0.6,0.7-1.2,1.4-1.8,2.1c-0.3,0.3-0.7,0.6-1,0.9
		c-0.6,0.5-1.1,1.2-1.6,1.8c-0.4,0.5-0.7,0.9-1.1,1.3c-0.1,0.1-0.1,0.1-0.3,0c-0.4-0.2-0.7-0.5-0.9-0.9c-0.1-0.1-0.1-0.2,0-0.3
		c0.5-0.5,0.9-0.9,1.4-1.3c0.7-0.6,1.3-1.3,1.8-2c0.4-0.6,0.9-1.1,1.4-1.6s1-1,1.4-1.4C-84.5-13.9-84.4-14.1-84.2-14.2z"/>
	<path class="st2" d="M-85.9-9.6c0.4-0.3,0.7-0.7,1-1c0.1,0.1,0.1,0.2,0.2,0.3c0.4,0.6,0.9,1.1,1.5,1.6c0.5,0.4,0.9,0.9,1.3,1.3
		c0.1,0.1,0.2,0.2,0,0.3c-0.3,0.3-0.5,0.5-0.8,0.8c-0.2,0.2-0.3,0.2-0.4-0.1c-0.4-0.5-0.8-1-1.2-1.5C-84.8-8.5-85.3-9.1-85.9-9.6
		L-85.9-9.6z"/>
	<path class="st2" d="M-88.3-14.2c0.6,0.6,1.1,1.2,1.7,1.8c-0.3,0.4-0.7,0.7-1,1.1c-0.6-0.6-1.1-1.3-1.7-1.9
		C-88.9-13.6-88.6-13.9-88.3-14.2z"/>
	<path class="st2" d="M-91.4-15.6c-0.1-0.1-0.3-0.3-0.4-0.4c0.3-0.4,0.7-0.6,1-0.9c0.1,0.1,0.3,0.3,0.4,0.4
		C-90.7-16.3-91.1-16-91.4-15.6z"/>
	<path class="st2" d="M-80.7-16c-0.1,0.2-0.3,0.3-0.4,0.4c-0.3-0.3-0.7-0.6-1-0.9c0.1-0.1,0.2-0.3,0.4-0.4
		C-81.4-16.7-81-16.4-80.7-16z"/>
</g>
</svg>
