<svg viewBox="0 0 340 340" xmlns="http://www.w3.org/2000/svg" aria-hidden="true">
  <rect width="340" height="340" rx="170" fill="#EDE8F7"/>
  <!-- Sombra piso -->
  <ellipse cx="170" cy="300" rx="110" ry="16" fill="#C8B8E8" opacity="0.4"/>
  <!-- Cabeza -->
  <circle cx="170" cy="95" r="38" fill="#B8A8D8"/>
  <!-- Cara -->
  <circle cx="158" cy="90" r="4" fill="white" opacity="0.8"/>
  <circle cx="182" cy="90" r="4" fill="white" opacity="0.8"/>
  <path d="M160,106 Q170,114 180,106" stroke="white" stroke-width="2.5" fill="none" stroke-linecap="round"/>
  <!-- Torso -->
  <rect x="138" y="132" width="64" height="88" rx="20" fill="#B8A8D8"/>
  <!-- Peto de trabajo -->
  <rect x="148" y="138" width="44" height="76" rx="12" fill="#A090C4"/>
  <!-- Brazo izq -->
  <rect x="86" y="146" width="58" height="20" rx="10" fill="#B8A8D8" transform="rotate(15,115,156)"/>
  <!-- Brazo der -->
  <rect x="196" y="146" width="58" height="20" rx="10" fill="#B8A8D8" transform="rotate(-12,225,156)"/>
  <!-- Manos -->
  <circle cx="95" cy="175" r="12" fill="#D4C4E8"/>
  <circle cx="247" cy="168" r="12" fill="#D4C4E8"/>
  <!-- Pierna izq -->
  <rect x="148" y="216" width="24" height="76" rx="12" fill="#A090C4" transform="rotate(-4,160,254)"/>
  <!-- Pierna der -->
  <rect x="168" y="216" width="24" height="76" rx="12" fill="#A090C4" transform="rotate(4,180,254)"/>
  <!-- Herramienta en mano derecha -->
  <g transform="translate(258,155) rotate(-30)">
    <rect x="-5" y="-32" width="10" height="48" rx="4" fill="#F0A0B0"/>
    <rect x="-10" y="-44" width="20" height="16" rx="4" fill="#E07080"/>
  </g>
  <!-- Caja de herramientas -->
  <rect x="108" y="296" width="124" height="36" rx="8" fill="#F5D980"/>
  <rect x="108" y="296" width="124" height="36" rx="8" fill="none" stroke="#E8C840" stroke-width="2"/>
  <rect x="146" y="286" width="48" height="16" rx="6" fill="#F5D980" stroke="#E8C840" stroke-width="2"/>
  <line x1="170" y1="296" x2="170" y2="332" stroke="#E8C840" stroke-width="1.5"/>
</svg>
